<?xml version="1.0" encoding="UTF-8"?>
<svg width="103px" height="54px" viewBox="0 0 103 54" version="1.1" xmlns="http://www.w3.org/2000/svg" xmlns:xlink="http://www.w3.org/1999/xlink">
    <!-- Generator: Sketch 64 (93537) - https://sketch.com -->
    <title>Group 10 Copy</title>
    <desc>Created with Sketch.</desc>
    <defs>
        <polygon id="path-1" points="0.352222222 0.365819549 24.1161111 0.365819549 24.1161111 53.0357143 0.352222222 53.0357143"></polygon>
        <polygon id="path-3" points="0.133971154 0.365819549 24.8146442 0.365819549 24.8146442 53.0357143 0.133971154 53.0357143"></polygon>
        <polygon id="path-5" points="0.00111111111 0.365819549 24.5872222 0.365819549 24.5872222 53.0357143 0.00111111111 53.0357143"></polygon>
    </defs>
    <g id="website" stroke="none" stroke-width="1" fill="none" fill-rule="evenodd">
        <g id="home" transform="translate(-673.000000, -966.000000)">
            <g id="Group-10-Copy" transform="translate(673.000000, 966.000000)">
                <g id="Group-3" transform="translate(78.000000, 0.000000)">
                    <mask id="mask-2" fill="white">
                        <use xlink:href="#path-1"></use>
                    </mask>
                    <g id="Clip-2"></g>
                    <path d="M23.3723148,37.6005248 L14.7421296,37.6005248 C14.3286111,37.6005248 13.9956481,37.2481038 13.9956481,36.8104195 L13.9956481,1.15620902 C13.9956481,0.718524812 13.66,0.363261654 13.2464815,0.363261654 L11.2218519,0.363261654 C10.8083333,0.363261654 10.4726852,0.718524812 10.4726852,1.15620902 L10.4726852,36.8104195 C10.4726852,37.2481038 10.1397222,37.6005248 9.7262037,37.6005248 L1.09601852,37.6005248 C0.685185185,37.6005248 0.352222222,37.955788 0.352222222,38.3906301 L0.352222222,40.5364195 C0.352222222,40.9741038 0.685185185,41.3293669 1.09601852,41.3293669 L9.7262037,41.3293669 C10.1397222,41.3293669 10.4726852,41.681788 10.4726852,42.1194722 L10.4726852,52.2430511 C10.4726852,52.6835774 10.8083333,53.0359985 11.2218519,53.0359985 L13.2464815,53.0359985 C13.66,53.0359985 13.9956481,52.6835774 13.9956481,52.2430511 L13.9956481,42.1194722 C13.9956481,41.681788 14.3286111,41.3293669 14.7421296,41.3293669 L23.3723148,41.3293669 C23.7831481,41.3293669 24.1161111,40.9741038 24.1161111,40.5364195 L24.1161111,38.3906301 C24.1161111,37.955788 23.7831481,37.6005248 23.3723148,37.6005248" id="Fill-1" fill="#AAB98F" mask="url(#mask-2)"></path>
                </g>
                <g id="Group-6" transform="translate(40.000000, 0.000000)">
                    <mask id="mask-4" fill="white">
                        <use xlink:href="#path-3"></use>
                    </mask>
                    <g id="Clip-5"></g>
                    <path d="M24.0394519,37.6005248 L15.0773365,37.6005248 C14.6507019,37.6005248 14.3049327,37.2481038 14.3049327,36.8104195 L14.3049327,1.15620902 C14.3049327,0.718524812 13.956375,0.363261654 13.5269519,0.363261654 L11.4244519,0.363261654 C10.9922404,0.363261654 10.6464712,0.718524812 10.6464712,1.15620902 L10.6464712,36.8104195 C10.6464712,37.2481038 10.2979135,37.6005248 9.87127885,37.6005248 L0.909163462,37.6005248 C0.482528846,37.6005248 0.133971154,37.955788 0.133971154,38.3906301 L0.133971154,40.5364195 C0.133971154,40.9741038 0.482528846,41.3293669 0.909163462,41.3293669 L9.87127885,41.3293669 C10.2979135,41.3293669 10.6464712,41.681788 10.6464712,42.1194722 L10.6464712,52.2430511 C10.6464712,52.6835774 10.9922404,53.0359985 11.4244519,53.0359985 L13.5269519,53.0359985 C13.956375,53.0359985 14.3049327,52.6835774 14.3049327,52.2430511 L14.3049327,42.1194722 C14.3049327,41.681788 14.6507019,41.3293669 15.0773365,41.3293669 L24.0394519,41.3293669 C24.468875,41.3293669 24.8146442,40.9741038 24.8146442,40.5364195 L24.8146442,38.3906301 C24.8146442,37.955788 24.468875,37.6005248 24.0394519,37.6005248" id="Fill-4" fill="#AAB98F" mask="url(#mask-4)"></path>
                </g>
                <g id="Group-9">
                    <mask id="mask-6" fill="white">
                        <use xlink:href="#path-5"></use>
                    </mask>
                    <g id="Clip-8"></g>
                    <path d="M23.815,37.6005248 L14.8872222,37.6005248 C14.4622222,37.6005248 14.115,37.2481038 14.115,36.8104195 L14.115,1.15620902 C14.115,0.718524812 13.7705556,0.363261654 13.34,0.363261654 L11.2455556,0.363261654 C10.8177778,0.363261654 10.4705556,0.718524812 10.4705556,1.15620902 L10.4705556,36.8104195 C10.4705556,37.2481038 10.1261111,37.6005248 9.70111111,37.6005248 L0.773333333,37.6005248 C0.345555556,37.6005248 0.00111111111,37.955788 0.00111111111,38.3906301 L0.00111111111,40.5364195 C0.00111111111,40.9741038 0.345555556,41.3293669 0.773333333,41.3293669 L9.70111111,41.3293669 C10.1261111,41.3293669 10.4705556,41.681788 10.4705556,42.1194722 L10.4705556,52.2430511 C10.4705556,52.6835774 10.8177778,53.0359985 11.2455556,53.0359985 L13.34,53.0359985 C13.7705556,53.0359985 14.115,52.6835774 14.115,52.2430511 L14.115,42.1194722 C14.115,41.681788 14.4622222,41.3293669 14.8872222,41.3293669 L23.815,41.3293669 C24.24,41.3293669 24.5872222,40.9741038 24.5872222,40.5364195 L24.5872222,38.3906301 C24.5872222,37.955788 24.24,37.6005248 23.815,37.6005248" id="Fill-7" fill="#AAB98F" mask="url(#mask-6)"></path>
                </g>
            </g>
        </g>
    </g>
</svg>