<?xml version="1.0" encoding="utf-8"?>
<!-- Generator: Adobe Illustrator 24.1.2, SVG Export Plug-In . SVG Version: 6.00 Build 0)  -->
<svg version="1.1" id="Calque_1" xmlns="http://www.w3.org/2000/svg" xmlns:xlink="http://www.w3.org/1999/xlink" x="0px" y="0px"
	 viewBox="0 0 103 54" style="enable-background:new 0 0 103 54;" xml:space="preserve">
<style type="text/css">
	.st0{fill-rule:evenodd;clip-rule:evenodd;fill:#AAB98F;}
</style>
<desc>Created with Sketch.</desc>
<g id="Clip-2">
</g>
<g id="Clip-5">
</g>
<g id="Clip-8">
</g>
<g>
	<path class="st0" d="M54.3,11.1v-10c0-0.4-0.3-0.8-0.8-0.8h-2.1c-0.4,0-0.8,0.4-0.8,0.8V17C50.6,20,54.3,12.4,54.3,11.1z"/>
	<path class="st0" d="M64,37.6h-9c-0.4,0-0.8-0.4-0.8-0.8V16.4c-0.2-0.2-0.4-0.4-0.6,0c-0.4,0.7-0.5,1.1-1.4,1.6
		c-0.9,0.5-1.7,2.1-1.7,3.2v15.6c0,0.4-0.3,0.8-0.8,0.8h-9c-0.4,0-0.8,0.4-0.8,0.8v2.1c0,0.4,0.3,0.8,0.8,0.8h9
		c0.4,0,0.8,0.4,0.8,0.8v10.1c0,0.4,0.3,0.8,0.8,0.8h2.1c0.4,0,0.8-0.4,0.8-0.8V42.1c0-0.4,0.3-0.8,0.8-0.8h9c0.4,0,0.8-0.4,0.8-0.8
		v-2.1C64.8,38,64.5,37.6,64,37.6z"/>
</g>
<path class="st0" d="M23.8,37.6h-1.3c-0.8,0-2.7,0.5-3.6,0.5c-0.8,0-1.7-0.5-3.1-0.5h-0.9c-0.4,0-0.8-0.4-0.8-0.8V1.2
	c0-0.4-0.3-0.8-0.8-0.8h-2.1c-0.4,0-0.8,0.4-0.8,0.8v34.6c0,0,0.5,1.8,0.2,2C10.4,38,10,38,10,38s-0.9-0.4-1.4-0.4H0.8
	C0.3,37.6,0,38,0,38.4v1.5c0.1,0.9,2,1.5,2,1.5h7.7c0.4,0,0.8,0.4,0.8,0.8v10.1c0,0.4,0.3,0.8,0.8,0.8h2.1c0.4,0,0.8-0.4,0.8-0.8
	V42.1c0-0.4,0.3-0.8,0.8-0.8h8.9c0.4,0,0.8-0.4,0.8-0.8v-2.1C24.6,38,24.2,37.6,23.8,37.6z"/>
<path class="st0" d="M101.4,37.6h-8.6c-0.4,0-0.7-0.4-0.7-0.8V23.5c0-0.7-0.7-0.8-0.7-1.2c0-0.4,0.7-2.9,0.7-3.8V1.2
	c0-0.4-0.3-0.8-0.7-0.8h-0.5c-0.5,0-0.9,1.1-1.3,1.6c-0.2,0.3-0.6,0.3-0.9,0.2v22.7c0.3,0.8,0.7,1.4,0.6,1.8
	c-0.1,0.2-0.3,0.3-0.6,0.4v9.7c0,0.4-0.3,0.8-0.7,0.8h-8.6c-0.4,0-0.7,0.4-0.7,0.8v2.1c0,0.4,0.3,0.8,0.7,0.8h8.6
	c0.4,0,0.7,0.4,0.7,0.8v10.1c0,0.4,0.3,0.8,0.7,0.8h2c0.4,0,0.7-0.4,0.7-0.8V42.1c0-0.4,0.3-0.8,0.7-0.8h8.6c0.4,0,0.7-0.4,0.7-0.8
	v-2.1C102.1,38,101.8,37.6,101.4,37.6z"/>
</svg>
