<?xml version="1.0" encoding="UTF-8"?>
<svg width="48px" height="64px" viewBox="0 0 48 64" version="1.1" xmlns="http://www.w3.org/2000/svg" xmlns:xlink="http://www.w3.org/1999/xlink">
    <!-- Generator: Sketch 64 (93537) - https://sketch.com -->
    <title>Group 8 Copy</title>
    <desc>Created with Sketch.</desc>
    <defs>
        <polygon id="path-1" points="0 0.292476829 10.764665 0.292476829 10.764665 32.990607 0 32.990607"></polygon>
    </defs>
    <g id="website" stroke="none" stroke-width="1" fill="none" fill-rule="evenodd">
        <g id="home" transform="translate(-185.000000, -1639.000000)">
            <g id="Group-8-Copy" transform="translate(185.000000, 1639.000000)">
                <path d="M37.1530677,53.228166 C37.0028594,51.0889552 37.3921747,49.0187513 37.7293768,46.9140439 C38.1094957,44.6023162 38.2443766,42.2529483 38.9095845,39.9882707 C39.0076797,39.6589201 38.8421441,39.2542893 38.8421441,38.8841619 C38.8421441,37.2750488 38.9463702,35.7067125 39.9733041,34.3485332 C40.6814287,33.4138048 40.7856549,32.272056 40.8530953,31.1146237 C40.9144048,30.0638384 41.7114281,29.7093944 42.5850884,30.2520388 C43.3299986,30.709993 43.7131829,31.4345644 43.9798792,32.2375526 C44.3385397,33.3102946 44.7002657,34.3861733 45.0098786,35.4777354 C45.1907416,36.1270266 45.3746701,36.8076846 45.3838665,37.4757959 C45.4175867,40.157651 45.9509793,42.7265859 46.7571991,45.2735641 C47.5082403,47.651162 48.1366626,50.0695366 47.9741924,52.6196515 C47.8393115,54.8059123 47.7442818,56.9921732 47.5603534,59.1752973 C47.3519011,61.6093553 46.0306816,62.8797077 43.6886592,62.9675346 C42.7322311,63.0051746 41.7849995,63.0804548 40.8347025,62.7040541 C40.1970838,62.4499836 39.7648519,62.0704462 39.2590486,61.6062186 C37.1653296,59.6708916 36.8557166,57.2305603 37.0488415,54.5926186 C37.0825617,54.1346644 37.1193474,53.6829835 37.1530677,53.228166" id="Fill-1" fill="#AAB98F"></path>
                <g id="Group-5" transform="translate(0.000000, 31.000000)">
                    <mask id="mask-2" fill="white">
                        <use xlink:href="#path-1"></use>
                    </mask>
                    <g id="Clip-4"></g>
                    <path d="M2.461225,7.11940909 C2.584725,5.59213636 2.688725,4.06168182 2.844725,2.53759091 C2.893475,2.09213636 3.059225,1.64668182 3.218475,1.2235 C3.397225,0.7685 3.715725,0.456681818 4.268225,0.440772727 C4.658225,0.428045455 5.051475,0.396227273 5.434975,0.329409091 C6.517225,0.154409091 7.297225,0.609409091 7.732725,1.52259091 C8.158475,2.42304545 8.577725,3.36168182 8.756475,4.32895455 C9.221225,6.90304545 9.585225,9.49622727 9.936225,12.0894091 C10.056475,12.9994091 9.978475,13.9316818 10.053225,14.8480455 C10.192975,16.5280455 10.374975,18.2048636 10.553725,19.8816818 C10.761725,21.7971364 10.852725,23.7030455 10.654475,25.6344091 C10.478975,27.3812273 9.750975,28.8957727 8.876725,30.3498636 C8.077225,31.6798636 6.559475,32.1603182 5.275725,32.8507727 C4.602975,33.2166818 3.705975,32.8062273 3.107975,32.2907727 C2.116725,31.4380455 1.268475,30.5407727 0.862225,29.1598636 C0.358475,27.4353182 -0.034775,25.7266818 0.000975,23.9544091 C0.026975,22.7357727 0.267475,21.5171364 0.478725,20.3112273 C0.969475,17.4316818 1.508975,14.5648636 2.006225,11.6885 C2.266225,10.1803182 2.480725,8.65940909 2.714725,7.14804545 C2.630225,7.1385 2.545725,7.12895455 2.461225,7.11940909" id="Fill-3" fill="#AAB98F" mask="url(#mask-2)"></path>
                </g>
                <path d="M29,17.7143499 C28.7582703,19.9361864 28.6341389,21.8799071 28.3074771,23.7958161 C27.9612157,25.8291519 26.5206374,27.2629935 24.8775289,28.4712523 C23.9236766,29.1727222 22.7346278,29.1201892 21.70891,28.6412119 C20.1115341,27.8964795 18.7656877,26.8303689 18.3802269,25.0627882 C18.17443,24.1141042 17.9555666,23.1345185 18.0078325,22.1827443 C18.1188975,20.0937854 18.370427,18.0110068 18.6154233,15.9282283 C18.7820208,14.5191081 19.0760164,13.1254387 19.232814,11.7163185 C19.539876,8.95988162 20.1605333,6.26215806 20.7975237,3.56134432 C21.1666515,1.99462514 22.2446352,0.940875153 23.5774151,0.0848964286 C23.7734122,-0.0418007833 24.2176721,-0.020169552 24.4365355,0.10652766 C25.1845909,0.545332638 25.8869136,1.10465448 25.9065133,2.02243672 C25.9424461,3.77456646 26.8440325,5.33510529 27.1086285,7.02852168 C27.4646898,9.29362062 28.4838745,11.4536536 28.3303434,13.7990971 C28.3140103,14.0864834 28.4577415,14.3831403 28.5067408,14.676707 C28.6896713,15.7737195 28.8628021,16.8738221 29,17.7143499" id="Fill-6" fill="#AAB98F"></path>
            </g>
        </g>
    </g>
</svg>