<?xml version="1.0" encoding="utf-8"?>
<!-- Generator: Adobe Illustrator 24.1.2, SVG Export Plug-In . SVG Version: 6.00 Build 0)  -->
<svg version="1.1" id="Calque_1" xmlns="http://www.w3.org/2000/svg" xmlns:xlink="http://www.w3.org/1999/xlink" x="0px" y="0px"
	 viewBox="0 0 210 224.69" style="enable-background:new 0 0 210 224.69;" xml:space="preserve">
<style type="text/css">
	.st0{fill:#932D2E;}
</style>
<g>
	<path class="st0" d="M92.46,199.69c0.01-1.3,0.3-2.4,1.05-3.4c0.64-0.87,1.15-1.83,1.74-2.74c0.19-0.3,0.45-0.56,0.65-0.85
		c0.14-0.2,0.22-0.44,0.36-0.65c0.33-0.48,0.61-1.02,1.03-1.4c0.45-0.4,0.93-0.73,1.08-1.35c0.03-0.14,0.14-0.3,0.26-0.38
		c1.2-0.77,1.82-2.07,2.84-3.01c0.4-0.36,0.55-0.98,0.84-1.47c0.67-1.15,1.35-2.3,2.04-3.44c0.64-1.06,1.31-2.11,1.96-3.17
		c0.05-0.09,0.15-0.21,0.13-0.27c-0.28-0.66,0.18-1.13,0.5-1.54c0.85-1.1,0.98-2.52,1.7-3.66c0.44-0.69,0.97-1.31,1.1-2.15
		c0.86-0.42,1.18-1.19,1.39-2.07c0.09-0.39,0.34-0.73,0.54-1.09c0.07-0.12,0.18-0.28,0.29-0.29c0.63-0.04,0.77-0.49,0.76-0.97
		c-0.01-0.52,0.21-0.86,0.52-1.24c0.61-0.75,1.21-1.53,1.71-2.36c0.25-0.42,0.18-1.01,0.38-1.47c0.45-1.05,1.04-2.02,1.83-2.86
		c0.2-0.22,0.34-0.5,0.49-0.76c0.28-0.52,0.59-1.02,0.79-1.57c0.38-1,1.04-1.84,1.47-2.81c0.78-1.77,1.65-3.5,2.56-5.2
		c0.44-0.82,1.08-1.54,1.59-2.33c0.27-0.43,0.52-0.89,0.68-1.37c0.47-1.43,1.42-2.59,2.17-3.86c0.64-1.08,1.02-2.24,1.36-3.43
		c0.15-0.53,0.47-1.01,0.68-1.53c0.36-0.89,0.16-1.27-0.74-1.59c-0.61-0.21-1.3-0.34-1.79-0.72c-0.87-0.68-1.93-1.08-2.67-1.96
		c-0.36-0.43-0.96-0.67-1.45-0.99c-0.67-0.43-1.33-0.86-2.01-1.27c-0.48-0.29-0.98-0.55-1.48-0.81c-0.18-0.1-0.43-0.12-0.56-0.25
		c-1.05-1.06-2.59-1.13-3.76-1.91c-0.76-0.5-1.7-0.65-2.4-1.11c-0.9-0.59-1.87-0.84-2.81-1.24c-2.27-0.96-4.65-1.29-7.08-1.45
		c-0.41-0.03-0.82-0.08-1.23-0.13c-0.39-0.04-0.77-0.12-0.95,0.4c-0.13,0.36-0.39,0.17-0.64,0.09c-0.35-0.11-0.73-0.15-1.09-0.2
		c-0.2-0.03-0.43,0.04-0.6-0.04c-0.59-0.26-1.14-0.02-1.65,0.17c-0.6,0.22-1.16,0.56-1.73,0.85c-0.11,0.06-0.23,0.11-0.36,0.15
		c-0.93,0.23-1.88,0.37-2.77,0.7c-0.81,0.3-1.57,0.15-2.35,0.03c-0.29-0.04-0.6-0.03-0.89-0.05c-0.43-0.03-0.86-0.03-1.28-0.09
		c-1.21-0.2-2.42-0.42-3.64-0.64c-0.15-0.03-0.33-0.03-0.45-0.11c-0.63-0.43-1.24-0.88-1.85-1.32c-0.13-0.09-0.24-0.21-0.38-0.26
		c-0.98-0.32-1.57-1.13-2.32-1.75c-0.64-0.52-1.32-0.99-1.96-1.51c-0.9-0.72-1.77-1.46-2.67-2.19c-0.28-0.23-0.57-0.43-0.86-0.64
		c-0.23-0.17-0.5-0.3-0.68-0.51c-0.8-0.92-1.86-1.45-2.89-2.07c-0.97-0.59-1.92-1.3-2.58-2.3c-0.11-0.17-0.35-0.32-0.55-0.33
		c-0.49-0.04-0.77-0.31-1.05-0.69c-0.18-0.25-0.53-0.53-0.79-0.52c-0.58,0.02-0.89-0.35-1.29-0.62c-0.35-0.24-0.7-0.48-1.06-0.7
		c-1.22-0.77-2.46-1.52-3.67-2.3c-0.19-0.12-0.28-0.37-0.45-0.53c-0.37-0.34-0.42-0.9-1.21-0.94c-0.63-0.04-1.23-0.78-1.83-1.23
		c-0.86-0.65-1.7-1.32-2.54-1.99c-0.36-0.28-0.7-0.58-1.07-0.85c-0.21-0.15-0.45-0.25-0.67-0.38c-0.21-0.12-0.4-0.27-0.61-0.37
		c-0.4-0.2-0.62-0.65-1.19-0.68c-0.43-0.03-0.86-0.41-1.26-0.67c-0.97-0.65-1.92-1.33-2.88-1.99c-0.02-0.01-0.04-0.03-0.07-0.04
		c-1.84-0.74-3.67-1.47-5.51-2.2c-0.26-0.11-0.6-0.14-0.78-0.32c-0.74-0.78-1.77-0.79-2.69-1.07c-0.66-0.2-1.32-0.41-1.97-0.66
		c-1.78-0.68-3.65-0.84-5.53-0.99c-0.73-0.06-1.46-0.38-2.15-0.68c-0.39-0.17-0.47-0.93-0.11-1.14c0.87-0.5,1.08-1.48,1.73-2.15
		c0.54-0.56-0.15-1.85-1-1.81c-0.73,0.03-1.24-0.2-1.73-0.68c-0.18-0.17-0.43-0.28-0.67-0.38c-0.59-0.23-0.86-0.63-0.58-1.16
		c0.58-1.1,0.35-2.32,0.64-3.46c0.27-1.07,0.51-2.14,1.06-3.11c0.09-0.16,0.21-0.32,0.23-0.49c0.15-1.03,0.72-1.87,1.2-2.76
		c0.12-0.23,0.43-0.44,0.14-0.75c-0.03-0.03-0.01-0.17,0.03-0.2c0.93-0.69,0.8-1.88,1.31-2.76c0.28-0.49,0.56-0.98,0.78-1.5
		c0.86-1.99,1.68-3.99,2.55-5.98c0.72-1.65,1.49-3.28,2.23-4.91c0.07-0.16,0.18-0.35,0.15-0.52c-0.12-0.82,0.3-1.49,0.5-2.23
		c0.22-0.83,0.27-1.72,0.32-2.58c0.06-1.06,0.23-2.07,0.73-3.04c0.46-0.89,0.77-1.86,1.22-2.75c0.32-0.64,0.72-1.26,1.11-1.87
		c0.57-0.91,1.04-1.91,1.4-2.95c0.35-1.02,0.85-1.98,1.31-2.96c0.34-0.72,0.63-1.47,1.08-2.12c0.34-0.48,0.59-0.92,0.57-1.52
		c0-0.13,0.1-0.27,0.18-0.38c0.23-0.34,0.61-0.63,0.69-1c0.23-1.06,1.24-1.57,1.63-2.49c0.03-0.06,0.19-0.12,0.26-0.09
		c0.27,0.1,0.32,0.04,0.24-0.23c-0.17-0.53,0.04-0.93,0.42-1.32c0.34-0.35,0.57-0.79,0.83-1.21c0.17-0.26,0.26-0.6,0.48-0.79
		c0.95-0.8,0.84-1.87,0.81-2.92c-0.01-0.52,0.08-0.87,0.71-0.81c0.13,0.01,0.31-0.09,0.4-0.19c0.74-0.9,1.69-0.95,2.73-0.75
		c0.32,0.06,0.67,0,1.01-0.02c2.05-0.13,4.01,0.39,5.97,0.86c0.94,0.23,1.84,0.66,2.75,1c0.14,0.05,0.3,0.08,0.45,0.12
		c1.38,0.3,2.8,0.5,4.14,0.93c0.89,0.28,1.68,0.88,2.52,1.34c0.41,0.22,0.82,0.43,1.22,0.66c0.47,0.27,0.91,0.57,1.38,0.84
		c0.17,0.1,0.38,0.15,0.58,0.19c0.25,0.05,0.24,0.04,0.5,0.39c0.05,0.06,0.18,0.1,0.27,0.09c0.95-0.06,1.7,0.4,2.45,0.89
		c0.38,0.25,0.82,0.42,1.22,0.63c0.57,0.3,1.13,0.59,1.7,0.89c1.39,0.74,2.79,1.48,4.18,2.23c0.95,0.51,1.86,1.1,2.85,1.53
		c1.14,0.5,2.14,1.2,3.18,1.86c0.66,0.42,1.41,0.71,2.13,1.05c0.97,0.46,2.07,0.69,2.79,1.58c0.08,0.1,0.19,0.2,0.31,0.23
		c1.25,0.34,2.5,0.68,3.76,1.01c0.65,0.17,1.06-0.11,1.39-0.69c0.81-1.44,1.67-2.85,2.49-4.28c0.54-0.93,1.04-1.88,1.56-2.82
		c0.5-0.89,1.01-1.77,1.53-2.65c0.09-0.15,0.24-0.28,0.39-0.37c0.46-0.31,0.85-0.67,1.02-1.22c0.06-0.18,0.22-0.41,0.39-0.46
		c1-0.29,1.72-1.11,2.64-1.48c1.14-0.46,2.38-0.66,3.6-0.89c0.91-0.17,1.82-0.13,2.77,0.03c1.44,0.26,2.93,0.24,4.38,0.42
		c1.3,0.16,2.61,0.21,3.85,0.75c0.59,0.26,1.3,0.27,1.95,0.41c0.53,0.12,1.05,0.25,1.57,0.4c0.72,0.21,1.48,0.35,2.15,0.68
		c0.94,0.47,2.11,0.33,2.88,1.17c0.12,0.12,0.32,0.32,0.29,0.4c-0.31,0.72,0.2,0.46,0.45,0.37c0.47-0.16,0.85-0.12,1.17,0.29
		c0.1,0.13,0.32,0.26,0.46,0.24c0.68-0.12,1.01,0.43,1.48,0.72c0.45,0.29,0.9,0.6,1.33,0.91c0.34,0.25,0.67,0.52,1.01,0.78
		c0.1,0.08,0.2,0.18,0.31,0.2c0.52,0.11,0.9,0.34,1.01,0.93c0.02,0.11,0.32,0.16,0.49,0.24c0.32,0.14,0.64,0.26,0.95,0.41
		c0.55,0.26,1.09,0.52,1.62,0.81c0.3,0.17,0.6,0.37,0.82,0.62c0.35,0.39,0.69,0.7,1.21,0.91c0.62,0.25,1.15,0.75,1.71,1.14
		c0.66,0.45,1.33,0.88,1.97,1.36c0.36,0.27,0.62,0.7,1.01,0.94c1.05,0.65,2.14,1.23,3.21,1.85c1.47,0.85,2.92,1.73,4.4,2.56
		c0.36,0.2,0.81,0.24,1.22,0.35c0.1,0.03,0.26-0.01,0.29,0.04c0.45,0.76,1.3,0.54,1.94,0.8c0.69,0.28,1.42,0.45,2.1,0.74
		c0.73,0.3,1.42,0.69,2.14,1.03c0.51,0.24,1.03,0.46,1.55,0.7c0.16,0.07,0.3,0.17,0.46,0.24c0.19,0.09,0.39,0.17,0.59,0.22
		c0.64,0.17,1.29,0.3,1.93,0.49c0.41,0.12,0.89,0.16,1.15,0.6c0.02,0.03,0.09,0.05,0.14,0.05c0.86,0.01,1.71,0.03,2.57,0.04
		c0.23,0,0.48-0.05,0.69,0.02c1.46,0.48,2.71,0.15,3.89-0.84c1.42-1.19,2.92-2.28,4.37-3.43c0.14-0.11,0.25-0.27,0.31-0.43
		c0.54-1.37,1.54-2.22,2.93-2.62c0.42-0.12,0.91-0.29,0.92,0.48c0,0.07,0.19,0.18,0.31,0.2c1.22,0.18,1.68,0.83,1.51,2.03
		c-0.16,1.12-0.31,2.26-0.31,3.39c0,0.77,0.27,1.54,0.43,2.31c0.03,0.15,0.1,0.31,0.09,0.45c-0.08,0.93-0.08,1.88-0.32,2.77
		c-0.15,0.57-0.68,1.04-1.01,1.57c-0.22,0.36-0.55,0.75-0.56,1.14c-0.02,0.8-0.47,1.31-1.04,1.6c-1.37,0.7-1.71,1.91-1.76,3.26
		c-0.02,0.67-0.19,1.24-0.56,1.82c-0.82,1.31-1.54,2.68-2.35,3.99c-0.65,1.05-1.4,2.05-2.06,3.1c-0.84,1.35-1.65,2.73-2.44,4.12
		c-0.47,0.82-0.86,1.68-1.29,2.52c-0.01,0.02-0.02,0.06-0.04,0.07c-1.16,0.65-1.51,1.96-2.33,2.89c-0.26,0.29-0.36,0.72-0.55,1.08
		c-0.56,1.01-1.13,2.01-1.69,3.02c-0.83,1.49-1.64,2.99-2.5,4.46c-0.51,0.87-1.16,1.65-1.67,2.52c-0.69,1.19-1.87,2.08-2.16,3.54
		c-0.09,0.42-0.54,0.76-0.73,1.17c-0.31,0.68-0.51,1.4-0.81,2.09c-0.28,0.64-0.62,1.25-0.95,1.86c-0.45,0.84-0.89,1.68-1.36,2.51
		c-0.3,0.53-0.67,1.03-0.96,1.57c-0.28,0.52-0.5,1.07-0.77,1.59c-0.2,0.39-0.49,0.73-0.69,1.11c-0.29,0.54-0.54,1.1-0.8,1.66
		c-0.05,0.12-0.06,0.26-0.12,0.37c-0.62,0.98-1.22,1.98-1.9,2.91c-0.24,0.33-0.66,0.58-1.05,0.76c-0.56,0.25-1.18,0.36-1.73,0.62
		c-0.35,0.17-0.74,0.46-0.88,0.79c-0.35,0.78-0.82,1.45-1.36,2.11c-0.61,0.75-1.06,1.65-1.52,2.51c-0.54,1-0.99,2.05-1.54,3.05
		c-0.4,0.74-0.93,1.41-1.35,2.14c-0.32,0.56-0.57,1.15-0.8,1.75c-0.67,1.7-1.28,3.43-1.98,5.12c-0.22,0.53-0.64,0.98-0.97,1.47
		c-0.07,0.1-0.19,0.19-0.22,0.3c-0.58,1.99-1.59,3.79-2.55,5.6c-0.33,0.61-0.64,1.24-0.94,1.87c-0.11,0.23-0.14,0.49-0.2,0.74
		c-0.07,0.27-0.07,0.59-0.21,0.82c-0.36,0.62-0.81,1.2-0.56,2c0.04,0.12-0.12,0.34-0.24,0.46c-0.59,0.58-1.09,1.19-1.35,2.02
		c-0.18,0.59-0.62,1.11-0.94,1.66c-0.61,1.05-1.39,2.03-1.8,3.15c-0.47,1.27-1.43,2.35-1.54,3.77c-0.01,0.14-0.14,0.27-0.22,0.4
		c-0.07,0.1-0.2,0.18-0.26,0.29c-0.52,0.99-1.07,1.97-1.53,2.99c-0.46,1.02-0.84,2.09-1.25,3.14c-0.04,0.1-0.11,0.2-0.11,0.29
		c0.08,0.89-0.44,1.46-0.98,2.08c-0.51,0.59-0.81,1.36-1.24,2.03c-0.21,0.33-0.56,0.57-0.77,0.91c-0.32,0.53-0.58,1.09-0.84,1.66
		c-0.51,1.13-1,2.26-1.5,3.39c-0.03,0.07-0.08,0.13-0.14,0.19c-1.36,1.43-2.21,3.22-3.34,4.8c-0.79,1.1-1.78,2.06-2.67,3.09
		c-0.34,0.39-0.65,0.81-0.96,1.22c-0.74,0.99-1.5,1.97-2.21,2.98c-0.46,0.65-0.81,1.38-1.26,2.04c-0.38,0.56-0.62,1.28-1.45,1.4
		c-0.1,0.01-0.26,0.16-0.27,0.25c-0.13,1.05-1.07,1.63-1.48,2.51c-0.38,0.82-0.79,1.62-1.19,2.42c-0.47,0.95-0.93,1.91-1.43,2.84
		c-0.37,0.68-0.8,1.32-1.2,1.98c-0.01,0.02-0.03,0.05-0.03,0.07c0.17,0.99-0.58,1.59-1,2.32c-0.23,0.41-0.66,0.71-0.98,1.08
		c-0.32,0.36-0.62,0.74-0.93,1.12c-0.37,0.44-0.7,0.94-1.12,1.32c-0.48,0.43-1.83,0.31-2.33-0.15c-0.21-0.19-0.43-0.39-0.6-0.61
		c-0.24-0.31-0.46-0.56-0.9-0.36c-0.1,0.04-0.3-0.05-0.41-0.14c-0.71-0.53-1.5-0.8-2.37-0.8c-0.31,0-0.52,0.1-0.38-0.4
		C92.73,200.41,92.52,200,92.46,199.69z M142.51,38.13c-0.07-0.19-0.13-0.4-0.23-0.57c-0.05-0.08-0.23-0.19-0.27-0.16
		c-0.57,0.35-0.71-0.16-0.95-0.46c-0.13-0.16-0.19-0.44-0.34-0.49c-0.65-0.22-0.91-0.59-1.19-1.27c-0.35-0.85-1.34-1.27-2.36-1.34
		c-0.52-0.04-1.06-0.09-1.53-0.28c-0.25-0.1-0.37-0.33-0.56,0.03c-0.12-0.06-0.35-0.17-0.35-0.18c0.23-0.54,0.04-0.63-0.45-0.46
		c-0.05,0.02-0.14-0.08-0.21-0.08c-0.83-0.05-0.85-0.88-1.27-1.33c-0.23-0.25-0.35-0.32-0.69-0.27c-0.3,0.05-0.67,0-0.93-0.15
		c-0.66-0.36-1.27-0.81-1.92-1.21c-0.22-0.13-0.47-0.23-0.72-0.3c-0.68-0.19-1.28-0.66-2.04-0.58c-0.09,0.01-0.19-0.17-0.3-0.23
		c-0.11-0.07-0.23-0.15-0.35-0.15c-0.91-0.04-1.79-0.21-2.67-0.49c-0.65-0.21-1.37-0.21-2.04-0.36c-0.86-0.2-1.71-0.45-2.57-0.67
		c-0.07-0.02-0.16-0.02-0.23,0.01c-1.06,0.49-2.18,0.21-3.27,0.26c-0.4,0.02-0.89-0.02-1.21-0.23c-0.77-0.52-1.45-0.13-2.14,0.08
		c-0.65,0.19-0.7,0.43-0.57,1.12c0.1,0.53,0.37,0.83,0.89,0.94c0.1,0.02,0.18,0.15,0.27,0.23c-0.1,0.11-0.17,0.27-0.29,0.31
		c-0.13,0.05-0.3,0.02-0.45,0c-0.7-0.11-1.37-0.08-2.05,0.13c-1.16,0.36-2.09,0.87-2.59,2.11c-0.47,1.17-0.29,2.48-0.89,3.6
		c-0.01,0.02,0,0.05,0,0.08c-0.05,0.33-0.07,0.66-0.15,0.98c-0.17,0.72-0.39,1.43-0.55,2.15c-0.23,0.98-0.4,1.97-0.64,2.95
		c-0.1,0.39-0.31,0.75-0.46,1.13c-0.05,0.12-0.11,0.25-0.09,0.36c0.13,0.87-0.38,1.53-0.72,2.25c-0.38,0.81-0.82,1.63-1.01,2.49
		c-0.2,0.9-0.72,1.59-1.12,2.35c-0.29,0.54-0.66,1.04-1.01,1.55c-0.44,0.63-0.89,1.25-1.34,1.87c-0.1,0.14-0.26,0.27-0.3,0.43
		c-0.24,0.9-0.69,1.65-1.43,2.23c-0.16,0.13-0.37,0.26-0.43,0.44c-0.33,0.89-0.99,1.53-1.58,2.23c-0.33,0.39-0.73,0.72-1.05,1.12
		c-0.69,0.87-1.25,1.86-2.03,2.63c-0.71,0.7-1.05,1.56-1.54,2.36c-0.65,1.05-1.41,2.04-2.13,3.06c-0.13,0.19-0.31,0.35-0.44,0.54
		c-0.62,0.92-1.22,1.85-1.84,2.76C86.1,71.78,85.9,71.9,85.73,72c-0.47,0.28-0.73,0.68-0.92,1.2c-0.11,0.3-0.43,0.52-0.66,0.76
		c-0.1,0.1-0.22,0.19-0.33,0.28c-0.55,0.5-0.82,1.14-1.07,1.82c-0.36,1.01-0.36,2.03-0.28,3.06c0.06,0.68,0.35,0.88,1.04,0.83
		c0.79-0.06,1.58-0.21,2.37-0.25c0.56-0.03,1.13,0.17,1.67,0.09c0.81-0.12,1.45,0.22,2.11,0.55c0.12,0.06,0.23,0.13,0.35,0.16
		c2,0.58,3.71,1.75,5.53,2.7c1.28,0.67,2.58,1.33,3.62,2.37c0.07,0.07,0.19,0.08,0.28,0.13c0.98,0.57,1.98,1.11,2.94,1.71
		c1.09,0.68,2.15,1.43,3.24,2.11c1.47,0.92,2.97,1.79,4.43,2.72c1.71,1.09,3.38,2.25,5.08,3.35c1.6,1.03,3.22,2.05,4.86,3.03
		c1.24,0.74,2.54,1.38,3.79,2.1c1.35,0.78,2.79,1.32,4.3,1.72c0.67,0.18,1.3,0.5,1.95,0.75c0.96,0.37,1.92,0.76,2.9,1.08
		c0.9,0.3,1.83,0.5,2.73,0.79c0.96,0.31,1.89,0.7,2.84,1.02c1.02,0.34,2.06,0.63,3.08,0.98c0.32,0.11,0.46-0.01,0.49-0.28
		c0.06-0.5,0.12-1,0.12-1.5c0-0.71,0.31-1.05,0.97-0.93c0.53,0.09,1.04,0.27,1.57,0.38c0.25,0.05,0.58,0.17,0.75,0.06
		c0.66-0.44,1.29-0.31,1.99-0.15c0.77,0.17,1.24,0.69,1.77,1.16c0.1,0.09,0.19,0.34,0.14,0.42c-0.46,0.67,0.19,0.49,0.41,0.49
		c0.66,0.01,1.02-0.5,1.29-0.99c0.93-1.66,1.91-3.3,2.66-5.04c0.66-1.53,1.67-2.82,2.45-4.26c0.09-0.16,0.23-0.28,0.35-0.42
		c0.51-0.65,1.03-1.28,1.51-1.95c0.51-0.71,1.01-1.43,1.48-2.18c0.67-1.06,1.71-1.88,2.07-3.14c0.03-0.12,0.15-0.21,0.23-0.31
		c0.46-0.57,0.97-1.11,1.36-1.72c0.96-1.5,1.9-3.01,2.77-4.55c0.74-1.32,1.29-2.76,2.57-3.71c0.08-0.06,0.13-0.16,0.17-0.26
		c0.44-0.91,0.83-1.84,1.31-2.72c0.44-0.79,0.96-1.54,1.49-2.28c0.38-0.53,0.94-0.96,1.2-1.54c0.79-1.71,2.23-2.96,3.16-4.56
		c0.54-0.93,1.26-1.76,1.79-2.7c0.93-1.67,1.77-3.39,2.99-4.89c0.21-0.26,0.4-0.54,0.55-0.83c0.61-1.19,1.21-2.4,1.81-3.6
		c0.3-0.6,0.2-1.07-0.28-1.53c-0.9-0.85-3.33-1.19-4.29-0.44c-0.15,0.12-0.44,0.14-0.65,0.12c-1.12-0.14-2.24-0.3-3.35-0.48
		c-0.33-0.05-0.76-0.02-0.8-0.54c0-0.04-0.2-0.08-0.31-0.11c-0.31-0.09-0.61-0.17-0.92-0.26c-0.24-0.08-0.48-0.25-0.71-0.23
		c-0.44,0.03-0.75-0.1-1.12-0.36c-0.24-0.16-0.75,0.08-1.14,0.1c-0.14,0.01-0.28-0.13-0.43-0.16c-0.77-0.14-1.45-0.62-2.29-0.49
		c-0.47,0.07-1.04,0.1-1.44-0.1c-0.53-0.28-0.97-0.76-1.38-1.23c-0.22-0.25-0.3-0.61-0.47,0c-0.08-0.04-0.23-0.07-0.24-0.13
		c-0.11-0.57-0.61-0.67-1.02-0.83c-0.4-0.16-0.83-0.29-1.25-0.31c-0.45-0.02-0.85,0.02-0.99-0.53c-0.01-0.04-0.21-0.09-0.29-0.06
		c-0.77,0.35-1.31,0.02-1.82-0.53c-0.1-0.11-0.35-0.08-0.51-0.14c-0.68-0.26-1.47-0.32-1.89-1.08c-0.07-0.13-0.52-0.01-0.74-0.12
		c-0.2-0.1-0.32-0.35-0.48-0.53c-0.01-0.01-0.09,0.05-0.14,0.05c-0.49-0.05-1.01-0.01-1.45-0.19c-0.61-0.25-1.48-0.28-1.55-1.25
		c0-0.05-0.26-0.09-0.41-0.12c-0.3-0.05-0.79,0.03-0.88-0.13c-0.24-0.43-0.64-0.48-0.99-0.67c-0.23-0.13-0.4-0.36-0.59-0.56
		c-0.12-0.13-0.19-0.36-0.32-0.4c-0.59-0.16-0.99-0.63-1.5-0.88c-0.59-0.29-0.92-0.71-1.19-1.24c-0.21-0.41-1.23-1.03-1.67-0.96
		c-0.55,0.09-0.83-0.16-1-0.64c0.15,0.03,0.31,0.12,0.45,0.09c0.21-0.05,0.4-0.17,0.6-0.26c-0.2-0.01-0.4-0.06-0.59-0.03
		C142.81,37.94,142.66,38.06,142.51,38.13z M83.44,100.08c2-0.06,3.36-1.25,3.16-2.66c-0.13-0.9-0.6-1.8-1.09-2.59
		c-0.51-0.82-1.24-1.49-1.85-2.25c-0.29-0.36-0.64-0.71-0.78-1.13c-0.38-1.14-1.01-2.09-1.93-2.83c-0.58-0.47-0.82-1.07-0.93-1.79
		c-0.11-0.7-0.12-1.47-0.68-2.03c-1.05-1.05-1.46-2.37-1.55-3.79c-0.04-0.66-0.09-1.38,0.12-1.98c0.34-0.99,1.17-1.66,1.99-2.3
		c0.37-0.29,0.71-0.64,0.99-1.03c0.68-0.94,1.27-1.94,1.97-2.86c0.65-0.86,1.43-1.63,2.09-2.49c0.97-1.27,1.95-2.55,2.79-3.9
		c0.71-1.14,1.39-2.26,2.21-3.34c0.78-1.02,1.66-2.03,2-3.34c0.04-0.17,0.21-0.3,0.27-0.47c0.37-1.07,1.23-1.85,1.63-2.95
		c0.64-1.74,1.64-3.34,2.95-4.71c0.19-0.2,0.38-0.43,0.51-0.68c0.48-0.93,0.93-1.87,1.38-2.82c0.32-0.68,0.64-1.37,0.44-2.16
		c-0.16-0.64-0.7-1.04-1.32-1.09c-1.27-0.09-2.56-0.13-3.67-0.93c-0.44-0.31-0.94-0.56-1.45-0.73c-0.83-0.29-1.37-0.85-1.86-1.56
		c-0.29-0.42-0.7-0.86-1.15-1.07c-1.28-0.58-2.62-1.03-3.64-2.07c-0.1-0.1-0.29-0.21-0.41-0.19c-0.42,0.06-0.66-0.19-0.92-0.45
		c-0.12-0.12-0.3-0.2-0.46-0.28c-1.01-0.51-2.02-1.02-3.03-1.53c-0.09-0.05-0.17-0.12-0.24-0.19c-0.52-0.51-1.24-0.82-1.61-1.49
		c-0.06-0.1-0.2-0.23-0.29-0.23c-0.78,0.03-1.29-0.45-1.82-0.91c-0.21-0.18-0.5-0.26-0.75-0.38c-0.69-0.33-1.46-0.56-2.07-1
		c-0.51-0.37-0.97-0.65-1.61-0.64c-0.14,0-0.29-0.08-0.43-0.14c-1.25-0.51-2.22-1.62-3.73-1.62c-0.41,0-0.88-0.33-1.21-0.63
		c-0.86-0.79-1.77-1.37-2.98-1.48c-0.44-0.04-0.85-0.39-1.33-0.1c-0.03,0.02-0.1-0.02-0.15-0.03c-0.81-0.23-1.61-0.51-2.44-0.68
		c-1.21-0.24-2.43-0.46-3.65-0.58c-0.52-0.05-1.02,0.02-1.47-0.32c-0.13-0.09-0.35-0.09-0.53-0.08c-0.93,0.06-1.86,0.14-2.78,0.19
		c-0.76,0.04-1.54,0.18-2.26,0.04c-0.57-0.11-0.66,0.43-1.04,0.45c-0.7,0.04-0.82,0.86-1.43,1.01c-0.05,0.01-0.08,0.23-0.08,0.35
		c0.01,0.74-0.3,1.28-0.92,1.68c-0.28,0.18-0.59,0.38-0.74,0.66c-0.19,0.36-0.13,0.4-0.51,0.34c-0.45-0.07-0.6,0.08-0.42,0.51
		c0.06,0.14,0.12,0.28,0.13,0.43c0.02,0.19,0.03,0.41-0.04,0.58c-0.07,0.18-0.26,0.32-0.37,0.49c-0.15,0.24-0.28,0.29-0.46,0.03
		c-0.34-0.47-0.53-0.13-0.64,0.16c-0.07,0.18,0.04,0.42-0.02,0.6c-0.13,0.34-0.28,0.9-0.49,0.94c-0.32,0.05-0.36,0.12-0.29,0.34
		c0.31,0.96-0.35,1.64-0.66,2.42c-0.2,0.49-0.58,0.93-0.67,1.43c-0.12,0.69-0.6,1.21-0.71,1.89c-0.03,0.17-0.37,0.31-0.58,0.44
		c-0.1,0.06-0.23,0.08-0.35,0.12c0.11,0.06,0.25,0.09,0.34,0.18c0.06,0.07,0.1,0.2,0.08,0.3c-0.04,0.24-0.11,0.47-0.19,0.7
		c-0.18,0.5-0.29,1.05-0.57,1.5c-0.35,0.58-0.85,1.08-1.26,1.64c-0.12,0.16-0.24,0.37-0.23,0.56c0.06,0.85-0.4,1.54-0.73,2.24
		c-0.5,1.08-0.79,2.19-0.89,3.34c-0.1,1.16-0.06,2.33-0.09,3.49c-0.01,0.44,0.08,0.95-0.11,1.3c-0.57,1.07-0.76,2.35-1.73,3.21
		c-0.11,0.1-0.08,0.34-0.13,0.51c-0.25,0.8-0.45,1.63-0.79,2.39c-0.53,1.17-1.17,2.29-1.75,3.43c-0.1,0.2-0.12,0.44-0.18,0.67
		c-0.07,0.25-0.08,0.53-0.22,0.74c-0.61,0.9-1.16,1.82-1.38,2.9c-0.03,0.14-0.16,0.26-0.24,0.39c-0.15,0.26-0.29,0.53-0.44,0.8
		c-0.11,0.2-0.2,0.41-0.31,0.6c-0.36,0.59-0.95,1.05-0.76,1.92c0.07,0.34-0.03,0.86-0.54,1.1c-0.18,0.09-0.29,0.45-0.32,0.7
		c-0.04,0.43,0.16,0.97-0.03,1.3c-0.29,0.51-0.17,0.96-0.13,1.46c0.11,1.23,0.78,1.68,1.96,1.3c0.17-0.05,0.35-0.06,0.53-0.07
		c1.39-0.06,2.78-0.13,4.18-0.16c0.35-0.01,0.71,0.1,1.05,0.17c0.2,0.04,0.38,0.17,0.58,0.2c0.95,0.13,1.9,0.21,2.85,0.37
		c1.03,0.18,2.07,0.36,3.08,0.66c1.3,0.39,2.73,0.23,3.94,0.98c0.1,0.06,0.26,0.01,0.38,0.04c0.35,0.08,0.71,0.14,1.05,0.26
		c1.24,0.46,2.49,0.93,3.72,1.42c1.19,0.48,2.36,0.97,3.54,1.48c1.03,0.45,2.05,0.93,3.07,1.39c0.19,0.09,0.39,0.15,0.57,0.25
		c1.08,0.66,2.24,1.18,3.34,1.78c1.39,0.76,2.8,1.51,4.12,2.42c1.23,0.84,2.56,1.52,3.77,2.42c0.93,0.69,2.03,1.16,3.03,1.76
		c0.37,0.22,0.7,0.52,1.05,0.78c0.35,0.26,0.67,0.57,1.06,0.75c1.28,0.6,2.65,1.01,3.75,1.97c0.06,0.05,0.13,0.08,0.21,0.11
		c1.1,0.37,2.19,0.77,3.3,1.11C81.98,99.74,82.91,99.94,83.44,100.08z M97.86,198.62c0.02,0.05,0.03,0.1,0.05,0.14
		c0.59-0.22,1.32-0.29,1.75-0.68c0.61-0.56,1-1.36,1.46-2.07c0.6-0.93,0.64-2.13,1.48-2.94c0.03-1,0.9-1.49,1.36-2.23
		c0.67-1.08,1.41-2.11,2.12-3.17c0.07-0.1,0.08-0.24,0.14-0.36c0.14-0.33,0.26-0.67,0.45-0.97c0.44-0.7,0.92-1.37,1.36-2.06
		c0.24-0.38,0.4-0.81,0.64-1.19c0.53-0.85,1.06-1.7,1.64-2.52c0.87-1.21,1.26-2.73,2.46-3.72c0.07-0.06,0.1-0.19,0.1-0.28
		c0.01-0.87,0.58-1.48,0.98-2.16c0.67-1.16,1.45-2.25,2.08-3.43c0.31-0.58,0.74-0.96,1.23-1.34c0.56-0.43,1.16-0.88,1.53-1.46
		c0.52-0.81,1.02-1.71,1.2-2.63c0.2-1.04,0.81-1.83,1.29-2.68c0.58-1.04,1.5-1.89,2.22-2.85c0.5-0.68,0.97-1.39,1.38-2.13
		c0.53-0.97,0.97-1.98,1.45-2.97c0.03-0.07,0.08-0.14,0.09-0.21c0.07-1.08,0.7-1.93,1.22-2.81c0.73-1.23,1.24-2.56,1.77-3.87
		c0.13-0.31,0.21-0.63,0.36-0.92c0.57-1.03,1.18-2.04,1.75-3.07c0.19-0.34,0.3-0.71,0.49-1.05c0.26-0.46,0.47-1.05,0.87-1.33
		c0.89-0.6,1.14-1.56,1.6-2.4c0.42-0.76,0.64-1.63,0.96-2.44c0.32-0.81,0.51-1.75,1.05-2.39c0.59-0.7-0.03-1.81,0.94-2.27
		c-0.22-0.68,0.41-1.06,0.58-1.61c0.39-1.26,0.82-2.51,1.24-3.76c0.19-0.56,0.26-1.22,0.61-1.65c0.64-0.77,0.76-1.74,1.19-2.57
		c0.57-1.09,1.13-2.19,1.7-3.28c0.06-0.11,0.2-0.17,0.27-0.27c0.18-0.24,0.36-0.48,0.51-0.74c0.65-1.11,1.26-2.24,1.95-3.32
		c0.54-0.84,1.21-1.6,1.78-2.42c0.5-0.73,0.19-1.62-0.55-1.73c-0.36-0.06-0.71-0.1-1.07-0.11c-0.55-0.02-1.59,0.78-1.7,1.31
		c-0.17,0.85-0.33,1.71-0.47,2.57c-0.08,0.5-0.2,0.94-0.63,1.28c-0.2,0.16-0.27,0.48-0.4,0.73c-0.27,0.52-0.43,1.15-0.83,1.55
		c-1.24,1.26-2.29,2.64-3.01,4.27c-0.57,1.27-1.14,2.54-1.71,3.81c-0.06,0.14-0.13,0.3-0.25,0.38c-0.87,0.53-1.34,1.41-1.84,2.23
		c-0.59,0.97-1.05,2.02-1.59,3.02c-0.46,0.86-1,1.68-1.45,2.54c-0.75,1.44-1.48,2.9-2.2,4.36c-0.38,0.76-0.73,1.53-1.08,2.3
		c-0.37,0.8-0.58,1.71-1.1,2.39c-1.1,1.44-1.71,3.14-2.62,4.68c-0.93,1.55-1.44,3.35-2.13,5.03c-0.11,0.26-0.17,0.57-0.35,0.77
		c-0.93,1.02-1.04,2.54-2.15,3.45c-0.13,0.1-0.15,0.32-0.24,0.48c-0.74,1.32-1.48,2.64-2.23,3.96c-0.14,0.25-0.3,0.48-0.44,0.73
		c-0.36,0.65-0.71,1.31-1.08,1.95c-0.27,0.47-0.55,0.93-0.87,1.37c-0.74,1.03-1.12,2.32-2.18,3.13c-0.11,0.09-0.15,0.27-0.23,0.39
		c-0.22,0.34-0.37,0.79-0.68,0.98c-0.79,0.48-1.08,1.34-1.47,2.04c-0.82,1.48-1.39,3.09-2.09,4.64c-0.3,0.66-0.59,1.34-1.04,1.9
		c-0.66,0.82-0.9,1.93-1.8,2.58c-0.1,0.08-0.12,0.28-0.18,0.42c-0.3,0.74-0.53,1.5-0.91,2.2c-0.27,0.5-0.54,0.92-0.44,1.54
		c0.05,0.3-0.2,0.67-0.36,1c-0.11,0.23-0.35,0.41-0.42,0.65c-0.39,1.28-1.35,2.16-2.14,3.17c-0.65,0.82-1.21,1.72-1.8,2.59
		c-0.59,0.86-1.17,1.73-1.74,2.6c-0.35,0.54-0.78,1.05-1,1.64c-0.28,0.74-0.01,1.36,0.85,1.29
		C97.65,198.59,97.75,198.61,97.86,198.62z M43.85,84.2c-1.04-0.01-1.31,0.28-0.97,0.86c0.19,0.32,0.48,0.61,0.78,0.84
		c0.87,0.68,1.82,1.25,2.63,1.99c1,0.91,1.89,1.94,2.81,2.94c0.32,0.35,0.59,0.76,0.86,1.17c0.07,0.11,0.1,0.32,0.04,0.42
		c-0.04,0.08-0.27,0.1-0.39,0.07c-0.42-0.11-0.84-0.26-1.26-0.4c-0.4-0.13-0.87-0.16-1.17-0.4c-0.78-0.61-1.59-1.23-2.22-1.99
		c-1.38-1.69-3.18-2.8-5.06-3.79c-1.16-0.61-2.4-1.06-3.63-1.5c-0.24-0.09-0.59,0.16-0.89,0.26c0.14,0.23,0.22,0.53,0.42,0.68
		c0.44,0.32,0.9,0.73,1.4,0.8c1.24,0.18,2.07,1.01,2.92,1.74c0.9,0.77,1.95,1.4,2.62,2.44c0.17,0.26,0.56,0.36,0.82,0.56
		c0.34,0.27,0.88,0.52,0.95,0.85c0.23,1.17,1.46,1.42,1.95,2.33c0.05,0.09,0.23,0.15,0.34,0.14c0.73-0.05,1.27,0.36,1.8,0.76
		c0.78,0.58,1.53,1.21,2.34,1.74c1.48,0.98,3.02,1.89,4.5,2.87c0.8,0.53,1.53,1.14,2.29,1.72c1.12,0.85,2.17,1.82,3.36,2.54
		c0.91,0.54,1.84,1.03,2.66,1.71c0.36,0.3,0.86,0.42,1.25,0.69c0.74,0.49,1.45,1.04,2.18,1.54c0.74,0.51,1.53,0.95,2.25,1.49
		c0.91,0.67,1.76,1.43,2.67,2.11c1.82,1.36,3.75,2.57,5.34,4.21c0.11,0.11,0.24,0.2,0.36,0.29c0.79,0.62,1.63,1.18,2.35,1.86
		c1.17,1.1,2.43,2.07,3.83,2.85c0.75,0.42,1.54,0.84,2.48,0.69c0.48-0.07,0.48-0.25,0.34-0.61c-0.37-0.99-0.73-1.98-1.08-2.97
		c-0.24-0.67-0.72-1.09-1.31-1.45c-0.45-0.27-0.86-0.64-1.25-1c-0.36-0.32-0.67-0.7-1.02-1.04c-0.39-0.4-0.8-0.78-1.19-1.18
		c-0.25-0.26-0.45-0.58-0.72-0.8c-1.16-0.94-2.35-1.85-3.53-2.77c-0.06-0.05-0.12-0.13-0.18-0.14c-0.14-0.03-0.33-0.08-0.42-0.01
		c-0.09,0.07-0.14,0.29-0.1,0.41c0.1,0.29,0.21,0.6,0.4,0.83c0.8,0.98,1.66,1.92,2.45,2.9c0.21,0.25,0.29,0.62,0.39,0.94
		c0.04,0.13-0.01,0.28-0.01,0.43c-0.15-0.07-0.35-0.11-0.46-0.23c-0.56-0.57-1.08-1.18-1.64-1.74c-1.3-1.3-2.61-2.61-3.95-3.87
		c-0.31-0.3-0.77-0.44-1.12-0.7c-0.6-0.44-1.13-0.97-1.75-1.37c-0.92-0.6-1.98-1.01-2.56-2.05c-0.08-0.15-0.26-0.26-0.41-0.35
		c-1.12-0.69-1.99-1.62-2.76-2.68c-0.19-0.27-0.47-0.48-0.73-0.69c-0.39-0.32-0.8-0.62-1.2-0.93c-0.12-0.09-0.2-0.28-0.32-0.31
		c-0.55-0.13-0.68-0.54-0.82-1.01c-0.25-0.85-0.59-1.65-1.48-2.09c-0.47-0.23-0.9-0.58-1.31-0.92c-0.38-0.31-0.67-0.74-1.07-1.01
		c-0.67-0.46-1.11-1.07-1.4-1.81c-0.31-0.79-0.79-1.43-1.68-1.67c-0.21-0.06-0.37-0.33-0.53-0.52c-0.39-0.44-0.71-0.98-1.18-1.32
		c-0.96-0.7-2-1.29-3-1.94c-0.26-0.17-0.48-0.39-0.73-0.58c-0.24-0.17-0.48-0.33-0.73-0.48c-0.77-0.44-1.62-0.78-2.29-1.33
		C45.34,84.59,44.51,84.35,43.85,84.2z M95.87,94.17c-0.07,0.02-0.15,0.02-0.21,0.05c-0.7,0.34-0.93,1.58-0.39,2.14
		c0.11,0.11,0.22,0.22,0.31,0.34c0.81,1.07,1.6,2.15,2.41,3.23c0.36,0.47,0.7,0.97,1.12,1.39c1.03,1.05,2.11,2.05,3.14,3.1
		c0.65,0.66,1.23,1.39,1.88,2.05c1,1,2.07,1.93,3.07,2.94c0.96,0.97,1.85,2,2.77,3c0.75,0.81,1.48,1.63,2.27,2.4
		c0.8,0.77,1.64,1.49,2.48,2.22c0.23,0.2,0.5,0.37,0.77,0.52c1.35,0.75,2.7,1.48,4.04,2.25c1.03,0.59,2.05,1.2,3.05,1.85
		c0.65,0.43,1.24,0.92,1.42,1.76c0.05,0.25,0.27,0.49,0.45,0.69c0.33,0.36,0.67,0.72,1.05,1.03c0.63,0.52,1.25,1.08,1.96,1.48
		c0.72,0.4,1.37,0.77,1.63,1.63c0.16,0.52,0.49,0.54,0.85,0.11c0.3-0.35,0.52-0.78,0.85-1.1c0.6-0.58,0.43-1.13,0.06-1.73
		c-0.45-0.74-1.01-1.47-1.24-2.28c-0.3-1.04-0.98-1.6-1.83-2.08c-0.75-0.43-1.59-0.63-2.28-1.24c-0.43-0.38-0.91-0.71-1.31-1.15
		c-0.53-0.59-0.98-1.36-2.01-1.21c-0.17,0.02-0.42-0.25-0.57-0.44c-0.52-0.69-1.02-1.41-1.53-2.11c-0.06-0.08-0.15-0.14-0.24-0.19
		c-1.07-0.63-1.98-1.53-3.23-1.84c-0.14-0.04-0.3-0.24-0.34-0.4c-0.19-0.66-0.71-1.01-1.23-1.35c-0.39-0.26-0.65-0.55-0.71-1.04
		c-0.08-0.75-0.61-1.26-1.24-1.46c-0.67-0.21-0.89-0.63-1.07-1.19c-0.04-0.12-0.03-0.28-0.11-0.35c-0.88-0.7-1.78-1.39-2.66-2.09
		c-0.43-0.34-0.89-0.64-1.25-1.04c-0.76-0.82-1.44-1.73-2.22-2.54c-0.79-0.84-1.66-1.61-2.49-2.41c-0.34-0.32-0.66-0.65-1.01-0.96
		c-0.66-0.6-1.23-1.32-2.19-1.52c-0.28-0.06-0.56-0.28-0.75-0.5c-0.85-1.03-2.2-1.19-3.24-1.89C96.05,94.18,95.96,94.19,95.87,94.17
		z M125.71,127.74c-0.01-0.68-0.18-1.08-0.66-1.39c-0.69-0.44-1.32-0.98-1.99-1.46c-0.18-0.13-0.41-0.21-0.61-0.33
		c-0.77-0.46-1.56-0.9-2.3-1.4c-1-0.67-1.96-1.4-2.96-2.08c-0.51-0.35-1.09-0.59-1.59-0.95c-0.84-0.6-1.66-1.23-2.44-1.89
		c-1.06-0.9-2.06-1.85-3.11-2.76c-0.86-0.75-1.74-1.5-2.63-2.22c-0.64-0.52-1.55-0.77-1.86-1.58c-0.26-0.68-0.74-1.1-1.23-1.56
		c-0.81-0.76-1.68-1.46-2.41-2.28c-1.05-1.18-2.1-2.34-3.41-3.23c-0.28-0.19-0.51-0.44-0.76-0.67c-0.64-0.62-1.18-1.36-2.14-1.57
		c-0.26-0.06-0.46-0.32-0.71-0.46c-0.69-0.4-1.37-0.83-2.08-1.18c-0.44-0.22-2.09,1.15-1.94,1.63c0.19,0.6,0.44,1.23,0.83,1.71
		c0.81,1.03,1.77,1.94,2.59,2.96c1.43,1.77,3,3.41,4.75,4.86c0.8,0.67,1.5,1.48,2.57,1.82c0.62,0.2,1.2,0.6,1.7,1.02
		c1.29,1.06,2.39,2.35,3.93,3.11c0.35,0.17,0.63,0.52,0.9,0.83c1.18,1.32,2.45,2.5,4.22,3.03c0.91,0.28,1.81,0.63,2.66,1.04
		c1.28,0.61,2.5,1.33,3.77,1.95c1.92,0.93,3.9,1.74,5.65,3c0.22,0.16,0.53,0.23,0.81,0.25
		C125.45,127.96,125.62,127.79,125.71,127.74z M100.5,91.38c-0.2,0.08-0.47,0.12-0.48,0.2c-0.03,0.17,0.02,0.41,0.13,0.54
		c0.34,0.39,0.69,0.79,1.1,1.09c2.09,1.49,3.43,3.72,5.33,5.4c0.06,0.05,0.1,0.12,0.15,0.18c1,1.52,2.31,2.77,3.65,3.98
		c0.29,0.26,0.4,0.74,0.56,1.13c0.13,0.33,0.13,0.75,0.35,0.99c0.62,0.69,1.31,1.31,1.99,1.94c1.01,0.93,2.05,1.82,3.06,2.75
		c0.59,0.54,1.15,1.12,1.73,1.66c0.41,0.38,0.84,0.74,1.28,1.1c0.67,0.54,1.36,1.07,2.03,1.61c0.64,0.51,1.3,0.99,1.9,1.55
		c0.67,0.64,1.29,1.34,1.92,2.02c0.63,0.68,1.3,1.33,1.86,2.06c0.31,0.41,0.47,0.89,1.1,0.96c0.21,0.02,0.42,0.27,0.59,0.46
		c0.37,0.41,0.76,0.7,1.35,0.46c0.13-0.05,0.33-0.06,0.45,0c0.78,0.43,1.71,0.65,2.21,1.51c0.09,0.16,0.39,0.31,0.55,0.28
		c0.69-0.13,1.24-1.46,0.78-1.98c-0.47-0.53-1.03-1.03-1.64-1.37c-1.13-0.63-2.09-1.48-3.05-2.32c-0.41-0.36-0.75-0.81-1.21-1.07
		c-0.52-0.29-0.8-0.74-1.07-1.21c-0.13-0.22-0.23-0.48-0.41-0.66c-0.17-0.18-0.4-0.29-0.62-0.42c-0.48-0.28-0.98-0.53-1.44-0.83
		c-0.47-0.31-0.92-0.66-1.36-1.01c-0.71-0.56-1.6-1-2.08-1.71c-1.18-1.74-2.69-3.12-4.23-4.49c-0.31-0.27-0.63-0.52-0.93-0.81
		c-0.49-0.47-1.01-0.93-1.43-1.46c-0.53-0.66-0.97-1.38-1.45-2.07c-0.07-0.1-0.18-0.19-0.29-0.26c-0.78-0.51-1.51-1.05-2.14-1.75
		c-0.8-0.89-1.64-1.71-2.27-2.78c-0.67-1.13-1.38-2.38-2.73-2.94c-0.16-0.07-0.32-0.21-0.41-0.35c-0.48-0.8-1.29-1.07-2.1-1.34
		c-0.56-0.19-1.1-0.42-1.64-0.63C101.22,91.63,100.86,91.51,100.5,91.38z M83.43,84.86c-0.1,0.57,0.25,1.02,0.57,1.5
		c0.46,0.69,1.01,1.36,1.27,2.12c0.49,1.43,1.35,2.63,2.23,3.79c0.87,1.14,1.73,2.29,2.56,3.46c0.1,0.15,0.22,0.29,0.35,0.42
		c0.45,0.44,0.63,0.41,0.95-0.11c0.21-0.34,0.44-0.68,0.66-1.01c0.55-0.84,1.12-1.66,1.66-2.51c0.62-0.97,0.95-2.13,1.98-2.83
		c0.41-0.28,0.41-0.92,0-1.3c-0.48-0.45-1.02-0.85-1.59-1.19c-1.08-0.65-1.86-1.67-3.03-2.23c-0.87-0.41-1.73-0.75-2.67-0.7
		c-1.03,0.06-1.91-0.17-2.81-0.66C84.63,83.11,83.27,83.4,83.43,84.86z M137.34,117.3c-0.17-0.5-0.34-0.98-0.5-1.47
		c-0.15-0.47-0.48-0.61-0.91-0.44c-0.47,0.19-0.73,0.02-0.95-0.38c-0.48-0.9-1.64-1.22-1.97-2.26c-0.02-0.06-0.13-0.08-0.19-0.13
		c-0.31-0.31-0.62-0.61-0.91-0.94c-0.76-0.84-1.56-1.64-2.11-2.65c-0.1-0.19-0.39-0.33-0.62-0.39c-0.16-0.04-0.41,0.04-0.55,0.15
		c-0.55,0.45-0.79,0.41-1.1-0.26c-0.13-0.28-0.19-0.72-0.41-0.82c-0.94-0.43-1.52-1.28-2.31-1.86c-0.75-0.56-1.67-0.84-2.41-1.48
		c-1-0.88-2.16-1.57-3.25-2.35c-0.65-0.46-1.28-0.95-1.94-1.4c-0.44-0.3-0.9-0.6-1.39-0.83c-0.21-0.1-0.5-0.02-0.75-0.03
		c0.1,0.22,0.17,0.46,0.32,0.64c0.21,0.26,0.47,0.48,0.71,0.72c0.74,0.75,1.52,1.48,2.22,2.27c0.84,0.94,1.61,1.94,2.45,2.89
		c0.67,0.75,1.46,1.41,2.06,2.21c1.17,1.55,2.75,2.64,4.26,3.78c1.24,0.94,2.43,1.9,3.47,3.05c0.28,0.31,0.53,0.65,0.85,0.9
		c1.25,0.95,2.53,1.86,3.79,2.79c0.58,0.43,0.7,0.42,1.11-0.14c0.24-0.33,0.51-0.65,0.75-0.99
		C137.18,117.72,137.24,117.52,137.34,117.3z M83.81,104.01c-0.27,0.05-0.46,0.06-0.62,0.12c-0.6,0.23-0.65,0.45-0.24,0.96
		c0.77,0.96,1.53,1.93,2.32,2.88c0.16,0.19,0.39,0.31,0.6,0.45c0.17,0.12,0.38,0.19,0.52,0.33c0.96,0.93,1.92,1.87,2.87,2.81
		c0.22,0.22,0.42,0.46,0.68,0.63c1.42,0.92,2.85,1.81,4.27,2.72c0.09,0.06,0.17,0.12,0.25,0.19c0.88,0.7,1.77,1.4,2.64,2.12
		c0.68,0.55,1.32,1.15,2.01,1.69c0.29,0.22,0.66,0.4,1.01,0.46c0.52,0.1,1.08,0.04,1.6,0.12c0.5,0.08,1.04,0.08,1.2-0.4
		c0.09-0.26-0.31-0.69-0.49-1.04c-0.02-0.04-0.09-0.05-0.12-0.09c-0.34-0.39-0.68-0.78-1.02-1.16c-0.22-0.25-0.43-0.51-0.68-0.73
		c-0.9-0.8-1.83-1.58-2.73-2.39c-0.26-0.24-0.43-0.59-0.7-0.81c-1.67-1.4-3.32-2.81-5.04-4.14c-1.15-0.89-2.31-1.9-3.63-2.42
		c-1.22-0.48-2.14-1.45-3.4-1.79C84.64,104.37,84.2,104.16,83.81,104.01z M93.1,120.97c0.23-0.11,0.49-0.18,0.68-0.34
		c0.38-0.32,1.14-0.04,1.23-0.74c0.08-0.63-0.47-0.93-0.81-1.34c-0.95-1.13-1.74-2.41-3.34-2.81c-0.44-0.11-0.79-0.56-1.19-0.85
		c-0.25-0.19-0.46-0.45-0.74-0.55c-0.68-0.25-1.08-0.73-1.47-1.31c-0.26-0.38-0.7-0.64-1.08-0.93c-0.23-0.18-0.53-0.27-0.75-0.45
		c-0.51-0.41-0.85-0.99-1.53-1.26c-0.3-0.12-0.46-0.62-0.66-0.95c-0.08-0.13-0.08-0.3-0.17-0.41c-0.95-1.18-1.89-2.35-2.87-3.51
		c-0.36-0.43-0.75-0.86-1.21-1.17c-1.06-0.72-2.17-1.37-3.26-2.05c-0.33-0.2-0.68-0.38-0.98-0.61c-0.62-0.5-1.2-1.04-1.82-1.54
		c-0.11-0.09-0.31-0.05-0.47-0.07c0.06,0.15,0.1,0.3,0.19,0.44c0.69,1.08,1.39,2.16,2.09,3.24c0.13,0.19,0.27,0.39,0.45,0.54
		c0.32,0.26,0.72,0.43,0.99,0.72c1.03,1.09,2.01,2.22,3.02,3.33c0.05,0.05,0.15,0.05,0.2,0.1c0.5,0.47,1,0.94,1.47,1.43
		c0.17,0.18,0.24,0.46,0.41,0.65c1.26,1.38,2.38,2.88,3.79,4.13c0.87,0.78,1.9,1.42,2.5,2.49c0.05,0.08,0.17,0.12,0.25,0.18
		c0.78,0.62,1.56,1.24,2.34,1.86c0.65,0.51,1.29,1.04,1.96,1.52C92.55,120.83,92.82,120.87,93.1,120.97z M74.46,107.58
		c-0.4-0.76-0.78-1.55-1.22-2.3c-0.31-0.53-0.71-1.02-1.09-1.5c-0.82-1.06-1.59-2.17-2.5-3.15c-1.33-1.44-2.79-2.76-4.14-4.18
		c-0.6-0.63-1.32-1.03-2.09-1.25c-0.59-0.16-0.67-0.44-0.69-0.91c-0.01-0.31,0.04-0.65-0.07-0.92c-0.13-0.31-0.38-0.73-0.65-0.78
		c-0.59-0.12-1.03-0.48-1.55-0.7c-0.33-0.14-0.67-0.29-1.02-0.36c-0.17-0.03-0.43,0.05-0.53,0.18c-0.06,0.08,0.03,0.38,0.14,0.5
		c0.26,0.29,0.59,0.51,0.85,0.8c0.55,0.62,1.11,1.23,1.58,1.91c0.65,0.94,1.2,1.95,1.81,2.92c0.11,0.17,0.28,0.3,0.44,0.43
		c1.02,0.79,2.04,1.57,3.05,2.37c0.14,0.11,0.24,0.27,0.35,0.41c0.93,1.21,2.09,2.18,3.21,3.2c0.7,0.64,1.39,1.29,2.09,1.94
		c0.57,0.52,1.14,1.04,1.72,1.55c0.06,0.05,0.18,0.03,0.28,0.03C74.43,107.74,74.44,107.65,74.46,107.58z M139.97,112.13
		c-0.17-0.33-0.27-0.67-0.49-0.9c-0.45-0.49-0.91-1.02-1.47-1.37c-0.62-0.39-1.34-0.6-2.02-0.88c-0.04-0.02-0.11-0.02-0.15,0
		c-0.92,0.35-1.34-0.39-1.88-0.87c-0.25-0.22-0.44-0.55-0.72-0.68c-0.94-0.41-1.91-0.76-2.88-1.1c-0.13-0.04-0.31,0.08-0.47,0.13
		c0.06,0.13,0.09,0.28,0.19,0.37c1.09,0.99,2.19,1.96,3.27,2.96c1.6,1.47,3.17,2.96,4.76,4.44c0.22,0.2,0.47,0.38,0.52-0.09
		c0.08-0.65,0.43-1.08,0.96-1.42C139.75,112.6,139.82,112.36,139.97,112.13z M31.34,86.93c-0.45-0.07-0.86,0.26-0.84,0.66
		c0.02,0.53,0.43,0.64,0.85,0.74c1,0.23,1.99,0.49,3,0.71c0.83,0.18,1.66,0.31,2.49,0.48c0.24,0.05,0.54,0.31,0.64-0.07
		c0.06-0.22-0.06-0.64-0.23-0.73c-1.2-0.63-2.4-1.3-3.67-1.74C32.91,86.74,32.09,86.93,31.34,86.93z M33.23,84.96
		c0.42,0.13,0.43-0.15,0.33-0.56c-0.2-0.8-0.76-1.28-1.59-1.34c-0.75-0.05-1.1,0.37-0.8,1.05c0.12,0.26,0.43,0.51,0.71,0.62
		C32.25,84.87,32.69,84.88,33.23,84.96z M89.96,121.44c-0.36-0.3-0.62-0.53-0.89-0.72c-0.01-0.01-0.3,0.3-0.28,0.33
		c0.2,0.26,0.43,0.51,0.68,0.73C89.49,121.8,89.7,121.61,89.96,121.44z M41.23,36.43c0.08-0.14,0.15-0.21,0.16-0.29
		c0-0.06-0.09-0.13-0.14-0.2c-0.05,0.08-0.11,0.16-0.13,0.25C41.1,36.24,41.16,36.31,41.23,36.43z M141.95,36.08
		c-0.02-0.04-0.05-0.08-0.07-0.12c-0.04,0.04-0.08,0.09-0.11,0.14c-0.01,0.01,0.06,0.06,0.09,0.09
		C141.9,36.15,141.92,36.12,141.95,36.08z M166.13,50.19c-0.04-0.03-0.07-0.06-0.11-0.09c-0.03,0.05-0.06,0.1-0.08,0.14
		c0.04,0.02,0.09,0.06,0.13,0.05C166.09,50.3,166.11,50.23,166.13,50.19z"/>
	<path class="st0" d="M155.99,89.13c-0.71-0.08-0.82,0.67-1.26,0.96c-0.31,0.21-0.54,0.53-0.81,0.8c-0.05,0.05-0.18,0.05-0.2,0.1
		c-0.57,1.43-2.01,2.17-2.75,3.44c-0.43,0.73-0.98,1.51-0.3,2.44c0.35,0.47,0.04,1.01-0.24,1.28c-0.51,0.48-0.6,1.12-0.92,1.66
		c-0.49,0.81-0.84,1.82-1.54,2.36c-0.75,0.57-1.71,1.05-2.76,1.06c-0.48,0-0.66-0.4-0.44-0.81c0.62-1.13,1.21-2.27,1.84-3.39
		c0.56-0.98,1.03-2.05,1.76-2.89c1.13-1.3,1.76-2.95,3.09-4.09c1.47-1.26,2.39-2.94,3.33-4.61c0.29-0.51,0.75-0.92,1.06-1.43
		c0.3-0.5,0.49-1.05,0.73-1.59c0.15-0.33,0.33-0.58,0.76-0.5c0.59,0.11,0.73,0.74,0.34,1.36c-0.45,0.72-0.86,1.47-1.27,2.21
		c-0.21,0.38-0.25,0.78-0.04,1.18C156.61,89.12,156.45,89.24,155.99,89.13z"/>
	<path class="st0" d="M160.12,76.31c0.04-0.08,0.11-0.28,0.23-0.44c1.18-1.53,2.29-3.13,3.6-4.53c0.57-0.61,1.01-1.22,1.39-1.93
		c0.4-0.74,0.83-1.48,1.3-2.18c0.37-0.55,0.83-1.05,1.23-1.58c0.3-0.38,0.59-0.77,0.87-1.16c0.26-0.37,0.71-0.39,0.96-0.03
		c0.62,0.88,0.5,2.24-0.26,2.99c-0.16,0.16-0.31,0.35-0.44,0.54c-0.59,0.88-1.29,1.55-2.42,1.75c-0.76,0.13-0.8,0.99-1.08,1.58
		c-0.19,0.38-0.37,0.77-0.55,1.15c-0.32,0.67-0.68,1.33-0.95,2.02c-0.28,0.7-0.7,1.14-1.45,1.53c-0.2,0.1-0.33,0.45-0.39,0.71
		c-0.09,0.36-0.32,0.44-0.63,0.44c-0.09,0-0.25-0.09-0.24-0.12c0.14-0.92-0.48-0.4-0.67-0.29
		C160.15,77.01,160.15,76.75,160.12,76.31z"/>
	<path class="st0" d="M173.44,62.11c-0.01,0.55-0.54,1.05-1.11,1.05c-0.82,0-1.32-0.42-1.29-1.1c0.02-0.59,0.53-0.94,1.37-0.92
		C173.26,61.16,173.46,61.35,173.44,62.11z"/>
	<path class="st0" d="M173.32,57.76c-0.01-0.44-0.11-0.85,0.46-0.86c0.6-0.02,1.18,0.35,1.2,0.77c0.01,0.35-0.61,0.85-1.06,0.86
		C173.3,58.53,173.29,58.11,173.32,57.76z"/>
	<path class="st0" d="M54.14,96.22c-0.18-0.08-0.4-0.11-0.54-0.24c-0.58-0.52-1.3-0.73-2-0.99c-0.37-0.14-0.8-1.19-0.67-1.55
		c0.03-0.09,0.12-0.17,0.2-0.21c0.64-0.32,1.31-0.21,1.81,0.36c0.6,0.69,1.21,1.39,1.7,2.16C55.04,96.36,54.29,95.96,54.14,96.22z"
		/>
	<path class="st0" d="M80.22,116.26c-0.09-0.19-0.19-0.37-0.26-0.57c-0.01-0.03,0.13-0.11,0.21-0.17c0.12,0.18,0.27,0.35,0.36,0.54
		c0.04,0.07-0.04,0.2-0.07,0.3C80.38,116.33,80.3,116.29,80.22,116.26z"/>
</g>
</svg>
