<?xml version="1.0" encoding="utf-8"?>
<!-- Generator: Adobe Illustrator 24.1.2, SVG Export Plug-In . SVG Version: 6.00 Build 0)  -->
<svg version="1.1" id="Calque_1" xmlns="http://www.w3.org/2000/svg" xmlns:xlink="http://www.w3.org/1999/xlink" x="0px" y="0px"
	 viewBox="0 0 169.5 54.1" style="enable-background:new 0 0 169.5 54.1;" xml:space="preserve">
<style type="text/css">
	.st0{fill-rule:evenodd;clip-rule:evenodd;fill:#A3BF93;}
	.st1{filter:url(#Adobe_OpacityMaskFilter);}
	.st2{fill-rule:evenodd;clip-rule:evenodd;fill:#FFFFFF;}
	.st3{mask:url(#mask-2_1_);fill-rule:evenodd;clip-rule:evenodd;fill:#A3BF93;}
</style>
<path id="Fill-1" class="st0" d="M14.86,3.88c-0.65-1.13-1.51-1.92-2.59-2.37l-0.72-0.26L10.65,1C9.97,0.87,8.97,0.81,7.67,0.81
	c-1.17,0-1.75,0.09-1.75,0.28v8.3v0.25c0.04,0.09,0.12,0.14,0.25,0.15h1.9c1.36,0,2.3-0.04,2.85-0.12c0.33-0.03,0.65-0.09,0.96-0.19
	c0.35-0.1,0.54-0.15,0.56-0.16c0.15-0.08,0.26-0.13,0.32-0.16c0.25-0.12,0.51-0.29,0.8-0.51c0.29-0.22,0.57-0.47,0.83-0.76
	c0.57-0.6,0.86-1.38,0.86-2.35C15.25,4.92,15.12,4.37,14.86,3.88L14.86,3.88z M15.25,13.47c-0.62-1.06-1.5-1.79-2.65-2.19
	c-1.15-0.4-2.47-0.6-3.96-0.6H7.88l-0.9-0.06c-0.74,0-1.12,0.12-1.12,0.37v9.87c0,0.06,0.28,0.14,0.84,0.25
	c0.6,0.08,1.01,0.12,1.23,0.12h1.84c0.6,0,1.13-0.04,1.61-0.13c0.48-0.09,1.02-0.29,1.62-0.62c0.33-0.19,0.65-0.39,0.96-0.6
	L15.08,19c0.24-0.18,0.43-0.53,0.57-1.07l0.18-0.82l0.06-0.9C15.89,15.05,15.68,14.13,15.25,13.47L15.25,13.47z M0.48,0.09h1.23
	l1.26,0.06l1.03-0.06h1.4L8.36,0h0.72c0.24,0,0.58,0.01,1.01,0.04c0.43,0.03,0.74,0.04,0.94,0.04c0.29,0,0.56,0.01,0.81,0.04
	c0.24,0.02,0.55,0.07,0.91,0.12c0.57,0.06,1.08,0.14,1.53,0.24c0.48,0.09,0.93,0.21,1.35,0.37c0.8,0.26,1.53,0.65,2.17,1.15
	c0.64,0.5,1.14,1.04,1.49,1.59c0.15,0.26,0.27,0.54,0.36,0.86c0.09,0.32,0.14,0.66,0.14,1.02c0,0.22-0.02,0.42-0.06,0.62
	c-0.04,0.2-0.1,0.39-0.19,0.57c-0.16,0.37-0.39,0.71-0.69,1.01C18.32,8.27,17.7,8.73,17,9.05c-0.65,0.28-1.32,0.52-2.03,0.72
	l-0.82,0.22h-0.13l0.32,0.13l1.03,0.37c0.9,0.26,1.53,0.5,1.9,0.71c0.64,0.31,1.21,0.65,1.73,1.01c0.52,0.36,0.98,0.85,1.39,1.47
	C20.8,14.3,21,15.06,21,15.96v0.32v0.35c0,0.12-0.03,0.29-0.09,0.53c-0.18,0.91-0.79,1.72-1.83,2.42c-0.47,0.31-1.02,0.62-1.66,0.91
	c-0.63,0.29-1.3,0.56-2.01,0.79C13.98,21.76,12.2,22,10.09,22l-2.39-0.06l-3.28-0.09L2,21.88l-1.62,0.07
	c-0.06,0-0.09-0.08-0.09-0.24c0-0.12,0.09-0.22,0.27-0.3c0.18-0.08,0.3-0.16,0.38-0.23l0.08-0.13v-0.09V1.04
	c0-0.07-0.04-0.15-0.13-0.24L0.53,0.65L0.18,0.51C0.09,0.48,0.03,0.42,0,0.34c0-0.1,0.02-0.17,0.07-0.19l0.16-0.06H0.48z"/>
<path id="Fill-3" class="st0" d="M23.21,0h1.25l1.05,0.04l1.55,0.05l0.87-0.01L29.73,0c0.06,0,0.11,0.05,0.15,0.15l0.06,0.34
	c0,0.08-0.02,0.14-0.06,0.18l-0.33,0.22l-0.18,0.13c-0.03,0.03-0.05,0.07-0.05,0.13v20.06c0,0.16,0.24,0.24,0.71,0.24
	c0.52,0,1.22-0.09,2.11-0.28c0.46-0.1,0.9-0.21,1.32-0.34c0.42-0.12,0.88-0.29,1.38-0.49c0.33-0.13,0.68-0.3,1.05-0.5
	c0.37-0.2,0.72-0.43,1.08-0.69c0.75-0.55,1.26-0.94,1.54-1.18c0.19,0,0.35,0.09,0.48,0.28l0.23,0.48l0.21,0.51l0.2,0.4
	c0.11,0.25,0.22,0.44,0.33,0.58c0.7,1.02,1.05,1.58,1.05,1.68c0,0.06-0.03,0.09-0.09,0.09l-5.06-0.15H31.7l-3.21,0.04
	c-0.38,0-0.92,0.02-1.6,0.05C26.2,21.98,25.77,22,25.6,22h-2.05c-0.15-0.03-0.23-0.11-0.24-0.25c0-0.2,0.12-0.3,0.36-0.3
	c0.23,0,0.35-0.2,0.35-0.61V1.7c0-0.31-0.04-0.52-0.12-0.65c-0.06-0.13-0.23-0.22-0.5-0.27C23.14,0.72,23,0.58,23,0.34
	C23,0.14,23.07,0.03,23.21,0"/>
<path id="Fill-5" class="st0" d="M54.12,17.4l0.36-1.55l0.3-1.77c0.15-1.18,0.22-2.35,0.22-3.52c0-1.85-0.17-3.5-0.52-4.95
	c-0.35-1.45-0.9-2.65-1.66-3.59c-0.76-0.94-1.72-1.41-2.89-1.41c-0.62,0-1.17,0.15-1.63,0.45c-0.46,0.3-0.88,0.7-1.25,1.19
	l-0.34,0.51l-0.4,0.7l-0.79,1.8c-0.39,1.7-0.58,3.55-0.58,5.54c0,2.66,0.37,4.96,1.11,6.9c0.74,1.94,1.94,3.03,3.6,3.25
	c0.95,0,1.84-0.3,2.67-0.89C53.16,19.47,53.76,18.58,54.12,17.4 M54.63,1.13l1.35,0.95c0.73,0.5,1.48,1.14,2.24,1.94
	c0.76,0.79,1.42,1.76,1.96,2.9C60.73,8.07,61,9.29,61,10.59c0,0.87-0.11,1.7-0.33,2.47c-0.59,2.11-1.73,3.88-3.41,5.32
	c-1.68,1.44-3.49,2.57-5.43,3.38c-0.4,0.16-0.87,0.24-1.42,0.24c-0.87,0-1.83-0.16-2.89-0.49c-1.06-0.33-2.13-0.85-3.22-1.57
	c-1.09-0.72-2.07-1.65-2.94-2.79c-0.87-1.14-1.54-2.48-2-4.03C39.12,12.26,39,11.4,39,10.56c0-2.46,0.8-4.48,2.39-6.05
	c1.59-1.57,3.17-2.77,4.74-3.59C47.25,0.31,48.5,0,49.9,0C51.45,0,53.02,0.38,54.63,1.13"/>
<path id="Fill-7" class="st0" d="M78.12,17.4l0.36-1.55l0.3-1.77c0.15-1.18,0.22-2.35,0.22-3.52c0-1.85-0.17-3.5-0.52-4.95
	c-0.35-1.45-0.9-2.65-1.66-3.59c-0.76-0.94-1.72-1.41-2.89-1.41c-0.62,0-1.17,0.15-1.63,0.45c-0.46,0.3-0.88,0.7-1.25,1.19
	l-0.34,0.51l-0.4,0.7l-0.79,1.8c-0.39,1.7-0.58,3.55-0.58,5.54c0,2.66,0.37,4.96,1.11,6.9c0.74,1.94,1.94,3.03,3.6,3.25
	c0.95,0,1.84-0.3,2.67-0.89C77.16,19.47,77.76,18.58,78.12,17.4 M78.63,1.13l1.35,0.95c0.73,0.5,1.48,1.14,2.24,1.94
	c0.76,0.79,1.42,1.76,1.96,2.9C84.73,8.07,85,9.29,85,10.59c0,0.87-0.11,1.7-0.33,2.47c-0.59,2.11-1.73,3.88-3.41,5.32
	c-1.68,1.44-3.49,2.57-5.43,3.38c-0.4,0.16-0.87,0.24-1.42,0.24c-0.87,0-1.83-0.16-2.89-0.49c-1.06-0.33-2.13-0.85-3.22-1.57
	c-1.09-0.72-2.07-1.65-2.94-2.79c-0.87-1.14-1.54-2.48-2-4.03C63.12,12.26,63,11.4,63,10.56c0-2.46,0.8-4.48,2.39-6.05
	c1.59-1.57,3.17-2.77,4.74-3.59C71.25,0.31,72.5,0,73.9,0C75.45,0,77.02,0.38,78.63,1.13"/>
<path id="Fill-9" class="st0" d="M100.98,3.17c-0.85-0.74-1.67-1.24-2.44-1.5c-0.77-0.26-1.63-0.47-2.57-0.6L94.86,1
	c-0.75,0-1.12,0.15-1.12,0.44v19.02c0,0.24,0.05,0.4,0.15,0.49c0.1,0.09,0.26,0.14,0.47,0.14c0.14,0,0.58-0.06,1.32-0.18
	c0.74-0.12,1.26-0.22,1.57-0.31c0.96-0.33,1.79-0.76,2.49-1.27c0.75-0.54,1.36-1.11,1.84-1.72c0.48-0.61,0.9-1.32,1.26-2.14
	c0.29-0.75,0.52-1.62,0.68-2.61c0.16-0.99,0.24-1.88,0.24-2.65C103.76,7.01,102.83,4.66,100.98,3.17L100.98,3.17z M92.44,0.09h0.52
	h0.55h0.38h0.36L94.47,0h0.66h0.73c1.12,0,2.2,0.15,3.25,0.46c0.67,0.18,1.3,0.37,1.88,0.57c0.58,0.2,1.16,0.44,1.73,0.7
	c1.1,0.47,2.07,1.04,2.91,1.7c0.81,0.63,1.5,1.38,2.08,2.26c0.54,0.84,0.92,1.82,1.12,2.97c0.12,0.71,0.17,1.33,0.17,1.87
	c0,0.46-0.04,0.89-0.12,1.28c-0.08,0.39-0.2,0.76-0.36,1.13l-0.19,0.43l-0.23,0.43l-0.64,1.09c-0.6,0.92-1.27,1.74-2,2.45
	c-0.73,0.71-1.58,1.36-2.53,1.96c-0.44,0.27-0.9,0.52-1.38,0.77l-1.5,0.68l-1.56,0.56l-1.81,0.53C96.14,21.94,94.51,22,91.82,22
	h-2.56h-0.68c-0.09-0.06-0.14-0.13-0.15-0.21l0.07-0.07c0.07-0.06,0.15-0.12,0.23-0.18c0.2-0.12,0.31-0.22,0.32-0.3V1.27
	c0-0.1-0.08-0.22-0.25-0.36c-0.17-0.14-0.35-0.24-0.55-0.3c-0.14,0-0.22-0.08-0.25-0.24C88,0.2,88.12,0.07,88.36,0L92.44,0.09z"/>
<path id="Fill-11" class="st0" d="M13.65,44.51c-1.25-1.33-2.38-2.95-3.39-4.84c-0.94-1.8-1.61-3.18-2.01-4.16
	c-0.51,0.76-0.97,1.6-1.37,2.52C6.71,38.43,6.48,39,6.2,39.74c-0.16,0.39-0.31,0.79-0.46,1.18l-0.43,1.33L5,43.33l-0.13,0.59
	l-0.1,0.59H13.65z M10.36,30.16l1.49,2.58l2.36,3.96c1.02,1.67,1.84,2.94,2.46,3.82l0.55,0.9l0.72,1.27l1.53,3.05
	c0.39,0.82,0.83,1.86,1.31,3.11c0.36,0.99,0.58,1.76,0.63,2.31c0.06,0.19,0.17,0.32,0.34,0.4l0.49,0.27
	c0.13,0.06,0.21,0.17,0.25,0.33l-1.46-0.13l-1.62-0.1l-1.9-0.06c-1.33,0-2.67,0.08-4.01,0.24c0.3-0.19,0.7-0.56,1.2-1.11
	c0.51-0.55,0.76-1.23,0.76-2.04c0-0.88-0.14-1.6-0.43-2.15c-0.29-0.56-0.53-0.95-0.72-1.18c-0.05-0.05-0.17-0.11-0.36-0.18
	c-0.19-0.07-0.4-0.1-0.63-0.1h-0.4c-0.11,0-0.28,0.05-0.52,0.14c-0.45,0.14-0.96,0.42-1.53,0.83c-0.5,0.37-0.89,0.67-1.15,0.91
	l-0.5-0.44l-0.4-0.34l-0.55-0.39c-0.15-0.1-0.31-0.2-0.49-0.3c-0.18-0.1-0.36-0.18-0.55-0.24c-0.3-0.11-0.73-0.17-1.27-0.17
	l-0.75,0.05l-0.49,0.06l-0.09,0.56l-0.06,0.77c0,0.68,0.1,1.29,0.3,1.82c0.27,0.66,0.68,1.32,1.24,1.98c0.56,0.66,1.13,1.16,1.7,1.5
	l-2.3-0.09l-3.47-0.06H1.18H0.83c-0.1,0-0.21,0.01-0.33,0.03c0-0.41,0.11-1.16,0.33-2.23c0.22-1.07,0.52-2.25,0.9-3.53
	c0.38-1.28,0.75-2.32,1.13-3.1c0.26-0.63,0.93-1.9,2.04-3.79l3.19-5.38L10.36,30.16z"/>
<path id="Fill-13" class="st0" d="M43.59,30.2h0.3l0.36-0.04c0.13,0,0.21,0.06,0.24,0.18c-0.06,0.13-0.25,0.24-0.56,0.34
	c-0.31,0.06-0.47,0.18-0.47,0.35l0.24,2.82c0,0.09,0.01,0.33,0.03,0.74c0.02,0.4,0.03,0.72,0.03,0.94v0.91l0.06,3.05l-0.06,5.44
	l-0.06,5.37l0.11,0.75l0.14,0.8c0,0.2-0.12,0.3-0.37,0.3c-0.46-0.06-0.87-0.09-1.25-0.09l-0.9,0.01L40.5,52.1
	c-0.05,0-0.09-0.02-0.12-0.07c0-0.06,0.22-0.27,0.65-0.63c0.44-0.36,0.69-0.6,0.78-0.73c0.31-0.46,0.47-0.87,0.47-1.21
	c0-0.24-0.08-0.47-0.23-0.69c-0.62-1-1.42-1.93-2.4-2.79c-1.03-0.91-2.11-1.7-3.22-2.34c-0.67-0.39-1.36-0.85-2.08-1.38
	c-0.71-0.53-1.49-1.14-2.33-1.85c-0.76-0.66-1.52-1.33-2.28-2.02c-0.68-0.62-1.36-1.26-2.04-1.92c-1.25-1.24-2.02-2.06-2.33-2.48
	l-0.15-0.12c-0.15,0-0.23,0.24-0.23,0.72v0.67v0.66l0.27,2.75c0,0.84,0.1,1.76,0.3,2.78l0.38,1.76c0.32,1.57,0.73,2.75,1.23,3.55
	L27.89,48l0.76,1.33c0.21,0.33,0.47,0.68,0.78,1.06c0.3,0.35,0.65,0.68,1.05,0.98c0.2,0.15,0.46,0.24,0.78,0.27
	c0.11,0.03,0.23,0.09,0.35,0.18c0.09,0.09,0.15,0.18,0.18,0.28l-0.06,0.06c-0.23,0-0.63-0.02-1.2-0.07
	c-0.57-0.04-0.96-0.07-1.19-0.07l-2.07-0.04l-1.46,0.04l-1.51,0.04l-0.29-0.04c-0.08-0.03-0.14-0.1-0.17-0.19
	c0.09-0.09,0.27-0.15,0.52-0.18l0.53-0.07c0.09,0,0.14-0.08,0.15-0.24l-0.36-1.67l-0.27-1.67l-0.21-1.8
	c-0.03-0.31-0.06-0.62-0.09-0.91c-0.02-0.29-0.03-0.57-0.03-0.85l-0.08-1.93v-1.73v-2.14l0.08-2.3l0.06-2.07v-2.61
	c0-0.25-0.02-0.41-0.06-0.49c-0.03-0.1-0.14-0.23-0.33-0.4c-0.17-0.12-0.26-0.27-0.26-0.46c0.03-0.01,0.05-0.02,0.07-0.03
	c0.11-0.04,0.18-0.07,0.23-0.09l0.41-0.04l1.63,0.04l1.7,0.07l1.57-0.01l1.26-0.1c0.15,0,0.23,0.09,0.23,0.28
	c0,0.15-0.05,0.28-0.15,0.38c-0.31,0.26-0.47,0.47-0.47,0.63c0,0.32,0.1,0.61,0.29,0.9c0.19,0.29,0.42,0.54,0.67,0.77l0.97,0.78
	c4.34,3.4,6.81,5.36,7.41,5.86L40.7,41l1.23,1.12l0.78,0.78c0.13,0,0.2-0.28,0.2-0.84c0-1.8-0.29-3.65-0.88-5.54
	c-0.05-0.2-0.17-0.49-0.37-0.87c-0.11-0.22-0.22-0.41-0.32-0.58c-0.1-0.17-0.25-0.42-0.44-0.73c-0.61-1.02-1.14-1.79-1.58-2.29
	c-0.56-0.59-1.07-1.04-1.55-1.36c-0.38-0.19-0.56-0.32-0.56-0.4c0-0.06,0.08-0.09,0.24-0.09l3,0.04h1.54c0.16,0,0.42-0.01,0.78-0.02
	C43.11,30.21,43.38,30.2,43.59,30.2"/>
<path id="Fill-15" class="st0" d="M60.48,33.33c-0.85-0.74-1.67-1.24-2.44-1.5c-0.77-0.27-1.63-0.47-2.57-0.6l-1.11-0.06
	c-0.75,0-1.12,0.15-1.12,0.44v19.02c0,0.24,0.05,0.4,0.15,0.49c0.1,0.09,0.26,0.14,0.47,0.14c0.14,0,0.58-0.06,1.32-0.18
	c0.74-0.12,1.26-0.22,1.57-0.31c0.96-0.33,1.79-0.76,2.49-1.27c0.75-0.54,1.36-1.11,1.84-1.72c0.48-0.61,0.9-1.32,1.26-2.14
	c0.29-0.75,0.52-1.62,0.68-2.61c0.16-0.99,0.24-1.88,0.24-2.65C63.26,37.17,62.33,34.82,60.48,33.33L60.48,33.33z M51.94,30.24h0.52
	h0.55h0.38h0.36l0.2-0.09h0.66h0.73c1.12,0,2.2,0.15,3.25,0.46c0.67,0.18,1.3,0.37,1.88,0.57c0.58,0.2,1.16,0.44,1.73,0.7
	c1.1,0.47,2.07,1.04,2.91,1.7c0.81,0.63,1.5,1.38,2.08,2.26c0.54,0.84,0.92,1.82,1.12,2.97c0.12,0.71,0.17,1.33,0.17,1.87
	c0,0.46-0.04,0.89-0.12,1.28c-0.08,0.39-0.2,0.77-0.36,1.13l-0.19,0.43l-0.23,0.43l-0.64,1.09c-0.6,0.92-1.27,1.74-2,2.45
	c-0.73,0.71-1.58,1.36-2.53,1.96c-0.44,0.27-0.9,0.52-1.38,0.77l-1.5,0.68l-1.56,0.56l-1.81,0.53c-0.54,0.12-2.17,0.18-4.86,0.18
	h-2.56h-0.68c-0.09-0.06-0.14-0.13-0.15-0.21c0.03-0.03,0.05-0.05,0.07-0.07c0.07-0.06,0.15-0.12,0.23-0.18
	c0.2-0.12,0.31-0.22,0.32-0.3V31.42c0-0.1-0.08-0.22-0.25-0.36c-0.17-0.14-0.35-0.24-0.55-0.3c-0.14,0-0.22-0.08-0.25-0.24
	c0-0.17,0.12-0.29,0.36-0.37L51.94,30.24z"/>
<path id="Fill-17" class="st0" d="M93.48,34.33c-0.85-0.74-1.67-1.24-2.44-1.5c-0.77-0.27-1.63-0.47-2.57-0.6l-1.11-0.06
	c-0.75,0-1.12,0.15-1.12,0.44v19.02c0,0.24,0.05,0.4,0.15,0.49c0.1,0.09,0.26,0.14,0.47,0.14c0.14,0,0.58-0.06,1.32-0.18
	c0.74-0.12,1.26-0.22,1.57-0.31c0.96-0.33,1.79-0.76,2.49-1.27c0.75-0.54,1.36-1.11,1.84-1.72c0.48-0.61,0.9-1.32,1.26-2.14
	c0.29-0.75,0.52-1.62,0.68-2.61c0.16-0.99,0.24-1.88,0.24-2.65C96.26,38.17,95.33,35.82,93.48,34.33L93.48,34.33z M84.94,31.24h0.52
	h0.55h0.38h0.36l0.2-0.09h0.66h0.73c1.12,0,2.2,0.15,3.25,0.46c0.67,0.18,1.3,0.37,1.88,0.57c0.58,0.2,1.16,0.44,1.73,0.7
	c1.1,0.47,2.07,1.04,2.91,1.7c0.81,0.63,1.5,1.38,2.08,2.26c0.54,0.84,0.92,1.82,1.12,2.97c0.12,0.71,0.17,1.33,0.17,1.87
	c0,0.46-0.04,0.89-0.12,1.28c-0.08,0.39-0.2,0.77-0.36,1.13l-0.19,0.43l-0.23,0.43l-0.64,1.09c-0.6,0.92-1.27,1.74-2,2.45
	c-0.73,0.71-1.58,1.36-2.53,1.96c-0.44,0.27-0.9,0.52-1.38,0.77l-1.5,0.68l-1.56,0.56l-1.81,0.53c-0.54,0.12-2.17,0.18-4.86,0.18
	h-2.56h-0.68c-0.09-0.06-0.14-0.13-0.15-0.21c0.03-0.03,0.05-0.05,0.07-0.07c0.07-0.06,0.15-0.12,0.23-0.18
	c0.2-0.12,0.31-0.22,0.32-0.3V32.42c0-0.1-0.08-0.22-0.25-0.36c-0.17-0.14-0.35-0.24-0.55-0.3c-0.14,0-0.22-0.08-0.25-0.24
	c0-0.17,0.12-0.29,0.36-0.37L84.94,31.24z"/>
<g id="Group-21" transform="translate(223.000000, 0.000000)">
	<g id="Clip-20">
	</g>
	<defs>
		<filter id="Adobe_OpacityMaskFilter" filterUnits="userSpaceOnUse" x="-118.44" y="30.16" width="20.92" height="23.1">
			<feColorMatrix  type="matrix" values="1 0 0 0 0  0 1 0 0 0  0 0 1 0 0  0 0 0 1 0"/>
		</filter>
	</defs>
	<mask maskUnits="userSpaceOnUse" x="-118.44" y="30.16" width="20.92" height="23.1" id="mask-2_1_">
		<g class="st1">
			<polygon id="path-1_1_" class="st2" points="-118.44,30.16 -97.52,30.16 -97.52,53.27 -118.44,53.27 			"/>
		</g>
	</mask>
	<path id="Fill-19" class="st3" d="M-117.11,30.16l1.98,0.06l2.26,0.06l2.28-0.06c0.09,0,0.14,0.04,0.15,0.12l-0.04,0.15l-0.1,0.11
		c-1.02,0.81-1.74,1.84-2.19,3.11c-0.44,1.26-0.67,2.69-0.67,4.28c0,0.78,0.03,1.53,0.1,2.24l0.12,1.32l0.15,1.09
		c0.14,1.3,0.44,2.57,0.91,3.8c0.47,1.23,1.11,2.29,1.93,3.18c0.82,0.89,1.81,1.51,2.97,1.87c0.38,0.12,0.76,0.18,1.12,0.18
		c0.66,0,1.31-0.16,1.94-0.48c0.63-0.32,1.23-0.75,1.8-1.29c0.53-0.5,1-1.04,1.4-1.63c1.11-1.48,1.67-3.4,1.67-5.76
		c0-0.76-0.06-1.52-0.18-2.3c-0.12-0.77-0.29-1.55-0.52-2.34c-0.23-0.79-0.5-1.53-0.82-2.23c-0.28-0.64-0.62-1.29-1.03-1.93
		c-0.41-0.64-0.74-1.12-1-1.43c-0.27-0.36-0.59-0.7-0.98-1.01c-0.14-0.11-0.34-0.25-0.59-0.4l-0.74-0.37
		c-0.06-0.05-0.09-0.16-0.09-0.32l0.99,0.03l1.7,0.06l1.66-0.06l1.86-0.06c0.05,0,0.09,0.02,0.12,0.06l-0.09,0.09l-0.31,0.28
		c-0.23,0.18-0.38,0.33-0.47,0.45l0.04,0.23l0.13,0.26l0.18,0.28c1.29,2.31,1.94,4.91,1.94,7.78c0,0.57-0.03,1.17-0.09,1.8
		c-0.06,0.63-0.14,1.23-0.25,1.8c-0.11,0.57-0.28,1.17-0.5,1.82c-0.69,2.11-1.57,3.76-2.64,4.94c-1.07,1.19-2.14,2.01-3.22,2.48
		c-1.07,0.47-2.01,0.74-2.81,0.84c-0.44,0-0.88-0.02-1.3-0.05c-0.42-0.03-0.86-0.08-1.32-0.15c-0.85-0.14-1.74-0.42-2.68-0.84
		c-0.94-0.42-1.81-1.02-2.63-1.79c-0.82-0.77-1.51-1.78-2.08-3.02c-0.94-2.01-1.4-4.32-1.4-6.94c0-1.2,0.1-2.42,0.31-3.67
		c0.03-0.23,0.06-0.46,0.1-0.7c0.04-0.24,0.12-0.58,0.24-1.02c0.12-0.44,0.27-0.9,0.44-1.37c0.3-0.83,0.61-1.39,0.95-1.67
		c0.2-0.14,0.3-0.34,0.3-0.6c0-0.19-0.07-0.37-0.21-0.51c-0.14-0.15-0.29-0.24-0.46-0.27c-0.38,0-0.58-0.1-0.58-0.29
		C-117.35,30.27-117.27,30.2-117.11,30.16"/>
</g>
<path id="Fill-22" class="st0" d="M143.17,34.07c-0.02,0.07-0.06,0.23-0.12,0.49c-0.06,0.26-0.11,0.48-0.14,0.67l-0.04,0.56
	c-0.01,0.11-0.02,0.19-0.04,0.24c-0.02,0.05-0.04,0.14-0.08,0.24c-0.06,0.23-0.23,0.48-0.49,0.77l-0.09,0.06
	c-0.07,0-0.1-0.1-0.1-0.31l0.03-0.46l0.01-0.41c0-0.31-0.02-0.51-0.07-0.61c-0.21-0.65-0.53-1.2-0.95-1.65
	c-0.42-0.45-0.95-0.8-1.57-1.05c-0.27-0.11-0.59-0.2-0.96-0.28c-0.18-0.04-0.34-0.07-0.48-0.09c-0.14-0.02-0.3-0.03-0.49-0.03
	c-1.36,0-2.54,0.29-3.53,0.86c-0.99,0.57-1.49,1.39-1.49,2.47c0,0.62,0.47,1.12,1.41,1.51c0.9,0.35,2.33,0.73,4.3,1.14
	c1.89,0.36,3.43,0.73,4.63,1.09c1.2,0.36,2.1,0.89,2.7,1.57c0.44,0.49,0.8,0.99,1.09,1.49c0.28,0.5,0.49,1,0.62,1.48
	c0.13,0.48,0.19,0.92,0.19,1.32c0,1.16-0.4,2.29-1.2,3.37c-0.66,0.92-1.38,1.67-2.17,2.25c-0.78,0.59-1.64,1.06-2.56,1.41l-1.35,0.4
	c-0.51,0.12-1.06,0.22-1.65,0.31l-1.66,0.21c-0.57,0.05-1.14,0.07-1.72,0.07c-0.68,0-1.26-0.04-1.74-0.12l-1.06-0.18l-0.96-0.24
	l-1.8-0.4c-0.55-0.11-1.03-0.16-1.44-0.16c-0.38,0-0.64,0.02-0.79,0.05c-0.15,0.03-0.45,0.14-0.91,0.32c0-0.08,0.13-0.42,0.4-1.03
	c0.12-0.28,0.23-0.52,0.32-0.73c0.09-0.21,0.15-0.38,0.19-0.51l0.18-0.83l0.17-1.26c0.06-0.55,0.12-0.94,0.18-1.15
	c0.03-0.21,0.09-0.32,0.19-0.33c0.17,0.11,0.31,0.35,0.43,0.73l0.33,0.88c0.53,0.87,0.99,1.56,1.39,2.06
	c0.37,0.46,0.88,0.83,1.53,1.12c0.65,0.29,1.61,0.53,2.88,0.71l0.72,0.07h0.6c1,0,1.99-0.16,2.98-0.49c0.51-0.18,0.94-0.38,1.3-0.61
	c0.36-0.23,0.71-0.52,1.05-0.89c0.57-0.64,0.91-1.45,1.02-2.44c0-1.09-0.38-1.96-1.15-2.61c-0.76-0.65-1.68-1.12-2.74-1.41
	c-0.47-0.13-1.02-0.26-1.66-0.39c-0.64-0.13-1.41-0.28-2.31-0.44c-0.66-0.11-1.28-0.24-1.87-0.4c-0.58-0.16-1.12-0.36-1.6-0.61
	c-0.98-0.44-1.76-1-2.34-1.68c-0.58-0.68-0.87-1.43-0.87-2.25c0-0.75,0.24-1.52,0.73-2.3c0.63-0.98,1.32-1.77,2.07-2.39
	c0.75-0.62,1.61-1.11,2.59-1.48c0.61-0.21,1.12-0.35,1.54-0.44c0.25-0.05,0.54-0.09,0.88-0.13c0.34-0.04,0.64-0.06,0.9-0.06h0.46
	c0.07,0,0.17,0.01,0.29,0.02c0.12,0.01,0.26,0.03,0.41,0.06c0.3,0.03,0.78,0.12,1.44,0.27l1.57,0.26l1.12,0.06h0.7l0.31-0.06
	c0.53-0.05,1.04-0.14,1.53-0.27c0.09,0,0.14,0.02,0.15,0.06c0,0.09-0.2,0.44-0.6,1.06C143.58,33.24,143.31,33.72,143.17,34.07"/>
<path id="Fill-24" class="st0" d="M167.7,30.28h0.26l0.31-0.12h0.27h0.31c0.44,0,0.65,0.11,0.65,0.34c0,0.05-0.04,0.17-0.13,0.35
	c-0.22,0.35-0.38,0.98-0.5,1.89c0,0.37-0.02,0.66-0.05,0.87c-0.03,0.21-0.07,0.4-0.12,0.56c-0.03,0.14-0.11,0.23-0.26,0.26
	c-0.11,0-0.22-0.1-0.33-0.3c-0.06-0.18-0.22-0.39-0.5-0.62l-0.4-0.38c-0.46-0.44-1.1-0.79-1.91-1.07c-0.81-0.27-1.58-0.48-2.32-0.61
	l-1.45-0.18v20.08c0,0.76,0.14,1.16,0.43,1.22c0.28,0.03,0.43,0.16,0.43,0.38c0,0.14-0.11,0.21-0.33,0.21l-1.42-0.09L159.26,53
	l-1.49,0.06l-1.75,0.09c-0.11-0.03-0.17-0.09-0.17-0.16c0-0.2,0.14-0.31,0.41-0.34c0.25,0,0.37-0.17,0.37-0.52V31.32
	c-1.02,0-1.77,0.03-2.25,0.08c-0.48,0.06-0.94,0.16-1.38,0.32c-0.45,0.15-0.85,0.34-1.21,0.57c-0.71,0.43-1.39,1.12-2.04,2.08
	l-0.11,0.06c-0.14,0-0.23-0.25-0.27-0.75c0-0.42-0.04-0.83-0.13-1.22c-0.09-0.39-0.22-0.84-0.4-1.33l-0.17-0.4
	c-0.11-0.25-0.17-0.4-0.17-0.48l2.64,0.03h1.99h2.57l2.46,0.03L167.7,30.28z"/>
</svg>
