<?xml version="1.0" encoding="UTF-8"?>
<svg width="482px" height="174px" viewBox="0 0 482 174" version="1.1" xmlns="http://www.w3.org/2000/svg" xmlns:xlink="http://www.w3.org/1999/xlink">
    <!-- Generator: Sketch 64 (93537) - https://sketch.com -->
    <title>Group 2</title>
    <desc>Created with Sketch.</desc>
    <defs>
        <polygon id="path-1" points="0.135468862 0.0195367232 48.9450437 0.0195367232 48.9450437 52 0.135468862 52"></polygon>
        <polygon id="path-3" points="0 0 32 0 32 70 0 70"></polygon>
        <polygon id="path-5" points="0 0 34 0 34 52 0 52"></polygon>
    </defs>
    <g id="website" stroke="none" stroke-width="1" fill="none" fill-rule="evenodd">
        <g id="home" transform="translate(-478.000000, -388.000000)">
            <g id="Group-2" transform="translate(478.000000, 389.000000)">
                <g id="Group-26-Copy" transform="translate(121.000000, 0.000000)">
                    <path d="M34.6666607,8.49413606 C33.1578421,5.88228091 31.1461812,4.0537215 28.6316779,3.00874761 L26.9519396,2.39555716 L24.8597773,1.81685143 C23.2596654,1.52126813 20.9391239,1.37347648 17.8993196,1.37347648 C15.1783127,1.37347648 13.8182468,1.58965799 13.8182468,2.02115165 L13.8182468,21.26942 L13.8182468,21.8489951 C13.9098317,22.0532953 14.1052519,22.1668921 14.4030489,22.1897853 L18.8408364,22.1897853 C22.0051846,22.1897853 24.2183908,22.098792 25.4798717,21.9170952 C26.2586356,21.8489951 27.0041489,21.7009137 27.7158283,21.4737202 C28.540968,21.2473962 28.9758508,21.122208 29.0222266,21.0993147 C29.3661077,20.9176179 29.6189872,20.7924297 29.7796984,20.7243297 C30.3528337,20.4519294 30.9775948,20.0598468 31.6542736,19.5489514 C32.330369,19.0377661 32.9778806,18.4538442 33.5973916,17.7945776 C34.9271237,16.4096829 35.5930106,14.5921354 35.5930106,12.343384 C35.5930106,10.9127029 35.2838384,9.62981346 34.6666607,8.49413606 L34.6666607,8.49413606 Z M35.5930106,30.7156247 C34.1524432,28.2596752 32.089448,26.5702138 29.4028584,25.649269 C26.7171438,24.7280344 23.6370888,24.267562 20.16211,24.267562 L18.3791199,24.267562 L16.2872492,24.131072 C14.5497598,24.131072 13.681161,24.4153536 13.681161,24.9839168 L13.681161,47.875684 C13.681161,48.0118841 14.3330476,48.2054622 15.6362376,48.4558387 C17.0298458,48.6375354 17.9900296,48.7285287 18.5164973,48.7285287 L22.8023239,48.7285287 C24.1968071,48.7285287 25.4483711,48.6265235 26.5573076,48.4213539 C27.6656607,48.2170537 28.9288916,47.7394838 30.3461252,46.9883545 C31.1234308,46.5568609 31.8666107,46.0900131 32.5753734,45.5898398 L35.1814616,43.5427806 C35.7300964,43.1338904 36.1754793,42.3039388 36.5184854,41.0526362 L36.9297428,39.1426465 L37.0668286,37.0608128 C37.0668286,34.3770903 36.5750698,32.2622208 35.5930106,30.7156247 L35.5930106,30.7156247 Z M1.13110353,-0.295409993 L4.0113633,-0.295409993 L6.96045763,-0.159209846 L9.36062549,-0.295409993 L12.6186003,-0.295409993 L19.5105151,-0.5 L21.1911284,-0.5 C21.7619303,-0.5 22.5509027,-0.466094857 23.5565873,-0.398284571 C24.5625636,-0.329894711 25.2940767,-0.295409993 25.7514182,-0.295409993 C26.4371388,-0.295409993 27.0659833,-0.266721026 27.6373685,-0.210502242 C28.2081704,-0.153414095 28.9178081,-0.0574944173 29.7633648,0.0789955168 C31.0884302,0.215195663 32.2781597,0.397761817 33.3296368,0.624085891 C34.4490735,0.828386111 35.5014256,1.11266769 36.4843598,1.47606128 C38.35806,2.08925172 40.0445067,2.980928 41.5413668,4.15022075 C43.0391019,5.32038286 44.1993726,6.55197993 45.022179,7.8464609 C45.3651851,8.43791728 45.6454818,9.10153076 45.862194,9.83932985 C46.0797812,10.5777085 46.1879915,11.3676694 46.1879915,12.2071839 C46.1879915,12.7067776 46.1424906,13.1840577 46.0509057,13.6381548 C45.9596124,14.0931212 45.8111514,14.5356268 45.6055227,14.9671205 C45.2397662,15.8301078 44.7019232,16.6142729 43.9937439,17.3172975 C42.7360548,18.6801683 41.2960708,19.7367337 39.6729168,20.4861243 C38.1640982,21.1448114 36.5867367,21.7009137 34.9408323,22.1553006 L33.0204647,22.6664858 L32.7124592,22.6664858 L33.4670143,22.9727912 L35.8671822,23.8247666 C37.9701364,24.4382468 39.444246,24.9830474 40.2900945,25.4603275 C41.7761627,26.1871147 43.1248534,26.9649045 44.3361667,27.7936968 C45.5480634,28.6230688 46.628416,29.7587462 47.5766412,31.2004392 C48.5257415,32.6430016 49,34.4089669 49,36.4983351 L49,37.2480155 L49,38.0655062 C49,38.3379065 48.9311654,38.7467967 48.7940797,39.2918871 C48.381364,41.4041485 46.9615053,43.2773352 44.5339202,44.9128961 C43.434609,45.6405526 42.1468776,46.3435772 40.6698512,47.0251575 C39.1931165,47.7061583 37.6294636,48.3196385 35.9815175,48.8647289 C32.6144574,49.9549096 28.4695084,50.5 23.5463788,50.5 L17.9809878,50.3635101 L10.3208093,50.1592098 L4.66354161,50.2105022 L0.89134925,50.3635101 C0.754263469,50.3635101 0.685720578,50.1818133 0.685720578,49.8181299 C0.685720578,49.5445705 0.893682625,49.3115813 1.31106508,49.1177134 C1.72757252,48.9250047 2.01953606,48.7482343 2.18724739,48.5885613 L2.36575058,48.2816763 L2.36575058,48.0765068 L2.36575058,1.9200158 C2.36575058,1.76034286 2.26308208,1.57864607 2.05716174,1.37347648 L1.23435538,1.0100829 L0.411549016,0.680304675 C0.205920344,0.613943327 0.0685428906,0.482089993 0,0.283295737 C0,0.0474086743 0.0568760156,-0.102701274 0.170919719,-0.166744322 L0.548343125,-0.295409993 L1.13110353,-0.295409993 Z" id="Fill-1" fill="#A3BF93"></path>
                    <path d="M52.4916753,-0.5 L55.4058817,-0.5 L57.8639593,-0.417437963 L61.4816258,-0.294324253 L63.5185235,-0.329041152 L67.6968671,-0.5 C67.8375591,-0.5 67.9546531,-0.38563845 68.0481491,-0.15691535 L68.1885424,0.631362477 C68.1885424,0.815157825 68.1419437,0.952274989 68.0481491,1.04300571 L67.2753885,1.55792442 L66.8542086,1.86600043 C66.7840119,1.93485076 66.749063,2.0378345 66.749063,2.1752434 L66.749063,48.68276 C66.749063,49.0486002 67.2989865,49.2315204 68.399431,49.2315204 C69.6166708,49.2315204 71.2553892,49.0127164 73.3158849,48.5745249 C74.3924327,48.3443431 75.4229793,48.0838205 76.4060311,47.7955827 C77.3893816,47.5073449 78.4662281,47.1330443 79.6368692,46.671222 C80.4093311,46.3718981 81.2230148,45.9856362 82.0776217,45.5127278 C82.9316312,45.0401112 83.7686142,44.504479 84.5885708,43.9040809 C86.3446819,42.635893 87.5386224,41.7250849 88.1706909,41.171365 C88.6148714,41.171365 88.9900501,41.3904607 89.2944348,41.827777 L89.8207603,42.9334664 L90.3124355,44.108298 L90.7694605,45.0412782 C91.0269478,45.617462 91.283539,46.0664478 91.5419224,46.3891107 C93.1800434,48.7615294 94,50.0626838 94,50.2928656 C94,50.4317332 93.9301021,50.5 93.78941,50.5 L81.9900999,50.1574988 L72.2978841,50.1574988 L64.8173109,50.2604826 C63.9277551,50.2604826 62.6806444,50.3004508 61.0774724,50.3798037 C59.4734042,50.4606153 58.4727286,50.5 58.074848,50.5 L53.2987874,50.5 C52.9475054,50.4279406 52.7602148,50.2345178 52.7369155,49.9197318 C52.7369155,49.4611187 53.0180008,49.2315204 53.5798727,49.2315204 C54.1181466,49.2315204 54.3881797,48.7629881 54.3881797,47.8270905 L54.3881797,3.43876349 C54.3881797,2.73129726 54.294385,2.22833984 54.1067956,1.93164163 C53.9664023,1.63435995 53.5798727,1.42372464 52.9475054,1.29798529 C52.3157356,1.17253767 52,0.83557953 52,0.287694349 C52,-0.168876635 52.1630952,-0.431733156 52.4916753,-0.5" id="Fill-3" fill="#A3BF93"></path>
                    <path d="M124.05373,39.8305882 L124.878376,36.2393615 L125.565922,32.1300255 C125.909695,29.3908598 126.081581,26.6743099 126.081581,23.9809634 C126.081581,19.6995116 125.680221,15.873021 124.878376,12.500023 C124.076532,9.12819989 122.793522,6.35378861 121.029347,4.17796405 C119.265465,2.00302063 117.031233,0.915108357 114.328406,0.915108357 C112.88491,0.915108357 111.624702,1.26051463 110.548073,1.95103347 C109.470567,2.64184601 108.508237,3.5626357 107.661374,4.71369623 L106.870638,5.88766637 L105.943094,7.5107234 L104.121039,11.6884945 C103.227697,15.6248337 102.781026,19.9065792 102.781026,24.5334372 C102.781026,30.7028749 103.640166,36.038462 105.358446,40.5381424 C107.076726,45.0389976 109.860819,47.553473 113.709848,48.0830372 C115.909294,48.0830372 117.971054,47.3922247 119.895715,46.011187 C121.820083,44.6298556 123.206283,42.5700476 124.05373,39.8305882 M125.222149,2.12403032 L128.350015,4.33421927 C130.045201,5.48498609 131.774882,6.98115919 133.538764,8.82303227 C135.302939,10.6643179 136.82127,12.9094587 138.092294,15.5558112 C139.364195,18.2030448 140,21.0344364 140,24.0499859 C140,26.0760169 139.748017,27.9866188 139.243758,29.7820852 C137.869251,34.6630049 135.234243,38.7717535 131.339612,42.1097996 C127.444688,45.4475521 123.251886,48.060715 118.761498,49.9475262 C117.845063,50.3158421 116.745048,50.5 115.462038,50.5 C113.44588,50.5 111.212525,50.120523 108.761097,49.360688 C106.308791,48.6011466 103.817315,47.3872316 101.286082,45.7177679 C98.7539722,44.0491854 96.4799844,41.8965641 94.464411,39.2604916 C92.4485453,36.6250065 90.9015671,33.5110632 89.8246458,29.9201303 C89.2747845,27.9173026 89,25.9376782 89,23.9809634 C89,18.272361 90.8439793,13.5996838 94.5333994,9.96205058 C98.2219426,6.32500475 101.887685,3.5511809 105.530625,1.64087273 C108.119446,0.213428435 111.029238,-0.5 114.25971,-0.5 C117.855879,-0.5 121.510805,0.374676772 125.222149,2.12403032" id="Fill-5" fill="#A3BF93"></path>
                    <path d="M180.053328,39.8305882 L180.878257,36.2393615 L181.565503,32.1300255 C181.909272,29.3908598 182.081156,26.6743099 182.081156,23.9809634 C182.081156,19.6995116 181.680092,15.873021 180.878257,12.500023 C180.076422,9.12819989 178.793134,6.35378861 177.029272,4.17796405 C175.265118,2.00302063 173.031204,0.915108357 170.328116,0.915108357 C168.884929,0.915108357 167.624735,1.26051463 166.548118,1.95103347 C165.470332,2.64184601 164.508013,3.5626357 163.66116,4.71369623 L162.870433,5.88766637 L161.9429,7.5107234 L160.120866,11.6884945 C159.227534,15.6248337 158.781161,19.9065792 158.781161,24.5334372 C158.781161,30.7028749 159.639999,36.038462 161.358259,40.5381424 C163.076519,45.0389976 165.86058,47.553473 169.709565,48.0830372 C171.909277,48.0830372 173.971014,47.3922247 175.895361,46.011187 C177.819999,44.6298556 179.205891,42.5700476 180.053328,39.8305882 M181.222026,2.12403032 L184.349564,4.33421927 C186.045023,5.48498609 187.774392,6.98115919 189.539131,8.82303227 C191.302408,10.6643179 192.820722,12.9094587 194.091731,15.5558112 C195.364495,18.2030448 196,21.0344364 196,24.0499859 C196,26.0760169 195.747435,27.9866188 195.243182,29.7820852 C193.868691,34.6630049 191.23459,38.7717535 187.340003,42.1097996 C183.444247,45.4475521 179.251493,48.060715 174.761157,49.9475262 C173.844732,50.3158421 172.745022,50.5 171.461735,50.5 C169.445892,50.5 167.212271,50.120523 164.761163,49.360688 C162.308885,48.6011466 159.817145,47.3872316 157.285941,45.7177679 C154.754153,44.0491854 152.480191,41.8965641 150.464641,39.2604916 C148.448506,36.6250065 146.901545,33.5110632 145.824636,29.9201303 C145.274781,27.9173026 145,25.9376782 145,23.9809634 C145,18.272361 146.843958,13.5996838 150.533336,9.96205058 C154.222129,6.32500475 157.887829,3.5511809 161.530436,1.64087273 C164.119227,0.213428435 167.028986,-0.5 170.25942,-0.5 C173.85584,-0.5 177.510432,0.374676772 181.222026,2.12403032" id="Fill-7" fill="#A3BF93"></path>
                    <path d="M231.277024,6.846316 C229.283472,5.13928459 227.386172,3.97779331 225.584835,3.36242405 C223.784076,2.74850957 221.784743,2.28152723 219.587413,1.9629318 L217.004784,1.82589212 C215.260389,1.82589212 214.387759,2.16718202 214.387759,2.85063468 L214.387759,46.9448241 C214.387759,47.4912371 214.506846,47.8732607 214.745309,48.0894401 C214.982616,48.3056194 215.350861,48.4138546 215.849466,48.4138546 C216.166839,48.4138546 217.192086,48.2768149 218.92463,48.0033175 C220.658041,47.7306929 221.875504,47.4912371 222.577597,47.286114 C224.820308,46.5124654 226.756918,45.5334027 228.388295,44.348926 C230.132401,43.0969478 231.565493,41.7649571 232.687281,40.3532447 C233.808492,38.9418233 234.78807,37.2909462 235.626593,35.4003223 C236.305852,33.6700145 236.833073,31.655444 237.206521,29.3551559 C237.580836,27.0557407 237.766981,25.0053827 237.766981,23.2069915 C237.766981,15.7614599 235.604048,10.3075135 231.277024,6.846316 L231.277024,6.846316 Z M211.363756,-0.294876915 L212.587289,-0.294876915 L213.878748,-0.294876915 L214.762074,-0.294876915 L215.611292,-0.294876915 L216.08764,-0.5 L217.616406,-0.5 L219.31542,-0.5 C221.920884,-0.5 224.446282,-0.146199047 226.893059,0.560239039 C228.456799,0.97048521 229.917639,1.4095359 231.277024,1.8768092 C232.63612,2.34437345 233.983654,2.88613116 235.320204,3.50179137 C237.880288,4.59636307 240.146411,5.90769604 242.116551,7.43549933 C243.996797,8.89521921 245.616902,10.6392019 246.975997,12.6689021 C248.244911,14.6072425 249.117542,16.8993839 249.592445,19.5444533 C249.864437,21.1863109 250,22.6346835 250,23.8881165 C250,24.9608666 249.903459,25.9463303 249.711532,26.8468352 C249.519316,27.747922 249.241542,28.6202042 248.879078,29.463973 L248.437705,30.4558376 L247.894008,31.4479933 L246.398772,33.9792994 C244.993718,36.1227629 243.436336,38.0154235 241.726049,39.657281 C240.015473,41.2991385 238.050536,42.8158856 235.830371,44.2060673 C234.811194,44.8217275 233.734496,45.4155661 232.601724,45.9849645 L229.10224,47.5584477 L225.466326,48.8584334 L221.252609,50.0897538 C219.983406,50.3632513 216.200368,50.5 209.902338,50.5 L203.92168,50.5 L202.324988,50.5 C202.121211,50.3632513 202.007615,50.20439 201.98507,50.0213795 L202.15474,49.850589 C202.313137,49.7138403 202.495237,49.5768006 202.698436,49.4403429 C203.174785,49.1662635 203.423364,48.938446 203.446777,48.7560173 L203.446777,2.44155233 C203.446777,2.21344382 203.253694,1.93412728 202.868684,1.60302079 C202.483675,1.27278718 202.053285,1.03885957 201.577226,0.901819893 C201.260142,0.901819893 201.067059,0.719391277 201,0.354534045 C201,-0.0417462989 201.282687,-0.326300026 201.848929,-0.5 L211.363756,-0.294876915 Z" id="Fill-9" fill="#A3BF93"></path>
                    <path d="M79.4769261,94.7815818 C76.5807628,91.6913808 73.9583878,87.94809 71.6095102,83.5528778 C69.4206578,79.386656 67.8695781,76.1705687 66.957726,73.9040318 C65.7717945,75.6670237 64.7118464,77.6128572 63.7767179,79.7418246 C63.3882934,80.680276 62.8645748,82.0080694 62.2035257,83.7249127 C61.8386685,84.6405819 61.4845765,85.5562511 61.1424138,86.4719203 L60.151131,89.5624134 L59.4321819,92.0348663 L59.1249337,93.408224 L58.885187,94.7815818 L79.4769261,94.7815818 Z M71.8492569,61.5 L75.3037624,67.4753622 L80.7766209,76.6454899 C83.1481929,80.514667 85.0527826,83.4681748 86.4895171,85.5060134 L87.7545882,87.6002234 L89.4310694,90.5540233 L92.9882819,97.6290648 C93.8998431,99.5290419 94.9149842,101.93344 96.0322503,104.841384 C96.8760191,107.131287 97.3665687,108.917061 97.5036084,110.198998 C97.6403571,110.633904 97.9022164,110.942632 98.2897681,111.12635 L99.4189634,111.74439 C99.7148644,111.88196 99.9089312,112.133732 100,112.5 L96.6141598,112.190688 L92.8515332,111.950598 L88.4386228,111.813321 C85.3603218,111.813321 82.2590353,111.996163 79.1347634,112.362431 C79.818798,111.927524 80.7478164,111.069687 81.9226916,109.786874 C83.096694,108.504937 83.6844225,106.925371 83.6844225,105.048176 C83.6844225,103.010921 83.353316,101.345776 82.6922669,100.05274 C82.0306358,98.7588282 81.4722937,97.8492927 81.0163676,97.3226734 C80.9014405,97.2081782 80.6227059,97.0709009 80.1778361,96.9105492 C79.7335482,96.7501976 79.2488176,96.6698757 78.7242263,96.6698757 L77.8010269,96.6698757 C77.549642,96.6698757 77.1507431,96.7776531 76.6034572,96.9926236 C75.5548564,97.3270546 74.3686339,97.9710899 73.0459537,98.9256056 C71.8830077,99.7802302 70.99385,100.481805 70.3781898,101.030915 L69.2149528,100.001042 L68.2920444,99.2124277 L67.0261004,98.3180803 C66.6839376,98.0788672 66.3080241,97.8460798 65.8974869,97.6197182 C65.4872408,97.3927725 65.0650655,97.2075941 64.6318339,97.064183 C63.9248139,96.8013115 62.9442964,96.6698757 61.6899906,96.6698757 L59.945717,96.7753164 L58.8165217,96.9152225 L58.6113986,98.2123475 L58.4743589,100.001042 C58.4743589,101.580316 58.7027584,102.988139 59.1586844,104.22422 C59.7743446,105.757929 60.7321676,107.292515 62.0318624,108.825348 C63.3318481,110.359349 64.6434721,111.515692 65.9658613,112.293792 L60.6300425,112.087876 L52.5912542,111.950598 L50.5734832,111.950598 L49.7692843,111.950598 C49.5295376,111.950598 49.2734974,111.973381 49,112.019237 C49,111.058004 49.2560402,109.335027 49.7692843,106.850891 C50.2822375,104.366462 50.9782012,101.636103 51.8554297,98.6592291 C52.734113,95.682647 53.6055224,93.2908081 54.4731494,91.4813756 C55.0658242,90.016597 56.6393074,87.0861634 59.193308,82.6897829 L66.5818125,70.2232461 L71.8492569,61.5 Z" id="Fill-11" fill="#A3BF93"></path>
                    <path d="M148.914509,61.6029962 L149.60987,61.6029962 L150.443889,61.5 C150.744266,61.5 150.930523,61.6367464 151,61.9105301 C150.861046,62.2070079 150.432063,62.4697355 149.713642,62.6975492 C148.99522,62.8342956 148.636601,63.1080793 148.636601,63.5186094 L149.192417,70.0513041 C149.192417,70.2564237 149.215181,70.8266852 149.262189,71.7615068 C149.308606,72.6972012 149.331666,73.4263213 149.331666,73.9506127 L149.331666,76.0716364 L149.47062,83.1518986 L149.331666,95.7732988 L149.192417,108.223912 L149.435734,109.968737 L149.748824,111.815977 C149.748824,112.271895 149.47062,112.5 148.914509,112.5 C147.872059,112.363254 146.921259,112.29488 146.064476,112.29488 L144.013575,112.328631 L141.858607,112.363254 C141.742714,112.363254 141.650176,112.306809 141.580404,112.191884 C141.580404,112.054847 142.079159,111.570997 143.075488,110.739172 C144.070931,109.907638 144.662224,109.343486 144.847594,109.047881 C145.566015,107.976895 145.925522,107.042656 145.925522,106.245453 C145.925522,105.698759 145.751386,105.163411 145.403705,104.638829 C143.990515,102.315013 142.159575,100.161985 139.91207,98.1794532 C137.548671,96.0604662 135.092439,94.249304 132.543669,92.7456757 C131.01429,91.8341301 129.433172,90.769254 127.799428,89.5495927 C126.166277,88.3305132 124.387371,86.901368 122.463894,85.2604114 C120.726083,83.7337981 118.988273,82.1731436 117.250462,80.578448 C115.697726,79.1423201 114.145286,77.6616768 112.593141,76.1353544 C109.742812,73.2642622 107.970706,71.3503948 107.275346,70.393461 L106.927961,70.1196773 C106.580576,70.1196773 106.40644,70.6794647 106.40644,71.7984574 L106.40644,73.340782 L106.40644,74.8819429 L107.031733,81.2543243 C107.031733,83.1955411 107.26352,85.3427502 107.727094,87.6953699 L108.596295,91.7715759 C109.337776,95.4040836 110.275863,98.1451212 111.411146,99.9949797 L113.045185,102.872764 L114.783291,105.955958 C115.26963,106.7101 115.860036,107.532615 116.555397,108.423503 C117.250462,109.245145 118.050186,109.998996 118.953978,110.684474 C119.417552,111.02663 120.007958,111.23175 120.726083,111.300414 C120.981226,111.369369 121.2479,111.506988 121.525807,111.712399 C121.734238,111.918391 121.873488,112.135149 121.942965,112.363254 L121.804011,112.5 C121.270369,112.5 120.355343,112.448502 119.058045,112.346088 C117.760157,112.243382 116.856365,112.191884 116.346966,112.191884 L111.619872,112.08947 L108.282909,112.191884 L104.842765,112.29488 L104.181699,112.191884 C103.996329,112.118274 103.869497,111.969599 103.799724,111.747604 C104.008155,111.542484 104.406687,111.405447 104.995615,111.337074 L106.197714,111.165704 C106.40644,111.165704 106.522038,110.983279 106.545098,110.618428 L105.726157,106.753742 L105.111804,102.887893 L104.634039,98.7150917 C104.554805,97.9853898 104.487989,97.2844918 104.435364,96.611816 C104.382148,95.9391402 104.355835,95.2836304 104.355835,94.6449957 L104.181699,90.1637876 L104.181699,86.1620647 L104.181699,81.2019534 L104.360566,75.8659349 L104.495085,71.077193 L104.495085,65.0236924 C104.495085,64.447321 104.450147,64.0682135 104.362044,63.8834604 C104.295228,63.6530282 104.040676,63.3420029 103.598093,62.9498026 C103.199561,62.6742732 103,62.316405 103,61.8788166 C103.06652,61.8567044 103.122398,61.8340103 103.166745,61.8104434 C103.411244,61.7185033 103.588928,61.6486753 103.700387,61.6029962 L104.634039,61.5 L108.352682,61.6029962 L112.245461,61.7737837 L115.825741,61.7400335 L118.710365,61.5 C119.058045,61.5 119.232181,61.7170485 119.232181,62.1502727 C119.232181,62.4924296 119.115401,62.7886164 118.884501,63.0394151 C118.166079,63.6326617 117.806573,64.1223301 117.806573,64.5101661 C117.806573,65.24045 118.02683,65.9358199 118.467343,66.5968577 C118.90697,67.2581865 119.417552,67.8511421 119.996428,68.3754336 L122.221168,70.1880505 C132.138634,78.0780259 137.780458,82.6049131 139.147528,83.7678392 L142.310651,86.641259 L145.125798,89.240604 L146.89879,91.053221 C147.199167,91.053221 147.350243,90.4026573 147.350243,89.101821 C147.350243,84.9234916 146.678238,80.6430389 145.334228,76.2595899 C145.218335,75.8036717 144.940427,75.1289592 144.499914,74.2392349 C144.245066,73.7373465 144.001454,73.2863744 143.770554,72.8869004 C143.538767,72.4868445 143.202616,71.9218201 142.762103,71.1915362 C141.371973,68.8176772 140.166917,67.0478299 139.147528,65.883449 C137.872995,64.5136575 136.691296,63.4639108 135.602429,62.733045 C134.744758,62.298948 134.316662,61.9905413 134.316662,61.8081158 C134.316662,61.6713694 134.502033,61.6029962 134.872773,61.6029962 L141.719357,61.7054105 L145.230457,61.7054105 C145.60031,61.7054105 146.191604,61.6882445 147.002562,61.6544943 C147.813521,61.6201622 148.450639,61.6029962 148.914509,61.6029962" id="Fill-13" fill="#A3BF93"></path>
                    <path d="M188.277067,68.8470631 C186.283838,67.1391881 184.386572,65.9777167 182.585267,65.3632308 C180.78454,64.748454 178.784375,64.2814796 176.587951,63.9628896 L174.005368,63.8258523 C172.260426,63.8258523 171.388389,64.1680092 171.388389,64.8505773 L171.388389,108.944594 C171.388389,109.491289 171.507474,109.873306 171.745933,110.088608 C171.983236,110.304784 172.351474,110.413017 172.85007,110.413017 C173.167148,110.413017 174.192378,110.277144 175.92518,110.00336 C177.65856,109.730449 178.876001,109.491289 179.578082,109.286169 C181.820753,108.512243 183.757329,107.533197 185.388389,106.349031 C187.132752,105.096202 188.565819,103.764816 189.687588,102.352546 C190.80849,100.940857 191.788339,99.2902994 192.626848,97.4005808 C193.306095,95.6694297 193.833306,93.6548937 194.206747,91.3552268 C194.580766,89.055269 194.767198,87.005819 194.767198,85.2068767 C194.767198,77.7617635 192.604014,72.3082014 188.277067,68.8470631 L188.277067,68.8470631 Z M168.36444,61.7051196 L169.587951,61.7051196 L170.879098,61.7051196 L171.762408,61.7051196 L172.6119,61.7051196 L173.087373,61.5 L174.616979,61.5 L176.315963,61.5 C178.920514,61.5 181.446734,61.8537949 183.893179,62.5608028 C185.456313,62.9713329 186.917995,63.4100851 188.277067,63.8773504 C189.636427,64.3451976 190.983938,64.8866551 192.320464,65.5023048 C194.880502,66.5971487 197.146585,67.9084592 199.11669,69.4353635 C200.996903,70.8950584 202.616979,72.6395931 203.976051,74.6692586 C205.244653,76.6075658 206.117557,78.8990861 206.592163,81.5441103 C206.86444,83.1859397 207,84.6342876 207,85.888281 C207,86.9604308 206.90346,87.9467505 206.711248,88.846949 C206.519324,89.7483114 206.241556,90.6205787 205.879098,91.4634601 L205.437732,92.4558897 L204.894046,93.4474465 L203.398836,95.9787093 C201.993517,98.1221361 200.436163,100.014764 198.726195,101.656594 C197.01565,103.298423 195.050747,104.815144 192.830622,106.206175 C191.811174,106.822116 190.734784,107.415071 189.602032,107.985042 L186.10261,109.558498 L182.466182,110.858171 L178.252539,112.08947 C176.983938,112.362963 173.200677,112.5 166.903047,112.5 L160.922207,112.5 L159.325832,112.5 C159.121769,112.362963 159.007887,112.203522 158.98592,112.021097 C159.053844,111.952724 159.110207,111.895988 159.155298,111.849727 C159.313981,111.712981 159.49521,111.575944 159.699273,111.439488 C160.174746,111.165413 160.424189,110.938182 160.446734,110.755174 L160.446734,64.441502 C160.446734,64.2142702 160.254521,63.9346675 159.869519,63.6038577 C159.483649,63.2736297 159.053844,63.0397061 158.578082,62.9026688 C158.260137,62.9026688 158.067925,62.7202433 158,62.3553923 C158,61.9588278 158.283549,61.673697 158.849781,61.5 L168.36444,61.7051196 Z" id="Fill-15" fill="#A3BF93"></path>
                    <path d="M53.2770666,128.847354 C51.2838385,127.139188 49.386572,125.977717 47.5852672,125.363231 C45.7845404,124.748454 43.7843753,124.28148 41.5879511,123.96289 L39.0053679,123.826143 C37.2601371,123.826143 36.3883888,124.168009 36.3883888,124.850868 L36.3883888,168.944885 C36.3883888,169.49158 36.5074738,169.873306 36.7459328,170.088899 C36.9832356,170.305075 37.3514741,170.413308 37.8500702,170.413308 C38.1671484,170.413308 39.1923776,170.277435 40.9251796,170.00336 C42.6585597,169.73074 43.8760013,169.49158 44.5780824,169.286169 C46.8207532,168.512534 48.7573293,167.533488 50.3883888,166.349322 C52.1327525,165.096493 53.5658188,163.765107 54.6875877,162.352546 C55.8084896,160.941148 56.7883393,159.29059 57.6268478,157.400872 C58.3060946,155.669721 58.8333058,153.655185 59.206747,151.355518 C59.5807664,149.055269 59.7669089,147.00611 59.7669089,145.206877 C59.7669089,137.762054 57.6040135,132.308201 53.2770666,128.847354 L53.2770666,128.847354 Z M33.3644397,121.705411 L34.5879511,121.705411 L35.8790982,121.705411 L36.7624081,121.705411 L37.6119002,121.705411 L38.087373,121.5 L39.6169791,121.5 L41.3159633,121.5 C43.9205137,121.5 46.4467338,121.854086 48.8931786,122.561094 C50.4563135,122.971333 51.9179949,123.410376 53.2770666,123.877641 C54.6364275,124.345198 55.9839376,124.886946 57.3204641,125.502596 C59.8805021,126.597149 62.1457181,127.908459 64.1166901,129.435654 C65.9969031,130.895058 67.6169791,132.639884 68.9760509,134.66955 C70.2446527,136.607857 71.1166901,138.899086 71.5921629,141.544401 C71.8641506,143.18594 72,144.634579 72,145.888572 C72,146.960431 71.9034602,147.947041 71.7112478,148.84724 C71.5184573,149.748311 71.2406887,150.62087 70.8790982,151.46346 L70.4368651,152.456181 L69.8931786,153.447737 L68.3979685,155.978709 C66.9935172,158.122136 65.4361632,160.015055 63.7261954,161.656885 C62.0156495,163.298714 60.0507474,164.815435 57.8306219,166.206466 C56.8111735,166.822116 55.734784,167.415071 54.6020315,167.985333 L51.1026096,169.558498 L47.4661822,170.858462 L43.2525394,172.089761 C41.9839376,172.363254 38.2006772,172.5 31.9030473,172.5 L25.9222066,172.5 L24.325832,172.5 C24.1217689,172.363254 24.0075977,172.203813 23.9859196,172.021388 C24.0538442,171.952724 24.1102073,171.896279 24.1552977,171.850018 C24.3139813,171.712981 24.4952102,171.576235 24.6992733,171.439488 C25.1747461,171.165704 25.4241886,170.938473 25.4467338,170.755174 L25.4467338,124.441793 C25.4467338,124.214561 25.2545214,123.934958 24.8695185,123.604149 C24.4836485,123.27363 24.0538442,123.039706 23.5780824,122.90296 C23.2601371,122.90296 23.0679247,122.720243 23,122.355683 C23,121.959119 23.2835494,121.673697 23.8497812,121.5 L33.3644397,121.705411 Z" id="Fill-17" fill="#A3BF93"></path>
                    <g id="Group-21" transform="translate(77.000000, 119.500000)">
                        <mask id="mask-2" fill="white">
                            <use xlink:href="#path-1"></use>
                        </mask>
                        <g id="Clip-20"></g>
                        <path d="M3.23978024,0.0195367232 L7.86221138,0.157615819 L13.1392473,0.295694915 L18.4517862,0.157615819 C18.6586425,0.157615819 18.7733671,0.249570621 18.7965467,0.433774011 L18.6935587,0.779265537 L18.4517862,1.02134463 C16.0827683,2.84046328 14.3812653,5.1719435 13.346397,8.01519774 C12.3115287,10.8590395 11.7945347,14.0651186 11.7945347,17.6340226 C11.7945347,19.3838079 11.8746365,21.0657288 12.0357204,22.6765537 L12.3115287,25.6467232 L12.6565826,28.0995367 C12.9784569,31.0235819 13.6855826,33.8727119 14.7779599,36.6481017 C15.8700437,39.4220226 17.3708521,41.8055028 19.2795048,43.7970734 C21.1881575,45.7889379 23.4996665,47.1876497 26.2131515,47.9935028 C27.1101156,48.269661 27.9839,48.4080339 28.8347982,48.4080339 C30.3746305,48.4080339 31.8813072,48.050791 33.3533611,47.3371864 C34.8248281,46.6238757 36.2279299,45.6570282 37.5617862,44.4357627 C38.8035108,43.3082147 39.8953012,42.0869492 40.8392114,40.774904 C43.4376784,37.4366215 44.7366186,33.1191525 44.7366186,27.8233785 C44.7366186,26.1194237 44.598421,24.3981356 44.3226126,22.6595141 C44.0465108,20.9211864 43.6386665,19.1655254 43.097906,17.3925311 C42.5577323,15.6198305 41.9198521,13.9505424 41.1836784,12.3840791 C40.5399299,10.9333672 39.7400856,9.48294915 38.7861994,8.03223729 C37.8317263,6.58181921 37.0556485,5.51126554 36.4576725,4.82057627 C35.8368102,4.01472316 35.0780437,3.25499435 34.1810796,2.54109605 C33.858912,2.28785311 33.3991335,1.98848588 32.8014509,1.64299435 L31.0764749,0.814225989 C30.9385707,0.699062147 30.8696186,0.456983051 30.8696186,0.0882824859 L33.1811275,0.157615819 L37.1474868,0.295694915 L41.0108581,0.157615819 L45.3574808,0.0195367232 C45.4724988,0.0195367232 45.5643371,0.0662485876 45.6332892,0.157615819 L45.4261395,0.365028249 L44.7025826,0.986384181 C44.1726784,1.40091525 43.8056186,1.73524294 43.5984689,1.98848588 L43.7014569,2.50613559 L44.0124749,3.09370621 L44.4264808,3.71535593 C47.4389539,8.91917514 48.9450437,14.7558079 48.9450437,21.2261356 C48.9450437,22.5161469 48.8757982,23.8687345 48.7376006,25.2844859 C48.5999898,26.7008249 48.4048701,28.0472429 48.1516545,29.3257966 C47.8981455,30.6034689 47.507906,31.9678079 46.978882,33.4185198 C45.3692174,38.1616836 43.3167922,41.8686667 40.8210198,44.5397627 C38.326421,47.2108588 35.8250737,49.0699322 33.3193251,50.1178644 C30.8126964,51.165209 28.6276485,51.7930282 26.7653551,52.0001469 C25.7301934,52.0001469 24.7176246,51.9648927 23.7297024,51.8958531 C22.7409,51.8271073 21.7171814,51.7116497 20.6591335,51.5506554 C18.6815287,51.2283729 16.6006425,50.5952655 14.4161814,49.6513333 C12.2308401,48.7074011 10.1848701,47.3659774 8.27592395,45.6279435 C6.36668443,43.8890282 4.74587006,41.6265876 3.41201377,38.8406215 C1.22755269,34.3280791 0.135468862,29.1236723 0.135468862,23.2291638 C0.135468862,20.5351525 0.376361078,17.7841469 0.859319162,14.9749718 C0.928271257,14.4684859 1.00895988,13.9446667 1.10109162,13.4032203 C1.19234311,12.8626554 1.3769,12.0964633 1.65329521,11.1064068 C1.92910359,10.1163503 2.27386407,9.09162712 2.68787006,8.03223729 C3.37797784,6.16728814 4.11385808,4.91253107 4.89580419,4.2679661 C5.35558263,3.94568362 5.58532515,3.49619209 5.58532515,2.92066667 C5.58532515,2.48410169 5.42453473,2.09748023 5.10266048,1.7640339 C4.77990599,1.43 4.4237024,1.22846328 4.03287605,1.15971751 C3.13591198,1.15971751 2.68787006,0.940553672 2.68787006,0.503107345 C2.68787006,0.249570621 2.87184012,0.0882824859 3.23978024,0.0195367232" id="Fill-19" fill="#A3BF93" mask="url(#mask-2)"></path>
                    </g>
                    <path d="M166.098661,128.247734 C166.052324,128.407679 165.961689,128.784091 165.824717,129.377551 C165.687453,129.972177 165.584287,130.485519 165.515801,130.919324 L165.413218,132.220742 C165.390486,132.471877 165.361926,132.660374 165.327537,132.785651 C165.293148,132.911801 165.230199,133.099424 165.139273,133.350851 C165.002301,133.876429 164.624899,134.469306 164.008233,135.131814 L163.802775,135.268744 C163.64278,135.268744 163.563511,135.029263 163.563511,134.550008 L163.631705,133.48749 L163.665802,132.528688 C163.665802,131.817818 163.608974,131.348177 163.494733,131.118601 C163.015039,129.605962 162.289378,128.327852 161.319207,127.284854 C160.348162,126.241855 159.155047,125.433386 157.738696,124.860028 C157.12203,124.60831 156.390541,124.390387 155.546268,124.206843 C155.13506,124.115362 154.769606,124.046897 154.449616,124.000574 C154.129334,123.955125 153.752807,123.932109 153.318576,123.932109 C150.212222,123.932109 147.523196,124.594908 145.250041,125.920216 C142.97776,127.245231 141.841766,129.152928 141.841766,131.643888 C141.841766,133.0834 142.915103,134.248762 145.062069,135.139681 C147.117817,135.962426 150.39524,136.841982 154.894921,137.778933 C159.211876,138.624694 162.741095,139.470455 165.481995,140.315924 C168.222895,141.161394 170.278644,142.371622 171.648948,143.948647 C172.654091,145.091575 173.481461,146.244992 174.132807,147.410353 C174.783571,148.575714 175.258019,149.71806 175.554695,150.837681 C175.851079,151.957593 176,152.974662 176,153.888014 C176,156.58466 175.086367,159.189825 173.258808,161.702927 C171.75124,163.827964 170.100871,165.570761 168.308285,166.929573 C166.515115,168.289549 164.568362,169.380619 162.466859,170.203364 L159.383528,171.12837 C158.218682,171.403104 156.962327,171.643168 155.614462,171.848563 L151.811299,172.328401 C150.509481,172.442315 149.195714,172.5 147.871455,172.5 C146.31755,172.5 144.993582,172.408519 143.897222,172.225849 L141.464364,171.814768 L139.271643,171.266756 L135.160147,170.341459 C133.903792,170.090324 132.807723,169.965048 131.871358,169.965048 C131.003188,169.965048 130.403424,170.004961 130.072651,170.085371 C129.741004,170.164907 129.050023,170.410216 128,170.821297 C128,170.638627 128.308042,169.840063 128.924416,168.423566 C129.198944,167.784948 129.439082,167.219456 129.64454,166.728839 C129.849998,166.237348 129.998336,165.843456 130.089554,165.546289 L130.500762,163.628395 L130.878164,160.717323 C131.014845,159.438921 131.152108,158.548294 131.28908,158.045732 C131.357567,157.566477 131.505613,157.31505 131.734094,157.292326 C132.122279,157.545209 132.453927,158.106913 132.727871,158.979769 L133.481801,161.011285 C134.692402,163.031148 135.754082,164.626527 136.667715,165.797133 C137.512862,166.854116 138.677709,167.719979 140.162545,168.397345 C141.64709,169.074712 143.839811,169.619227 146.740415,170.032347 L148.385246,170.204821 L149.755551,170.204821 C152.03978,170.204821 154.312935,169.828409 156.57385,169.074712 C157.738696,168.663922 158.732182,168.196029 159.554306,167.669869 C160.376722,167.144873 161.176115,166.459932 161.952485,165.615045 C163.254595,164.130957 164.031256,162.247442 164.282469,159.963917 C164.282469,157.429547 163.408761,155.414055 161.661637,153.918896 C159.913931,152.422863 157.829623,151.332668 155.409004,150.647727 C154.334793,150.350851 153.067654,150.048148 151.605841,149.740202 C150.144027,149.431672 148.385246,149.095174 146.329498,148.729833 C144.82193,148.478407 143.399751,148.169877 142.064127,147.804536 C140.727337,147.44007 139.511782,146.971594 138.415422,146.400859 C136.176364,145.37301 134.394851,144.071593 133.070593,142.496024 C131.745751,140.920456 131.083622,139.185232 131.083622,137.289772 C131.083622,135.554549 131.642877,133.773586 132.761968,131.94659 C134.20105,129.686081 135.776813,127.836652 137.490131,126.398014 C139.203157,124.959667 141.178471,123.817904 143.417528,122.973308 C144.810273,122.493471 145.986776,122.150854 146.946164,121.945459 C147.517076,121.831545 148.191445,121.728119 148.968107,121.63693 C149.743894,121.546323 150.429046,121.5 151.023563,121.5 L152.085243,121.5 C152.245238,121.5 152.467891,121.511654 152.753784,121.535252 C153.038803,121.558851 153.353547,121.605174 153.695978,121.675096 C154.381421,121.745891 155.477781,121.955656 156.98535,122.305556 L160.58218,122.900764 L163.152303,123.041482 L164.762163,123.041482 L165.481995,122.904552 C166.692596,122.790638 167.857442,122.584951 168.976534,122.288076 C169.182283,122.288076 169.296524,122.333525 169.319256,122.425006 C169.319256,122.630692 168.86171,123.452563 167.948951,124.891202 C167.035318,126.329549 166.418652,127.448587 166.098661,128.247734" id="Fill-22" fill="#A3BF93"></path>
                    <path d="M222.791988,119.776629 L223.388866,119.776629 L224.117067,119.5 L224.746916,119.5 L225.476526,119.5 C226.492457,119.5 227,119.755146 227,120.265437 C227,120.38168 226.899957,120.648597 226.702125,121.066189 C226.193173,121.855463 225.807091,123.281866 225.542188,125.347164 C225.542188,126.185584 225.50358,126.842135 225.426646,127.31829 C225.348302,127.793561 225.255586,128.21233 225.144552,128.574596 C225.07889,128.892719 224.879367,129.084593 224.548802,129.152867 C224.283899,129.152867 224.02886,128.923619 223.786502,128.463944 C223.65405,128.051061 223.267687,127.580793 222.626565,127.05255 L221.698841,126.191764 C220.617248,125.205024 219.131255,124.401624 217.243117,123.781564 C215.354979,123.162092 213.549412,122.702123 211.826697,122.404012 L208.446648,121.990835 L208.446648,167.382648 C208.446648,169.0898 208.778623,170.011797 209.441162,170.150111 C210.103983,170.219268 210.434266,170.508257 210.434266,171.015311 C210.434266,171.338437 210.180917,171.5 209.671965,171.5 L206.358988,171.292234 L203.113081,171.15392 L199.63468,171.292234 L195.55912,171.5 C195.294217,171.426134 195.161484,171.303417 195.161484,171.131554 C195.161484,170.689537 195.482185,170.431448 196.121898,170.357877 C196.69623,170.357877 196.984242,169.965594 196.984242,169.181617 L196.984242,122.129149 C194.598706,122.129149 192.847528,122.193303 191.733245,122.320729 C190.617271,122.448449 189.540187,122.685938 188.502556,123.033195 C187.464081,123.381629 186.525648,123.810109 185.686131,124.319812 C184.029642,125.293604 182.439661,126.857733 180.915341,129.013964 L180.650439,129.152867 C180.319028,129.152867 180.108797,128.58725 180.02059,127.457487 C180.02059,126.507827 179.921392,125.586712 179.722715,124.694732 C179.524037,123.802752 179.214045,122.801003 178.794991,121.688015 L178.397636,120.784852 C178.132451,120.228946 178,119.869623 178,119.707471 L184.162375,119.776629 L188.800713,119.776629 L194.79682,119.776629 L200.528023,119.845786 L222.791988,119.776629 Z" id="Fill-24" fill="#A3BF93"></path>
                </g>
                <g id="Group-3-Copy" transform="translate(0.000000, 52.000000)">
                    <mask id="mask-4" fill="white">
                        <use xlink:href="#path-3"></use>
                    </mask>
                    <g id="Clip-2"></g>
                    <path d="M17.8803952,24.5622183 L17.9093336,24.5622183 C17.9093336,25.045445 17.9754784,25.5369321 17.8969314,26.0118985 C17.7150333,27.0155233 18.2648618,27.1146468 19.0544652,27.1230776 C20.1789265,27.1352975 20.9850661,26.4703444 21.7126588,25.8136517 C22.7255008,24.8884996 23.754879,23.9013954 24.4659355,22.7532156 C25.3960965,21.2415831 25.9831315,19.5193134 26.8140754,17.9415987 C27.0827886,17.4377213 27.0290459,17.169262 26.6776518,16.8264601 C26.4006705,16.5621309 26.0740806,16.3143223 25.8880484,15.9921712 C25.5655925,15.4511224 25.8673781,14.8192105 26.3800002,14.9720258 C28.0212177,15.4511224 27.2936251,14.2533809 27.2646867,13.7495034 C27.2274803,13.1423724 26.9753033,12.526981 26.7148582,11.9694117 C26.3221235,11.1392529 25.85911,10.3462654 25.3836944,9.55740809 C24.9785576,8.88419475 24.2137585,8.59921487 23.7920855,7.79796709 C23.3001336,6.87281502 22.1301977,6.28220454 21.2124388,5.61312135 C18.8105563,3.86607078 16.1275584,4.89034629 13.5768501,5.00186016 C12.473059,5.04316159 11.3568657,5.63790221 10.3233534,6.13764953 C9.72805035,6.42675955 8.93431292,6.98845903 8.85990004,7.51298721 C8.74828071,8.3348857 8.44236108,8.54139286 7.74370677,8.70659859 C6.92516505,8.90484546 5.78003344,8.92962632 6.40840891,10.391697 C6.49522394,10.594074 6.06114878,11.2135955 5.7345589,11.3540204 C5.17232822,11.6100892 5.31701994,11.0731706 5.30875184,10.76754 C5.17646227,10.796451 4.93255337,10.8129716 4.92841932,10.8584032 C4.85400644,11.5605275 4.62663374,12.3080834 4.8002638,12.9482556 C4.99456411,13.6669006 4.96562576,14.2038192 4.63903588,14.8605119 C4.18429048,15.785664 3.91557729,16.8223299 4.51501441,17.776393 C5.12271963,18.755237 5.75522915,19.7547316 6.56550277,20.5601095 C8.78548715,22.7779964 11.0840185,24.9132804 13.8538314,26.457954 C14.0812041,26.5818583 14.3747216,26.5901186 14.6393007,26.6520707 C14.6558369,26.4207827 14.746786,26.168844 14.6806412,25.9705971 C13.8455633,23.6329361 14.4780728,21.1672406 14.0150593,18.7965384 C13.8951719,18.1728868 14.1184105,17.7516122 14.8460032,17.5120639 C15.5694618,17.2683854 16.3880035,17.0783988 16.7517998,16.1532467 C17.0122449,15.496554 17.5951458,15.6906707 17.8142504,16.2275893 C18.0416231,16.7934189 18.1656446,17.4418514 18.1532425,18.0531126 C18.1077679,20.2214378 17.9754784,22.3938931 17.8803952,24.5622183 L17.8803952,24.5622183 Z M30.6711432,11.8165964 C30.6711432,12.8326116 30.6876794,13.8486269 30.6670092,14.8605119 C30.650473,15.5956774 30.654607,16.2151989 31.4276742,16.7190764 C32.1263285,17.169262 32.1883392,19.2425938 31.5971702,20.2586091 C31.0473417,21.2126721 30.3734917,22.1089132 29.7120438,22.996894 C28.9348426,24.0376901 28.0997646,25.0371847 27.2977591,26.0655904 C27.1489334,26.255577 26.954633,26.4744746 26.9380968,26.689242 C26.8430137,28.2628266 25.6606757,28.7336629 24.4452652,29.1260265 C22.6180155,29.7248972 20.811436,30.4559326 18.8188244,30.2907269 C18.1408403,30.2329049 17.8762612,30.6541795 17.859725,31.2860914 C17.8349207,32.2484147 17.7605078,33.2148682 17.7646418,34.1771916 C17.777044,36.1472699 17.8555909,38.1173482 17.8473228,40.0874265 C17.8431888,40.9506264 17.777044,41.8303469 17.5951458,42.6728961 C17.0990599,44.9279543 17.3098964,47.1747522 17.5207329,49.4298104 C17.5786096,50.0575921 17.8514569,50.3012706 18.5005026,50.4210447 C20.8817149,50.8423193 23.2215867,50.6812438 25.5490563,50.169106 C26.1691637,50.0369414 26.6735177,49.99564 27.1323972,50.5036476 C27.3184294,50.7142849 27.5788745,50.8712303 27.8269174,51.0157853 C29.2945048,51.8542044 29.2490303,51.8376838 28.6826656,53.4071383 C28.4015502,54.2001257 27.8723919,54.3942425 27.2274803,54.1877353 C25.0405683,53.4980014 22.907399,53.427789 20.7122189,54.208386 C20.133452,54.410763 19.376921,54.1464339 18.7113391,54.0514406 C17.9176017,53.9357966 17.5372691,54.179475 17.5620734,55.0468051 C17.5992799,56.5377868 17.5579394,58.0328986 17.5579394,59.5280104 C17.5538053,61.8367605 17.5910118,64.1455105 17.5372691,66.4542606 C17.529001,66.929227 17.2024112,67.4000634 17.0081109,67.8667695 C16.9419661,68.0154547 16.7311296,68.1930508 16.764202,68.283914 C17.2561538,69.4775254 16.4169418,69.7501148 15.5818639,69.927711 C14.3871237,70.1796497 13.6429949,69.7748957 13.3081369,68.6845379 C12.8492574,67.1976863 13.0104854,65.6860539 13.5437777,64.2694148 C13.8579654,63.4351259 14.1101424,62.861036 13.5355096,61.9317538 C13.1345068,61.2709309 13.4238903,60.1516621 13.485901,59.2389004 C13.5933863,57.7024872 13.7463461,56.1660739 13.9117081,54.6296606 C13.9861209,54.0101392 13.7752844,53.7251593 13.1427749,53.716899 C10.6912838,53.6962483 8.23979267,53.6549468 5.78830154,53.6466866 C5.06897699,53.6466866 4.38272484,53.7953717 3.74608127,53.2171517 C2.83659047,52.4035135 2.41491746,50.7349356 3.1507782,49.7891328 C3.42775949,49.4380707 4.16775428,49.2439539 4.65557208,49.3017759 C6.4580175,49.5165434 8.24392672,49.937818 10.0505062,50.140195 C11.1832356,50.2682294 12.3490375,50.1897567 13.4900351,50.111284 C13.733944,50.0947634 14.1142765,49.6734888 14.1473489,49.4091597 C14.2382979,48.5955214 14.155617,47.7694928 14.2093596,46.9517245 C14.4243302,43.9284596 14.7261157,40.909325 14.8790756,37.8860602 C14.9534884,36.4487703 14.7385179,34.9949599 14.7261157,33.5494098 C14.7178476,32.8596759 14.833601,32.1575516 14.9824268,31.4802081 C15.168459,30.6211383 14.494609,30.352679 14.0109252,30.3939804 C12.7211019,30.5096244 11.8405495,29.6794657 10.790501,29.2458006 C10.1910639,28.9897318 9.55442029,28.8080055 8.94258102,28.5725873 C8.73174451,28.4899844 8.5457123,28.3454294 8.35554604,28.217395 C7.77677917,27.8209012 7.02024818,27.5400515 6.65645185,26.9948726 C5.66841411,25.5286718 4.02719661,24.6654718 3.08049936,23.314915 C1.92296561,21.671118 1.20777511,19.6473479 0.616606088,17.6855299 C0.149458537,16.1408563 0.13705639,14.4557579 0.000632769036,12.8243513 C-0.0200374766,12.5806729 0.471914369,12.0437543 0.566997499,12.0809256 C1.45995211,12.4072069 1.42687972,11.7092127 1.53849904,11.2342462 C1.88162512,9.77630567 2.25368954,8.34727613 3.18385059,7.10823318 C3.90730919,6.14177967 4.46953987,5.03077116 5.82137393,4.79122285 C5.95779755,4.76644199 6.09835522,4.67970899 6.1975724,4.58058555 C8.02895616,2.68897997 10.5589942,2.00337621 12.7955148,0.830415542 C14.8501372,-0.247551828 17.0122449,-0.375586267 19.1082078,1.04105284 C20.2574735,1.81751976 21.5886373,2.32139723 22.7585732,3.08134358 C24.2923054,4.07257794 25.776429,5.15054531 27.2150781,6.2780744 C27.7235662,6.67869829 28.0088156,7.35191163 28.4304886,7.88056995 C28.633057,8.13250869 28.8976361,8.33901585 29.141545,8.56617372 C29.2076898,8.26467327 30.7000815,10.854273 30.7000815,11.8165964 L30.6711432,11.8165964 Z" id="Fill-1" fill="#AAB98F" mask="url(#mask-4)"></path>
                </g>
                <g id="Group-3-Copy-2" transform="translate(448.000000, 63.000000)">
                    <mask id="mask-6" fill="white">
                        <use xlink:href="#path-5"></use>
                    </mask>
                    <g id="Clip-2"></g>
                    <path d="M10.9710436,29.8693395 C10.2904143,29.842019 9.53151261,29.6337006 9.18779481,30.5762563 C9.10611929,30.7948199 8.58203472,30.921177 8.24512321,30.9553276 C7.70742606,31.0133835 7.6155411,31.1329105 7.97967778,31.5734529 C9.33072696,33.1990199 10.702195,34.8075117 11.9817781,36.4843046 C12.7951302,37.5532174 13.4621469,38.7348271 14.1938234,39.8652109 C14.6396356,40.5584675 15.0854478,41.2585541 15.5244537,41.9586408 C15.8171243,42.4196735 16.0825697,42.8943664 16.3888529,43.3451539 C16.8448745,44.0213351 17.1749798,44.8204584 18.2095363,44.8170543 C19.3291715,44.8170543 20.2514242,44.0930513 20.5883358,42.9216868 C20.7006396,42.5323703 20.8707969,42.0645076 21.1702738,41.8391138 C23.1372925,40.3399038 24.4577134,38.2772095 25.9857262,36.4023433 C26.3022188,36.0164418 26.2852031,35.364166 26.5574548,34.9236236 C27.1598117,33.9571626 27.8438442,33.0419273 28.5074578,32.1130318 C29.0791864,31.3104935 28.9362542,30.9075168 27.9663575,30.7914048 C26.7174027,30.6445574 25.4684479,30.5113702 24.2126868,30.4225787 C22.429438,30.2962216 20.6427861,30.1903548 18.8561342,30.1288838 C18.5566573,30.1186386 18.20273,30.323542 17.9543003,30.5250304 C17.5152944,30.8870264 17.2124144,30.8494608 16.8516808,30.4157486 C16.6542983,30.1766946 16.3309994,29.900075 16.0587477,29.8932449 C14.3639807,29.842019 12.6658106,29.8693395 10.9710436,29.8693395 M22.4260349,27.1577843 C24.0527389,27.3046318 25.6760398,27.4480642 27.2993408,27.5983267 C27.8608599,27.6529676 28.1977714,27.8988517 28.048033,28.5374673 C28.0140015,28.6843148 28.0344204,28.8448224 28.0310173,28.9985 C28.1365148,28.9131236 28.2964627,28.8448224 28.3407036,28.7321255 C28.6708088,27.8647011 29.2153123,28.0696045 29.998036,28.0696045 C31.1074617,28.0696045 32.2611284,28.578448 33.3943762,28.0047184 C33.8129633,27.7964 34.1362622,28.2676778 33.9422828,28.6296738 C33.0812867,30.2313355 32.7750036,32.0891264 31.5056299,33.5166202 C30.3996073,34.763116 29.4943703,36.1837796 28.490442,37.5122367 C27.8676662,38.3386805 27.2142621,39.148049 26.5812768,39.9642476 C24.9715885,42.0474323 23.3721096,44.1374471 21.7522119,46.2103866 C21.1396455,46.9958497 20.4692256,47.7266718 19.8668687,48.51555 C19.5367635,48.9526773 19.1862394,49.4307852 19.0433072,49.9430437 C18.7846681,50.861694 17.9611066,51.2475955 17.4097969,51.879381 C17.2770742,52.0330585 16.7529896,52.0398887 16.5658165,51.8998713 C16.3956592,51.7769293 16.296968,51.2919912 16.4024655,51.0939179 C16.6645078,50.5953196 16.4228844,50.2743043 16.2255019,49.8747426 C15.8987998,49.2053915 15.5993229,48.518965 15.3440869,47.8188784 C14.9663377,46.7807011 14.6464419,45.7186184 14.278902,44.6770261 C14.1972265,44.4584624 14.0474881,44.2296536 13.8671213,44.0998814 C11.58361,42.5084649 10.3040269,40.1793962 9.08910356,37.768366 C7.80952045,35.2275637 6.00585278,33.0419273 4.19537882,30.8767813 C3.68830998,30.2757313 3.00087438,29.8283588 2.39171114,29.3161003 C2.01055873,28.9916699 1.82678882,28.6945599 2.27600416,28.2335272 C3.00768067,27.4787997 3.23569149,27.3729329 4.23621657,27.8237204 C5.11422838,28.2232821 5.79145455,27.7759096 6.43805239,27.3285372 C6.85323627,27.0450875 7.08805338,26.9016551 7.66999144,27.1338789 C8.32339558,27.4002534 9.15376334,27.2465758 9.90585873,27.2431608 C12.0124064,27.2363306 14.115551,27.1919349 16.2220987,27.2021801 C16.7597959,27.2021801 16.9537752,27.0553326 16.8584871,26.5123386 C16.763199,25.9488542 16.7087487,25.3751246 16.6577015,24.8048102 C16.5317851,23.3158454 16.4501095,21.8268806 16.2867585,20.3413308 C16.1472295,18.9957984 16.1063917,19.0265339 14.6464419,18.9206672 C13.1762826,18.8113854 11.954553,18.0908084 10.7396296,17.3121754 C9.58596295,16.5779382 8.40166795,15.8334558 7.13229429,15.369008 C6.06710942,14.9831066 5.4443336,14.2454543 4.79092946,13.4531611 C4.47103369,13.0706748 4.28386063,12.5993969 3.63045649,12.5584162 C2.95323033,12.5140205 2.89197369,11.7866134 2.91579571,11.3358259 C3.00087438,9.68293835 2.24537584,8.37838662 1.50689304,6.99528859 C1.18359412,6.38740847 1.28228537,5.43802266 1.4524427,4.70720049 C1.86082028,2.96210643 1.77233847,2.4976587 0.339613774,1.31946408 C-0.167455062,0.902827144 -0.106198424,0.380323444 0.519980541,0.127609236 C0.802441705,0.0149123591 1.13595007,-0.0124080958 1.44223326,0.00466718854 C2.1909255,0.0456478709 2.93961774,0.100288781 3.67129425,0.219815771 C3.99799632,0.274456681 4.31789209,0.475945036 4.6037564,0.660358107 C5.06658433,0.971128282 5.50218709,1.3262942 5.94799929,1.65755471 C6.39040834,1.98540017 6.47548701,2.43277262 6.08412515,2.77769336 C4.81475149,3.90807719 5.14145356,5.39362692 5.15506614,6.79380024 C5.16187244,7.50071701 5.33543291,8.20763378 5.4443336,8.9111355 C5.46815563,9.061398 5.51239653,9.25605624 5.61789407,9.33118749 C6.87365515,10.2395926 7.4181586,11.9163855 9.00402489,12.4696248 C9.17418222,12.5310958 9.36135528,12.6950185 9.42601507,12.8589412 C9.79355489,13.7946668 10.654551,14.1566628 11.3930338,14.6962418 C12.3016739,15.3553478 13.2681675,15.4646296 14.3129335,15.3348575 C14.4320436,15.3211972 14.5545569,15.3007069 14.6702639,15.307537 C16.8346651,15.4168188 16.4228844,14.9831066 16.4058686,13.2721631 C16.3786435,10.1610463 16.1710515,7.05334456 16.0383288,3.94564281 C16.0213131,3.54608116 16.0247162,3.13627433 15.926025,2.75720302 C15.8171243,2.32007574 15.2828303,1.92051409 15.7286425,1.45606636 C16.1404232,1.03601436 16.5896386,0.585226856 17.1171263,0.366663216 C18.4885943,-0.20365128 19.6218421,0.83111095 19.5367635,2.32690586 C19.410847,4.46473146 19.4414754,6.60938717 19.3904282,8.75404288 C19.3700093,9.62829744 19.2849306,10.502552 19.2747212,11.3802216 C19.2645117,12.4115688 19.3087526,13.4395009 19.3053495,14.4708481 C19.3019464,14.8738248 19.3700093,15.0548228 19.8464498,14.9626163 C20.2990683,14.8738248 20.7857183,14.9694464 21.2485462,14.9079754 C21.7011647,14.8499194 22.1980241,14.7816182 22.5859828,14.5596396 C23.6545708,13.9551745 24.6755148,13.2687481 25.7134745,12.606227 C25.8802286,12.5003603 26.0605954,12.3774182 26.1592867,12.2134955 C27.3401785,10.2839884 28.8409661,8.49791361 29.2459406,6.19616529 C29.4841608,4.8335576 29.5079829,3.42655417 29.5590301,2.03662602 C29.5726426,1.65755471 29.4501294,1.28872857 29.9197636,1.17944675 C30.5221205,1.04284448 30.3825915,-0.121689916 31.206153,0.195910373 C31.6859967,0.376908387 32.0263113,0.899412087 32.4959455,1.13505101 C33.1867843,1.47997175 33.319507,1.8009871 32.9043231,2.52497916 C32.3223851,3.53925105 32.7069406,4.64914453 32.9417577,5.69415193 C33.156156,6.63329257 33.0676742,7.43924599 32.274741,8.06761645 C32.1794529,8.1427477 32.0739554,8.22129401 32.0263113,8.32374571 C31.0972523,10.4479111 29.5147892,12.1315341 28.1977714,13.9927401 C27.9663575,14.3137555 27.7417498,14.6518461 27.5852051,15.0104271 C27.118974,16.08617 26.3566692,16.7589362 25.1893899,16.9433492 C24.4441008,17.0628762 23.6954086,17.1824032 22.963732,17.3599862 C22.5145167,17.4658529 22.0755108,17.6639262 21.6535206,17.8619995 C21.2247242,18.066903 20.8401686,18.4152388 20.3977595,18.5313507 C19.4823131,18.7635746 19.2543023,19.269003 19.3087526,20.1842382 C19.4244596,22.0898399 19.410847,24.0022718 19.4448785,25.9147036 C19.4652974,27.0485025 19.5537792,27.1577843 20.639383,27.19535 C21.2349336,27.2158403 21.8270811,27.198765 22.4226317,27.198765 C22.4226317,27.1851048 22.4226317,27.1714446 22.4260349,27.1577843" id="Fill-1" fill="#AAB98F" mask="url(#mask-6)"></path>
                </g>
            </g>
        </g>
    </g>
</svg>