<?xml version="1.0" encoding="utf-8"?>
<!-- Generator: Adobe Illustrator 24.1.3, SVG Export Plug-In . SVG Version: 6.00 Build 0)  -->
<svg version="1.1" id="Layer_1" xmlns="http://www.w3.org/2000/svg" xmlns:xlink="http://www.w3.org/1999/xlink" x="0px" y="0px"
	 viewBox="0 0 482 174" style="enable-background:new 0 0 482 174;" xml:space="preserve">
<style type="text/css">
	.st0{fill-rule:evenodd;clip-rule:evenodd;fill:#A3BF93;}
	.st1{filter:url(#Adobe_OpacityMaskFilter);}
	.st2{fill-rule:evenodd;clip-rule:evenodd;fill:#FFFFFF;}
	.st3{mask:url(#mask-2_1_);fill-rule:evenodd;clip-rule:evenodd;fill:#A3BF93;}
	.st4{fill:#A3BF93;}
</style>
<desc>Created with Sketch.</desc>
<g id="Group-26-Copy" transform="translate(121.000000, 0.000000)">
	<path id="Fill-1" class="st0" d="M34.7,9.5c-1.5-2.6-3.5-4.4-6-5.5L27,3.4l-2.1-0.6c-1.6-0.3-3.9-0.4-7-0.4c-2.7,0-4.1,0.2-4.1,0.6
		v19.2v0.6c0.1,0.2,0.3,0.3,0.6,0.3h4.4c3.2,0,5.4-0.1,6.6-0.3c0.8-0.1,1.5-0.2,2.2-0.4c0.8-0.2,1.3-0.4,1.3-0.4
		c0.3-0.2,0.6-0.3,0.8-0.4c0.6-0.3,1.2-0.7,1.9-1.2c0.7-0.5,1.3-1.1,1.9-1.8c1.3-1.4,2-3.2,2-5.5C35.6,11.9,35.3,10.6,34.7,9.5
		L34.7,9.5z M35.6,31.7c-1.4-2.5-3.5-4.1-6.2-5.1c-2.7-0.9-5.8-1.4-9.2-1.4h-1.8l-2.1-0.1c-1.7,0-2.6,0.3-2.6,0.9v22.9
		c0,0.1,0.7,0.3,2,0.6c1.4,0.2,2.4,0.3,2.9,0.3h4.3c1.4,0,2.6-0.1,3.8-0.3c1.1-0.2,2.4-0.7,3.8-1.4c0.8-0.4,1.5-0.9,2.2-1.4l2.6-2
		c0.5-0.4,1-1.2,1.3-2.5l0.4-1.9l0.1-2.1C37.1,35.4,36.6,33.3,35.6,31.7L35.6,31.7z M1.1,0.7H4L7,0.8l2.4-0.1h3.3l6.9-0.2h1.7
		c0.6,0,1.4,0,2.4,0.1c1,0.1,1.7,0.1,2.2,0.1c0.7,0,1.3,0,1.9,0.1c0.6,0.1,1.3,0.2,2.1,0.3c1.3,0.1,2.5,0.3,3.6,0.5
		c1.1,0.2,2.2,0.5,3.2,0.9C38.4,3.1,40,4,41.5,5.2C43,6.3,44.2,7.6,45,8.8c0.3,0.6,0.6,1.3,0.8,2c0.2,0.7,0.3,1.5,0.3,2.4
		c0,0.5,0,1-0.1,1.4c-0.1,0.5-0.2,0.9-0.4,1.3c-0.4,0.9-0.9,1.6-1.6,2.4c-1.3,1.4-2.7,2.4-4.3,3.2c-1.5,0.7-3.1,1.2-4.7,1.7L33,23.7
		h-0.3l0.8,0.3l2.4,0.9c2.1,0.6,3.6,1.2,4.4,1.6c1.5,0.7,2.8,1.5,4,2.3c1.2,0.8,2.3,2,3.2,3.4c0.9,1.4,1.4,3.2,1.4,5.3v0.7v0.8
		c0,0.3-0.1,0.7-0.2,1.2c-0.4,2.1-1.8,4-4.3,5.6c-1.1,0.7-2.4,1.4-3.9,2.1c-1.5,0.7-3,1.3-4.7,1.8c-3.4,1.1-7.5,1.6-12.4,1.6
		L18,51.4l-7.7-0.2l-5.7,0.1l-3.8,0.2c-0.1,0-0.2-0.2-0.2-0.5c0-0.3,0.2-0.5,0.6-0.7c0.4-0.2,0.7-0.4,0.9-0.5l0.2-0.3v-0.2V2.9
		c0-0.2-0.1-0.3-0.3-0.5L1.2,2L0.4,1.7C0.2,1.6,0.1,1.5,0,1.3C0,1,0.1,0.9,0.2,0.8l0.4-0.1H1.1z"/>
	<path id="Fill-3" class="st0" d="M52.5,0.5h2.9l2.5,0.1l3.6,0.1l2,0l4.2-0.2c0.1,0,0.3,0.1,0.4,0.3l0.1,0.8c0,0.2,0,0.3-0.1,0.4
		l-0.8,0.5l-0.4,0.3c-0.1,0.1-0.1,0.2-0.1,0.3v46.5c0,0.4,0.5,0.5,1.7,0.5c1.2,0,2.9-0.2,4.9-0.7c1.1-0.2,2.1-0.5,3.1-0.8
		c1-0.3,2.1-0.7,3.2-1.1c0.8-0.3,1.6-0.7,2.4-1.2c0.9-0.5,1.7-1,2.5-1.6c1.8-1.3,3-2.2,3.6-2.7c0.4,0,0.8,0.2,1.1,0.7l0.5,1.1
		l0.5,1.2l0.5,0.9c0.3,0.6,0.5,1,0.8,1.3c1.6,2.4,2.5,3.7,2.5,3.9c0,0.1-0.1,0.2-0.2,0.2L82,51.2h-9.7l-7.5,0.1
		c-0.9,0-2.1,0-3.7,0.1c-1.6,0.1-2.6,0.1-3,0.1h-4.8c-0.4-0.1-0.5-0.3-0.6-0.6c0-0.5,0.3-0.7,0.8-0.7c0.5,0,0.8-0.5,0.8-1.4V4.4
		c0-0.7-0.1-1.2-0.3-1.5c-0.1-0.3-0.5-0.5-1.2-0.6c-0.6-0.1-0.9-0.5-0.9-1C52,0.8,52.2,0.6,52.5,0.5"/>
	<path id="Fill-5" class="st0" d="M124.1,40.8l0.8-3.6l0.7-4.1c0.3-2.7,0.5-5.5,0.5-8.1c0-4.3-0.4-8.1-1.2-11.5
		c-0.8-3.4-2.1-6.1-3.8-8.3c-1.8-2.2-4-3.3-6.7-3.3c-1.4,0-2.7,0.3-3.8,1c-1.1,0.7-2,1.6-2.9,2.8l-0.8,1.2l-0.9,1.6l-1.8,4.2
		c-0.9,3.9-1.3,8.2-1.3,12.8c0,6.2,0.9,11.5,2.6,16c1.7,4.5,4.5,7,8.4,7.5c2.2,0,4.3-0.7,6.2-2.1C121.8,45.6,123.2,43.6,124.1,40.8
		 M125.2,3.1l3.1,2.2c1.7,1.2,3.4,2.6,5.2,4.5c1.8,1.8,3.3,4.1,4.6,6.7c1.3,2.6,1.9,5.5,1.9,8.5c0,2-0.3,3.9-0.8,5.7
		c-1.4,4.9-4,9-7.9,12.3c-3.9,3.3-8.1,6-12.6,7.8c-0.9,0.4-2,0.6-3.3,0.6c-2,0-4.2-0.4-6.7-1.1c-2.5-0.8-4.9-2-7.5-3.6
		c-2.5-1.7-4.8-3.8-6.8-6.5c-2-2.6-3.6-5.7-4.6-9.3c-0.5-2-0.8-4-0.8-5.9c0-5.7,1.8-10.4,5.5-14c3.7-3.6,7.4-6.4,11-8.3
		c2.6-1.4,5.5-2.1,8.7-2.1C117.9,0.5,121.5,1.4,125.2,3.1"/>
	<path id="Fill-7" class="st0" d="M180.1,40.8l0.8-3.6l0.7-4.1c0.3-2.7,0.5-5.5,0.5-8.1c0-4.3-0.4-8.1-1.2-11.5
		c-0.8-3.4-2.1-6.1-3.8-8.3c-1.8-2.2-4-3.3-6.7-3.3c-1.4,0-2.7,0.3-3.8,1c-1.1,0.7-2,1.6-2.9,2.8l-0.8,1.2l-0.9,1.6l-1.8,4.2
		c-0.9,3.9-1.3,8.2-1.3,12.8c0,6.2,0.9,11.5,2.6,16c1.7,4.5,4.5,7,8.4,7.5c2.2,0,4.3-0.7,6.2-2.1C177.8,45.6,179.2,43.6,180.1,40.8
		 M181.2,3.1l3.1,2.2c1.7,1.2,3.4,2.6,5.2,4.5c1.8,1.8,3.3,4.1,4.6,6.7c1.3,2.6,1.9,5.5,1.9,8.5c0,2-0.3,3.9-0.8,5.7
		c-1.4,4.9-4,9-7.9,12.3c-3.9,3.3-8.1,6-12.6,7.8c-0.9,0.4-2,0.6-3.3,0.6c-2,0-4.2-0.4-6.7-1.1c-2.5-0.8-4.9-2-7.5-3.6
		c-2.5-1.7-4.8-3.8-6.8-6.5c-2-2.6-3.6-5.7-4.6-9.3c-0.5-2-0.8-4-0.8-5.9c0-5.7,1.8-10.4,5.5-14c3.7-3.6,7.4-6.4,11-8.3
		c2.6-1.4,5.5-2.1,8.7-2.1C173.9,0.5,177.5,1.4,181.2,3.1"/>
	<path id="Fill-9" class="st0" d="M231.3,7.8c-2-1.7-3.9-2.9-5.7-3.5c-1.8-0.6-3.8-1.1-6-1.4L217,2.8c-1.7,0-2.6,0.3-2.6,1v44.1
		c0,0.5,0.1,0.9,0.4,1.1c0.2,0.2,0.6,0.3,1.1,0.3c0.3,0,1.3-0.1,3.1-0.4c1.7-0.3,3-0.5,3.7-0.7c2.2-0.8,4.2-1.8,5.8-2.9
		c1.7-1.3,3.2-2.6,4.3-4c1.1-1.4,2.1-3.1,2.9-5c0.7-1.7,1.2-3.7,1.6-6c0.4-2.3,0.6-4.3,0.6-6.1C237.8,16.8,235.6,11.3,231.3,7.8
		L231.3,7.8z M211.4,0.7h1.2h1.3h0.9h0.8l0.5-0.2h1.5h1.7c2.6,0,5.1,0.4,7.6,1.1c1.6,0.4,3,0.8,4.4,1.3c1.4,0.5,2.7,1,4,1.6
		c2.6,1.1,4.8,2.4,6.8,3.9c1.9,1.5,3.5,3.2,4.9,5.2c1.3,1.9,2.1,4.2,2.6,6.9c0.3,1.6,0.4,3.1,0.4,4.3c0,1.1-0.1,2.1-0.3,3
		c-0.2,0.9-0.5,1.8-0.8,2.6l-0.4,1l-0.5,1l-1.5,2.5c-1.4,2.1-3,4-4.7,5.7c-1.7,1.6-3.7,3.2-5.9,4.5c-1,0.6-2.1,1.2-3.2,1.8l-3.5,1.6
		l-3.6,1.3l-4.2,1.2c-1.3,0.3-5.1,0.4-11.4,0.4h-6h-1.6c-0.2-0.1-0.3-0.3-0.3-0.5l0.2-0.2c0.2-0.1,0.3-0.3,0.5-0.4
		c0.5-0.3,0.7-0.5,0.7-0.7V3.4c0-0.2-0.2-0.5-0.6-0.8c-0.4-0.3-0.8-0.6-1.3-0.7c-0.3,0-0.5-0.2-0.6-0.5c0-0.4,0.3-0.7,0.8-0.9
		L211.4,0.7z"/>
	<path id="Fill-11" class="st0" d="M79.5,95.8c-2.9-3.1-5.5-6.8-7.9-11.2c-2.2-4.2-3.7-7.4-4.7-9.6c-1.2,1.8-2.2,3.7-3.2,5.8
		c-0.4,0.9-0.9,2.3-1.6,4c-0.4,0.9-0.7,1.8-1.1,2.7l-1,3.1L59.4,93l-0.3,1.4l-0.2,1.4H79.5z M71.8,62.5l3.5,6l5.5,9.2
		c2.4,3.9,4.3,6.8,5.7,8.9l1.3,2.1l1.7,3l3.6,7.1c0.9,1.9,1.9,4.3,3,7.2c0.8,2.3,1.3,4.1,1.5,5.4c0.1,0.4,0.4,0.7,0.8,0.9l1.1,0.6
		c0.3,0.1,0.5,0.4,0.6,0.8l-3.4-0.3l-3.8-0.2l-4.4-0.1c-3.1,0-6.2,0.2-9.3,0.5c0.7-0.4,1.6-1.3,2.8-2.6c1.2-1.3,1.8-2.9,1.8-4.7
		c0-2-0.3-3.7-1-5c-0.7-1.3-1.2-2.2-1.7-2.7c-0.1-0.1-0.4-0.3-0.8-0.4c-0.4-0.2-0.9-0.2-1.5-0.2h-0.9c-0.3,0-0.7,0.1-1.2,0.3
		c-1,0.3-2.2,1-3.6,1.9c-1.2,0.9-2.1,1.6-2.7,2.1l-1.2-1l-0.9-0.8L67,99.3c-0.3-0.2-0.7-0.5-1.1-0.7c-0.4-0.2-0.8-0.4-1.3-0.6
		c-0.7-0.3-1.7-0.4-2.9-0.4l-1.7,0.1l-1.1,0.1l-0.2,1.3l-0.1,1.8c0,1.6,0.2,3,0.7,4.2c0.6,1.5,1.6,3.1,2.9,4.6
		c1.3,1.5,2.6,2.7,3.9,3.5l-5.3-0.2l-8-0.1h-2h-0.8c-0.2,0-0.5,0-0.8,0.1c0-1,0.3-2.7,0.8-5.2c0.5-2.5,1.2-5.2,2.1-8.2
		c0.9-3,1.8-5.4,2.6-7.2c0.6-1.5,2.2-4.4,4.7-8.8l7.4-12.5L71.8,62.5z"/>
	<path id="Fill-13" class="st0" d="M148.9,62.6h0.7l0.8-0.1c0.3,0,0.5,0.1,0.6,0.4c-0.1,0.3-0.6,0.6-1.3,0.8
		c-0.7,0.1-1.1,0.4-1.1,0.8l0.6,6.5c0,0.2,0,0.8,0.1,1.7c0,0.9,0.1,1.7,0.1,2.2v2.1l0.1,7.1l-0.1,12.6l-0.1,12.5l0.2,1.7l0.3,1.8
		c0,0.5-0.3,0.7-0.8,0.7c-1-0.1-2-0.2-2.9-0.2l-2.1,0l-2.2,0c-0.1,0-0.2-0.1-0.3-0.2c0-0.1,0.5-0.6,1.5-1.5c1-0.8,1.6-1.4,1.8-1.7
		c0.7-1.1,1.1-2,1.1-2.8c0-0.5-0.2-1.1-0.5-1.6c-1.4-2.3-3.2-4.5-5.5-6.5c-2.4-2.1-4.8-3.9-7.4-5.4c-1.5-0.9-3.1-2-4.7-3.2
		c-1.6-1.2-3.4-2.6-5.3-4.3c-1.7-1.5-3.5-3.1-5.2-4.7c-1.6-1.4-3.1-2.9-4.7-4.4c-2.9-2.9-4.6-4.8-5.3-5.7l-0.3-0.3
		c-0.3,0-0.5,0.6-0.5,1.7v1.5v1.5l0.6,6.4c0,1.9,0.2,4.1,0.7,6.4l0.9,4.1c0.7,3.6,1.7,6.4,2.8,8.2l1.6,2.9l1.7,3.1
		c0.5,0.8,1.1,1.6,1.8,2.5c0.7,0.8,1.5,1.6,2.4,2.3c0.5,0.3,1.1,0.5,1.8,0.6c0.3,0.1,0.5,0.2,0.8,0.4c0.2,0.2,0.3,0.4,0.4,0.7
		l-0.1,0.1c-0.5,0-1.4-0.1-2.7-0.2c-1.3-0.1-2.2-0.2-2.7-0.2l-4.7-0.1l-3.3,0.1l-3.4,0.1l-0.7-0.1c-0.2-0.1-0.3-0.2-0.4-0.4
		c0.2-0.2,0.6-0.3,1.2-0.4l1.2-0.2c0.2,0,0.3-0.2,0.3-0.5l-0.8-3.9l-0.6-3.9l-0.5-4.2c-0.1-0.7-0.1-1.4-0.2-2.1
		c-0.1-0.7-0.1-1.3-0.1-2l-0.2-4.5v-4v-5l0.2-5.3l0.1-4.8V66c0-0.6,0-1-0.1-1.1c-0.1-0.2-0.3-0.5-0.8-0.9c-0.4-0.3-0.6-0.6-0.6-1.1
		c0.1,0,0.1,0,0.2-0.1c0.2-0.1,0.4-0.2,0.5-0.2l0.9-0.1l3.7,0.1l3.9,0.2l3.6,0l2.9-0.2c0.3,0,0.5,0.2,0.5,0.7c0,0.3-0.1,0.6-0.3,0.9
		c-0.7,0.6-1.1,1.1-1.1,1.5c0,0.7,0.2,1.4,0.7,2.1c0.4,0.7,1,1.3,1.5,1.8l2.2,1.8c9.9,7.9,15.6,12.4,16.9,13.6l3.2,2.9l2.8,2.6
		l1.8,1.8c0.3,0,0.5-0.7,0.5-2c0-4.2-0.7-8.5-2-12.8c-0.1-0.5-0.4-1.1-0.8-2c-0.3-0.5-0.5-1-0.7-1.4c-0.2-0.4-0.6-1-1-1.7
		c-1.4-2.4-2.6-4.1-3.6-5.3c-1.3-1.4-2.5-2.4-3.5-3.2c-0.9-0.4-1.3-0.7-1.3-0.9c0-0.1,0.2-0.2,0.6-0.2l6.8,0.1h3.5
		c0.4,0,1,0,1.8-0.1C147.8,62.6,148.5,62.6,148.9,62.6"/>
	<path id="Fill-15" class="st0" d="M188.3,69.8c-2-1.7-3.9-2.9-5.7-3.5c-1.8-0.6-3.8-1.1-6-1.4l-2.6-0.1c-1.7,0-2.6,0.3-2.6,1v44.1
		c0,0.5,0.1,0.9,0.4,1.1c0.2,0.2,0.6,0.3,1.1,0.3c0.3,0,1.3-0.1,3.1-0.4c1.7-0.3,3-0.5,3.7-0.7c2.2-0.8,4.2-1.8,5.8-2.9
		c1.7-1.3,3.2-2.6,4.3-4c1.1-1.4,2.1-3.1,2.9-5c0.7-1.7,1.2-3.7,1.6-6c0.4-2.3,0.6-4.3,0.6-6.1C194.8,78.8,192.6,73.3,188.3,69.8
		L188.3,69.8z M168.4,62.7h1.2h1.3h0.9h0.8l0.5-0.2h1.5h1.7c2.6,0,5.1,0.4,7.6,1.1c1.6,0.4,3,0.8,4.4,1.3c1.4,0.5,2.7,1,4,1.6
		c2.6,1.1,4.8,2.4,6.8,3.9c1.9,1.5,3.5,3.2,4.9,5.2c1.3,1.9,2.1,4.2,2.6,6.9c0.3,1.6,0.4,3.1,0.4,4.3c0,1.1-0.1,2.1-0.3,3
		c-0.2,0.9-0.5,1.8-0.8,2.6l-0.4,1l-0.5,1l-1.5,2.5c-1.4,2.1-3,4-4.7,5.7c-1.7,1.6-3.7,3.2-5.9,4.5c-1,0.6-2.1,1.2-3.2,1.8l-3.5,1.6
		l-3.6,1.3l-4.2,1.2c-1.3,0.3-5.1,0.4-11.3,0.4h-6h-1.6c-0.2-0.1-0.3-0.3-0.3-0.5c0.1-0.1,0.1-0.1,0.2-0.2c0.2-0.1,0.3-0.3,0.5-0.4
		c0.5-0.3,0.7-0.5,0.7-0.7V65.4c0-0.2-0.2-0.5-0.6-0.8c-0.4-0.3-0.8-0.6-1.3-0.7c-0.3,0-0.5-0.2-0.6-0.5c0-0.4,0.3-0.7,0.8-0.9
		L168.4,62.7z"/>
	<path id="Fill-17" class="st0" d="M53.3,129.8c-2-1.7-3.9-2.9-5.7-3.5c-1.8-0.6-3.8-1.1-6-1.4l-2.6-0.1c-1.7,0-2.6,0.3-2.6,1v44.1
		c0,0.5,0.1,0.9,0.4,1.1c0.2,0.2,0.6,0.3,1.1,0.3c0.3,0,1.3-0.1,3.1-0.4c1.7-0.3,3-0.5,3.7-0.7c2.2-0.8,4.2-1.8,5.8-2.9
		c1.7-1.3,3.2-2.6,4.3-4c1.1-1.4,2.1-3.1,2.9-5c0.7-1.7,1.2-3.7,1.6-6c0.4-2.3,0.6-4.3,0.6-6.1C59.8,138.8,57.6,133.3,53.3,129.8
		L53.3,129.8z M33.4,122.7h1.2h1.3h0.9h0.8l0.5-0.2h1.5h1.7c2.6,0,5.1,0.4,7.6,1.1c1.6,0.4,3,0.8,4.4,1.3c1.4,0.5,2.7,1,4,1.6
		c2.6,1.1,4.8,2.4,6.8,3.9c1.9,1.5,3.5,3.2,4.9,5.2c1.3,1.9,2.1,4.2,2.6,6.9c0.3,1.6,0.4,3.1,0.4,4.3c0,1.1-0.1,2.1-0.3,3
		c-0.2,0.9-0.5,1.8-0.8,2.6l-0.4,1l-0.5,1l-1.5,2.5c-1.4,2.1-3,4-4.7,5.7c-1.7,1.6-3.7,3.2-5.9,4.5c-1,0.6-2.1,1.2-3.2,1.8l-3.5,1.6
		l-3.6,1.3l-4.2,1.2c-1.3,0.3-5.1,0.4-11.3,0.4h-6h-1.6c-0.2-0.1-0.3-0.3-0.3-0.5c0.1-0.1,0.1-0.1,0.2-0.2c0.2-0.1,0.3-0.3,0.5-0.4
		c0.5-0.3,0.7-0.5,0.7-0.7v-46.3c0-0.2-0.2-0.5-0.6-0.8c-0.4-0.3-0.8-0.6-1.3-0.7c-0.3,0-0.5-0.2-0.6-0.5c0-0.4,0.3-0.7,0.8-0.9
		L33.4,122.7z"/>
	<g id="Group-21" transform="translate(77.000000, 119.500000)">
		<g id="Clip-20">
		</g>
		<defs>
			<filter id="Adobe_OpacityMaskFilter" filterUnits="userSpaceOnUse" x="0.1" y="1" width="48.8" height="52">
				<feColorMatrix  type="matrix" values="1 0 0 0 0  0 1 0 0 0  0 0 1 0 0  0 0 0 1 0"/>
			</filter>
		</defs>
		<mask maskUnits="userSpaceOnUse" x="0.1" y="1" width="48.8" height="52" id="mask-2_1_">
			<g class="st1">
				<polygon id="path-1_1_" class="st2" points="0.1,1 48.9,1 48.9,53 0.1,53 				"/>
			</g>
		</mask>
		<path id="Fill-19" class="st3" d="M3.2,1l4.6,0.1l5.3,0.1l5.3-0.1c0.2,0,0.3,0.1,0.3,0.3l-0.1,0.3L18.5,2c-2.4,1.8-4.1,4.2-5.1,7
			c-1,2.8-1.6,6-1.6,9.6c0,1.7,0.1,3.4,0.2,5l0.3,3l0.3,2.5c0.3,2.9,1,5.8,2.1,8.5c1.1,2.8,2.6,5.2,4.5,7.1c1.9,2,4.2,3.4,6.9,4.2
			c0.9,0.3,1.8,0.4,2.6,0.4c1.5,0,3-0.4,4.5-1.1c1.5-0.7,2.9-1.7,4.2-2.9c1.2-1.1,2.3-2.3,3.3-3.7c2.6-3.3,3.9-7.7,3.9-13
			c0-1.7-0.1-3.4-0.4-5.2c-0.3-1.7-0.7-3.5-1.2-5.3c-0.5-1.8-1.2-3.4-1.9-5c-0.6-1.5-1.4-2.9-2.4-4.4c-1-1.5-1.7-2.5-2.3-3.2
			c-0.6-0.8-1.4-1.6-2.3-2.3c-0.3-0.3-0.8-0.6-1.4-0.9l-1.7-0.8c-0.1-0.1-0.2-0.4-0.2-0.7l2.3,0.1l4,0.1L41,1.2L45.4,1
			c0.1,0,0.2,0,0.3,0.1l-0.2,0.2L44.7,2c-0.5,0.4-0.9,0.7-1.1,1l0.1,0.5L44,4.1l0.4,0.6c3,5.2,4.5,11,4.5,17.5
			c0,1.3-0.1,2.6-0.2,4.1c-0.1,1.4-0.3,2.8-0.6,4c-0.3,1.3-0.6,2.6-1.2,4.1c-1.6,4.7-3.7,8.5-6.2,11.1c-2.5,2.7-5,4.5-7.5,5.6
			c-2.5,1-4.7,1.7-6.6,1.9c-1,0-2,0-3-0.1c-1-0.1-2-0.2-3.1-0.3c-2-0.3-4.1-1-6.2-1.9c-2.2-0.9-4.2-2.3-6.1-4
			c-1.9-1.7-3.5-4-4.9-6.8c-2.2-4.5-3.3-9.7-3.3-15.6c0-2.7,0.2-5.4,0.7-8.3c0.1-0.5,0.1-1,0.2-1.6c0.1-0.5,0.3-1.3,0.6-2.3
			c0.3-1,0.6-2,1-3.1c0.7-1.9,1.4-3.1,2.2-3.8c0.5-0.3,0.7-0.8,0.7-1.3c0-0.4-0.2-0.8-0.5-1.2C4.8,2.4,4.4,2.2,4,2.2
			c-0.9,0-1.3-0.2-1.3-0.7C2.7,1.2,2.9,1.1,3.2,1"/>
	</g>
	<path id="Fill-22" class="st0" d="M166.1,129.2c0,0.2-0.1,0.5-0.3,1.1c-0.1,0.6-0.2,1.1-0.3,1.5l-0.1,1.3c0,0.3-0.1,0.4-0.1,0.6
		c0,0.1-0.1,0.3-0.2,0.6c-0.1,0.5-0.5,1.1-1.1,1.8l-0.2,0.1c-0.2,0-0.2-0.2-0.2-0.7l0.1-1.1l0-1c0-0.7-0.1-1.2-0.2-1.4
		c-0.5-1.5-1.2-2.8-2.2-3.8c-1-1-2.2-1.9-3.6-2.4c-0.6-0.3-1.3-0.5-2.2-0.7c-0.4-0.1-0.8-0.2-1.1-0.2c-0.3,0-0.7-0.1-1.1-0.1
		c-3.1,0-5.8,0.7-8.1,2c-2.3,1.3-3.4,3.2-3.4,5.7c0,1.4,1.1,2.6,3.2,3.5c2.1,0.8,5.3,1.7,9.8,2.6c4.3,0.8,7.8,1.7,10.6,2.5
		c2.7,0.8,4.8,2.1,6.2,3.6c1,1.1,1.8,2.3,2.5,3.5c0.7,1.2,1.1,2.3,1.4,3.4c0.3,1.1,0.4,2.1,0.4,3.1c0,2.7-0.9,5.3-2.7,7.8
		c-1.5,2.1-3.2,3.9-5,5.2c-1.8,1.4-3.7,2.5-5.8,3.3l-3.1,0.9c-1.2,0.3-2.4,0.5-3.8,0.7l-3.8,0.5c-1.3,0.1-2.6,0.2-3.9,0.2
		c-1.6,0-2.9-0.1-4-0.3l-2.4-0.4l-2.2-0.5l-4.1-0.9c-1.3-0.3-2.4-0.4-3.3-0.4c-0.9,0-1.5,0-1.8,0.1c-0.3,0.1-1,0.3-2.1,0.7
		c0-0.2,0.3-1,0.9-2.4c0.3-0.6,0.5-1.2,0.7-1.7c0.2-0.5,0.4-0.9,0.4-1.2l0.4-1.9l0.4-2.9c0.1-1.3,0.3-2.2,0.4-2.7
		c0.1-0.5,0.2-0.7,0.4-0.8c0.4,0.3,0.7,0.8,1,1.7l0.8,2c1.2,2,2.3,3.6,3.2,4.8c0.8,1.1,2,1.9,3.5,2.6c1.5,0.7,3.7,1.2,6.6,1.6
		l1.6,0.2h1.4c2.3,0,4.6-0.4,6.8-1.1c1.2-0.4,2.2-0.9,3-1.4c0.8-0.5,1.6-1.2,2.4-2.1c1.3-1.5,2.1-3.4,2.3-5.7c0-2.5-0.9-4.5-2.6-6
		c-1.7-1.5-3.8-2.6-6.3-3.3c-1.1-0.3-2.3-0.6-3.8-0.9c-1.5-0.3-3.2-0.6-5.3-1c-1.5-0.3-2.9-0.6-4.3-0.9c-1.3-0.4-2.6-0.8-3.6-1.4
		c-2.2-1-4-2.3-5.3-3.9c-1.3-1.6-2-3.3-2-5.2c0-1.7,0.6-3.5,1.7-5.3c1.4-2.3,3-4.1,4.7-5.5c1.7-1.4,3.7-2.6,5.9-3.4
		c1.4-0.5,2.6-0.8,3.5-1c0.6-0.1,1.2-0.2,2-0.3c0.8-0.1,1.5-0.1,2.1-0.1h1.1c0.2,0,0.4,0,0.7,0c0.3,0,0.6,0.1,0.9,0.1
		c0.7,0.1,1.8,0.3,3.3,0.6l3.6,0.6l2.6,0.1h1.6l0.7-0.1c1.2-0.1,2.4-0.3,3.5-0.6c0.2,0,0.3,0,0.3,0.1c0,0.2-0.5,1-1.4,2.5
		C167,127.3,166.4,128.4,166.1,129.2"/>
	<path id="Fill-24" class="st0" d="M222.8,120.8h0.6l0.7-0.3h0.6h0.7c1,0,1.5,0.3,1.5,0.8c0,0.1-0.1,0.4-0.3,0.8
		c-0.5,0.8-0.9,2.2-1.2,4.3c0,0.8,0,1.5-0.1,2c-0.1,0.5-0.2,0.9-0.3,1.3c-0.1,0.3-0.3,0.5-0.6,0.6c-0.3,0-0.5-0.2-0.8-0.7
		c-0.1-0.4-0.5-0.9-1.2-1.4l-0.9-0.9c-1.1-1-2.6-1.8-4.5-2.4c-1.9-0.6-3.7-1.1-5.4-1.4l-3.4-0.4v45.4c0,1.7,0.3,2.6,1,2.8
		c0.7,0.1,1,0.4,1,0.9c0,0.3-0.3,0.5-0.8,0.5l-3.3-0.2l-3.2-0.1l-3.5,0.1l-4.1,0.2c-0.3-0.1-0.4-0.2-0.4-0.4c0-0.4,0.3-0.7,1-0.8
		c0.6,0,0.9-0.4,0.9-1.2v-47.1c-2.4,0-4.1,0.1-5.3,0.2c-1.1,0.1-2.2,0.4-3.2,0.7c-1,0.3-2,0.8-2.8,1.3c-1.7,1-3.2,2.5-4.8,4.7
		l-0.3,0.1c-0.3,0-0.5-0.6-0.6-1.7c0-0.9-0.1-1.9-0.3-2.8c-0.2-0.9-0.5-1.9-0.9-3l-0.4-0.9c-0.3-0.6-0.4-0.9-0.4-1.1l6.2,0.1h4.6h6
		l5.7,0.1L222.8,120.8z"/>
</g>
<path class="st4" d="M10,58.7c-0.5-0.4-0.8-0.9-1.4-1.2c-0.2-0.1-0.2-0.4-0.4-0.5c-0.2-0.1-0.3-0.3-0.5-0.4
	c-0.2-0.2-0.5-0.4-0.8-0.4c-0.2,0-0.4-0.1-0.5-0.3c-0.1-0.2-0.4-0.3-0.4-0.5c-0.4,0-0.4-0.3-0.6-0.5c-0.2-0.1-0.4-0.3-0.7-0.4
	c-0.2-0.1-0.4-0.1-0.5,0c-0.1,0.1-0.1,0.1-0.2,0.2c-0.2,0.1-0.3,0.2-0.6,0.1c-0.3-0.1-0.7-0.1-1,0.1c-0.1,0.1-0.6-0.2-0.7-0.3
	c-0.1-0.2-0.1-0.4-0.1-0.6c0-0.2,0-0.5,0.1-0.6c0.3-0.2,0.2-0.6,0.3-0.8c0.1-0.3,0.2-0.5,0.2-0.8c0-0.1,0-0.2,0-0.3
	C2.3,51,2.3,51,2.7,50.8c0.2-0.1,0.4-0.3,0.3-0.6c0.3-0.3,0.4-0.7,0.6-1c0.1-0.2,0.2-0.3,0.2-0.6c0-0.1,0.1-0.2,0.2-0.3
	c0.1-0.2,0.5-0.2,0.5-0.6c0-0.1,0.3-0.2,0.4-0.2c0.1,0,0.3,0,0.5,0c0.1,0,0.1,0.1,0.2,0.1c0.1,0.1,0.2,0.3,0.2,0.4
	c0,0.3,0.2,0.4,0.3,0.6c0.1,0.1,0.2,0.4,0.2,0.5c0,0.2-0.1,0.6-0.5,0.6c0.3,0.1,0.6,0.2,0.9,0.3c0.2,0.1,0.5,0.1,0.6,0.4
	C7.9,51,8,51.8,8.5,52.2c0.4,0.3,0.6,0.7,1,0.9c0.4,0.2,0.5,0.8,1,0.9c0.4,0.7,1.1,1.2,1.6,1.8c0.1,0.1,0.1,0.2,0.2,0.2
	c0.2,0.1,0.4,0.4,0.7,0.1c0.1-0.1,0.3,0,0.5,0c0.3,0.1,0.3,0.2,0.6-0.1c0.3-0.2,0.6-0.3,0.9-0.5c0.4-0.2,0.8-0.5,1.2-0.7
	c0.2-0.1,0.6-0.1,0.7-0.4c0.3,0,0.5-0.1,0.7-0.2c0.1,0,0.2,0,0.2,0c0.1,0,0.3,0,0.3,0c0.3-0.2,0.6-0.2,1-0.3
	c0.3-0.1,0.6-0.2,0.9-0.4c0.1,0,0.2-0.1,0.2-0.1c0.2,0,0.3,0,0.5,0c0.2,0,0.4,0.1,0.4,0c0.2-0.2,0.3,0,0.4,0
	c0.2-0.1,0.5-0.1,0.7-0.1c0.5,0,1,0,1.6,0c0.3,0,0.7,0.1,1,0.2c0.1,0,0.2,0.1,0.4,0.1c0.1,0,0.2,0,0.2,0C26,54,26.5,54,27,54.2
	c0.4,0.2,0.9,0.3,1.3,0.5c0,0,0.1,0,0.1,0c0.3,0.4,0.7,0.5,1.1,0.7c0.1,0.1,0.1,0.2,0.2,0.3c0.1,0.1,0.2,0.1,0.3,0.2
	c0.2,0.1,0.4,0.1,0.5,0.3c0.1,0.2,0.4,0.3,0.6,0.4c0.2,0.1,0.3,0.4,0.5,0.4c0.2,0.4,0.6,0.6,0.7,1c0,0.1,0.1,0.3,0.3,0.3
	c0.3,0.3,0.6,0.7,0.8,1.2c0,0.1,0.1,0.2,0.2,0.2c0.1,0,0.2-0.1,0.3-0.1c0.2,0,0.3-0.2,0.5-0.4c0.2-0.2,0.3-0.3,0.4-0.5
	c0.3,0.1,0.2-0.4,0.5-0.4c0.3-0.5,0.9-0.7,1.3-1.1c0.3-0.3,0.8-0.5,1-0.9c0,0,0.1,0,0.2-0.1c0.1,0,0.2,0,0.2-0.1
	c0.2-0.2,0.3-0.4,0.5-0.6c0.1-0.2,0.4-0.3,0.4-0.6c0-0.1,0.1-0.2,0.2-0.2c0,0,0.1-0.2,0.1-0.2c-0.3-0.2,0.1-0.4,0-0.7
	c-0.1-0.2,0-0.5,0-0.8c0-0.1,0.1-0.2,0.1-0.3c0.1-0.1,0.3-0.1,0.3-0.2c0.3-0.5,0.8-0.5,1.3-0.5c0.1,0,0.3,0,0.4-0.1
	c0.1,0,0.3-0.2,0.3-0.2c0.1,0.2,0.3,0.2,0.3,0.4c0,0.2,0.1,0.3,0.3,0.5c0.1,0.2,0.3,0.4,0.5,0.4c0.2,0.1,0.2,0.3,0.4,0.4
	c0.2,0.1,0.4,0.2,0.5,0.3c0.5,0.5,1.1,1,1.6,1.5c0.2,0.1,0.3,0.4,0.5,0.3c0,0,0.1,0.1,0.1,0.1c0.1,0.1,0.2,0.2,0.3,0.3
	c0.1,0.2,0.2,0.4,0.2,0.5c0,0.2-0.2,0.3-0.3,0.4c-0.3,0.3-0.7,0.7-1,0.9c-0.4,0.2-0.9,0.3-1.2,0.1c-0.4-0.2-0.6,0.2-0.9,0.1
	c-0.2,0.3-0.5,0.2-0.8,0.4c-0.4,0.2-0.8,0.4-1.2,0.5c-0.2,0.1-0.4,0.2-0.5,0.3c-0.2,0.2-0.4,0.3-0.7,0.5c-0.1,0-0.1,0.1-0.1,0.2
	c-0.1,0.2-0.2,0.2-0.4,0.2c-0.4,0-0.7,0.2-1,0.5c-0.3,0.3-0.6,0.7-1,0.9c-0.2,0.1-0.3,0.2-0.5,0.3c-0.4,0.2-0.5,0.5-0.5,0.8
	c0,0.2-0.1,0.4-0.1,0.7c0,0.2,0,0.4,0,0.6c0,0.3,0.1,0.5,0.3,0.6c0,0,0.1,0,0.1,0c0,0.4,0.3,0.7,0.3,1c0,0.5,0,1,0.2,1.5
	c0.1,0.2,0.1,0.5,0.1,0.7c0.1,0.3,0.2,0.7,0.3,1c0.1,0.4,0.2,0.7,0.2,1.1c0,0.4-0.1,0.8-0.2,1.2c-0.1,0.3,0,0.5,0,0.7
	c0.1,0.5,0.1,1.1,0,1.6c-0.1,0.5,0,0.9-0.1,1.4c0.2,0.2,0,0.3,0,0.5c-0.1,0.2-0.3,0.3-0.3,0.5c-0.3,0.7-0.8,1-1.5,1.1
	c-0.1,0.3,0,0.6,0.1,0.8c0.1,0.2,0.1,0.3,0,0.4c-0.1,0.2-0.1,0.4,0.2,0.4c0.4,0.5,1,0.9,1.4,1.4c0.1,0.2,0.4,0.4,0.5,0.6
	c0,0,0.1,0.1,0.1,0.1c0.3-0.1,0.4,0.3,0.6,0.4c0.2,0.1,0.3,0.3,0.5,0.5c0.2,0.2,0.5,0.3,0.5,0.6c0.4,0.2,0.4,0.7,0.7,0.9
	c0.1,0.1,0.2,0.3,0.4,0.4c0.5,0.5,1.1,1.1,1.5,1.7c0.3,0.1,0.4,0.4,0.6,0.6c0.2,0.2,0.3,0.4,0.5,0.6c0.3,0.3,0.7,0.6,1.1,0.9
	c0.1,0.1,0.2,0.1,0.2,0.2c0,0,0,0.1,0,0.1c0,0.4-0.1,0.5-0.3,0.5c-0.4,0.1-0.7-0.1-0.7-0.4c0-0.3-0.2-0.3-0.3-0.3
	c-0.3,0-0.5-0.3-0.7-0.5c-0.2-0.3-0.3-0.4-0.7-0.5c-0.2-0.1-0.1-0.3-0.4-0.3c-0.2,0-0.3-0.3-0.5-0.3c-0.1,0-0.1-0.1-0.1-0.1
	c0-0.2-0.1-0.3-0.1-0.5c-0.2,0.1-0.3-0.1-0.5-0.2c-0.1-0.1-0.1-0.3-0.3-0.3c-0.4-0.4-0.9-0.8-1.3-1.3c-0.4-0.4-0.8-0.7-1.2-1.1
	c-0.4-0.4-1-0.6-1.3-1.1c-0.2-0.3-0.4-0.5-0.7-0.8c-0.1-0.1-0.3-0.1-0.4-0.2c-0.1-0.1-0.2-0.1-0.3,0c-0.1,0.2-0.3,0.3-0.4,0.5
	c-0.2,0.3-0.5,0.6-0.9,0.8c-0.5,0.3-1,0.7-1.5,0.8c-0.1,0-0.1,0.1-0.2,0.1c-0.3,0.3-0.6,0.6-1,0.7c-0.1,0-0.2,0.1-0.2,0.2
	c-0.2,0.2-0.5,0.5-0.7,0.7c-0.2,0.2-0.4,0.4-0.6,0.4c-0.2,0-0.2,0.3-0.3,0.3c-0.3-0.1-0.3,0.1-0.3,0.3c-0.1,0.2-0.3,0.1-0.5,0.1
	c-0.4-0.1-0.8,0-1,0.3c-0.2,0.2-0.4,0.3-0.7,0.4c-0.3,0.1-0.4,0.3-0.7,0.4c-0.2,0.1-0.5,0.2-0.7,0.3c-0.1,0-0.3,0.2-0.4,0.3
	c-0.1,0.1-0.2,0.3-0.3,0.4c0,0.1,0.1,0.2,0.2,0.4c0.1,0.2,0.2,0.3,0.3,0.5c0.1,0.1,0.1,0.2,0.1,0.3c0,0.2-0.1,0.4,0.1,0.6
	c0,0,0,0.2,0,0.2c-0.2,0.4,0,0.7,0.1,1c0,0.1,0,0.1,0,0.2c0,0.1-0.1,0.3-0.1,0.4c0.2,0.6-0.1,1.1,0,1.7c0.1,0.6,0,1.2,0,1.7
	c0,0.3-0.1,0.5-0.1,0.8c0,0.3,0.1,0.6,0,0.8c-0.2,1-0.1,2-0.1,2.9c0,0.9,0,1.8,0,2.7c0,0.6,0,0.6,0.6,0.6c0.6,0,1.1-0.2,1.6-0.3
	c0.1,0,0.1-0.1,0.2-0.1c0.3,0,0.6,0.1,0.9,0c0.3-0.1,0.5-0.2,0.8-0.3c0.3-0.1,0.6,0,0.8-0.2c0.4,0.1,0.9-0.2,1.3-0.1
	c0.7,0.1,1.4-0.2,2.1,0.1c0.5-0.3,1.2,0.1,1.6-0.5c0.4-0.1,0.7-0.3,1-0.6c0.1-0.1,0.3-0.2,0.5-0.2c0.2,0,0.5,0,0.6,0.2
	c0.3,0.3,0.6,0.3,0.9,0.4c0.3,0.2,0.5,0.4,0.5,0.8c0,0.4-0.1,0.7-0.3,1.1c-0.2,0.5-0.3,1-0.4,1.5c0,0.4-0.1,0.7-0.1,1
	c0,0.2-0.2,0.4-0.4,0.4c-0.4,0.1-0.8,0.1-1.2,0.1c-0.3,0-0.6-0.1-0.9-0.1c-0.3,0-0.6,0.1-0.9-0.1c-0.1-0.1-0.3,0-0.4,0
	c-0.1,0-0.4,0.1-0.4-0.2c0,0-0.1-0.1-0.2-0.1c-0.2,0-0.5,0-0.7-0.1c-0.3-0.1-0.5-0.1-0.8-0.1c-0.9,0-1.9,0-2.8,0
	c-0.3,0-0.5,0-0.7,0.1c-0.1,0-0.1,0.1-0.1,0.1c-0.6,0.1-1.1,0.1-1.7,0.1c-0.5,0-0.8,0-1.1,0.1c0,0-0.1,0.1-0.1,0.1
	c-0.2,0.8-0.4,1.7-0.2,2.5c0.1,0.5,0.1,0.9,0.1,1.4c0,0.3,0.1,0.5,0.2,0.8c0.1,0.3,0.1,0.6,0.1,0.9c0,1.2,0,2.4,0,3.6
	c0,0.5,0.1,1,0.2,1.4c0,0.3,0.2,0.5,0.3,0.8c0.1,0.3,0.2,0.6,0.3,0.9c0.1,0.2,0.4,0.4,0.3,0.7c0.3,0.5,0.1,1.1,0.1,1.6
	c0,0.2-0.1,0.4-0.2,0.6c-0.2,0.2-0.5,0.3-0.7,0.3c-0.5,0-0.9,0.1-1.4,0.1c-0.3,0-0.6-0.1-0.9-0.3c-0.2-0.2-0.6-0.1-0.9,0
	c-0.4,0.2-0.7,0.3-1.1,0.1c-0.2-0.1-0.4-0.3-0.4-0.5c0-0.6,0.1-1.2,0.3-1.8c0.1-0.3,0.1-0.6,0.3-0.9c0.2-0.3,0.2-0.6,0.3-0.9
	c0-0.1,0.1-0.1,0.1-0.2c0-0.5,0.2-1,0.1-1.6c0-0.3-0.1-0.6-0.2-0.9c-0.3-0.6-0.2-1.2-0.1-1.8c0-0.3,0.1-0.5,0.1-0.8
	c0-0.2,0.2-0.5-0.1-0.7c0-0.5-0.1-1.1,0.1-1.6c0,0,0-0.1,0-0.1c0-0.7,0.1-1.4,0.1-2.1c0-0.2-0.1-0.4-0.1-0.7c0-0.2,0.1-0.4-0.1-0.7
	c-0.1-0.1,0-0.4,0-0.6c0-0.2-0.1-0.2-0.3-0.2c-0.1,0-0.1,0-0.2,0c-0.3-0.1-0.6-0.1-0.9,0c-0.1,0.1-0.4,0.1-0.6,0.1
	c-0.6,0-1.2-0.1-1.7,0c-0.4,0.1-0.8,0.1-1.2,0.1c-0.2,0-0.3,0.1-0.5,0.1c-0.7,0.2-1.4,0.3-2.1,0.3c-0.2,0-0.4,0-0.7,0.1
	c-0.4,0.1-0.6,0.4-0.9,0.6c-0.2,0.2-0.3,0.3-0.6,0.3c-0.1,0-0.3,0-0.4,0c-0.2,0-0.4,0-0.6-0.2c-0.1-0.2-0.3-0.3-0.3-0.5
	c0-0.1-0.3-0.5-0.4-0.6c-0.2-0.2-0.2-0.3-0.1-0.6c0-0.3-0.1-0.6-0.2-0.8c-0.1-0.4-0.1-0.9-0.5-1.2c0-0.3-0.1-0.7,0-0.9
	c0.2-0.4,0.5-0.8,0.9-0.9c0.3-0.1,0.6-0.2,0.9-0.2c0.2,0,0.5,0.1,0.7,0.2c0.1,0.1,0.4,0.1,0.4,0.3c0,0,0.1,0.1,0.1,0.1
	c0.5-0.1,1,0.3,1.5,0.3c0.1,0,0.2,0.1,0.3,0.1c0.4,0,0.8,0.1,1.1,0.2c0,0,0.1,0,0.1,0c0.5,0,0.9,0.1,1.4,0.1c0.5,0,0.9,0,1.4,0.3
	c0,0,0.1,0,0.1,0c0.8,0,1.5,0.1,2.3,0.1c0.1,0,0.2,0,0.3-0.1c0,0,0.2,0.1,0.3,0.2c0.1,0.1,0.2,0,0.2-0.1c0-0.1,0.1-0.2,0-0.3
	c-0.1-0.3,0.1-0.6,0-1c-0.1-0.3,0-0.7,0-1c0-0.4-0.3-0.6-0.3-0.9c-0.2-0.1-0.1-0.3-0.1-0.5c0-0.4,0-0.8,0-1.2c0-0.2,0.1-0.4,0.1-0.7
	c0-0.4-0.1-0.9-0.1-1.3c0-0.5,0.1-0.9,0-1.3c-0.1-0.4,0.1-0.7,0-1c0-0.7,0-1.4,0-2.1c0-0.6,0-1.1,0.1-1.7c0.1-0.4,0.1-0.8,0.1-1.2
	c0-0.5,0.1-0.9,0.1-1.4c-0.2-0.1-0.4-0.2-0.5-0.2c-0.2,0-0.3,0-0.5-0.1c-0.2,0.2-0.3-0.1-0.5,0c-0.2,0.1-0.3-0.1-0.5-0.1
	c-0.6,0-1.1-0.1-1.5-0.4c-0.4,0.2-0.6-0.3-0.9-0.3c-0.3,0.1-0.5-0.2-0.8-0.3c-0.3-0.1-0.6-0.1-0.8-0.2c-0.3,0-0.5-0.1-0.7-0.3
	c-0.2-0.1-0.4-0.3-0.7-0.4c-0.6-0.2-0.6-0.3-0.9-0.8c-0.2-0.3-0.4-0.5-0.6-0.8c0,0-0.1,0-0.1,0c-0.3-0.7-1-0.8-1.5-1.3
	c-0.3-0.3-0.6-0.3-0.8,0c-0.3,0.4-0.8,0.4-1,0.7c-0.3,0-0.5,0.3-0.8,0.4c-0.3,0.1-0.5,0.3-0.8,0.5c-0.5,0.3-1.1,0.7-1.6,1
	c-0.3,0.1-0.4,0.4-0.6,0.5C4.8,84.6,4.4,84.8,4,85c-0.4,0.2-0.6,0.6-1,0.8c-0.3,0.1-0.7,0.3-0.8,0.6c-0.2,0.2-0.6,0-0.6,0.4
	c-0.1,0-0.2-0.1-0.3-0.1c-0.2,0-0.4-0.2-0.4-0.3c0-0.1-0.1-0.3-0.1-0.4c0-0.1,0.1-0.3,0.2-0.3c0.3-0.1,0.5-0.3,0.7-0.5
	C1.7,85.1,1.9,85.1,2,85c0.2-0.1,0.4-0.2,0.5-0.4c0.2-0.4,0.6-0.5,0.9-0.8c0.2-0.2,0.6-0.4,0.8-0.6C4.3,83,4.5,83,4.7,82.8
	c0.2-0.1,0.3-0.3,0.5-0.5C5.4,82.2,5.6,82,5.8,82c0.3,0,0.4-0.3,0.6-0.4c0.2-0.1,0.4-0.3,0.5-0.4c0.2-0.2,0.4-0.4,0.5-0.7
	c0.1-0.2,0.4-0.2,0.4-0.4c0.1-0.2,0.2-0.3,0.4-0.4c0.2-0.1,0.3-0.2,0.5-0.4c0.1,0,0.1-0.1,0.1-0.1c-0.1-0.1-0.2-0.2-0.2-0.3
	c-0.3-0.7-0.8-1.3-1.2-1.9c-0.4-0.7-0.9-1.3-0.9-2.1c0-0.2-0.1-0.6-0.5-0.7c-0.1-0.2-0.3-0.3-0.3-0.6c-0.1-0.4-0.2-0.7-0.2-1.1
	c0-0.3-0.1-0.6-0.1-0.9c-0.1-0.3,0.1-0.6-0.1-0.9c0,0,0-0.1,0-0.1c0.3-0.7,0.1-1.3,0.1-2c0-0.1,0-0.3,0.1-0.4
	c0.1-0.4,0.2-0.8,0.3-1.2c0.1-0.5,0.1-1,0.4-1.4c-0.1-0.3,0.2-0.4,0.3-0.6c0.3-0.7,0.8-1.4,1-2.1C7.8,62.5,7.7,62,8,61.7
	c0.2-0.2,0.3-0.6,0.4-0.9c0.1-0.3,0.3-0.6,0.5-0.8c0,0,0.1-0.1,0.1-0.1c0.1-0.1,0.1-0.4,0.2-0.4c0.2-0.1,0.3-0.2,0.4-0.3
	C9.8,59,9.9,58.9,10,58.7z M8.7,69.3c0.1,0.7,0.1,1.3,0.2,1.9c0,0,0,0,0,0.1c0.1,0.3,0.2,0.5,0.2,0.8c0.1,0.3,0.1,0.6,0.1,0.9
	c0,0.1,0.1,0.2,0.1,0.3c0.2,0.5,0.4,1.1,0.6,1.6c0.1,0.2,0.2,0.5,0.4,0.6c0.3,0.1,0.3,0.4,0.5,0.6c0.1,0.1,0.1,0.3,0.2,0.4
	c0.1,0.1,0.2,0.2,0.3,0.4c0.2,0.3,0.2,0.3,0.5,0c0,0,0.1-0.1,0.1-0.1c0.1-0.1,0.3-0.2,0.4-0.3c0.2-0.1,0.3-0.2,0.4-0.3
	c0.1-0.2,0.4-0.1,0.4-0.2c0-0.3,0.3-0.2,0.4-0.3c0.4-0.3,1-0.4,1.3-0.8c0-0.1,0.2-0.1,0.2-0.1c0.3,0.1,0.5-0.1,0.7-0.3
	c0.2-0.1,0.4-0.2,0.5-0.4c0.3-0.4,0.6-0.7,0.9-1.1c0.3,0,0.2-0.3,0.4-0.4c0.2-0.1,0.3-0.2,0.5-0.4c0.3-0.2,0.6-0.5,0.8-0.8
	c0.1-0.2,0.4-0.3,0.6-0.5c0.2-0.2,0.4-0.4,0.6-0.6c0.2-0.2,0.4-0.3,0.6-0.5c0.1-0.1,0.3-0.2,0.4-0.4c0.1-0.2,0.3-0.2,0.5-0.4
	c0,0,0-0.1,0-0.1c-0.1-0.1-0.1-0.2-0.2-0.3c-0.3-0.3-0.6-0.5-0.9-0.8c-0.3-0.4-0.8-0.6-1.1-1c-0.2,0-0.3-0.1-0.4-0.3
	c0-0.1-0.1-0.1-0.1-0.1c-0.2-0.2-0.5-0.3-0.7-0.5c-0.2-0.2-0.4-0.4-0.6-0.7c-0.3-0.3-0.6-0.6-0.9-0.9c-0.2-0.2-0.4-0.3-0.6-0.5
	c-0.2-0.2-0.3-0.3-0.4-0.5c-0.2-0.2-0.4-0.3-0.6-0.5c-0.2-0.4-0.7-0.5-0.9-0.9c-0.5-0.1-0.8-0.6-1.2-0.8c-0.3-0.2-0.6-0.1-0.9-0.1
	c-0.1,0-0.3,0.2-0.4,0.4c-0.1,0.1-0.2,0.3-0.3,0.5c-0.2,0.2-0.3,0.4-0.4,0.7c-0.1,0.4-0.2,0.8-0.2,1.2c0,0.1,0,0.2-0.1,0.4
	c-0.1,0.3-0.3,0.6-0.4,0.9c-0.1,0.1,0.1,0.4-0.2,0.4c-0.1,0-0.1,0.3-0.2,0.4c-0.1,0.2-0.1,0.4-0.2,0.5c-0.2,0.3-0.2,0.7-0.3,1.1
	c0,0.4,0.1,0.9,0.2,1.3c0.1,0.1,0.1,0.3-0.1,0.4c-0.2,0.1-0.3,0.3-0.5,0.3c-0.1,0-0.2-0.1-0.4-0.2C8.9,69.4,8.9,69.4,8.7,69.3z
	 M16.5,59.8c0.2,0.2,0.5,0.4,0.6,0.6c0.1,0.2,0.3,0.3,0.4,0.5c0.1,0.2,0.4,0.1,0.4,0.4c0.1,0.2,0.3,0.3,0.5,0.5c0,0,0.1,0,0.2,0.1
	c0.4,0.1,0.6,0.5,0.8,0.8c0.3,0.4,0.6,0.8,0.9,1.1c0.2,0.2,0.4,0.4,0.5,0.6c0.1,0.2,0.3,0.4,0.4,0.5c0.2,0.2,0.4,0.5,0.7,0.6
	c0.1,0,0.2,0.3,0.3,0.4c0.4,0.4,0.7,1,1.4,0.9c0,0,0.1,0,0.1,0c0.1,0.1,0.2,0.1,0.3,0c0.4-0.2,0.6-0.6,1.1-0.8
	c0.2-0.1,0.4-0.3,0.6-0.5c0.2-0.2,0.4-0.4,0.7-0.5c0.1,0,0.1-0.1,0.2-0.1c0.1-0.1,0.3-0.3,0.4-0.4c0.1-0.1,0.2-0.1,0.3,0
	c0.1-0.1,0.2-0.2,0.3-0.2c0.4-0.1,0.6-0.3,0.9-0.5c0.5-0.3,1-0.7,1.5-1c0.4-0.2,0.8-0.6,1.3-0.8c0,0,0.1-0.1,0.1-0.1
	c0.2-0.2,0.2-0.4,0.1-0.7c-0.1-0.1-0.1-0.2-0.2-0.3c-0.2-0.2-0.4-0.4-0.6-0.6c-0.1-0.1-0.3,0-0.4-0.2c-0.3-0.4-0.8-0.6-1.2-0.9
	c-0.2-0.1-0.4-0.3-0.6-0.3c-0.3,0-0.5-0.2-0.7-0.4c-0.1-0.1-0.3-0.2-0.4-0.3c-0.3-0.1-0.6-0.1-0.8-0.4c-0.3,0.1-0.4-0.2-0.5-0.2
	c-0.6,0-1.1-0.3-1.6-0.3c-0.6,0-1.1,0-1.7,0c-0.3,0-0.5,0-0.7,0.2c-0.3,0.2-0.7,0.2-1,0.3c-0.2,0.1-0.5-0.1-0.7,0.1
	c-0.2,0.2-0.5,0-0.8,0.2c-0.3,0.2-0.7,0.1-0.9,0.4c-0.3-0.1-0.6,0.1-0.8,0.3c-0.2,0.2-0.4,0.2-0.7,0.3c-0.2,0-0.4,0.1-0.6,0.2
	c-0.2,0.1-0.1,0.4-0.1,0.5C16.5,59.8,16.5,59.8,16.5,59.8z M25.8,69.4c0.6,0.5,1.1,1,1.6,1.6c0.3,0.4,0.6,0.8,0.9,1.1
	c0.2,0.2,0.4,0.3,0.6,0.5c0.3,0.3,0.6,0.5,0.9,0.7c0.1,0.1,0.4,0.2,0.4,0.3c-0.1,0.4,0.4,0.3,0.5,0.6c0.3,0.1,0.5,0.4,0.7,0.6
	c0.1,0.1,0.1,0.2,0.2,0.2c0,0.3,0.4,0.2,0.5,0.4c0.2,0.2,0.4,0.5,0.6,0.7c0,0.1,0.1,0.1,0.2,0.1c0.2,0,0.4,0,0.5-0.3
	c0-0.2,0.1-0.4,0.3-0.6c0.2-0.2,0-0.5,0.2-0.6c0.1-0.2,0.1-0.4,0.1-0.6c0.1-0.9,0.2-1.3,0-2.2c0-0.1,0-0.3-0.1-0.4
	c-0.1-0.1,0-0.3,0.1-0.4c0.1-0.2,0.1-0.4,0.1-0.5c0-0.2,0-0.3,0.1-0.5c0.1-0.2,0.2-0.6,0.1-0.8c-0.1-0.3-0.1-0.7-0.1-1
	c0-0.2,0-0.3-0.1-0.4c-0.1-0.1-0.1-0.2-0.1-0.3c-0.3-0.8-0.5-1.5-0.9-2.3c-0.1-0.2-0.3-0.4-0.3-0.6c0,0-0.1-0.1-0.2-0.1
	c-0.1,0-0.2,0-0.4,0.1c-0.6,0.2-1.2,0.8-1.6,1.3c0,0.1-0.1,0.1-0.1,0.1c-1,0.6-1.8,1.4-2.7,2c-0.4,0.3-0.7,0.5-1.1,0.7
	C26.4,68.9,26,69.1,25.8,69.4z M24.5,71.6c-0.1,0.3-0.4,0.7-0.4,1c-0.1,0.5-0.2,1-0.2,1.5c0,0.9,0,1.9,0,2.8c0,0.4-0.3,0.9,0,1.3
	C23.8,79,24,79.6,24,80.3c0,0.6,0.1,1.2,0.1,1.8c0,0.2,0.1,0.3,0.3,0.3c0.2,0,0.3,0,0.4-0.2c0.1,0,0.2,0,0.2,0
	c0.2,0.2,0.5,0.3,0.7,0.1c0.3-0.3,0.7-0.3,1-0.5c0.2-0.1,0.4-0.2,0.6-0.3c0.2-0.1,0.4-0.2,0.6-0.3c0.2-0.1,0.5-0.2,0.7-0.2
	c0.3,0,0.3-0.4,0.7-0.3c0.2-0.1,0.5-0.2,0.5-0.4c0.1-0.2,0.3-0.2,0.4-0.3c0.4,0.1,0.6-0.2,0.7-0.5c0.3-0.5,0.6-1,0.8-1.6
	c0.1-0.2,0.2-0.5-0.2-0.5c-0.4-0.5-0.9-0.7-1.5-1c-0.1,0-0.2-0.1-0.2-0.3c-0.3-0.6-1.2-1.4-1.8-1.7c-0.1-0.1-0.3-0.1-0.4-0.2
	c-0.6-0.5-1.1-1.2-1.8-1.6C25.3,72.5,24.9,72,24.5,71.6z M21.1,73.4c-0.1,0.1-0.2,0.2-0.3,0.3c-0.5,0.2-0.8,0.8-1.3,1
	c-0.2,0.7-0.9,0.8-1.4,1.2C18,76,17.6,76,17.5,76.4c-0.5,0.1-0.7,0.5-1.1,0.7c-0.1,0.1-0.3-0.1-0.3,0.2c-0.3,0.2-0.5,0.6-0.9,0.7
	c-0.5,0.2-0.9,0.6-1.3,0.8c-0.2,0.1-0.3,0.3-0.5,0.4c-0.1,0.1-0.1,0.3,0.1,0.4c0.1,0.1,0.2,0.2,0.3,0.3c0.4,0.3,0.9,0.7,1.3,1
	c0.1,0.1,0.4,0.1,0.4,0.2c0,0.3,0.2,0.1,0.3,0.2c0.1,0.1,0.2,0.3,0.3,0.4c0.4,0.2,0.7,0.5,1.1,0.4c0.1,0,0.1,0,0.2,0
	c0.3,0.3,0.7,0.2,1,0.2c0.2,0,0.5,0,0.6,0.1c0.1,0.1,0.2,0.1,0.3,0.1c0.3,0,0.5,0.1,0.8,0.2c0.3,0.1,0.6,0.2,0.9,0
	c0.3-0.2,0.2-0.5,0.1-0.8c0,0,0,0,0,0c0-0.2-0.2-0.4-0.1-0.6c0.2-0.4,0-0.8,0.2-1.2c0.1-0.4,0-0.9,0-1.3c0-0.7,0-1.3,0-2
	c0-0.1,0-0.3,0-0.4c0.2-0.5,0-0.9,0.1-1.4c-0.2-0.2,0-0.5-0.1-0.7C21.1,73.9,21.2,73.7,21.1,73.4z"/>
<path class="st4" d="M446,116.3c0.8-0.3,1.6-0.3,2.3-0.9c0.1-0.1,0.2-0.1,0.3-0.1c0.6-0.2,1.1-0.5,1.6-0.8c0.5-0.3,1-0.7,1.5-1
	c0.1-0.1,0.2-0.2,0.4-0.3c0.5-0.1,0.8-0.5,1.2-0.8c0.1-0.1,0.2-0.2,0.3-0.2c0.1-0.1,0.3-0.1,0.3-0.3c0-0.1,0.2-0.2,0.3-0.3
	c0.3-0.1,0.5-0.3,0.6-0.5c0.2-0.4,0.6-0.6,1-0.9c0.2-0.2,0.2-0.3,0.1-0.4c-0.5-0.6-0.9-1.2-1.6-1.5c-0.1-0.3-0.5-0.2-0.5-0.5
	c-0.3,0-0.4-0.3-0.6-0.5c-0.4-0.3-0.8-0.6-1.2-0.9c-0.2-0.2-0.4-0.3-0.6-0.5c-0.7-0.7-1.1-0.9-1.8-1.2c-0.3,0-0.5-0.2-0.6-0.4
	c-0.2-0.3-0.4-0.6-0.7-0.8c-0.1-0.1-0.1-0.1-0.2-0.2c-0.1-0.2-0.4-0.3-0.5-0.5c-0.1-0.2-0.3-0.4-0.5-0.4c0-0.4-0.4-0.6-0.6-0.9
	c-0.1-0.2-0.1-0.7-0.5-0.7c0,0,0,0,0,0c0-0.4-0.1-0.9,0.2-1.3c0.2-0.3,0.4-0.5,0.8-0.4c0.2,0,0.3,0,0.5-0.1c0.4-0.2,0.8-0.3,1.2-0.4
	c0.4-0.2,0.8-0.1,1.3-0.1c0.1,0,0.3,0.1,0.4,0.1c0.2,0,0.3-0.1,0.5,0.1c0,0,0.2,0,0.2,0c0.5,0,1.1,0.1,1.6,0c0.7-0.1,1.3,0,1.9-0.1
	c0.8-0.1,1.5-0.1,2.3-0.1c0.3,0,0.6,0.1,0.9,0.1c0.2,0,0.4,0,0.6-0.1c0.1-0.1,0.4-0.1,0.6,0.1c0,0,0.1,0.1,0.2,0
	c0.2-0.1,0.4-0.1,0.6,0c0.2,0.1,0.4,0,0.6,0c0.2,0,0.5,0,0.7,0c0.1,0,0.2,0,0.3,0c0.4,0,0.6-0.2,0.6-0.6c0-0.2,0.1-0.4-0.1-0.5
	c0,0-0.1-0.2,0-0.2c0.2-0.3,0.1-0.6,0.1-0.9c0-1.3,0-2.6,0-3.9c0-0.7-0.1-1.3-0.1-2c0-0.4,0.1-0.8,0.1-1.2c0-0.4-0.1-0.8,0-1.2
	c0.1-0.4,0.1-0.8,0.1-1.3c0-0.3,0.1-0.5,0.1-0.8c0-0.2-0.1-0.5,0-0.7c0.1-0.4,0.2-0.7-0.1-1c0-0.3-0.2-0.6-0.2-1
	c0-0.5-0.3-0.6-0.6-0.7c-0.5-0.2-1.1-0.3-1.7-0.4c-0.4,0-0.8-0.1-1.1-0.3c-0.3-0.2-0.8-0.2-1.2-0.3c-0.4-0.1-0.7-0.3-1.1-0.3
	c-0.2-0.4-0.7-0.2-0.9-0.5c-0.2-0.2-0.6-0.4-0.8-0.5c0-0.3-0.2-0.2-0.4-0.3c-0.3-0.2-0.6-0.4-0.9-0.7c-0.1-0.1-0.2-0.2-0.3-0.3
	c-0.4-0.4-0.9-0.7-1.3-1.1c-0.1-0.1-0.3-0.2-0.4-0.4c-0.1-0.1-0.2-0.2-0.3-0.4c-0.3-0.3-0.6-0.6-0.9-0.9c-0.3-0.4-0.6-0.7-0.9-1.1
	c0,0,0-0.1-0.1-0.1c-0.8-0.7-0.8-0.8-1.2-1.7c0-0.1-0.2-0.2-0.2-0.3c-0.1-0.4-0.4-0.7-0.4-1.1c0-0.4-0.1-0.8,0.1-1.1
	c0.1-0.3,0-0.6-0.2-0.9c-0.2-0.3-0.2-0.6-0.2-0.9c0-0.2,0-0.5,0-0.7c0-0.2-0.1-0.3-0.1-0.5c-0.1-0.5-0.3-0.9-0.4-1.4
	c0-0.2-0.1-0.3-0.1-0.4c-0.2-0.4-0.1-0.9-0.1-1.3c0-0.4,0.1-0.7,0-1.1c-0.1-0.5,0.2-0.8,0.5-1.2c0.1-0.1,0.4-0.2,0.6-0.2
	c0.3,0,0.5,0,0.8-0.1c0.2-0.1,0.4-0.2,0.7-0.2c0,0,0.1,0,0.1-0.1c0.1-0.1,0.1-0.4,0.2-0.4c0.2,0,0.3-0.1,0.4-0.2c0,0,0.1,0,0.1-0.1
	c0.2-0.2,0.3-0.4,0.5-0.5c0.3,0,0.6,0,1,0c0,0.5,0.1,1.1,0,1.7c0,0.3,0,0.6-0.1,0.9c-0.1,0.3-0.1,0.6-0.1,0.9
	c-0.1,0.4-0.2,0.8-0.4,1.2c-0.1,0.2-0.1,0.4-0.1,0.6c0,0.3,0.1,0.6-0.1,0.8c0,0,0,0.1,0,0.1c0.2,0.4,0.1,0.7,0,1.1
	c0,0.2,0,0.3,0.1,0.5c0.1,0.2,0.2,0.5,0.2,0.8c0,0.3,0.2,0.5,0.1,0.8c-0.1,0.3,0.1,0.5,0.2,0.7c0,0,0,0.1,0,0.2
	c0,0.4,0.1,0.8,0.1,1.3c0.1,0.3,0.3,0.6,0.2,1c0.3,0,0.2,0.4,0.4,0.5c0.1,0,0.1,0.1,0.1,0.2c0,0,0.5,0.9,0.5,0.9
	c0.2,0.2,0.3,0.5,0.5,0.6c0.3,0.2,0.4,0.5,0.6,0.6c0.2,0.2,0.4,0.4,0.6,0.6c0.2,0.2,0.5,0.2,0.5,0.5c0,0,0.1,0,0.1,0
	c0.2,0,0.4,0,0.5,0.1c0.1,0.1,0.4,0.1,0.4,0.3c0,0,0.1,0.1,0.1,0.1c0.3-0.1,0.5,0.1,0.6,0.3c0.3,0.3,0.8,0.2,1.1,0.5
	c0.3,0.2,0.7,0.3,1,0.5c0.2,0.2,0.4,0.2,0.6,0.4c0.2,0.2,0.4,0.2,0.6,0.4c0.2,0.1,0.3,0.3,0.5,0.2c0.1,0,0.2,0.1,0.2,0.1
	c0.1,0.1,0.2,0.1,0.4,0.1c0.4,0,0.8,0,1.3,0c0-0.2,0-0.3,0-0.5c0-0.8,0.2-1.5,0.1-2.3c0-0.7,0-1.5,0-2.2c0-0.1,0.1-0.2,0.1-0.3
	c0-0.2,0.1-0.3,0-0.5c-0.1-0.2-0.1-0.4,0-0.6c0.1-0.2,0-0.4,0.1-0.7c0.1-0.7-0.2-1.3-0.3-2c-0.3-0.3,0-0.7-0.2-1
	c0-0.5-0.2-0.9-0.3-1.3c0-0.3-0.1-0.6-0.1-0.9c0-0.7,0.1-1.5,0-2.2c-0.1-0.5-0.1-1.1-0.4-1.6c-0.2-0.4-0.1-0.8,0-1.2
	c0.1-0.5,0.1-1,0.4-1.4c0.1-0.2,0.1-0.5,0.1-0.7c0-0.1,0-0.3,0.2-0.4c0.2-0.1,0.3-0.2,0.5-0.3c0.2,0.2,0.4-0.1,0.6,0
	c0.2,0.1,0.5,0,0.7,0c0.1,0,0.2,0,0.2,0c0.5,0.4,1.2,0.5,1.8,0.7c0.6,0.2,0.9,0.7,0.9,1.2c0,0.2,0.1,0.5,0.1,0.7
	c0,0.2-0.2,0.4-0.2,0.6c0,0.3-0.1,0.5-0.2,0.7c-0.1,0.2,0.1,0.6-0.2,0.7c0,0.3,0,0.6-0.1,0.9c-0.1,0.3-0.1,0.7-0.2,1
	c-0.1,0.2,0,0.4,0,0.6c0,0.2,0.1,0.4-0.1,0.6c0,0,0.1,0.2,0.1,0.3c-0.1,0.5,0.1,1.1-0.1,1.6c-0.1,0.1,0,0.3,0,0.4c0,1.2,0,2.4,0,3.7
	c0,0.7-0.2,1.3-0.2,2c0,0.2-0.1,0.4,0,0.6c0.1,0.2,0,0.5,0,0.7c0.1,0.3-0.1,0.5-0.1,0.8c0,0.3,0.1,0.5-0.1,0.8c0,0,0,0.1,0,0.1
	c0.2,0.4,0.1,0.8,0.1,1.2c0,0.1,0.2,0.2,0.2,0.2c0.5-0.1,0.9,0.1,1.4,0.1c0.3,0,0.6-0.1,0.8-0.2c0.3-0.1,0.5-0.2,0.8-0.2
	c0.2,0,0.3-0.3,0.5-0.3c0.1,0,0.1-0.1,0.2-0.1c0.6,0,1-0.3,1.5-0.7c0.2-0.2,0.5-0.2,0.8-0.3c0.1-0.1,0.3,0,0.4-0.1
	c0.3-0.4,0.8-0.5,1.2-0.8c0.1-0.2,0.4-0.2,0.5-0.4c0.3-0.3,0.7-0.7,0.9-1.1c0.1-0.2,0.4-0.3,0.3-0.6c0,0,0.1-0.1,0.1-0.1
	c0.1-0.2,0.2-0.4,0.4-0.4c0.3-0.1,0.1-0.4,0.2-0.5c0.1-0.1,0.2-0.3,0.3-0.5c0.1-0.2,0.1-0.3,0.1-0.5c0.1-0.3,0.1-0.6,0.2-0.8
	c0.1-0.3,0.3-0.5,0.4-0.8c0-0.1,0.1-0.1,0.1-0.2c0-0.4,0.1-0.8,0.2-1.1c0.1-0.2,0.1-0.5,0.1-0.8c0-0.5,0.1-1.1,0.3-1.6
	c0.1-0.3,0.1-0.5,0.1-0.8c0-0.2,0.3-0.4,0-0.6c0-0.2,0-0.5,0-0.7c0-0.2,0-0.5,0-0.7c0-0.2-0.1-0.3-0.1-0.5c-0.2-0.7-0.4-1.4-0.4-2.2
	c0-0.2,0.1-0.5-0.1-0.7c-0.2-0.2-0.1-0.4-0.1-0.6c0-0.1,0.2-0.8,0.3-0.8c0.1,0,0.1,0,0.2,0c0.4-0.2,1-0.2,1.3,0.1
	c0.3,0.3,0.6,0.5,1,0.7c0.3,0.2,0.6,0.4,0.8,0.7c0.2,0.1,0.3,0.2,0.6,0.3c0.4,0.1,0.4,0.2,0.5,0.6c0,0.7,0,1.3,0,2
	c0,0.2,0,0.3-0.1,0.5c-0.2,0.2-0.1,0.5-0.1,0.8c0.1,0.4,0.3,0.7,0.2,1.1c-0.1,0.3-0.1,0.7-0.3,1c-0.2,0.3-0.3,0.6-0.4,0.9
	c-0.1,0.3-0.2,0.7-0.1,1c0,0.2-0.1,0.4-0.1,0.6c-0.1,0.4-0.1,0.8-0.3,1.2c-0.1,0.3-0.1,0.7-0.5,0.9c-0.1,0.1-0.2,0.3-0.1,0.4
	c0.1,0.6-0.3,0.9-0.5,1.3c-0.1,0.2-0.3,0.5-0.5,0.7c-0.1,0.1-0.3,0.2-0.4,0.3c-0.1,0.1-0.2,0.3-0.3,0.4c-0.3,0.2-0.7,1-0.8,1.2
	c-0.1,0.4-0.3,0.6-0.6,0.7c-0.3,0.1-0.4,0.2-0.5,0.4c-0.3,0.4-0.8,0.6-1.2,0.9c-0.2,0.1-0.4,0.2-0.5,0.4c0,0.1-0.2,0.1-0.2,0.1
	c-0.1,0.1-0.3,0.2-0.4,0.3c-0.3,0.3-0.6,0.5-1.1,0.6c-0.2,0-0.3,0.1-0.2,0.4c0,0.2-0.1,0.3-0.3,0.4c-0.5,0.2-1,0.1-1.4,0.1
	c-0.2,0-0.5,0.1-0.7,0.2c-0.3,0.1-0.6,0.3-0.9,0.3c-0.3,0-0.3,0.3-0.6,0.3c-0.2,0-0.4,0-0.6,0c-0.4,0.1-0.7,0.3-0.9,0.6
	c-0.1,0.1-0.2,0.3-0.4,0.5c-0.1,0.1-0.3,0.2-0.4,0.3c-0.1,0.3-0.1,0.5-0.1,0.8c-0.1,0.6,0,1.2,0.1,1.7c0.2,0.9,0,1.8,0.1,2.6
	c0,0.3-0.1,0.7,0.1,1c0.1,0.1-0.1,0.3-0.1,0.4c0,1.3,0,2.7,0,4c0,0.1,0,0.2,0,0.2c0.3,0.4,0.3,0.9,0.4,1.4c0.1,0.3,0.1,0.5,0.1,0.8
	c0,0.1,0.1,0.2,0.1,0.3c0.2,0.2,0.3,0.5,0.6,0.7c0.3,0.2,0.6,0.3,0.9,0.3c0.3,0,0.7,0,1,0c0.3,0,0.5-0.1,0.8-0.1
	c0.3,0,0.6,0.1,0.8,0c0.4-0.1,0.8-0.2,1.2,0c0,0,0.1,0,0.2-0.1c0.2,0,0.3-0.1,0.5,0c0.6,0.2,1.3,0.3,1.9,0.1c0,0,0.1,0,0.1,0
	c0.2,0.3,0.5,0.2,0.7,0.2c0.6,0,1.3,0.1,1.9,0.1c0.3,0,0.5,0.2,0.8,0c0,0,0.1,0.1,0.1,0.1c0.2,0.1,0.3,0.1,0.5,0
	c0.2-0.1,0.4-0.3,0.6,0c0,0.1,0.2,0.1,0.3,0.1c0.2,0,0.4-0.1,0.5-0.1c0.2,0.1,0.3,0.1,0.5-0.1c0.2,0.1,0.5,0.1,0.7,0.3
	c0.2,0.2,0.3,0.3,0.2,0.6c0,0.2-0.1,0.3-0.2,0.3c-0.2,0-0.1,0.3-0.3,0.3c-0.1,0-0.3,0.1-0.4,0.2c-0.3,0.2-0.6,0.4-0.8,0.8
	c-0.3,0.6-0.8,1.1-1.3,1.5c-0.3,0.3-0.5,0.6-0.8,0.9c-0.2,0.1,0.1,0.4-0.2,0.4c-0.1,0-0.2,0.2-0.3,0.4c-0.1,0.1-0.3,0.3-0.4,0.4
	c-0.3,0.4-0.6,0.8-0.9,1.2c-0.3,0.4-0.7,0.9-1,1.3c-0.2,0.2-0.4,0.4-0.5,0.7c-0.3,0.5-0.7,0.9-1.1,1.3c-0.4,0.4-0.3,0.5,0,1
	c0.2,0.2,0.4,0.5,0.7,0.7c0.2,0.2,0.4,0.4,0.6,0.7c0.3,0.5,0.7,0.8,1.1,1.2c0.1,0.1,0.4,0.1,0.4,0.4c0,0.1,0.2,0.2,0.3,0.3
	c0.1,0.1,0.3,0.2,0.5,0.4c0.4,0.4,1.1,0.8,1.6,0.9c0.1,0,0.2,0.1,0.3,0.2c0.3,0.4,0.6,0.6,1,0.9c0.1,0.1,0.3,0.1,0.5,0.2
	c0.2,0.2,0.5,0.3,0.4,0.6c0,0.3-0.4,0.6-0.7,0.5c-0.1,0-0.1-0.1-0.2-0.1c-0.7,0.1-1.2-0.3-1.7-0.6c-0.1-0.1-0.3-0.1-0.4-0.1
	c-0.6,0-0.6,0-1.2-0.5c-0.2-0.2-0.5-0.4-0.8-0.4c-0.2,0-0.4-0.1-0.5-0.4c-0.2-0.3-0.5-0.4-0.6-0.7c-0.5-0.1-0.8-0.6-1.2-0.8
	c-0.1-0.2-0.4-0.3-0.5-0.5c-0.2-0.2-0.4-0.5-0.7-0.6c-0.2-0.1-0.3-0.2-0.4-0.4c0,0-0.1-0.1-0.2,0c-0.1,0.1,0.1,0.3-0.1,0.4
	c-0.1,0-0.2,0.2-0.3,0.3c-0.3,0.5-0.6,0.9-0.7,1.5c-0.3,0.2-0.3,0.6-0.5,0.8c-0.2,0.2-0.3,0.5-0.7,0.7c-0.2,0.1-0.3,0.3-0.4,0.4
	c-0.1,0.1-0.2,0.2-0.3,0.3c-0.1,0.2-0.4-0.1-0.4,0.2c0,0.2-0.1,0.3-0.2,0.4c-0.4,0.5-0.7,1-1.1,1.4c-0.1,0.2,0,0.4-0.2,0.5
	c-0.2,0.1-0.2,0.3-0.2,0.4c0,0.1-0.1,0.3-0.1,0.4c-0.3,0.2-0.2,0.5-0.4,0.7c-0.1,0,0,0.2,0,0.3c0,0.2,0,0.4,0,0.6
	c0,0.2-0.2,0.3,0,0.5c0,0-0.1,0.2-0.2,0.3c-0.2,0.2-0.5,0.1-0.7,0.1c-0.1,0-0.2-0.2-0.2-0.3c-0.1-0.3-0.2-0.5-0.3-0.7
	c0-0.1,0-0.3,0-0.4c0-0.2,0-0.4-0.2-0.4c-0.3-0.1-0.5-0.3-0.6-0.6c0-0.2-0.2-0.3-0.2-0.5c-0.1-0.2-0.3-0.4-0.3-0.7
	c-0.3-0.1-0.3-0.4-0.5-0.5c-0.3-0.1,0-0.5-0.4-0.5c-0.1-0.4-0.5-0.7-0.7-1.1c-0.1-0.3-0.4-0.2-0.5-0.5c0-0.1-0.1-0.2-0.1-0.3
	c0-0.2,0-0.3-0.2-0.3c0,0,0,0,0,0c0.1-0.3-0.2-0.4-0.3-0.7c-0.1-0.2-0.3-0.4-0.4-0.6c-0.1-0.2,0-0.4-0.3-0.4c0-0.3-0.3-0.3-0.4-0.5
	c-0.1-0.2-0.3-0.3-0.4-0.4c-0.1-0.1-0.2-0.1-0.3,0c-0.2,0.1-0.4,0.2-0.5,0.3c-0.3,0.3-0.7,0.5-1.1,0.7c-0.1,0-0.1,0.1-0.2,0.1
	c-0.2,0.2-0.4,0.4-0.7,0.6c-0.3,0.1-0.4,0.4-0.8,0.4c-0.3,0.3-0.6,0.5-1,0.5c-0.1,0-0.2,0.1-0.2,0.2c-0.1,0.1-0.1,0.2-0.2,0.2
	c-0.6,0-0.9,0.5-1.4,0.6c-0.2,0-0.3,0.2-0.4,0.3c-0.8,0.3-1.5,0.8-2.4,0.8c-0.2,0-0.4,0.1-0.6,0.1c-0.2,0-0.4,0.1-0.6,0.2
	c-0.2,0.1-0.4,0.1-0.6,0.3c-0.1,0.2-0.7,0-0.8-0.1c-0.1-0.1-0.1-0.2-0.1-0.4C446,116.6,446,116.5,446,116.3z M460,110.3
	c0.2,0.2,0.3,0.4,0.4,0.6c0.1,0.2,0.3,0.3,0.5,0.5c0.1,0.2,0.2,0.4,0.4,0.6c0.2,0.2,0.2,0.4,0.5,0.5c0.2,0.1,0.1,0.5,0.4,0.6
	c0.1,0.1,0.1,0.2,0.2,0.3c0.3,0.4,0.7,0.8,1.1,1.2c0.2,0.2,0.3,0.4,0.3,0.8c0,0.2,0.1,0.3,0.3,0.2c0.2-0.1,0.3-0.1,0.5-0.1
	c0.3,0,0.5-0.2,0.6-0.4c0.1-0.1,0.3-0.3,0.4-0.5c0.1-0.2,0.3-0.4,0.4-0.4c0.3-0.1,0.2-0.4,0.4-0.4c0.2,0,0.1-0.4,0.3-0.4
	c0.1,0,0.2-0.3,0.3-0.4c0.1-0.1,0.2-0.3,0.3-0.4c0.1-0.1,0.3-0.2,0.4-0.4c0.4-0.6,0.9-1.1,1.3-1.6c0.2-0.2,0.2-0.2-0.1-0.4
	c-0.4-0.3-0.7-0.7-1.1-0.9c-0.6-0.4-1-1-1.5-1.6c-0.5-0.8-1-1.6-1.7-2.2c-0.1-0.1-0.2-0.3-0.3-0.4c0-0.1-0.1-0.2-0.2-0.2
	c-0.1,0-0.2,0.1-0.3,0.2c0,0,0,0.2,0,0.2c0,0.4-0.4,0.6-0.4,0.9c-0.2,0-0.3,0.2-0.4,0.3c-0.1,0.1-0.3,0.2-0.4,0.3
	c-0.1,0.1-0.2,0.3-0.4,0.5c-0.2,0.1-0.1,0.4-0.3,0.5c-0.3,0.4-0.7,0.8-0.9,1.3c-0.1,0.1-0.2,0.1-0.3,0.2
	C460.6,109.6,460.3,109.9,460,110.3z M457.8,108c0.5-0.5,0.9-0.9,1-1.5c0-0.1,0.1-0.2,0.2-0.2c0.2,0,0.2-0.2,0.3-0.3
	c0.1-0.2,0.2-0.4,0.3-0.6c0.1-0.2,0.2-0.3,0.2-0.5c0.1-0.2,0.3-0.3,0.4-0.5c0,0,0.1-0.1,0.1-0.1c-0.1-0.5,0.3-0.8,0.4-1.1
	c0.1-0.3-0.1-0.6,0.2-0.8c-0.1-0.3,0.3-0.2,0.2-0.3c-0.1-0.3,0.2-0.5,0.3-0.8c-0.2-0.1-0.4-0.3-0.7-0.2c-0.2,0.1-0.4,0.1-0.6,0.1
	c-0.2,0-0.4,0.1-0.6,0.1c-0.1,0-0.1,0.1-0.2,0.1c-0.3,0-0.5,0.1-0.8,0.2c-0.3,0.1-0.5,0.1-0.7,0.4c0,0-0.1,0-0.1,0
	c-0.3,0-0.6,0-0.9-0.1c-0.3-0.1-0.6-0.1-0.9,0.1c-0.2,0.1-0.4,0.2-0.6,0.1c-0.5,0-0.9,0-1.4,0c-0.1,0-0.3,0-0.3-0.1
	c-0.1-0.2-0.3,0-0.4-0.1c-0.4,0-0.7,0-1.1-0.1c-0.3-0.1-0.6,0.1-0.9,0.2c0.2,0.1,0.4,0.2,0.4,0.5c0,0,0,0.1,0.1,0.1
	c0.1,0.1,0.4,0.2,0.4,0.3c0,0.3,0.2,0.1,0.4,0.2c0.4,0.3,0.9,0.6,1.4,0.7c0.1,0,0.1,0.1,0.1,0.1c0.1,0.1,0.2,0.3,0.3,0.4
	c0.1,0.1,0.3,0.2,0.4,0.3c0.4,0.6,1,1.1,1.5,1.7c0.1,0.2,0.4,0.3,0.5,0.5C456.9,107.4,457.5,107.5,457.8,108z M467.3,101.2
	c0,0.5-0.1,1,0.1,1.4c0.2,0.5,0.4,1,0.6,1.5c0.1,0.2,0.2,0.4,0.3,0.5c0.1,0.1,0.3,0.2,0.2,0.5c0.2,0,0.3,0.2,0.3,0.3
	c0.1,0.4,0.4,0.6,0.6,0.9c0.2,0.2,0.4,0.4,0.6,0.6c0.2,0.3,0.4,0.6,0.6,0.9c0,0.1,0.2,0,0.3,0c0.1,0,0.1-0.2,0.1-0.2
	c0.2-0.5,0.4-1,0.4-1.5c0-0.4,0.1-0.7,0.5-0.9c0.2-0.1,0.1-0.3,0.3-0.3c0.2-0.1,0.4-0.2,0.4-0.3c0.1-0.3,0.4-0.5,0.6-0.7
	c0.2-0.3,0.3-0.7,0.8-0.7c0.2-0.3,0.4-0.7,0.5-1c0.1-0.2-0.1-0.3-0.2-0.3c-0.3,0.1-0.5-0.2-0.7-0.3c-0.1-0.1-0.2-0.1-0.4-0.1
	c-0.3,0-0.5-0.1-0.7-0.2c-0.1,0-0.1-0.1-0.2-0.1c-0.5,0-1-0.1-1.5-0.1c-0.1,0-0.2,0-0.2,0c-0.3-0.2-0.6-0.1-0.9-0.1
	c-0.3,0-0.6-0.1-0.9,0C468.4,101.1,467.9,101.1,467.3,101.2z"/>
</svg>
