<?xml version="1.0" encoding="UTF-8"?>
<svg width="288px" height="24px" viewBox="0 0 288 24" version="1.1" xmlns="http://www.w3.org/2000/svg" xmlns:xlink="http://www.w3.org/1999/xlink">
    <title>Group 26 Copy</title>
    <defs>
        <polygon id="path-1" points="0.0580580838 0.00868298807 20.9764473 0.00868298807 20.9764473 23.1111111 0.0580580838 23.1111111"></polygon>
    </defs>
    <g id="Symbols" stroke="none" stroke-width="1" fill="none" fill-rule="evenodd">
        <g id="top-bar/desktop" transform="translate(-36.000000, -32.000000)">
            <g id="Group-26-Copy" transform="translate(36.000000, 32.000000)">
                <path d="M14.8571403,3.8798234 C14.2105038,2.75314079 13.3483634,1.96435045 12.2707191,1.5135774 L11.5508313,1.24906387 L10.6541903,0.999426107 C9.96842801,0.871919587 8.97391025,0.808166327 7.67113698,0.808166327 C6.50499116,0.808166327 5.92210575,0.901421095 5.92210575,1.08755561 L5.92210575,9.39073021 L5.92210575,9.64074299 C5.96135645,9.7288725 6.04510795,9.777875 6.17273523,9.78775051 L8.07464419,9.78775051 C9.43079341,9.78775051 10.3793103,9.7484985 10.919945,9.67011949 C11.253701,9.64074299 11.5732067,9.57686473 11.8782121,9.47885971 C12.2318434,9.38122972 12.4182218,9.32722696 12.4380971,9.31735146 C12.5854747,9.23897245 12.6938517,9.18496969 12.7627279,9.15559318 C13.0083573,9.03808717 13.2761121,8.86895353 13.5661173,8.64856726 C13.8558724,8.42805598 14.1333774,8.1761681 14.3988821,7.89177856 C14.9687673,7.29437301 15.2541474,6.51033291 15.2541474,5.54028331 C15.2541474,4.92312675 15.121645,4.36972345 14.8571403,3.8798234 L14.8571403,3.8798234 Z M15.2541474,13.4655636 C14.6367614,12.4061344 13.7526206,11.6773471 12.601225,11.2800768 C11.4502045,10.8826815 10.1301809,10.6840463 8.6409043,10.6840463 L7.87676566,10.6840463 L6.98024965,10.6251683 C6.23561135,10.6251683 5.8633547,10.7477996 5.8633547,10.9930621 L5.8633547,20.8679421 C5.8633547,20.9266951 6.14273469,21.0101994 6.70124467,21.1182049 C7.29850533,21.1965839 7.71001268,21.2358359 7.93564171,21.2358359 L9.77242451,21.2358359 C10.3700602,21.2358359 10.9064448,21.1918337 11.3817032,21.1033291 C11.8567117,21.0151996 12.3980964,20.8091891 13.0054822,20.4851725 C13.3386132,20.299038 13.6571189,20.0976527 13.9608743,19.8818917 L15.0777692,18.9988465 C15.3128984,18.8224625 15.5037769,18.4644442 15.6507795,17.9246666 L15.8270326,17.1007495 L15.8857837,16.2027035 C15.8857837,15.0450193 15.6750299,14.1327227 15.2541474,13.4655636 L15.2541474,13.4655636 Z M0.484758656,0.088254513 L1.7191557,0.088254513 L2.98305327,0.147007517 L4.01169664,0.088254513 L5.40797157,0.088254513 L8.36164932,0 L9.08191218,0 C9.32654155,0 9.66467258,0.0146257479 10.0956803,0.0438772437 C10.526813,0.0733787523 10.8403186,0.088254513 11.0363221,0.088254513 C11.3302023,0.088254513 11.5997071,0.100630146 11.8445865,0.124881386 C12.0892159,0.149507645 12.3933463,0.190884761 12.7557278,0.249762772 C13.3236129,0.308515776 13.833497,0.387269804 14.2841301,0.484899796 C14.7638886,0.573029303 15.2148967,0.695660574 15.6361542,0.85241859 C16.4391686,1.11693212 17.1619315,1.50157679 17.8034429,2.00597758 C18.4453294,2.51075339 18.9425883,3.04203056 19.2952196,3.60043411 C19.4422222,3.85557216 19.5623493,4.1418368 19.655226,4.46010307 C19.7484777,4.77861936 19.7948535,5.11938679 19.7948535,5.48153031 C19.7948535,5.69704133 19.7753531,5.90292685 19.7361024,6.09881187 C19.6969767,6.29507191 19.6333506,6.48595667 19.545224,6.67209119 C19.3884712,7.04436022 19.1579671,7.38262752 18.8544617,7.68589303 C18.3154521,8.27379809 17.698316,8.7295714 17.0026786,9.05283793 C16.3560421,9.33697746 15.68003,9.57686473 14.9746424,9.77287475 L14.1516277,9.99338603 L14.0196254,9.99338603 L14.3430061,10.1255178 L15.3716495,10.4930366 C16.2729156,10.7576751 16.9046769,10.9926871 17.2671833,11.1985727 C17.9040697,11.5120887 18.48208,11.8476058 19.0012143,12.2051241 C19.5205986,12.5628924 19.9836069,13.0527925 20.3899891,13.6746993 C20.7967464,14.2969811 21,15.0587701 21,15.9600661 L21,16.2834577 L21,16.6361007 C21,16.7536067 20.9704995,16.9299907 20.9117484,17.1651278 C20.7348703,18.0762994 20.1263594,18.8843407 19.0859658,19.5898768 C18.6148324,19.9037678 18.0629476,20.2070333 17.4299362,20.5010483 C16.7970499,20.7948134 16.126913,21.0594519 15.4206504,21.2945889 C13.9776246,21.764863 12.2012179,22 10.0913052,22 L7.70613761,21.941122 L4.42320399,21.8529925 L1.99866069,21.8751186 L0.382006822,21.941122 C0.323255772,21.941122 0.293880248,21.862743 0.293880248,21.70586 C0.293880248,21.5878539 0.383006839,21.4873488 0.561885034,21.4037195 C0.740388221,21.3205903 0.865515456,21.2443364 0.937391739,21.1754578 L1.01389311,21.0430761 L1.01389311,20.9545715 L1.01389311,1.04392838 C1.01389311,0.975049861 0.96989232,0.896670852 0.881640744,0.808166327 L0.529009447,0.651408311 L0.17637815,0.509151036 C0.0882515759,0.480524572 0.0293755246,0.423646664 0,0.337892279 C0,0.236137075 0.0243754353,0.171383764 0.0732513081,0.143757351 L0.235004197,0.088254513 L0.484758656,0.088254513 Z" id="Fill-1" fill="#A3BF93"></path>
                <path d="M23.210718,0 L24.4596636,0 L25.5131254,0.0356149965 L27.0635539,0.0887228712 L27.9365101,0.0737469539 L29.7272288,0 C29.7875253,0 29.8377085,0.0493324333 29.8777782,0.1479973 L29.9379467,0.488038715 C29.9379467,0.567322983 29.9179759,0.626471564 29.8777782,0.665610306 L29.5465951,0.887732104 L29.3660894,1.02062764 C29.3360051,1.05032778 29.321027,1.09475214 29.321027,1.15402657 L29.321027,21.2160925 C29.321027,21.373906 29.5567085,21.4528127 30.0283276,21.4528127 C30.5500018,21.4528127 31.2523097,21.3584267 32.1353793,21.1694029 C32.5967569,21.0701088 33.0384197,20.9577265 33.4597276,20.8333886 C33.8811635,20.7090508 34.3426692,20.5475877 34.8443725,20.3483703 C35.1754276,20.2192502 35.5241492,20.0526274 35.8904093,19.8486277 C36.2564134,19.6447539 36.6151204,19.4136968 36.9665304,19.1547016 C37.7191494,18.6076401 38.2308382,18.2147425 38.5017247,17.9758829 C38.6920878,17.9758829 38.8528786,18.0703948 38.9833292,18.259041 L39.2088973,18.7360051 L39.4196152,19.2427952 L39.6154831,19.6452572 C39.7258348,19.8938071 39.8358024,20.0874873 39.9465382,20.2266752 C40.64859,21.2500715 41,21.8113538 41,21.9106479 C41,21.9705516 40.9700437,22 40.9097472,22 L35.8529,21.8522544 L31.6990932,21.8522544 L28.4931332,21.8966788 C28.111895,21.8966788 27.577419,21.9139199 26.8903453,21.9481506 C26.2028875,21.9830105 25.7740265,22 25.6035063,22 L23.5566232,22 C23.4060738,21.9689155 23.3258063,21.8854783 23.3158209,21.7496882 C23.3158209,21.5518551 23.436286,21.4528127 23.6770883,21.4528127 C23.9077771,21.4528127 24.0235056,21.2507007 24.0235056,20.8469802 L24.0235056,1.69907444 C24.0235056,1.39389294 23.9833078,1.17693091 23.9029124,1.04894345 C23.8427439,0.920704291 23.6770883,0.829842004 23.4060738,0.775601496 C23.1353152,0.721486837 23,0.576132346 23,0.339789719 C23,0.14283753 23.0698979,0.0294484423 23.210718,0" id="Fill-3" fill="#A3BF93"></path>
                <path d="M54.121217,17.3975086 L54.4769465,15.848352 L54.7735349,14.0756973 C54.9218291,12.8940964 54.9959762,11.7222513 54.9959762,10.5604156 C54.9959762,8.71351482 54.8228402,7.06287182 54.4769465,5.60785307 C54.1310528,4.15334113 53.5775977,2.95653626 52.8165811,2.01794528 C52.0556906,1.07973439 51.0919043,0.610438899 49.925979,0.610438899 C49.3032947,0.610438899 48.7596753,0.759437684 48.2952472,1.05730855 C47.8304407,1.35530612 47.4153178,1.75250952 47.0500046,2.24904543 L46.7089027,2.75546392 L46.3087858,3.45560617 L45.5228013,5.25778195 C45.1374381,6.95581062 44.9447565,8.80283807 44.9447565,10.7987376 C44.9447565,13.4600637 45.3153659,15.7616895 46.0565847,17.7027281 C46.7978036,19.6442735 47.9987848,20.7289491 49.6591503,20.9573886 C50.6079306,20.9573886 51.4973175,20.659391 52.3275633,20.0636493 C53.157683,19.4677809 53.7556516,18.5792362 54.121217,17.3975086 M54.6252407,1.13193465 L55.9745162,2.08534949 C56.7057731,2.58175871 57.4519098,3.22716671 58.2128003,4.02170019 C58.9738169,4.81598028 59.628783,5.78447238 60.177068,6.9260362 C60.7257314,8.06798012 61,9.28936472 61,10.59019 C61,11.4641642 60.8913014,12.2883454 60.673778,13.0628603 C60.0808534,15.168355 58.9441833,16.9407564 57.2641462,18.3806979 C55.5839829,19.8205127 53.7753233,20.9477594 51.8382933,21.761678 C51.4429682,21.9205593 50.9684519,22 50.4149968,22 C49.5452815,22 48.5818736,21.8363041 47.5243947,21.5085321 C46.4665375,21.1808868 45.3917828,20.6572371 44.2998785,19.9370763 C43.2075958,19.2172957 42.2266599,18.2887139 41.3571969,17.1515846 C40.4876078,16.0147087 39.8202838,14.671439 39.3557295,13.1224091 C39.1185345,12.2584442 39,11.4044886 39,10.5604156 C39,8.09788124 39.795442,6.08221655 41.3869566,4.51304143 C42.9780929,2.9441197 44.5593933,1.74756823 46.1308579,0.923513727 C47.2476041,0.307753442 48.5028086,0 49.8963454,0 C51.4476339,0 53.0242686,0.377311549 54.6252407,1.13193465" id="Fill-5" fill="#A3BF93"></path>
                <path d="M78.1210436,17.3975086 L78.4768952,15.848352 L78.7733541,14.0756973 C78.9216466,12.8940964 78.9957929,11.7222513 78.9957929,10.5604156 C78.9957929,8.71351482 78.822785,7.06287182 78.4768952,5.60785307 C78.1310055,4.15334113 77.5774306,2.95653626 76.8165488,2.01794528 C76.0555409,1.07973439 75.0918918,0.610438899 73.9258537,0.610438899 C73.3033026,0.610438899 72.7596896,0.759437684 72.2952667,1.05730855 C71.8303394,1.35530612 71.4152213,1.75250952 71.0499123,2.24904543 L70.7088143,2.75546392 L70.308702,3.45560617 L69.5227265,5.25778195 C69.1373677,6.95581062 68.9448145,8.80283807 68.9448145,10.7987376 C68.9448145,13.4600637 69.3152935,15.7616895 70.0565038,17.7027281 C70.7977142,19.6442735 71.9986817,20.7289491 73.6590281,20.9573886 C74.6079236,20.9573886 75.4973003,20.659391 76.3274105,20.0636493 C77.1576468,19.4677809 77.7554824,18.5792362 78.1210436,17.3975086 M78.6251877,1.13193465 L79.9743216,2.08534949 C80.7056962,2.58175871 81.4516983,3.22716671 82.2129584,4.02170019 C82.973588,4.81598028 83.6285465,5.78447238 84.1768253,6.9260362 C84.7258606,8.06798012 85,9.28936472 85,10.59019 C85,11.4641642 84.8910504,12.2883454 84.6735295,13.0628603 C84.0806117,15.168355 82.944333,16.9407564 81.2643151,18.3806979 C79.5837928,19.8205127 77.7751539,20.9477594 75.8381461,21.761678 C75.4428255,21.9205593 74.9684408,22 74.4148659,22 C73.5452868,22 72.5817638,21.8363041 71.5244231,21.5085321 C70.466578,21.1808868 69.3917096,20.6572371 68.2998177,19.9370763 C67.2076737,19.2172957 66.2267491,18.2887139 65.357296,17.1515846 C64.4875907,16.0147087 63.8202744,14.671439 63.3557255,13.1224091 C63.1185331,12.2584442 63,11.4044886 63,10.5604156 C63,8.09788124 63.7954329,6.08221655 65.3869293,4.51304143 C66.9781734,2.9441197 68.5594557,1.74756823 70.1307762,0.923513727 C71.2475095,0.307753442 72.5026997,0 73.8962205,0 C75.4476173,0 77.0241078,0.377311549 78.6251877,1.13193465" id="Fill-7" fill="#A3BF93"></path>
                <path d="M100.975868,3.16899906 C100.121488,2.43263257 99.3083593,1.93159711 98.5363579,1.66614371 C97.7646042,1.40131785 96.907747,1.19987449 95.9660341,1.06244117 L94.8591931,1.00332601 C94.1115955,1.00332601 93.7376108,1.15054911 93.7376108,1.44537182 L93.7376108,20.4663947 C93.7376108,20.7021023 93.7886481,20.8668968 93.8908467,20.9601506 C93.9925497,21.0534045 94.150369,21.1000941 94.3640568,21.1000941 C94.5000737,21.1000941 94.9394654,21.040979 95.6819842,20.9229997 C96.4248745,20.8053969 96.9466444,20.7021023 97.2475416,20.6136178 C98.2087032,20.279887 99.0386791,19.8575463 99.7378409,19.3465955 C100.485315,18.8065265 101.099497,18.2319423 101.580263,17.6229683 C102.060782,17.0141199 102.480601,16.3019768 102.839969,15.4864136 C103.13108,14.7400063 103.357031,13.8709758 103.51708,12.8786947 C103.677501,11.8867901 103.757278,11.0023219 103.757278,10.2265453 C103.757278,7.01474741 102.830306,4.66206464 100.975868,3.16899906 L100.975868,3.16899906 Z M92.4416097,0.0884844682 L92.965981,0.0884844682 L93.5194634,0.0884844682 L93.8980315,0.0884844682 L94.2619821,0.0884844682 L94.4661314,0 L95.1213169,0 L95.8494659,0 C96.9660931,0 98.0484064,0.152620019 99.0970252,0.457358017 C99.7671997,0.634326953 100.393274,0.823721368 100.975868,1.02529024 C101.558337,1.22698463 102.135852,1.46068403 102.708659,1.72626294 C103.805838,2.19843113 104.777033,2.76410417 105.621379,3.42315657 C106.427199,4.05283966 107.121529,4.80514591 107.703999,5.68070286 C108.247819,6.5168497 108.621804,7.50561657 108.825333,8.64662692 C108.941902,9.3548792 109,9.9796674 109,10.520364 C109,10.9831189 108.958625,11.4082209 108.876371,11.796674 C108.793993,12.1853781 108.674947,12.5616567 108.519605,12.9256354 L108.330445,13.3534986 L108.097432,13.7814873 L107.456617,14.8734233 C106.85445,15.7980546 106.187001,16.6144964 105.454021,17.3227487 C104.720917,18.0310009 103.878801,18.685284 102.927302,19.2849702 C102.490512,19.5505491 102.02907,19.8067148 101.543596,20.0523376 L100.043817,20.7310951 L98.4855683,21.2918732 L96.6796895,21.8230311 C96.1357456,21.9410104 94.5144435,22 91.8152876,22 L89.2521487,22 L88.5678521,22 C88.4805189,21.9410104 88.4318352,21.872482 88.4221728,21.7935362 L88.4948886,21.7198619 C88.5627732,21.6608723 88.6408157,21.6017571 88.7279012,21.542893 C88.9320505,21.4246627 89.0385847,21.3263885 89.0486188,21.2476938 L89.0486188,1.26890493 C89.0486188,1.17050518 88.9658689,1.05001569 88.8008648,0.907185441 C88.6358606,0.764731723 88.4514078,0.663821776 88.2473824,0.604706621 C88.1114893,0.604706621 88.0287395,0.526011923 88,0.368622529 C88,0.197678067 88.1211517,0.0749294007 88.3638267,0 L92.4416097,0.0884844682 Z" id="Fill-9" fill="#A3BF93"></path>
                <path d="M132.146909,14.3567608 C130.897584,13.0237329 129.766363,11.40898 128.753122,9.51300613 C127.808911,7.71581238 127.139818,6.32848061 126.74647,5.35075883 C126.234892,6.11126511 125.777659,6.95064429 125.37427,7.86902239 C125.206715,8.27384457 124.980797,8.84661818 124.695639,9.58721723 C124.538249,9.98221179 124.385504,10.3772063 124.237904,10.7722009 L123.810292,12.1053548 L123.500157,13.1719031 L123.367618,13.7643319 L123.264198,14.3567608 L132.146909,14.3567608 Z M128.856542,0 L130.346721,2.57760724 L132.707562,6.53334861 C133.730593,8.20240536 134.552181,9.47646756 135.171949,10.3555352 L135.717666,11.2589199 L136.440853,12.5331081 L137.975337,15.5850868 C138.36856,16.4046847 138.806464,17.4418762 139.288422,18.6962831 C139.6524,19.6840845 139.86401,20.4544184 139.923125,21.0074108 C139.982115,21.1950175 140.095074,21.3281943 140.262253,21.4074452 L140.749357,21.6740507 C140.877,21.7333944 140.960715,21.8420022 141,22 L139.539441,21.8665712 L137.916348,21.7630033 L136.012739,21.7037856 C134.684845,21.7037856 133.347035,21.7826585 131.99931,21.9406563 C132.294383,21.7530497 132.695136,21.3830021 133.201945,20.8296318 C133.708378,20.2766394 133.961908,19.595258 133.961908,18.7854877 C133.961908,17.906672 133.819078,17.1883741 133.533919,16.6305939 C133.24851,16.0724357 133.007656,15.6800871 132.810982,15.4529179 C132.761406,15.4035279 132.641167,15.3443102 132.449263,15.2751389 C132.257609,15.2059676 132.04851,15.1713189 131.822215,15.1713189 L131.423972,15.1713189 C131.315532,15.1713189 131.143458,15.2178111 130.907374,15.3105435 C130.455036,15.4548079 129.943332,15.732627 129.372764,16.1443789 C128.871101,16.5130405 128.487543,16.8156807 128.221964,17.0525514 L127.720176,16.6082928 L127.322058,16.2681061 L126.775965,15.8823091 C126.628365,15.7791192 126.466206,15.6787011 126.289112,15.5810549 C126.112143,15.4831567 125.930028,15.4032759 125.743144,15.3414123 C125.438155,15.2280167 125.015187,15.1713189 124.474114,15.1713189 L123.721682,15.2168032 L123.234578,15.2771548 L123.146094,15.8366989 L123.086978,16.6082928 C123.086978,17.2895481 123.185504,17.8968444 123.382178,18.4300556 C123.647757,19.0916557 124.060935,19.7536338 124.621588,20.414856 C125.182366,21.0765821 125.748164,21.5753966 126.318607,21.9110475 L124.016881,21.8222209 L120.549168,21.7630033 L119.678757,21.7630033 L119.331848,21.7630033 C119.228428,21.7630033 119.117979,21.7728309 119,21.7926121 C119,21.3779623 119.110449,20.6347174 119.331848,19.5631293 C119.553122,18.4914152 119.853342,17.3136132 120.231754,16.0294714 C120.610794,14.7454556 120.986696,13.7136819 121.360966,12.9331424 C121.61663,12.3012771 122.295388,11.0371685 123.397113,9.14069068 L126.584311,3.7629689 L128.856542,0 Z" id="Fill-11" fill="#A3BF93"></path>
                <path d="M162.087598,0.0444297385 L162.391818,0.0444297385 L162.756701,0 C162.888116,0 162.969604,0.0589886358 163,0.177091415 C162.939208,0.304983798 162.751528,0.418317284 162.437218,0.516589841 C162.122909,0.575578477 161.966013,0.693681256 161.966013,0.870772671 L162.209182,3.68879786 C162.209182,3.77728082 162.219142,4.02327598 162.239708,4.42653234 C162.260015,4.83016521 162.270104,5.1446876 162.270104,5.37085254 L162.270104,6.28580393 L162.330896,9.34003469 L162.270104,14.7845603 L162.209182,20.1554128 L162.315634,20.9080827 L162.45261,21.7049313 C162.45261,21.9016019 162.330896,22 162.087598,22 C161.631526,21.9410114 161.215551,21.911517 160.840708,21.911517 L159.943439,21.9260759 L159.000641,21.9410114 C158.949937,21.9410114 158.909452,21.9166629 158.878927,21.8670873 C158.878927,21.8079732 159.097132,21.5992538 159.533026,21.2404272 C159.968532,20.8817261 160.227223,20.6383666 160.308322,20.5108507 C160.622632,20.0488567 160.779916,19.6458514 160.779916,19.3019602 C160.779916,19.0661312 160.703731,18.8351969 160.551621,18.6089065 C159.93335,17.6064762 159.132314,16.677719 158.149031,15.8225092 C157.115043,14.9084364 156.040442,14.1271507 154.925355,13.4785268 C154.256252,13.085311 153.564513,12.6259527 152.84975,12.0998243 C152.135246,11.5739469 151.356975,10.9574529 150.515454,10.2495892 C149.755161,9.59105016 148.994869,8.91782666 148.234577,8.22991876 C147.555255,7.61041258 146.876062,6.97170371 146.196999,6.31329013 C144.94998,5.07477979 144.174684,4.2491899 143.870464,3.83639496 L143.718483,3.71829218 C143.566502,3.71829218 143.490318,3.95976907 143.490318,4.44247182 L143.490318,5.10778833 L143.490318,5.7726028 L143.763883,8.52147323 C143.763883,9.35886085 143.86529,10.2851079 144.068103,11.2999635 L144.448379,13.0583269 C144.772777,14.6252909 145.18319,15.8076993 145.679876,16.6056775 L146.394768,17.8470745 L147.15519,19.17708 C147.367963,19.5023961 147.626266,19.8572064 147.930486,20.2415111 C148.234577,20.595945 148.584456,20.9211355 148.979865,21.2168317 C149.182679,21.3644288 149.440982,21.4529118 149.755161,21.4825316 C149.866787,21.5122769 149.983456,21.5716421 150.105041,21.6602506 C150.196229,21.74911 150.257151,21.8426133 150.287547,21.9410114 L150.226755,22 C149.993286,22 149.592962,21.9777851 149.025395,21.9336064 C148.457569,21.8893022 148.06216,21.8670873 147.839298,21.8670873 L145.771194,21.8229086 L144.311273,21.8670873 L142.80621,21.911517 L142.516994,21.8670873 C142.435894,21.8353339 142.380405,21.7711994 142.349879,21.675437 C142.441068,21.586954 142.615425,21.5278399 142.873081,21.4983456 L143.399,21.4244215 C143.490318,21.4244215 143.540892,21.3457282 143.550981,21.1883415 L143.192694,19.5212222 L142.923914,17.8536009 L142.714892,16.053569 C142.680227,15.7387956 142.650995,15.4364474 142.627972,15.1462736 C142.60469,14.8560997 142.593178,14.5733307 142.593178,14.2978413 L142.516994,12.3647711 L142.516994,10.6385377 L142.516994,8.49888184 L142.595247,6.19706996 L142.6541,4.13133814 L142.6541,1.52002419 C142.6541,1.27139336 142.634439,1.10785678 142.595894,1.02815937 C142.566662,0.928757245 142.455296,0.794589476 142.261666,0.625405048 C142.087308,0.506549222 142,0.352174707 142,0.163411072 C142.029103,0.153872484 142.053549,0.144082881 142.072951,0.133916754 C142.179919,0.0942563096 142.257656,0.064134453 142.306419,0.0444297385 L142.714892,0 L144.341798,0.0444297385 L146.044889,0.118102779 L147.611262,0.103543882 L148.873285,0 C149.025395,0 149.101579,0.0936287709 149.101579,0.28050979 C149.101579,0.428106887 149.050488,0.555873762 148.949469,0.66406143 C148.63516,0.919971704 148.477876,1.13120122 148.477876,1.29850304 C148.477876,1.61352745 148.574238,1.91349094 148.766963,2.19864452 C148.959299,2.4839236 149.182679,2.73970837 149.435937,2.96587331 L150.409261,3.7477865 C154.748152,7.15130528 157.21645,9.10408014 157.814543,9.60573456 L159.19841,10.845249 L160.430036,11.9665351 L161.205721,12.7484483 C161.337136,12.7484483 161.403231,12.467813 161.403231,11.9066679 C161.403231,10.1042513 161.109229,8.25778148 160.521225,6.36688193 C160.470522,6.17021131 160.348937,5.87915887 160.156212,5.49535621 C160.044717,5.27885537 159.938136,5.08431838 159.837117,4.91199626 C159.73571,4.73942312 159.588645,4.4956871 159.39592,4.18066268 C158.787738,3.15664506 158.260526,2.39318151 157.814543,1.89089955 C157.256935,1.30000913 156.739942,0.847177217 156.263563,0.531901784 C155.888332,0.344644243 155.70104,0.211606043 155.70104,0.132912692 C155.70104,0.0739240564 155.782139,0.0444297385 155.944338,0.0444297385 L158.939719,0.0886084615 L160.475825,0.0886084615 C160.637636,0.0886084615 160.896327,0.0812035051 161.251121,0.0666446077 C161.605915,0.0518346949 161.884655,0.0444297385 162.087598,0.0444297385" id="Fill-13" fill="#A3BF93"></path>
                <path d="M178.975886,3.16932135 C178.121645,2.43259094 177.308531,1.93156405 176.536543,1.66649172 C175.764803,1.40129387 174.907589,1.19985395 173.966265,1.06242298 L172.859443,1.00330884 C172.111611,1.00330884 171.737881,1.15090594 171.737881,1.44534709 L171.737881,20.4662955 C171.737881,20.7021245 171.788917,20.8669162 171.891114,20.9597919 C171.992815,21.0530441 172.150632,21.099733 172.364316,21.099733 C172.500206,21.099733 172.93959,21.0411209 173.68222,20.9230181 C174.425097,20.8052919 174.946858,20.7021245 175.24775,20.6136415 C176.208894,20.279791 177.038855,19.8574574 177.737881,19.346641 C178.485465,18.8062046 179.099637,18.2318812 179.580395,17.6226667 C180.060781,17.0137032 180.480717,16.3016978 180.840078,15.486525 C181.131183,14.739754 181.357131,13.8707384 181.517177,12.8787253 C181.677471,11.8865866 181.757371,11.0025102 181.757371,10.2264958 C181.757371,7.01487837 180.830292,4.66236137 178.975886,3.16932135 L178.975886,3.16932135 Z M170.441903,0.0884829538 L170.966265,0.0884829538 L171.519614,0.0884829538 L171.898175,0.0884829538 L172.262243,0.0884829538 L172.466017,0 L173.121562,0 L173.849699,0 C174.965934,0 176.0486,0.152617407 177.097077,0.457601205 C177.766991,0.63469262 178.393426,0.823958286 178.975886,1.02552371 C179.558469,1.22734015 180.135973,1.46091005 180.70877,1.72648441 C181.805929,2.19877002 182.777108,2.76443339 183.621439,3.42309799 C184.427244,4.0527703 185.121562,4.80531468 185.704022,5.68085665 C186.247708,6.51698918 186.62181,7.50548811 186.825213,8.64647894 C186.941903,9.35471909 187,9.9794966 187,10.5204349 C187,10.9829309 186.958626,11.4084022 186.876249,11.7967231 C186.793996,12.1855461 186.674953,12.5618183 186.519614,12.9254142 L186.330457,13.3535211 L186.097448,13.7812514 L185.456644,14.8731687 C184.854365,15.7977842 184.186927,16.614212 183.454084,17.3224522 C182.720993,18.0306923 181.878892,18.6849642 180.927409,19.2850167 C180.490503,19.5507165 180.029193,19.8065013 179.543728,20.052371 L178.043976,20.7311168 L176.485507,21.2917598 L174.67966,21.8229086 C174.135973,21.9408859 172.514576,22 169.815592,22 L167.252374,22 L166.568214,22 C166.480758,21.9408859 166.431951,21.8721076 166.422537,21.7934143 C166.451648,21.7639199 166.475803,21.7394459 166.495128,21.7194902 C166.563135,21.6605016 166.640804,21.6013874 166.72826,21.5425243 C166.932034,21.424296 167.038938,21.3262745 167.0486,21.2473301 L167.0486,1.26888321 C167.0486,1.17086167 166.966223,1.05024873 166.801222,0.907546438 C166.635849,0.765095158 166.451648,0.664186938 166.24775,0.605072794 C166.111487,0.605072794 166.029111,0.526379444 166,0.368992743 C166,0.197925699 166.121521,0.0749281183 166.364192,0 L170.441903,0.0884829538 Z" id="Fill-15" fill="#A3BF93"></path>
                <path d="M211.975886,4.16944685 C211.121645,3.43259094 210.308531,2.93156405 209.536543,2.66649172 C208.764803,2.40129387 207.907589,2.19985395 206.966265,2.06242298 L205.859443,2.00343435 C205.111487,2.00343435 204.737881,2.15090594 204.737881,2.44547259 L204.737881,21.466421 C204.737881,21.70225 204.788917,21.8669162 204.891114,21.9599174 C204.992815,22.0531696 205.150632,22.0998585 205.364316,22.0998585 C205.500206,22.0998585 205.93959,22.0412464 206.68222,21.9230181 C207.425097,21.8054174 207.946858,21.70225 208.24775,21.6136415 C209.208894,21.2799165 210.038855,20.8575829 210.737881,20.3467665 C211.485465,19.8063302 212.099637,19.2320068 212.580395,18.6226667 C213.060781,18.0138287 213.480717,17.3018233 213.840078,16.4866505 C214.131183,15.7398795 214.357131,14.8708639 214.517177,13.8788508 C214.677471,12.8865866 214.757247,12.0026357 214.757247,11.2264958 C214.757247,8.01500388 213.830292,5.66236137 211.975886,4.16944685 L211.975886,4.16944685 Z M203.441903,1.08860846 L203.966265,1.08860846 L204.519614,1.08860846 L204.898175,1.08860846 L205.262243,1.08860846 L205.466017,1 L206.121562,1 L206.849699,1 C207.965934,1 209.0486,1.15274291 210.097077,1.45772671 C210.766991,1.63469262 211.393426,1.82408379 211.975886,2.02564922 C212.558469,2.22734015 213.135973,2.46103555 213.70877,2.72660992 C214.805929,3.19877002 215.776736,3.76443339 216.621439,4.4232235 C217.427244,5.0527703 218.121562,5.80544019 218.704022,6.68098216 C219.247708,7.51711469 219.621439,8.50548811 219.825213,9.64660445 C219.941779,10.3547191 220,10.9796221 220,11.5205604 C220,11.9829309 219.958626,12.4085277 219.876249,12.7968486 C219.793625,13.1855461 219.674581,13.5619438 219.519614,13.9254142 L219.330085,14.3536466 L219.097077,14.7813769 L218.456272,15.8731687 C217.854365,16.7977842 217.186927,17.6143375 216.454084,18.3225777 C215.720993,19.0308179 214.878892,19.6850897 213.927409,20.2851422 C213.490503,20.5507165 213.029193,20.8065013 212.543728,21.0524965 L211.043976,21.7311168 L209.485507,22.2918854 L207.67966,22.8230341 C207.135973,22.9410114 205.514576,23 202.815592,23 L200.252374,23 L199.568214,23 C199.480758,22.9410114 199.431828,22.8722331 199.422537,22.7935398 C199.451648,22.7639199 199.475803,22.7395714 199.495128,22.7196157 C199.563135,22.6605016 199.640804,22.6015129 199.72826,22.5425243 C199.932034,22.4244215 200.038938,22.3264 200.0486,22.2473301 L200.0486,2.26900872 C200.0486,2.17098718 199.966223,2.05037424 199.801222,1.90767195 C199.635849,1.76509516 199.451648,1.66418694 199.24775,1.6051983 C199.111487,1.6051983 199.029111,1.52637944 199,1.36911825 C199,1.19805121 199.121521,1.07492812 199.364192,1 L203.441903,1.08860846 Z" id="Fill-17" fill="#A3BF93"></path>
                <g id="Group-21" transform="translate(223.000000, 0.000000)">
                    <mask id="mask-2" fill="white">
                        <use xlink:href="#path-1"></use>
                    </mask>
                    <g id="Clip-20"></g>
                    <path d="M1.38847725,0.00868298807 L3.36951916,0.0700514752 L5.63110599,0.131419962 L7.90790838,0.0700514752 C7.99656108,0.0700514752 8.04572874,0.110920276 8.05566287,0.192788449 L8.01152515,0.346340239 L7.90790838,0.453930948 C6.89261497,1.26242812 6.1633994,2.29864156 5.71988443,3.56231011 C5.27636946,4.8262398 5.0548006,6.25116384 5.0548006,7.83734338 C5.0548006,8.61502574 5.08912994,9.36254614 5.15816587,10.0784683 L5.27636946,11.3985436 L5.4242497,12.488683 C5.56219581,13.7882586 5.8652497,15.0545386 6.33341138,16.2880452 C6.80144731,17.5208989 7.4446509,18.5802235 8.26264491,19.465366 C9.08063892,20.350639 10.0712856,20.9722888 11.2342078,21.3304457 C11.618621,21.4531827 11.9931,21.5146817 12.3577707,21.5146817 C13.0176988,21.5146817 13.6634174,21.3559071 14.2942976,21.0387495 C14.9249263,20.7217225 15.5262557,20.2920126 16.0979084,19.7492279 C16.630076,19.2480954 17.0979862,18.7053107 17.5025192,18.1221795 C18.6161479,16.6384984 19.1728365,14.7196234 19.1728365,12.365946 C19.1728365,11.6086328 19.113609,10.8436158 18.9954054,10.0708952 C18.877076,9.29830508 18.7022856,8.5180113 18.4705311,7.73001381 C18.2390281,6.94214689 17.9656509,6.20024105 17.6501479,5.50403515 C17.3742557,4.85927433 17.0314653,4.21464407 16.6226569,3.56988324 C16.213597,2.92525298 15.8809922,2.44945135 15.6247168,2.14247834 C15.3586329,1.78432141 15.0334473,1.44666416 14.6490341,1.12937602 C14.5109623,1.0168236 14.3139144,0.8837715 14.0577647,0.730219711 L13.3184892,0.361878217 C13.2593874,0.310694288 13.2298365,0.203103578 13.2298365,0.0392366604 L14.2204832,0.0700514752 L15.9203515,0.131419962 L17.576082,0.0700514752 L19.4389204,0.00868298807 C19.4882138,0.00868298807 19.5275731,0.0294438167 19.557124,0.0700514752 L19.4683455,0.162234777 L19.1582497,0.438392969 C18.9311479,0.622629002 18.7738365,0.771219083 18.6850581,0.8837715 L18.7291958,1.11383804 L18.8624892,1.37498054 L19.0399204,1.6512693 C20.3309802,3.96407784 20.9764473,6.55813685 20.9764473,9.43383804 C20.9764473,10.0071764 20.9467707,10.6083264 20.8875431,11.2375493 C20.8285671,11.8670333 20.7449443,12.4654413 20.6364234,13.0336874 C20.5277766,13.6015417 20.3605311,14.2079146 20.1338066,14.8526755 C19.4439503,16.9607483 18.5643395,18.6082963 17.4947228,19.7954501 C16.425609,20.9826039 15.353603,21.8088588 14.2797108,22.2746064 C13.2054413,22.7400929 12.2689922,23.0191237 11.4708665,23.1111764 C11.0272257,23.1111764 10.5932677,23.0955078 10.1698725,23.0648236 C9.7461,23.0342699 9.30736347,22.9829554 8.85391437,22.9114024 C8.00636946,22.7681657 7.11456108,22.4867847 6.17836347,22.0672593 C5.24178862,21.6477338 4.36494431,21.0515455 3.54682455,20.279086 C2.72857904,19.5062348 2.03394431,18.5007056 1.46229162,17.2624984 C0.526094012,15.256924 0.0580580838,12.9438544 0.0580580838,10.3240728 C0.0580580838,9.12673446 0.161297605,7.90406529 0.368279641,6.655543 C0.397830539,6.43043817 0.432411377,6.19762963 0.471896407,5.95698682 C0.511004192,5.71673572 0.5901,5.3762059 0.70855509,4.93618079 C0.826758683,4.49615568 0.974513174,4.04072316 1.15194431,3.56988324 C1.44770479,2.74101695 1.76308204,2.18334714 2.0982018,1.89687382 C2.2952497,1.75363716 2.39371078,1.55386315 2.39371078,1.29807407 C2.39371078,1.1040452 2.3248006,0.932213434 2.18685449,0.784015066 C2.04853114,0.635555556 1.89587246,0.545983679 1.72837545,0.515430006 C1.34396228,0.515430006 1.15194431,0.418023854 1.15194431,0.223603264 C1.15194431,0.110920276 1.23078862,0.0392366604 1.38847725,0.00868298807" id="Fill-19" fill="#A3BF93" mask="url(#mask-2)"></path>
                </g>
                <path d="M261.668164,3.91078702 C261.647892,3.97978327 261.608239,4.14215695 261.548314,4.39815941 C261.488261,4.65466459 261.443126,4.87610609 261.413163,5.06323799 L261.368283,5.62463368 C261.358338,5.73296659 261.345843,5.8142791 261.330797,5.86831988 C261.315752,5.92273769 261.288212,6.00367317 261.248432,6.11213175 C261.188507,6.33885166 261.023393,6.59460278 260.753602,6.88039051 L260.663714,6.93945834 C260.593716,6.93945834 260.559036,6.83615248 260.559036,6.62941509 L260.588871,6.1710739 L260.603789,5.75747345 C260.603789,5.45082346 260.578926,5.24823339 260.528946,5.14920053 C260.31908,4.49668957 260.001603,3.94534798 259.577153,3.4954271 C259.152321,3.04550622 258.630333,2.6967547 258.01068,2.44942389 C257.740888,2.34083963 257.420862,2.24683382 257.051492,2.1676578 C256.871589,2.12819546 256.711703,2.09866155 256.571707,2.07867903 C256.431584,2.05907354 256.266853,2.04914512 256.076877,2.04914512 C254.717847,2.04914512 253.541398,2.33505853 252.546893,2.90675967 C251.55277,3.47833513 251.055772,4.30126305 251.055772,5.37579476 C251.055772,5.99676098 251.525357,6.49946588 252.464655,6.88378377 C253.364045,7.23869342 254.797917,7.61810994 256.766528,8.02228468 C258.655196,8.38712276 260.199229,8.75196083 261.398373,9.11667324 C262.597517,9.48138564 263.496907,10.0034447 264.096415,10.6837301 C264.536165,11.1767579 264.898139,11.6743101 265.183103,12.177015 C265.467812,12.6797199 265.675383,13.1724963 265.805179,13.6554701 C265.934847,14.1385695 266,14.5773052 266,14.9713001 C266,16.1345592 265.600285,17.258356 264.800729,18.3424391 C264.141168,19.2591215 263.419131,20.0109167 262.634874,20.5970706 C261.850363,21.1837272 260.998658,21.6543847 260.079251,22.0092943 L258.730294,22.4083163 C258.220673,22.526829 257.671018,22.6303862 257.081327,22.718988 L255.417443,22.9259767 C254.847898,22.9751161 254.273125,23 253.693762,23 C253.013928,23 252.434692,22.9605377 251.955035,22.8817387 L250.890659,22.7044095 L249.931344,22.4680125 L248.132564,22.0688649 C247.582909,21.960532 247.103379,21.9064912 246.693719,21.9064912 C246.313895,21.9064912 246.051498,21.9237088 245.906785,21.9583955 C245.761689,21.9927051 245.459385,22.0985244 245,22.2758536 C245,22.1970546 245.134768,21.8525761 245.404432,21.2415383 C245.524538,20.966056 245.629598,20.7221184 245.719486,20.5104797 C245.809374,20.2984639 245.874272,20.1285496 245.91418,20.0003599 L246.094083,19.1730333 L246.259197,17.9172765 C246.318995,17.3658092 246.379047,16.981617 246.438973,16.7648255 C246.468935,16.5580881 246.533706,16.4496295 246.633666,16.4398268 C246.803497,16.5489138 246.948593,16.7912175 247.068444,17.1677435 L247.398288,18.0440838 C247.927926,18.9153971 248.392411,19.6036001 248.792125,20.1085671 C249.161877,20.5645205 249.671498,20.9380302 250.321114,21.2302274 C250.970602,21.5224246 251.929917,21.7573135 253.198931,21.9355224 L253.918545,22.0099227 L254.518053,22.0099227 C255.517404,22.0099227 256.511909,21.847549 257.501059,21.5224246 C258.01068,21.3452212 258.44533,21.1433851 258.805009,20.9164139 C259.164816,20.6899453 259.51455,20.3944805 259.854212,20.0300195 C260.423885,19.3898248 260.763674,18.577328 260.87358,17.5922778 C260.87358,16.4990203 260.491333,15.6295922 259.726966,14.9846218 C258.962345,14.3392744 258.05046,13.868994 256.991439,13.5735292 C256.521472,13.4454651 255.967099,13.3148875 255.327555,13.1820477 C254.688012,13.0489566 253.918545,12.9038006 253.019155,12.7462026 C252.359594,12.637744 251.737391,12.5046529 251.153055,12.3470549 C250.56821,12.1898339 250.036404,11.9877466 249.556747,11.7415468 C248.577159,11.2981611 247.797747,10.7367654 247.218384,10.0571084 C246.638766,9.3774514 246.349085,8.62892381 246.349085,7.8112743 C246.349085,7.06274671 246.593759,6.29448796 247.083361,5.50637236 C247.71296,4.53125054 248.402356,3.73345787 249.151932,3.11286867 C249.901381,2.49240516 250.765581,1.99988004 251.745169,1.63554466 C252.354494,1.42855592 252.869215,1.28076068 253.288947,1.19215895 C253.538721,1.14301954 253.833757,1.09840448 254.173547,1.05906783 C254.512953,1.01998252 254.812708,1 255.072809,1 L255.537294,1 C255.607292,1 255.704702,1.00502705 255.829781,1.01520682 C255.954476,1.0253866 256.092177,1.04536912 256.24199,1.07553141 C256.541872,1.10607073 257.021529,1.19655761 257.68109,1.34749476 L259.254704,1.60425128 L260.379132,1.6649529 L261.083446,1.6649529 L261.398373,1.60588507 C261.928011,1.55674567 262.437631,1.46801826 262.927234,1.33995419 C263.017249,1.33995419 263.067229,1.35955968 263.077174,1.39902201 C263.077174,1.48774942 262.876998,1.84228205 262.477666,2.46287124 C262.077951,3.08333476 261.80816,3.56605714 261.668164,3.91078702" id="Fill-22" fill="#A3BF93"></path>
                <path d="M286.196566,0.122354965 L286.452371,0.122354965 L286.764457,0 L287.034393,0 L287.347083,0 C287.782482,0 288,0.112852931 288,0.338558792 C288,0.38997391 287.957124,0.508033435 287.872339,0.692737367 C287.654217,1.04183951 287.488753,1.67274857 287.375224,2.58624554 C287.375224,2.95708521 287.358677,3.24748301 287.325705,3.45808975 C287.292129,3.66830599 287.252394,3.85353058 287.204808,4.01376352 C287.176667,4.15447173 287.091157,4.23933922 286.949487,4.26953746 C286.835957,4.26953746 286.726654,4.16813904 286.622786,3.96482153 C286.566022,3.78220024 286.400437,3.5741968 286.125671,3.34055088 L285.728075,2.95981867 C285.264535,2.52337591 284.627681,2.16802585 283.818479,1.8937685 C283.009277,1.61977148 282.235462,1.4163238 281.497156,1.28446681 L280.048564,1.10171535 L280.048564,21.1788635 C280.048564,21.9339498 280.190838,22.3417563 280.474784,22.4029338 C280.75885,22.4335225 280.9004,22.5613444 280.9004,22.7856185 C280.9004,22.9285395 280.791822,23 280.573699,23 L279.153852,22.9081036 L277.762749,22.8469261 L276.272006,22.9081036 L274.525337,23 C274.411807,22.9673286 274.354922,22.9130499 274.354922,22.8370336 C274.354922,22.641526 274.492365,22.5273714 274.766528,22.4948302 C275.01267,22.4948302 275.136104,22.3213204 275.136104,21.9745613 L275.136104,1.16289283 C274.113731,1.16289283 273.363226,1.19126877 272.885676,1.24763015 C272.407402,1.3041217 271.945794,1.40916474 271.501096,1.56275927 C271.056035,1.71687446 270.653849,1.90639449 270.294056,2.13184002 C269.584132,2.56255553 268.902712,3.25438175 268.249432,4.20809965 L268.135902,4.26953746 C267.993869,4.26953746 267.90377,4.01936061 267.865967,3.51965772 C267.865967,3.09961573 267.823454,2.69219973 267.738306,2.29767005 C267.653159,1.90314037 267.520305,1.4600592 267.34071,0.967775709 L267.170416,0.568299764 C267.056765,0.32241835 267,0.16348706 267,0.0917662239 L269.641018,0.122354965 L271.628877,0.122354965 L274.198637,0.122354965 L276.654867,0.152943707 L286.196566,0.122354965 Z" id="Fill-24" fill="#A3BF93"></path>
            </g>
        </g>
    </g>
</svg>