<?xml version="1.0" encoding="utf-8"?>
<!-- Generator: Adobe Illustrator 24.1.2, SVG Export Plug-In . SVG Version: 6.00 Build 0)  -->
<svg version="1.1" id="Calque_1" xmlns="http://www.w3.org/2000/svg" xmlns:xlink="http://www.w3.org/1999/xlink" x="0px" y="0px"
	 viewBox="0 0 65.65 63.87" style="enable-background:new 0 0 65.65 63.87;" xml:space="preserve">
<style type="text/css">
	.st0{fill:#A3BF93;}
</style>
<g>
	<circle class="st0" cx="5.78" cy="5.78" r="5.78"/>
	<circle class="st0" cx="59.87" cy="5.78" r="5.78"/>
	<path class="st0" d="M33.01,26.79c-3.19,0-5.78,2.59-5.78,5.78s2.59,5.78,5.78,5.78c3.19,0,5.78-2.59,5.78-5.78
		S36.2,26.79,33.01,26.79z"/>
	<path class="st0" d="M59.67,52.32c-1.54,0.05-2.97,0.7-4.03,1.83c-1.05,1.13-1.6,2.6-1.55,4.14c0.11,3.12,2.68,5.58,5.77,5.58
		c0.07,0,0.13,0,0.2,0h0c3.18-0.11,5.68-2.79,5.57-5.98c-0.05-1.54-0.71-2.97-1.83-4.02C62.68,52.81,61.22,52.26,59.67,52.32z"/>
	<path class="st0" d="M5.58,52.32c-1.54,0.05-2.97,0.7-4.03,1.83c-1.05,1.13-1.6,2.6-1.55,4.14c0.11,3.12,2.68,5.58,5.77,5.58
		c0.07,0,0.13,0,0.2,0h0c3.18-0.11,5.68-2.79,5.57-5.98c-0.05-1.54-0.71-2.97-1.83-4.02C8.59,52.81,7.13,52.26,5.58,52.32z"/>
</g>
</svg>
