<?xml version="1.0" encoding="utf-8"?>
<!-- Generator: Adobe Illustrator 24.1.2, SVG Export Plug-In . SVG Version: 6.00 Build 0)  -->
<svg version="1.1" id="Calque_1" xmlns="http://www.w3.org/2000/svg" xmlns:xlink="http://www.w3.org/1999/xlink" x="0px" y="0px"
	 viewBox="0 0 65.65 63.87" style="enable-background:new 0 0 65.65 63.87;" xml:space="preserve">
<style type="text/css">
	.st0{fill:#A3BF93;}
</style>
<path class="st0" d="M59.9,60.59c-0.63,0-1.25-0.23-1.74-0.7L4.07,7.58C3.08,6.62,3.05,5.03,4.01,4.04
	c0.96-0.99,2.54-1.02,3.53-0.06L61.64,56.3c0.99,0.96,1.02,2.54,0.06,3.54C61.21,60.34,60.55,60.59,59.9,60.59z"/>
<path class="st0" d="M5.81,60.59c-0.65,0-1.31-0.25-1.8-0.76c-0.96-0.99-0.93-2.58,0.06-3.54L58.16,3.98
	c0.99-0.96,2.58-0.93,3.54,0.06c0.96,0.99,0.93,2.58-0.06,3.53L7.54,59.89C7.06,60.36,6.43,60.59,5.81,60.59z"/>
</svg>
