<?xml version="1.0" encoding="utf-8"?>
<!-- Generator: Adobe Illustrator 24.1.2, SVG Export Plug-In . SVG Version: 6.00 Build 0)  -->
<svg version="1.1" id="website-line_xA0_Image_1_" xmlns="http://www.w3.org/2000/svg" xmlns:xlink="http://www.w3.org/1999/xlink"
	 x="0px" y="0px" viewBox="0 0 400.87 9.82" style="enable-background:new 0 0 400.87 9.82;" xml:space="preserve">
<style type="text/css">
	.st0{fill:#922D2D;}
</style>
<g>
	<path class="st0" d="M265.17,8.61c-11.96,0-23.92,0-35.88,0c-0.52,0-1.07,0.07-1.55-0.08c-2.73-0.82-5.53-0.72-8.33-0.72
		c-6.72,0.01-13.44-0.02-20.16,0.02c-1.1,0.01-2.2,0.31-3.3,0.44c-1.11,0.13-2.22,0.32-3.33,0.32c-35.64,0.02-71.28,0-106.92,0.02
		c-8,0-16,0.17-23.99,0.17c-7.76,0-15.51-0.06-23.27-0.22c-1.31-0.03-2.61-0.66-3.91-1.04c-2.48-0.74-5-0.62-7.48-0.21
		c-0.97,0.16-1.81,0.98-2.77,1.37c-0.79,0.33-1.64,0.62-2.48,0.68c-2.95,0.21-5.9,0.32-8.85,0.45c-0.35,0.02-0.71-0.05-1.06-0.11
		c-0.47-0.08-0.93-0.24-1.41-0.28C8.07,9.24,5.64,9.06,3.21,8.9C1.92,8.81,0.36,7.27,0.24,5.95C0.16,5.07,0.02,4.2,0,3.33
		c-0.01-0.36,0.15-0.78,0.37-1.06C1.09,1.35,2.08,0.8,3.25,0.72c1.11-0.07,2.23,0,3.35,0.02c3.31,0.07,6.62,0.19,9.93,0.22
		c3.8,0.02,7.6-0.05,11.4-0.06c2.68-0.01,5.36,0.04,8.04-0.02c1.19-0.02,2.38-0.24,3.57-0.37c1.5-0.16,3.01-0.38,4.51-0.45
		c1.68-0.08,3.36,0.01,5.04-0.03c2.13-0.05,4.23-0.02,6.25,0.8c0.54,0.22,1.17,0.3,1.76,0.33c6.3,0.24,12.61,0.5,18.92,0.65
		c1.33,0.03,2.67-0.39,4-0.59c1.57-0.24,3.14-0.68,4.71-0.7c7.68-0.07,15.37,0.25,23.04-0.1c18.07-0.8,36.15-0.1,54.22-0.42
		c3.36-0.06,6.6,0.48,9.86,1.06c1.53,0.27,3.09,0.41,4.64,0.6c2.44,0.31,4.75-0.46,7.12-0.76c2.49-0.32,5-0.71,7.51-0.72
		c21.8-0.1,43.6-0.11,65.39-0.14c0.63,0,1.27,0.15,1.88,0.3c1.75,0.42,3.47,0.46,5.21-0.07c0.49-0.15,1.02-0.23,1.53-0.23
		c37.04-0.01,74.08-0.01,111.12-0.01c1.28,0,2.56-0.06,3.83,0.02c1.1,0.07,2.19,0.28,3.28,0.44c0.32,0.04,0.66,0.22,0.94,0.14
		c1.58-0.4,2.9,0.22,4.29,0.86c0.87,0.4,1.94,0.42,2.93,0.47c1.64,0.07,3.28,0.04,4.92,0.02c0.98-0.01,1.66,0.39,2.13,1.26
		c0.64,1.2,1.37,2.35,2.03,3.53c0.5,0.89,0.34,1.33-0.63,1.6c-0.57,0.16-1.18,0.22-1.77,0.23c-22.72,0.01-45.44,0.01-68.16-0.01
		c-0.65,0-1.33-0.22-1.95-0.45c-2.02-0.76-3.97-1.7-6.03-2.34c-2.88-0.89-5.86-0.68-8.8-0.22c-2.25,0.36-4.47,0.84-6.7,1.31
		c-0.62,0.13-1.31,0.26-1.8,0.61c-1.54,1.1-3.25,1.13-5.04,1.12C288.21,8.6,276.69,8.61,265.17,8.61z"/>
</g>
</svg>
