<?xml version="1.0" encoding="utf-8"?>
<!-- Generator: Adobe Illustrator 24.1.2, SVG Export Plug-In . SVG Version: 6.00 Build 0)  -->
<svg version="1.1" id="Calque_1" xmlns="http://www.w3.org/2000/svg" xmlns:xlink="http://www.w3.org/1999/xlink" x="0px" y="0px"
	 viewBox="0 0 132.77 44.9" style="enable-background:new 0 0 132.77 44.9;" xml:space="preserve">
<style type="text/css">
	.st0{fill:#A3BF93;}
</style>
<g>
	<path class="st0" d="M132.52,8.06c0,2.04-0.02,4.09,0.01,6.13c0.01,0.78,0.1,1.56,0.22,2.33c0.08,0.52-0.1,0.99-0.15,1.49
		c-0.13,1.38-0.26,2.76,0.07,4.13c0.04,0.16,0.02,0.35,0.01,0.52c-0.05,0.62-0.12,1.24-0.15,1.87c-0.02,0.47,0,0.95,0,1.42
		c0,3.96,0,7.93,0,11.89c0,1.99,0,3.99,0,5.98c0,0.73-0.17,0.9-0.92,0.9c-1.66,0-3.31-0.03-4.97,0c-1.04,0.02-2.07,0.13-3.11,0.18
		c-0.24,0.01-0.49-0.02-0.74-0.04c-0.62-0.05-1.25-0.13-1.87-0.13c-3.27-0.01-6.54,0-9.82-0.01c-5.17,0-10.33-0.02-15.5-0.02
		c-3.45,0-6.89,0.02-10.34,0.02c-4.36,0-8.73,0-13.09,0c-2.67,0-5.35,0-8.02,0c-1.66,0-3.31-0.02-4.97-0.02
		c-1.54,0-3.09,0.02-4.63,0.02c-4.02,0-8.05,0-12.07,0c-1.46,0-2.92,0-4.38,0c-1.42,0-2.84-0.01-4.26-0.03
		c-0.13,0-0.26-0.08-0.39-0.12c-0.13-0.04-0.28-0.11-0.41-0.1c-0.42,0.06-0.76-0.14-1.12-0.27c-0.07-0.03-0.13-0.12-0.18-0.19
		c-0.13-0.18-0.3-0.22-0.48-0.1c-0.22,0.15-0.41,0.33-0.64,0.46c-0.1,0.07-0.25,0.11-0.37,0.1c-1.22-0.1-2.44-0.2-3.65-0.33
		c-1.54-0.17-3.07-0.31-4.62-0.2c-0.35,0.02-0.77,0.01-1.03,0.39c-0.04,0.06-0.19,0.05-0.29,0.05c-1.03,0.01-2.06,0.01-3.09,0.04
		c-0.31,0.01-0.62,0.05-0.91,0.14c-0.59,0.18-1.19,0.16-1.8,0.15c-0.65-0.02-1.3,0.03-1.94,0c-0.77-0.04-1.53-0.14-2.3-0.19
		c-0.52-0.03-1.05-0.03-1.57-0.04c-0.08,0-0.19,0-0.23,0.05c-0.23,0.24-0.53,0.18-0.81,0.18c-2.38,0-4.75,0-7.13,0
		c-0.67,0-0.88-0.21-0.88-0.88c0-0.22,0.01-0.43,0-0.65c-0.02-0.54,0.09-1.04,0.22-1.57c0.16-0.66,0.1-1.36,0.13-2.04
		c0-0.06-0.04-0.16-0.09-0.19c-0.31-0.15-0.24-0.42-0.24-0.66c-0.01-1.22,0.01-2.45-0.02-3.67c-0.03-1.47,0.1-2.93,0.3-4.39
		c0.13-0.97,0.15-1.96,0.18-2.95c0.03-1.15,0.04-2.3,0-3.45c-0.04-1.31-0.17-2.61-0.22-3.92c-0.02-0.52,0.01-1.05,0.1-1.55
		c0.15-0.8,0.03-1.57-0.06-2.36c-0.08-0.72-0.07-1.45-0.07-2.18c0.01-1.85,0.17-3.7-0.14-5.54C0.04,8.34,0.01,7.96,0.01,7.58
		C0,5.54,0,3.51,0.01,1.47c0-0.29,0.01-0.58,0.02-0.86c0.02-0.35,0.24-0.59,0.59-0.59c1.56-0.01,3.13-0.04,4.69,0
		c0.52,0.01,1.04,0.28,1.57,0.3c1.48,0.06,2.96,0.19,4.42-0.21c0.27-0.08,0.57-0.1,0.85-0.1c3.72-0.01,7.45,0,11.17-0.01
		c3.05,0,6.09-0.02,9.14-0.02c4.16,0,8.31,0.01,12.47,0.02c3.09,0,6.17-0.01,9.26-0.01c1.35,0,2.69-0.01,4.04,0.02
		c0.4,0.01,0.8,0.17,1.21,0.23c0.19,0.03,0.4-0.01,0.6-0.05c0.36-0.06,0.72-0.19,1.08-0.19C67.36,0,73.62,0.01,79.88,0.01
		c3.46,0,6.91,0,10.37,0c3.09,0,6.17,0,9.26,0c3.33,0,6.67,0,10,0c3.07,0,6.13,0.01,9.2,0.01c4.32,0,8.64-0.01,12.97-0.01
		c0.66,0,0.85,0.18,0.85,0.84C132.52,3.25,132.52,5.65,132.52,8.06z M131.28,20.17c0,0-0.01,0-0.01,0c0-0.54,0-1.09,0-1.63
		c0-2.47,0.01-4.93,0.01-7.4c0-2.37-0.02-4.75,0-7.12c0-0.82,0.03-1.64-0.22-2.44c-0.08-0.26-0.17-0.34-0.43-0.34
		c-1.86,0.01-3.72,0.01-5.59,0c-0.13,0-0.26-0.09-0.4-0.1c-0.27-0.02-0.53-0.03-0.8-0.01c-0.14,0.01-0.28,0.11-0.43,0.11
		c-1.67,0.01-3.33,0.02-5,0.01c-2.98,0-5.97-0.01-8.95-0.01c-3.29,0-6.59,0-9.88,0c-3.13,0-6.26,0-9.38,0c-3.45,0-6.89,0-10.34,0
		c-4.85,0-9.69-0.02-14.54,0.01c-2.33,0.02-4.66-0.1-6.99,0.09c-1.33,0.1-2.69,0.07-4.04-0.06c-1.15-0.11-2.32-0.04-3.49-0.01
		c-0.56,0.01-0.72,0.22-0.72,0.76c0,1.76,0,3.52,0,5.27c0,0.13-0.01,0.27,0.03,0.4c0.31,1.04,0.19,2.1,0.17,3.16
		c-0.04,1.43-0.17,2.85-0.19,4.28c-0.03,3.03-0.01,6.06-0.01,9.1c0,0.71,0,1.42,0.06,2.12c0.08,1,0.28,2,0.3,3
		c0.04,1.93,0,3.86-0.01,5.8c0,0.51-0.04,1.02-0.07,1.53c-0.03,0.45-0.1,0.9-0.11,1.35c-0.01,0.61,0.03,1.21,0.03,1.82
		c0,0.95-0.02,1.91-0.02,2.86c0,0.34,0.43,0.77,0.77,0.78c0.39,0.01,0.78,0,1.17,0.02c0.44,0.03,0.88,0.11,1.32,0.11
		c0.66-0.01,1.31-0.11,1.97-0.12c1.24-0.03,2.49-0.03,3.73-0.03c1.56,0,3.13,0.02,4.69,0.02c2.98,0,5.97,0.01,8.95-0.01
		c0.31,0,0.64-0.12,0.94-0.22c0.24-0.08,0.44-0.11,0.67,0.03c0.16,0.1,0.37,0.18,0.56,0.19c3.36,0.01,6.73,0.01,10.09,0.01
		c3.35,0,6.71-0.02,10.06-0.02c5.02,0,10.04,0,15.07,0c1.41,0,2.82,0.03,4.23,0.01c0.82-0.01,1.64-0.15,2.45-0.14
		c1.5,0.01,3,0.13,4.49,0.14c3.05,0.02,6.09-0.01,9.14,0c0.34,0,0.48-0.09,0.55-0.4c0.21-1.02,0.07-2.02-0.07-3.03
		c-0.03-0.23-0.07-0.47-0.04-0.7c0.08-0.83,0.27-1.65,0.28-2.47C131.3,31.31,131.28,25.74,131.28,20.17z M36.67,23.8
		c-0.06-0.54-0.07-0.56-0.61-0.59c-0.84-0.05-1.68-0.1-2.52-0.14c-0.48-0.02-0.55-0.07-0.56-0.56c-0.02-0.82-0.04-1.64-0.06-2.46
		c0-0.24,0.06-0.45,0.3-0.56c0.66-0.31,1.3-0.65,2.05-0.72c0.13-0.01,0.25-0.14,0.36-0.23c0.25-0.22,0.5-0.45,0.75-0.68
		c0.07-0.06,0.15-0.11,0.2-0.18c0.58-0.84,1.16-1.69,1.74-2.54c0.02-0.03,0.06-0.06,0.07-0.1c0.07-0.16,0.18-0.32,0.18-0.48
		c0.01-0.67-0.06-1.34-0.02-2c0.02-0.4-0.16-0.6-0.44-0.8c-0.2-0.14-0.37-0.17-0.5,0.1c-0.04,0.08-0.12,0.14-0.17,0.21
		c-0.07,0.11-0.17,0.22-0.19,0.34c-0.04,0.24-0.03,0.49-0.04,0.74c-0.08,1.89-0.86,3.38-2.53,4.37c-0.46,0.27-0.93,0.39-1.46,0.39
		c-0.25,0-0.33-0.08-0.33-0.31c0.01-0.62,0.02-1.23,0.03-1.85c0.02-1.09,0.06-2.18,0.08-3.27c0.01-0.39-0.21-0.68-0.54-0.78
		c-0.36-0.1-1.04,0.25-1.15,0.61c-0.01,0.04-0.02,0.11,0,0.15c0.26,0.46,0.19,0.96,0.21,1.45c0.06,1.23,0.1,2.46,0.15,3.69
		c0.01,0.35-0.07,0.44-0.42,0.45c-0.18,0.01-0.37,0.01-0.55,0.02c-0.44,0.04-0.86-0.03-1.19-0.32c-0.67-0.58-1.32-1.19-1.97-1.8
		c-0.18-0.17-0.42-0.34-0.48-0.55c-0.18-0.69-0.23-1.39-0.11-2.1c0.06-0.35,0.07-0.71,0.1-1.07c0-0.06-0.05-0.14-0.1-0.17
		c-0.16-0.12-0.32-0.23-0.49-0.32c-0.19-0.1-0.82,0.09-0.87,0.27c-0.07,0.27-0.15,0.54-0.17,0.81c-0.1,1.34,0.18,2.59,0.84,3.78
		c0.38,0.67,1,1.06,1.56,1.5c0.49,0.38,1.09,0.61,1.63,0.93c0.52,0.31,1.06,0.55,1.67,0.56c0.31,0.01,0.44,0.14,0.46,0.45
		c0.07,0.84,0.15,1.68,0.23,2.52c0.05,0.5,0.06,0.49-0.45,0.5c-0.74,0-1.49-0.03-2.22,0.03c-1.05,0.09-2.08,0.36-3.15,0.32
		c-0.14-0.01-0.32,0.12-0.4,0.24c-0.04,0.06,0.08,0.28,0.18,0.36c1.16,0.96,2.01,2.16,2.73,3.46c0.43,0.78,0.86,1.54,1.49,2.18
		c0.24,0.24,0.51,0.45,0.71,0.72c0.24,0.32,0.43,0.67,0.62,1.02c0.33,0.62,0.65,1.25,1,1.93c0.15-0.2,0.31-0.39,0.45-0.6
		c0.16-0.24,0.27-0.5,0.44-0.73c0.26-0.35,0.55-0.66,0.82-1.01c1.29-1.67,2.54-3.37,3.87-5c0.57-0.7,0.83-1.53,1.2-2.31
		c0.09-0.18-0.05-0.34-0.22-0.27c-0.38,0.16-0.76,0.07-1.15,0.05C37.37,23.44,36.92,23.26,36.67,23.8z M15.93,31.28
		c0,0,0.01,0,0.01,0c0-0.66,0-1.32,0-1.97c0-0.25,0.11-0.42,0.37-0.35c0.4,0.1,0.77,0.05,1.15-0.06c0.21-0.06,0.45-0.09,0.67-0.07
		c0.4,0.04,0.79,0.14,1.18,0.17c0.15,0.01,0.37-0.06,0.44-0.16c0.13-0.2,0.35-0.51,0.12-0.7c-0.38-0.3-0.73-0.7-1.35-0.52
		c-0.67,0.19-1.38,0.2-2.08,0.09c-0.22-0.04-0.49-0.05-0.5-0.35c-0.01-0.78-0.01-1.56,0.01-2.33c0.01-0.34,0.09-0.67,0.09-1.01
		c0.01-0.94,0-1.89,0.01-2.83c0-0.47,0.03-0.48,0.52-0.5c0.29-0.01,0.57-0.07,0.85-0.12c0.09-0.02,0.18-0.09,0.25-0.15
		c0.29-0.22,0.57-0.46,0.87-0.67c0.62-0.43,1.16-0.9,1.36-1.67c0.1-0.39,0.3-0.76,0.44-1.15c0.09-0.26,0.2-0.53,0.21-0.79
		c0.02-0.59-0.01-1.18-0.04-1.77c-0.01-0.2-0.05-0.41-0.12-0.59c-0.25-0.63-0.72-1.12-1.21-1.56c-0.87-0.79-1.93-1.32-2.96-1.89
		c-0.59-0.32-1.19-0.28-1.78-0.01c-0.41,0.19-0.83,0.36-1.23,0.58c-0.61,0.34-1.24,0.65-1.77,1.08c-0.64,0.53-1.01,1.25-1.07,2.11
		c-0.02,0.34-0.13,0.68-0.16,1.03c-0.04,0.53-0.16,1.08-0.05,1.58c0.18,0.83,0.58,1.58,1.26,2.14c0.21,0.17,0.39,0.39,0.6,0.58
		c0.16,0.15,0.32,0.33,0.51,0.43c0.4,0.21,0.81,0.4,1.23,0.57c0.32,0.13,0.65,0.23,0.98,0.31c0.19,0.05,0.29,0.12,0.28,0.33
		c-0.02,0.59-0.01,1.19-0.04,1.78c-0.07,1.48-0.16,2.95-0.25,4.43c-0.01,0.2-0.12,0.33-0.33,0.33c-0.42,0-0.84,0.02-1.26-0.03
		c-0.54-0.06-1.08-0.17-1.61-0.25c-0.39-0.06-0.64,0.07-0.73,0.35c-0.18,0.57,0.25,1.17,0.84,1.17c0.85,0,1.71,0.01,2.56,0.01
		c0.42,0,0.46,0.04,0.42,0.47c-0.03,0.35-0.08,0.69-0.1,1.04c-0.03,0.42-0.14,0.87-0.03,1.25c0.12,0.39,0.1,0.7-0.03,1.06
		c-0.17,0.47-0.19,0.95-0.03,1.42c0.15,0.47,0.82,0.62,1.16,0.27c0.06-0.06,0.07-0.16,0.1-0.25c0.04-0.14,0.06-0.29,0.09-0.43
		c0.04-0.18,0.12-0.35,0.12-0.53C15.93,32.51,15.93,31.9,15.93,31.28z"/>
	<path class="st0" d="M128.24,3.78c-25.14,0-50.23,0-75.36,0c-0.01,0.12-0.02,0.22-0.02,0.33c0,3.24,0,6.48,0,9.71
		c0,0.76,0,1.52,0,2.28c0,4.97,0,9.95,0,14.92c0,2,0,4.01,0.02,6.01c0,0.32,0.07,0.65,0.14,0.97c0.08,0.36,0.06,0.69-0.01,1.06
		c-0.1,0.55-0.09,1.12-0.12,1.74c2.84,0,5.62,0,8.4,0c2.79,0,5.58,0,8.36,0c2.8,0,5.6,0,8.4,0c2.79,0,5.58-0.01,8.37-0.02
		c2.78-0.01,5.55-0.06,8.33-0.05c2.78,0,5.57,0.06,8.35,0.07c2.8,0.01,5.6,0,8.4,0c2.79,0,5.58,0,8.36,0c2.79,0,5.57,0,8.38,0
		c0-0.43-0.01-0.82,0-1.21c0.01-0.39,0.01-0.78,0.07-1.16c0.06-0.37,0.2-0.73,0.3-1.1c0.33,0.08,0.37,0.25,0.37,0.48
		c-0.01,1.06,0,2.12,0,3.18c0,0.44-0.11,0.56-0.54,0.56c-3.49,0-6.98,0-10.47,0c-2.91,0-5.82,0-8.73,0c-5.34,0-10.68,0-16.02,0
		c-2.45,0-4.9-0.02-7.35-0.02c-5.53,0-11.05,0.01-16.58,0.02c-3.42,0-6.83,0-10.25,0c-2.01,0-4.01,0-6.02,0
		c-0.88,0-0.88,0-0.88-0.89c0-1.63-0.02-3.27-0.02-4.9c0-4.31,0-8.61,0-12.92c0-2.66,0-5.32,0-7.99c0-3.71,0-7.42,0-11.13
		c0-0.6,0.08-0.68,0.67-0.68c14.9,0,29.8,0,44.71,0c10.28,0,20.56,0,30.84,0c0.56,0,0.63,0.08,0.64,0.64
		c0.02,1.5,0.08,2.99,0.07,4.49c0,1.47-0.09,2.93-0.09,4.4c-0.01,3.18,0.01,6.35,0.01,9.53c0,2.35-0.02,4.71-0.02,7.06
		c0,2.09,0.01,4.17,0.02,6.26c0,0.25-0.07,0.44-0.28,0.57c-0.21,0.13-0.43,0.04-0.46-0.21c-0.01-0.07,0-0.14,0-0.22
		c0-0.93,0-1.85,0-2.78c-0.01-1.93-0.02-3.86-0.02-5.8c0-4.52,0.01-9.04,0.02-13.57c0-3.08,0-6.17,0-9.25
		C128.24,4.06,128.24,3.94,128.24,3.78z"/>
	<path class="st0" d="M71.43,21.59c-0.2,0.18-0.42,0.35-0.59,0.55c-0.57,0.66-1.04,1.38-1.33,2.2c-0.19,0.52-0.49,0.64-1.02,0.47
		c-0.24-0.08-0.21-0.25-0.15-0.43c0.24-0.73,0.47-1.46,0.71-2.2c0.05-0.16,0.1-0.33,0.1-0.55c-0.2,0.17-0.41,0.33-0.64,0.51
		c-0.1-0.11-0.2-0.22-0.36-0.38c0.39-0.37,0.76-0.74,1.15-1.08c0.12-0.11,0.28-0.18,0.43-0.23c0.47-0.16,0.82,0.11,0.76,0.6
		c-0.03,0.28-0.13,0.55-0.17,0.72c0.24-0.22,0.54-0.52,0.87-0.78c0.25-0.2,0.53-0.4,0.83-0.52c0.51-0.21,0.87,0.1,0.79,0.64
		c-0.04,0.25-0.12,0.49-0.15,0.62c0.14-0.11,0.36-0.3,0.59-0.47c0.3-0.23,0.59-0.48,0.91-0.68c0.16-0.1,0.37-0.14,0.55-0.15
		c0.41-0.02,0.63,0.19,0.58,0.6c-0.03,0.29-0.13,0.58-0.22,0.86c-0.18,0.54-0.38,1.06-0.57,1.6c-0.04,0.11-0.07,0.23-0.05,0.39
		c0.23-0.21,0.46-0.42,0.71-0.65c0.11,0.12,0.21,0.24,0.38,0.43c-0.37,0.34-0.73,0.67-1.1,1c-0.09,0.08-0.21,0.14-0.32,0.18
		c-0.28,0.11-0.58,0.2-0.85-0.02c-0.25-0.21-0.19-0.51-0.11-0.77c0.21-0.68,0.44-1.35,0.65-2.02c0.04-0.12,0.05-0.25,0.08-0.37
		c-0.03-0.02-0.06-0.05-0.09-0.07c-0.19,0.15-0.4,0.29-0.57,0.47c-0.62,0.65-1.02,1.43-1.34,2.26c-0.21,0.55-0.34,0.61-0.91,0.52
		c-0.33-0.05-0.42-0.16-0.31-0.48c0.24-0.72,0.49-1.44,0.74-2.16c0.06-0.17,0.09-0.35,0.13-0.52
		C71.51,21.64,71.47,21.61,71.43,21.59z"/>
	<path class="st0" d="M80.21,21.86c0.39-0.36,0.75-0.74,1.16-1.04c0.26-0.19,0.6-0.33,0.92-0.38c0.41-0.07,0.64,0.2,0.59,0.62
		c-0.04,0.28-0.13,0.56-0.22,0.83c-0.18,0.53-0.38,1.06-0.57,1.59c-0.04,0.11-0.07,0.23-0.04,0.39c0.22-0.2,0.45-0.41,0.7-0.64
		c0.1,0.11,0.21,0.23,0.34,0.38c-0.33,0.34-0.65,0.66-0.97,0.97c-0.07,0.07-0.16,0.12-0.26,0.17c-0.32,0.16-0.66,0.31-0.98,0.07
		c-0.32-0.24-0.2-0.58-0.1-0.88c0.2-0.65,0.42-1.29,0.63-1.93c0.04-0.11,0.06-0.23,0.09-0.35c-0.02-0.02-0.05-0.05-0.07-0.07
		c-0.15,0.1-0.32,0.18-0.44,0.3c-0.67,0.64-1.1,1.42-1.44,2.27c-0.03,0.09-0.06,0.17-0.1,0.26c-0.18,0.42-0.68,0.58-1.07,0.35
		c-0.2-0.12-0.15-0.3-0.09-0.47c0.24-0.7,0.48-1.4,0.72-2.1c0.06-0.18,0.1-0.37,0.15-0.55c-0.03-0.02-0.05-0.04-0.08-0.06
		c-0.14,0.1-0.3,0.19-0.42,0.31c-0.67,0.7-1.2,1.48-1.54,2.39c-0.2,0.54-0.34,0.61-0.9,0.53c-0.31-0.05-0.37-0.14-0.28-0.44
		c0.22-0.69,0.45-1.39,0.67-2.08c0.07-0.21,0.13-0.42,0.14-0.68c-0.2,0.17-0.4,0.33-0.6,0.51c-0.09-0.11-0.19-0.23-0.3-0.37
		c0.36-0.41,0.73-0.89,1.26-1.2c0.26-0.15,0.54-0.24,0.81-0.04c0.27,0.2,0.22,0.48,0.15,0.76c-0.05,0.18-0.1,0.35-0.15,0.55
		c0.28-0.27,0.52-0.54,0.8-0.76c0.29-0.23,0.59-0.46,0.92-0.6c0.51-0.21,0.86,0.09,0.78,0.63C80.36,21.37,80.27,21.61,80.21,21.86z"
		/>
	<path class="st0" d="M61.93,32.78c-0.33,0.27-0.62,0.54-0.95,0.77c-0.23,0.16-0.5,0.28-0.78,0.35c-0.39,0.11-0.72-0.11-0.75-0.51
		c-0.03-0.34,0.02-0.69,0.1-1.03c0.11-0.49,0.27-0.97,0.41-1.45c0.02-0.09,0.04-0.17,0.01-0.3c-0.2,0.17-0.4,0.35-0.62,0.54
		c-0.12-0.13-0.22-0.25-0.36-0.4c0.39-0.36,0.76-0.72,1.16-1.04c0.18-0.15,0.43-0.24,0.67-0.28c0.35-0.06,0.57,0.13,0.55,0.48
		c-0.01,0.29-0.08,0.59-0.16,0.87c-0.15,0.53-0.32,1.06-0.48,1.59c-0.04,0.15-0.05,0.32-0.08,0.55c0.19-0.09,0.34-0.13,0.44-0.22
		c0.36-0.32,0.71-0.65,1.04-1.01c0.1-0.11,0.12-0.3,0.17-0.45c0.16-0.45,0.28-0.93,0.5-1.35c0.11-0.21,0.37-0.38,0.6-0.46
		c0.28-0.1,0.52,0.1,0.58,0.4c0.06,0.34-0.04,0.66-0.24,0.93c-0.43,0.57-0.51,1.24-0.6,1.91c-0.04,0.25,0.11,0.39,0.35,0.33
		c0.2-0.05,0.42-0.14,0.56-0.28c0.6-0.57,0.93-1.27,0.87-2.12c-0.01-0.21-0.02-0.43-0.01-0.65c0.02-0.33,0.26-0.55,0.59-0.55
		c0.36,0,0.63,0.22,0.64,0.57c0,0.22-0.03,0.45-0.1,0.66c-0.37,1.14-1.02,2.11-2,2.81c-0.31,0.22-0.71,0.38-1.09,0.46
		c-0.62,0.13-1.01-0.25-1-0.88C61.93,32.94,61.93,32.87,61.93,32.78z"/>
	<path class="st0" d="M100.94,14.82c-0.4,0.31-0.75,0.62-1.14,0.88c-0.33,0.22-0.72,0.4-1.09,0.14c-0.38-0.26-0.33-0.69-0.24-1.07
		c0.14-0.59,0.32-1.17,0.48-1.75c0.03-0.12,0.07-0.23,0.04-0.39c-0.2,0.18-0.4,0.35-0.63,0.54c-0.12-0.12-0.22-0.23-0.34-0.37
		c0.44-0.48,0.85-0.96,1.42-1.26c0.24-0.12,0.52-0.2,0.76-0.01c0.25,0.19,0.23,0.47,0.15,0.74c-0.18,0.61-0.37,1.22-0.55,1.83
		c-0.07,0.25-0.11,0.51-0.18,0.85c0.21-0.1,0.34-0.13,0.43-0.21c0.36-0.33,0.72-0.67,1.06-1.02c0.08-0.08,0.1-0.22,0.14-0.33
		c0.14-0.44,0.26-0.89,0.43-1.31c0.09-0.21,0.25-0.41,0.44-0.54c0.41-0.28,0.88-0.03,0.84,0.46c-0.02,0.28-0.13,0.59-0.29,0.82
		c-0.39,0.57-0.49,1.21-0.56,1.86c-0.03,0.29,0.15,0.43,0.42,0.33c0.21-0.08,0.42-0.2,0.57-0.35c0.52-0.55,0.82-1.2,0.79-1.97
		c-0.01-0.21-0.03-0.41-0.03-0.61c0.01-0.41,0.25-0.66,0.62-0.65c0.39,0.01,0.63,0.27,0.61,0.69c-0.01,0.22-0.05,0.45-0.13,0.66
		c-0.35,1.01-0.95,1.86-1.77,2.55c-0.39,0.33-0.83,0.57-1.36,0.61c-0.62,0.04-0.92-0.25-0.92-0.86
		C100.94,15,100.94,14.91,100.94,14.82z"/>
	<path class="st0" d="M102.85,24.59c-0.45-0.53-0.39-0.76,0.33-1.32c-0.41-0.27-0.62-0.65-0.61-1.14c0.01-0.93,0.72-1.65,1.73-1.69
		c0.34-0.01,0.69,0.07,1.03,0.15c0.34,0.08,0.66,0.23,1.02,0.07c0.2-0.09,0.42-0.09,0.52,0.11c0.07,0.15,0.07,0.39,0,0.54
		c-0.1,0.22-0.33,0.21-0.54,0.13c-0.06-0.02-0.11-0.05-0.19-0.09c0.02,0.12,0.03,0.21,0.04,0.3c0.1,0.87-0.5,1.64-1.42,1.79
		c-0.25,0.04-0.51,0.02-0.77,0.04c-0.1,0.01-0.2,0.04-0.3,0.06c0,0.04,0,0.07,0,0.11c0.31,0.14,0.61,0.28,0.92,0.41
		c0.27,0.12,0.55,0.23,0.81,0.37c0.79,0.41,0.88,1.36,0.19,1.93c-0.4,0.32-0.87,0.45-1.37,0.51c-0.64,0.09-1.27,0.06-1.87-0.22
		c-0.34-0.16-0.62-0.38-0.65-0.79c-0.04-0.43,0.18-0.73,0.53-0.94C102.42,24.81,102.64,24.7,102.85,24.59z M103.8,26.38
		c0.3-0.09,0.59-0.13,0.84-0.25c0.36-0.17,0.36-0.54,0.02-0.74c-0.23-0.13-0.48-0.23-0.72-0.34c-0.45-0.2-0.74-0.14-1.06,0.24
		c-0.24,0.28-0.21,0.63,0.12,0.81C103.25,26.23,103.54,26.29,103.8,26.38z M105.08,21.61c-0.12-0.22-0.18-0.47-0.32-0.54
		c-0.14-0.07-0.39,0.02-0.55,0.11c-0.11,0.06-0.2,0.21-0.24,0.34c-0.09,0.25-0.15,0.51-0.19,0.77c-0.04,0.23,0,0.47,0.24,0.58
		c0.25,0.11,0.49,0.01,0.62-0.2C104.8,22.34,104.92,21.98,105.08,21.61z"/>
	<path class="st0" d="M99.2,32.77c0.23-0.21,0.47-0.42,0.73-0.65c0.1,0.12,0.19,0.24,0.35,0.42c-0.45,0.41-0.89,0.82-1.34,1.21
		c-0.09,0.08-0.24,0.12-0.37,0.15c-0.41,0.09-0.67-0.11-0.69-0.52c0-0.08,0-0.16,0-0.29c-0.14,0.12-0.24,0.23-0.36,0.3
		c-0.32,0.18-0.64,0.39-0.98,0.48c-0.71,0.19-1.25-0.22-1.32-0.94c-0.03-0.3-0.02-0.63,0.07-0.91c0.31-1.01,0.94-1.79,1.85-2.33
		c0.47-0.28,0.98-0.36,1.55-0.19c0.12-0.57,0.24-1.13,0.34-1.69c0.01-0.06-0.07-0.16-0.14-0.2c-0.13-0.08-0.27-0.14-0.39-0.19
		c-0.01-0.27,0.12-0.35,0.35-0.39c0.41-0.06,0.81-0.15,1.21-0.24c0.35-0.08,0.44,0.01,0.36,0.35c-0.41,1.76-0.82,3.52-1.23,5.27
		c-0.02,0.1-0.03,0.2-0.05,0.3C99.16,32.74,99.18,32.75,99.2,32.77z M96.45,32.36c-0.01,0.64,0.23,0.8,0.7,0.56
		c0.17-0.09,0.33-0.22,0.46-0.36c0.51-0.58,0.79-1.27,0.85-2.04c0.04-0.48-0.23-0.66-0.67-0.46c-0.09,0.04-0.18,0.1-0.26,0.17
		C96.86,30.84,96.57,31.62,96.45,32.36z"/>
	<path class="st0" d="M113.05,29.5c0.13-0.62,0.25-1.21,0.38-1.81c-0.15-0.07-0.3-0.13-0.42-0.21c-0.06-0.04-0.13-0.14-0.12-0.2
		c0.02-0.08,0.1-0.2,0.17-0.21c0.49-0.11,0.98-0.21,1.48-0.29c0.09-0.02,0.2,0.05,0.31,0.08c-0.24,1.02-0.46,2-0.69,2.97
		c-0.23,0.97-0.45,1.93-0.68,2.9c0.02,0.02,0.04,0.03,0.07,0.05c0.24-0.21,0.48-0.42,0.75-0.65c0.1,0.12,0.19,0.23,0.34,0.41
		c-0.44,0.4-0.88,0.82-1.33,1.21c-0.09,0.08-0.24,0.12-0.37,0.15c-0.44,0.1-0.7-0.11-0.69-0.56c0-0.07,0-0.14,0-0.25
		c-0.09,0.08-0.15,0.14-0.22,0.19c-0.27,0.18-0.53,0.41-0.83,0.52c-0.94,0.37-1.63-0.1-1.64-1.11c0-0.21,0.03-0.43,0.09-0.64
		c0.32-1.05,0.96-1.85,1.91-2.39C112.01,29.4,112.5,29.32,113.05,29.5z M112.81,30.6c0.01-0.59-0.25-0.76-0.69-0.53
		c-0.18,0.1-0.36,0.25-0.49,0.41c-0.41,0.49-0.66,1.06-0.78,1.69c-0.05,0.27-0.17,0.62,0.13,0.79c0.32,0.18,0.6-0.05,0.85-0.26
		c0.02-0.01,0.03-0.03,0.05-0.04C112.44,32.05,112.73,31.32,112.81,30.6z"/>
	<path class="st0" d="M106.16,9.48c0.01-0.29,0.13-0.39,0.4-0.41c0.39-0.04,0.76-0.15,1.15-0.22c0.11-0.02,0.25-0.01,0.32,0.05
		c0.06,0.04,0.06,0.2,0.04,0.29c-0.29,1.12-0.6,2.24-0.9,3.36c-0.03,0.1-0.05,0.21-0.08,0.33c0.34-0.33,0.64-0.67,1-0.94
		c0.28-0.21,0.62-0.38,0.95-0.46c0.54-0.14,0.92,0.16,0.91,0.73c-0.01,0.44-0.09,0.9-0.22,1.32c-0.25,0.8-0.7,1.48-1.34,2.03
		c-0.17,0.15-0.39,0.28-0.61,0.34c-0.36,0.1-0.57-0.13-0.49-0.49c0.01-0.05,0.02-0.1,0.03-0.15c0.13-0.52,0.13-0.51,0.67-0.47
		c0.08,0.01,0.22-0.04,0.24-0.1c0.28-0.7,0.5-1.41,0.46-2.18c0-0.05-0.03-0.09-0.06-0.21c-0.22,0.14-0.43,0.25-0.59,0.4
		c-0.84,0.75-1.38,1.67-1.63,2.76c-0.09,0.38-0.73,0.59-1,0.32c-0.08-0.08-0.11-0.27-0.08-0.39c0.25-1.09,0.51-2.18,0.77-3.26
		c0.16-0.67,0.3-1.34,0.49-2c0.09-0.32,0.02-0.48-0.29-0.57C106.25,9.54,106.21,9.51,106.16,9.48z"/>
	<path class="st0" d="M73.79,27.7c-0.13-0.07-0.25-0.11-0.35-0.18c-0.07-0.05-0.16-0.16-0.14-0.22c0.03-0.1,0.12-0.22,0.21-0.24
		c0.46-0.11,0.92-0.19,1.39-0.28c0.25-0.05,0.36,0.09,0.29,0.37c-0.29,1.09-0.59,2.18-0.88,3.27c-0.03,0.13-0.06,0.25-0.08,0.31
		c0.24-0.21,0.51-0.47,0.8-0.71c0.35-0.3,0.71-0.56,1.19-0.61c0.53-0.05,0.84,0.2,0.84,0.73c0.01,1.45-0.64,2.58-1.71,3.5
		c-0.08,0.07-0.17,0.14-0.26,0.15c-0.2,0.02-0.44,0.04-0.6-0.04c-0.08-0.04-0.08-0.33-0.05-0.5c0.12-0.56,0.13-0.55,0.69-0.51
		c0.06,0.01,0.12,0,0.2,0c0.3-0.78,0.56-1.56,0.48-2.5c-0.21,0.12-0.38,0.18-0.51,0.29c-0.9,0.74-1.48,1.69-1.75,2.83
		c-0.1,0.41-0.64,0.64-0.98,0.38c-0.1-0.08-0.14-0.33-0.1-0.49c0.17-0.77,0.37-1.54,0.55-2.31C73.27,29.88,73.52,28.81,73.79,27.7z"
		/>
	<path class="st0" d="M85.12,30.8c0.41-0.37,0.8-0.75,1.22-1.08c0.3-0.24,0.67-0.36,1.07-0.29c0.29,0.05,0.5,0.2,0.52,0.49
		c0.02,0.38,0.03,0.78-0.05,1.16c-0.2,0.92-0.68,1.72-1.37,2.37c-0.18,0.17-0.41,0.32-0.64,0.41c-0.4,0.15-0.64-0.09-0.55-0.5
		c0.02-0.08,0.04-0.16,0.06-0.24c0.15-0.49,0.09-0.43,0.56-0.36c0.21,0.03,0.33,0,0.38-0.22c0.13-0.55,0.28-1.09,0.4-1.64
		c0.04-0.18,0.01-0.37,0.01-0.56c-0.03-0.02-0.07-0.03-0.1-0.05c-0.19,0.13-0.4,0.24-0.57,0.39c-0.82,0.74-1.37,1.65-1.61,2.74
		c-0.09,0.39-0.71,0.61-0.99,0.34c-0.1-0.1-0.11-0.34-0.08-0.5c0.16-0.74,0.36-1.48,0.53-2.21c0.24-0.99,0.46-1.98,0.71-2.96
		c0.07-0.27,0.05-0.45-0.24-0.53c-0.07-0.02-0.13-0.06-0.18-0.09c-0.01-0.28,0.11-0.38,0.38-0.41c0.4-0.04,0.79-0.14,1.18-0.22
		c0.31-0.07,0.43,0.04,0.35,0.35c-0.31,1.14-0.61,2.28-0.92,3.42C85.16,30.64,85.14,30.72,85.12,30.8z"/>
	<path class="st0" d="M63.81,9.45c-0.08,0.52-0.17,1.03-0.24,1.55c-0.05,0.35-0.32,0.19-0.53,0.27c0-0.23,0.01-0.45,0-0.66
		c-0.04-0.5-0.42-0.81-0.95-0.79c-0.54,0.02-0.86,0.3-0.84,0.81c0.01,0.21,0.12,0.44,0.25,0.6c0.27,0.33,0.6,0.62,0.89,0.94
		c0.22,0.24,0.45,0.48,0.63,0.75c0.87,1.3,0.16,2.8-1.39,3c-0.52,0.07-1.02,0-1.52-0.18c-0.13-0.05-0.3,0-0.45,0.01
		c-0.14,0.01-0.27,0.03-0.44,0.05c0.09-0.71,0.17-1.36,0.25-2.04c0.15-0.01,0.3-0.01,0.45-0.02c0.03,0.22,0.05,0.43,0.1,0.64
		c0.15,0.68,0.61,1.04,1.25,0.97C62,15.29,62.36,14.63,62,14c-0.15-0.26-0.37-0.49-0.57-0.72c-0.34-0.4-0.75-0.75-1.03-1.18
		c-0.71-1.07-0.22-2.38,0.99-2.75c0.23-0.07,0.49-0.12,0.73-0.1C62.68,9.28,63.23,9.38,63.81,9.45z"/>
	<path class="st0" d="M84.99,23.79c0.12-0.11,0.25-0.2,0.35-0.32c0.63-0.72,1.18-1.5,1.59-2.37c0.07-0.16,0.15-0.32,0.23-0.47
		c0.1-0.19,0.25-0.26,0.46-0.17c0.2,0.09,0.39,0.17,0.63,0.28c-0.17,0.52-0.34,1.03-0.51,1.54c-0.17,0.51-0.33,1.03-0.5,1.54
		c0.03,0.02,0.05,0.04,0.08,0.06c0.23-0.21,0.46-0.42,0.71-0.66c0.1,0.12,0.21,0.24,0.35,0.4c-0.4,0.37-0.78,0.74-1.19,1.08
		c-0.13,0.11-0.3,0.18-0.47,0.22c-0.46,0.1-0.77-0.21-0.69-0.67c0.03-0.17,0.08-0.34,0.13-0.51c0.05-0.17,0.1-0.33,0.16-0.54
		c-0.3,0.36-0.53,0.71-0.82,0.98c-0.3,0.28-0.65,0.55-1.03,0.7c-0.58,0.24-0.98-0.13-0.82-0.74c0.19-0.73,0.43-1.45,0.65-2.18
		c0.03-0.09,0.05-0.19,0.03-0.32c-0.2,0.17-0.4,0.33-0.62,0.51c-0.1-0.11-0.2-0.21-0.37-0.38c0.45-0.39,0.9-0.79,1.35-1.18
		c0.06-0.05,0.15-0.08,0.22-0.1c0.53-0.18,0.91,0.12,0.8,0.66c-0.1,0.49-0.27,0.97-0.43,1.44c-0.12,0.39-0.27,0.77-0.41,1.15
		C84.93,23.75,84.96,23.77,84.99,23.79z"/>
	<path class="st0" d="M100.88,23.86c0.22-0.2,0.45-0.41,0.7-0.64c0.1,0.12,0.2,0.23,0.35,0.4c-0.4,0.37-0.78,0.74-1.18,1.09
		c-0.1,0.08-0.23,0.13-0.36,0.17c-0.25,0.08-0.51,0.12-0.73-0.08c-0.21-0.2-0.18-0.45-0.11-0.69c0.22-0.71,0.45-1.41,0.68-2.11
		c0.04-0.11,0.05-0.23,0.07-0.35c-0.03-0.02-0.05-0.04-0.08-0.07c-0.15,0.1-0.32,0.19-0.44,0.32c-0.68,0.7-1.21,1.5-1.55,2.42
		c-0.2,0.53-0.32,0.6-0.88,0.52c-0.33-0.05-0.4-0.13-0.3-0.45c0.25-0.8,0.51-1.6,0.77-2.4c0.03-0.1,0.06-0.19,0.03-0.34
		c-0.2,0.17-0.41,0.34-0.63,0.52c-0.11-0.12-0.21-0.23-0.4-0.43c0.37-0.32,0.72-0.64,1.08-0.95c0.05-0.05,0.11-0.09,0.17-0.13
		c0.3-0.19,0.62-0.36,0.94-0.12c0.32,0.23,0.21,0.57,0.13,0.88c-0.04,0.17-0.1,0.33-0.15,0.46c0.43-0.38,0.85-0.79,1.31-1.14
		c0.22-0.16,0.52-0.26,0.79-0.29c0.42-0.05,0.62,0.17,0.59,0.58c-0.02,0.24-0.09,0.48-0.17,0.72c-0.19,0.57-0.41,1.14-0.61,1.71
		c-0.04,0.12-0.07,0.25-0.1,0.37C100.84,23.84,100.86,23.85,100.88,23.86z"/>
	<path class="st0" d="M89.6,21.63c-0.2,0.17-0.4,0.34-0.62,0.52c-0.11-0.12-0.21-0.23-0.33-0.36c0.32-0.33,0.62-0.65,0.94-0.96
		c0.1-0.1,0.22-0.18,0.35-0.26c0.27-0.16,0.56-0.26,0.84-0.07c0.28,0.2,0.22,0.5,0.15,0.79c-0.05,0.19-0.1,0.37-0.16,0.57
		c0.38-0.36,0.72-0.73,1.11-1.02c0.27-0.2,0.6-0.36,0.93-0.43c0.47-0.09,0.73,0.2,0.64,0.68c-0.05,0.29-0.15,0.57-0.25,0.85
		c-0.21,0.62-0.44,1.23-0.66,1.85c0.02,0.02,0.05,0.03,0.07,0.05c0.23-0.21,0.46-0.41,0.71-0.64c0.1,0.12,0.2,0.23,0.35,0.4
		c-0.4,0.37-0.79,0.74-1.18,1.09c-0.07,0.07-0.18,0.11-0.27,0.14c-0.27,0.09-0.55,0.17-0.79-0.04c-0.25-0.21-0.2-0.5-0.11-0.77
		c0.21-0.67,0.43-1.33,0.64-1.99c0.04-0.13,0.07-0.27,0.1-0.4c-0.03-0.02-0.05-0.04-0.08-0.07c-0.14,0.1-0.3,0.17-0.42,0.29
		c-0.66,0.66-1.17,1.43-1.52,2.29c-0.03,0.09-0.07,0.17-0.1,0.26c-0.17,0.42-0.65,0.6-1.03,0.35c-0.09-0.06-0.12-0.3-0.09-0.42
		c0.23-0.79,0.5-1.56,0.75-2.35c0.03-0.11,0.06-0.21,0.09-0.32C89.63,21.67,89.62,21.65,89.6,21.63z"/>
	<path class="st0" d="M89.27,12.27c-0.3,0-0.56,0-0.86,0c0.05-0.24,0.1-0.45,0.16-0.7c0.21,0,0.42-0.01,0.63,0
		c0.17,0.01,0.25-0.05,0.29-0.23c0.18-0.79,0.53-1.49,1.16-2.02c0.37-0.31,0.8-0.5,1.29-0.54c0.24-0.02,0.45,0.03,0.57,0.27
		c0.11,0.22,0.04,0.65-0.14,0.81c-0.21,0.18-0.42,0.11-0.63,0c-0.53-0.28-0.68-0.22-0.81,0.36c-0.1,0.43-0.16,0.87-0.25,1.34
		c0.34,0,0.66,0,1.02,0c-0.05,0.26-0.1,0.47-0.15,0.71c-0.35,0-0.68,0-1.01,0c-0.24,0.92-0.47,1.81-0.72,2.7
		c-0.24,0.84-0.5,1.67-0.75,2.5c-0.06,0.2-0.65,0.51-0.83,0.44c-0.2-0.07-0.16-0.23-0.13-0.39c0.19-0.87,0.38-1.74,0.57-2.62
		C88.89,14.04,89.08,13.17,89.27,12.27z"/>
	<path class="st0" d="M74.98,14.74c0.21-0.46,0.45-0.91,0.62-1.39c0.07-0.19-0.02-0.44-0.05-0.66c-0.03-0.22-0.11-0.44-0.1-0.66
		c0.01-0.36,0.28-0.58,0.63-0.59c0.34-0.01,0.62,0.18,0.62,0.54c0,0.38-0.07,0.78-0.21,1.13c-0.5,1.29-1.34,2.37-2.24,3.41
		c-0.27,0.31-0.55,0.61-0.84,0.9c-0.3,0.31-0.67,0.46-1.11,0.41c-0.34-0.04-0.51-0.26-0.48-0.62c0.03-0.35,0.22-0.51,0.57-0.49
		c0.06,0,0.12,0.01,0.18,0.02c0.6,0.11,1-0.08,1.29-0.63c0.04-0.07,0.05-0.16,0.04-0.23c-0.08-0.93-0.21-1.86-0.55-2.74
		c-0.07-0.19-0.18-0.37-0.3-0.53c-0.05-0.07-0.19-0.12-0.26-0.1c-0.06,0.02-0.11,0.15-0.13,0.24c-0.02,0.08-0.01,0.16,0,0.24
		c0.03,0.17-0.03,0.31-0.2,0.3c-0.13-0.01-0.32-0.1-0.37-0.21c-0.23-0.55,0.33-1.52,0.92-1.63c0.49-0.09,0.96,0.1,1.18,0.62
		c0.22,0.52,0.35,1.09,0.49,1.64c0.08,0.32,0.12,0.66,0.18,0.99C74.92,14.72,74.95,14.73,74.98,14.74z"/>
	<path class="st0" d="M70.77,11.6c0.19-0.29,0.46-0.39,0.81-0.29c0.25,0.07,0.2,0.25,0.15,0.42c-0.17,0.56-0.35,1.12-0.52,1.68
		c-0.14,0.46-0.27,0.92-0.4,1.38c0.03,0.02,0.06,0.04,0.08,0.06c0.24-0.22,0.47-0.43,0.74-0.67c0.09,0.11,0.19,0.23,0.31,0.37
		c-0.42,0.47-0.83,0.96-1.4,1.29c-0.24,0.14-0.51,0.2-0.76,0.03c-0.27-0.18-0.22-0.46-0.17-0.73c0.01-0.06,0.03-0.12,0.06-0.25
		c-0.2,0.19-0.33,0.35-0.5,0.47c-0.28,0.2-0.57,0.42-0.89,0.54c-0.62,0.23-1.11-0.13-1.09-0.79c0.01-0.38,0.1-0.78,0.24-1.13
		c0.4-0.99,1.1-1.75,2.03-2.28C69.87,11.46,70.31,11.31,70.77,11.6z M68.3,14.46c0.05,0.11,0.07,0.34,0.19,0.4
		c0.11,0.06,0.34-0.01,0.47-0.1c0.69-0.53,1.13-1.23,1.32-2.08c0.09-0.39-0.13-0.57-0.51-0.45c-0.1,0.03-0.2,0.07-0.28,0.13
		C68.79,12.86,68.45,13.57,68.3,14.46z"/>
	<path class="st0" d="M108.04,29.53c0.16-0.11,0.29-0.25,0.43-0.27c0.59-0.08,0.69,0.07,0.51,0.64c-0.26,0.84-0.51,1.69-0.76,2.53
		c-0.03,0.1-0.04,0.2-0.06,0.29c0.02,0.02,0.05,0.04,0.07,0.07c0.23-0.21,0.46-0.42,0.7-0.63c0.1,0.11,0.21,0.23,0.34,0.39
		c-0.37,0.35-0.75,0.72-1.15,1.07c-0.1,0.09-0.22,0.15-0.34,0.21c-0.23,0.11-0.48,0.16-0.7-0.02c-0.21-0.17-0.23-0.4-0.16-0.64
		c0.02-0.09,0.03-0.18,0.04-0.31c-0.16,0.15-0.29,0.28-0.42,0.41c-0.32,0.3-0.66,0.55-1.11,0.64c-0.48,0.09-0.86-0.15-0.9-0.63
		c-0.03-0.33,0-0.69,0.09-1c0.37-1.17,1.13-2.04,2.19-2.64C107.33,29.35,107.68,29.35,108.04,29.53z M105.62,32.42
		c0.06,0.12,0.09,0.35,0.21,0.4c0.11,0.05,0.31-0.05,0.47-0.11c0.06-0.02,0.12-0.08,0.17-0.13c0.53-0.5,0.91-1.09,1.1-1.78
		c0.05-0.18,0.03-0.5-0.08-0.58c-0.13-0.09-0.43-0.05-0.59,0.05C106.13,30.76,105.79,31.51,105.62,32.42z"/>
	<path class="st0" d="M86.94,14.84c0.23-0.21,0.46-0.42,0.7-0.65c0.11,0.11,0.22,0.22,0.37,0.37c-0.39,0.37-0.75,0.74-1.14,1.07
		c-0.18,0.15-0.42,0.26-0.65,0.31c-0.39,0.08-0.63-0.16-0.61-0.56c0.01-0.15,0.04-0.3,0.07-0.48c-0.21,0.2-0.38,0.41-0.6,0.55
		c-0.31,0.2-0.63,0.4-0.98,0.48c-0.5,0.12-0.87-0.2-0.88-0.72c-0.01-0.28,0.01-0.58,0.09-0.85c0.38-1.22,1.17-2.13,2.3-2.73
		c0.47-0.25,0.81-0.23,1.14-0.04c0.13-0.1,0.24-0.26,0.37-0.28c0.61-0.11,0.74,0.05,0.56,0.64c-0.26,0.83-0.5,1.67-0.75,2.5
		c-0.03,0.11-0.05,0.21-0.07,0.32C86.89,14.8,86.92,14.82,86.94,14.84z M86.33,12.58c0-0.31-0.15-0.44-0.45-0.38
		c-0.12,0.02-0.24,0.07-0.34,0.14c-0.7,0.5-1.07,1.2-1.18,2.04c-0.02,0.16,0.06,0.41,0.17,0.48c0.11,0.06,0.36-0.03,0.49-0.12
		c0.66-0.51,1.06-1.21,1.29-2C86.32,12.68,86.32,12.63,86.33,12.58z"/>
	<path class="st0" d="M67.79,22.29c0,1.4-1.05,2.57-2.37,2.64c-1.24,0.06-2.05-0.72-2.02-1.97c0.03-1.59,1.51-2.8,3.03-2.49
		C67.31,20.65,67.8,21.31,67.79,22.29z M64.63,23.45c0.01,0.12,0.01,0.27,0.04,0.41c0.09,0.45,0.44,0.63,0.85,0.43
		c0.16-0.08,0.34-0.2,0.41-0.35c0.21-0.43,0.41-0.87,0.53-1.33c0.09-0.37,0.08-0.77,0.05-1.15c-0.03-0.33-0.26-0.46-0.6-0.43
		c-0.31,0.03-0.53,0.21-0.7,0.46C64.81,22.06,64.68,22.73,64.63,23.45z"/>
	<path class="st0" d="M101.73,32.05c0,0.14-0.01,0.29,0,0.44c0.04,0.43,0.33,0.67,0.74,0.55c0.35-0.1,0.66-0.31,0.99-0.48
		c0.11-0.06,0.2-0.15,0.31-0.24c0.1,0.13,0.2,0.26,0.31,0.4c-0.57,0.54-1.14,1.03-1.93,1.16c-1.04,0.17-1.69-0.39-1.69-1.45
		c0-1.25,0.98-2.58,2.18-2.92c0.26-0.08,0.55-0.1,0.82-0.08c0.8,0.07,1.15,0.78,0.7,1.44c-0.18,0.27-0.48,0.47-0.76,0.65
		c-0.24,0.15-0.52,0.23-0.8,0.32C102.34,31.92,102.06,31.97,101.73,32.05z M101.91,31.4c0.58-0.07,1.1-0.48,1.21-0.96
		c0.03-0.13-0.03-0.28-0.05-0.42c-0.14,0.04-0.31,0.04-0.41,0.13C102.28,30.47,102.09,30.91,101.91,31.4z"/>
	<path class="st0" d="M94.7,14.37c0.1,0.13,0.2,0.26,0.31,0.4c-0.58,0.55-1.16,1.05-1.97,1.16c-1.04,0.14-1.64-0.39-1.65-1.43
		c-0.01-1.46,1.25-2.89,2.67-3.04c0.52-0.05,0.95,0.13,1.12,0.47c0.2,0.41,0.08,0.92-0.31,1.28c-0.51,0.47-1.16,0.65-1.81,0.79
		c-0.41,0.09-0.44,0.11-0.4,0.51c0.03,0.38,0.25,0.65,0.57,0.59c0.35-0.07,0.69-0.23,1.02-0.38C94.4,14.63,94.53,14.49,94.7,14.37z
		 M92.82,13.48c0.62-0.2,1.08-0.45,1.23-1.05c0.03-0.11-0.03-0.25-0.05-0.37c-0.13,0.03-0.29,0.01-0.39,0.09
		C93.21,12.48,93.01,12.94,92.82,13.48z"/>
	<path class="st0" d="M117.43,14.08c0,0.14,0,0.26,0,0.38c0.02,0.49,0.33,0.76,0.8,0.6c0.44-0.15,0.84-0.41,1.3-0.64
		c0.05,0.06,0.15,0.19,0.26,0.33c-0.57,0.55-1.15,1.04-1.96,1.16c-1.02,0.15-1.62-0.36-1.66-1.39c-0.06-1.44,1.22-2.93,2.66-3.09
		c0.54-0.06,0.97,0.13,1.14,0.49c0.19,0.4,0.07,0.89-0.32,1.26c-0.51,0.49-1.17,0.65-1.84,0.81
		C117.7,14.03,117.59,14.05,117.43,14.08z M117.59,13.49c0.61-0.2,1.07-0.46,1.24-1.03c0.04-0.12-0.03-0.27-0.05-0.4
		c-0.14,0.04-0.31,0.03-0.41,0.12C117.98,12.5,117.79,12.95,117.59,13.49z"/>
	<path class="st0" d="M91.72,32.33c0.1,0.13,0.2,0.25,0.31,0.39c-0.62,0.62-1.28,1.13-2.19,1.2c-0.77,0.06-1.31-0.42-1.41-1.23
		c-0.18-1.5,1.16-3.15,2.66-3.28c0.55-0.05,0.97,0.14,1.13,0.51c0.18,0.41,0.03,0.93-0.36,1.28c-0.51,0.44-1.13,0.62-1.76,0.76
		c-0.44,0.09-0.47,0.12-0.43,0.52c0.04,0.38,0.25,0.59,0.58,0.59c0.43,0,0.78-0.22,1.12-0.47C91.48,32.52,91.59,32.43,91.72,32.33z
		 M89.83,31.46c0.6-0.21,1.07-0.46,1.23-1.03c0.04-0.12-0.04-0.28-0.07-0.42c-0.13,0.04-0.29,0.04-0.38,0.13
		C90.23,30.46,90.03,30.91,89.83,31.46z"/>
	<path class="st0" d="M114.84,14.91c0.25-0.22,0.49-0.44,0.75-0.67c0.09,0.12,0.18,0.23,0.32,0.41c-0.39,0.36-0.81,0.76-1.25,1.14
		c-0.1,0.09-0.26,0.13-0.4,0.15c-0.5,0.09-0.79-0.14-0.72-0.64c0.09-0.63,0.24-1.25,0.39-1.86c0.26-1.13,0.53-2.25,0.82-3.38
		c0.07-0.26,0.01-0.4-0.23-0.49c-0.09-0.04-0.21-0.13-0.22-0.21c-0.01-0.14,0.04-0.26,0.24-0.28c0.45-0.06,0.89-0.16,1.33-0.25
		c0.3-0.06,0.42,0.06,0.34,0.35c-0.47,1.8-0.93,3.59-1.39,5.39c-0.02,0.1-0.04,0.19-0.05,0.29
		C114.8,14.88,114.82,14.89,114.84,14.91z"/>
	<path class="st0" d="M66.62,14.12c0.11,0.13,0.2,0.23,0.31,0.36c-0.44,0.52-0.87,1.03-1.48,1.35c-0.28,0.15-0.59,0.22-0.88,0.01
		c-0.28-0.21-0.27-0.52-0.19-0.82c0.21-0.79,0.44-1.58,0.66-2.37c0.03-0.12,0.07-0.23,0.11-0.38c-0.31,0-0.58,0-0.9,0
		c0.05-0.19,0.07-0.36,0.13-0.5c0.04-0.09,0.15-0.18,0.24-0.19c0.25-0.04,0.56,0.03,0.73-0.09c0.16-0.12,0.17-0.44,0.24-0.68
		c0.02-0.07,0.05-0.14,0.06-0.21c0.03-0.22,0.14-0.31,0.38-0.29c0.28,0.02,0.57,0.01,0.89,0.01c-0.12,0.42-0.23,0.81-0.35,1.25
		c0.35,0,0.66,0,1.02,0c-0.06,0.26-0.11,0.48-0.17,0.71c-0.3,0-0.57-0.01-0.85,0.01c-0.09,0.01-0.23,0.08-0.25,0.15
		c-0.24,0.76-0.46,1.53-0.68,2.3c0,0.02,0.01,0.04,0.04,0.15c0.18-0.12,0.34-0.22,0.49-0.34C66.32,14.41,66.46,14.27,66.62,14.12z"
		/>
	<path class="st0" d="M81.18,30.23c-0.31,0-0.59,0-0.9,0c0.06-0.24,0.12-0.46,0.18-0.69c0.25,0,0.49-0.01,0.72,0
		c0.16,0.01,0.24-0.05,0.28-0.21c0.07-0.29,0.17-0.57,0.25-0.86c0.04-0.15,0.1-0.22,0.27-0.21c0.31,0.01,0.61,0,0.97,0
		c-0.12,0.43-0.24,0.83-0.36,1.27c0.35,0,0.66,0,1.02,0c-0.06,0.25-0.11,0.46-0.16,0.69c-0.35,0-0.69,0-1.06,0
		c-0.25,0.84-0.5,1.67-0.76,2.56c0.5-0.07,0.69-0.48,1.03-0.69c0.09,0.11,0.18,0.22,0.3,0.35c-0.47,0.52-0.9,1.06-1.55,1.37
		c-0.27,0.13-0.56,0.18-0.82-0.02c-0.25-0.19-0.26-0.46-0.19-0.73c0.2-0.78,0.43-1.56,0.64-2.34
		C81.08,30.57,81.12,30.42,81.18,30.23z"/>
	<path class="st0" d="M71.68,29.54c0.34,0,0.66,0,1.02,0c-0.06,0.25-0.11,0.46-0.16,0.69c-0.3,0-0.59-0.01-0.88,0.01
		c-0.08,0-0.2,0.08-0.22,0.14c-0.23,0.75-0.45,1.51-0.68,2.27c-0.01,0.03,0,0.06,0.01,0.13c0.44-0.08,0.63-0.47,0.96-0.69
		c0.1,0.11,0.19,0.22,0.3,0.35c-0.45,0.52-0.89,1.05-1.52,1.37c-0.27,0.14-0.57,0.2-0.85,0c-0.28-0.21-0.26-0.53-0.18-0.82
		c0.21-0.81,0.45-1.62,0.68-2.43c0.03-0.1,0.05-0.2,0.08-0.32c-0.29,0-0.57,0-0.89,0c0.06-0.24,0.11-0.45,0.17-0.69
		c0.24,0,0.48-0.01,0.71,0c0.18,0.01,0.26-0.06,0.3-0.23c0.07-0.28,0.17-0.55,0.24-0.83c0.04-0.17,0.11-0.24,0.29-0.23
		c0.3,0.01,0.61,0,0.95,0C71.92,28.71,71.8,29.11,71.68,29.54z"/>
	<path class="st0" d="M80.13,14.34c0.24,0.56,0.89,0.87,1.49,0.68c0.09-0.03,0.2-0.11,0.22-0.18c0.02-0.08-0.05-0.2-0.12-0.25
		c-0.32-0.24-0.65-0.46-0.98-0.69c-0.82-0.55-0.87-1.22-0.12-1.89c0.49-0.45,1.05-0.67,1.72-0.54c0.27,0.05,0.5,0.15,0.58,0.43
		c0.09,0.3-0.01,0.57-0.19,0.81c-0.1,0.13-0.36,0.09-0.46-0.06c-0.23-0.34-0.71-0.47-1.09-0.32c-0.2,0.08-0.22,0.21-0.08,0.35
		c0.13,0.13,0.28,0.24,0.43,0.35c0.25,0.18,0.52,0.33,0.77,0.51c0.4,0.3,0.51,0.71,0.33,1.18c-0.38,1.01-1.67,1.53-2.64,1.06
		c-0.5-0.24-0.66-0.75-0.38-1.21C79.73,14.38,79.88,14.25,80.13,14.34z"/>
	<path class="st0" d="M62.69,23.15c0.12,0.15,0.22,0.28,0.33,0.43c-0.74,0.69-1.47,1.37-2.56,1.34c-0.82-0.03-1.32-0.58-1.3-1.4
		c0.03-1.56,1.75-3.16,3.31-3.1c0.45,0.02,0.71,0.25,0.7,0.64c-0.01,0.46-0.4,0.72-0.87,0.55c-0.17-0.06-0.33-0.17-0.47-0.28
		c-0.19-0.15-0.35-0.15-0.51,0.03c-0.56,0.61-0.8,1.36-0.85,2.16c-0.02,0.4,0.32,0.67,0.71,0.54c0.42-0.14,0.79-0.41,1.18-0.63
		C62.47,23.37,62.57,23.26,62.69,23.15z"/>
	<path class="st0" d="M95.53,23.87c0.23-0.21,0.46-0.42,0.71-0.65c0.11,0.13,0.21,0.24,0.4,0.47c-0.36,0.31-0.7,0.61-1.06,0.9
		c-0.13,0.11-0.29,0.2-0.45,0.26c-0.26,0.1-0.55,0.16-0.79-0.05c-0.24-0.21-0.2-0.48-0.11-0.74c0.21-0.67,0.43-1.35,0.64-2.02
		c0.05-0.14,0.07-0.29,0.11-0.44c-0.02-0.02-0.05-0.03-0.07-0.05c-0.21,0.2-0.42,0.39-0.64,0.6c-0.11-0.13-0.2-0.25-0.32-0.38
		c0.41-0.5,0.84-0.96,1.42-1.25c0.27-0.13,0.56-0.18,0.82,0.02c0.26,0.2,0.22,0.5,0.13,0.77c-0.22,0.66-0.45,1.32-0.68,1.98
		c-0.06,0.17-0.11,0.35-0.17,0.52C95.49,23.83,95.51,23.85,95.53,23.87z"/>
	<path class="st0" d="M111.32,12.57c-0.21,0.2-0.42,0.39-0.64,0.6c-0.11-0.13-0.21-0.25-0.33-0.38c0.41-0.49,0.84-0.94,1.4-1.24
		c0.11-0.06,0.23-0.09,0.35-0.1c0.47-0.06,0.74,0.2,0.66,0.67c-0.06,0.34-0.18,0.67-0.29,1c-0.19,0.57-0.4,1.13-0.61,1.7
		c0.03,0.02,0.05,0.04,0.08,0.06c0.22-0.2,0.45-0.41,0.7-0.64c0.1,0.11,0.2,0.22,0.32,0.36c-0.38,0.48-0.75,0.96-1.31,1.22
		c-0.17,0.08-0.37,0.11-0.56,0.12c-0.31,0.01-0.51-0.2-0.5-0.5c0.01-0.2,0.06-0.41,0.11-0.6c0.19-0.62,0.4-1.23,0.59-1.84
		c0.04-0.12,0.07-0.25,0.1-0.38C111.36,12.61,111.34,12.59,111.32,12.57z"/>
	<path class="st0" d="M67.84,32.83c0.22-0.21,0.44-0.41,0.67-0.63c0.11,0.12,0.21,0.24,0.33,0.37c-0.48,0.53-0.87,1.13-1.6,1.31
		c-0.57,0.14-0.9-0.17-0.75-0.74c0.17-0.64,0.39-1.27,0.59-1.91c0.07-0.21,0.12-0.43,0.18-0.64c-0.03-0.02-0.05-0.04-0.08-0.06
		c-0.2,0.19-0.4,0.37-0.64,0.59c-0.1-0.12-0.21-0.24-0.33-0.38c0.42-0.48,0.83-0.95,1.4-1.24c0.28-0.14,0.58-0.19,0.84,0.01
		c0.25,0.2,0.22,0.49,0.13,0.77c-0.23,0.7-0.48,1.39-0.72,2.09c-0.05,0.13-0.08,0.27-0.11,0.41C67.79,32.8,67.82,32.82,67.84,32.83z
		"/>
	<path class="st0" d="M68.34,28.53c-0.37,0-0.67-0.28-0.68-0.65c0-0.37,0.29-0.67,0.66-0.68c0.37,0,0.67,0.29,0.68,0.65
		C69,28.23,68.71,28.53,68.34,28.53z"/>
	<path class="st0" d="M96.7,18.89c0,0.37-0.29,0.67-0.65,0.67c-0.37,0.01-0.69-0.32-0.68-0.68c0.01-0.35,0.32-0.66,0.67-0.66
		C96.4,18.22,96.7,18.52,96.7,18.89z"/>
	<path class="st0" d="M112.45,10.57c-0.36,0-0.67-0.31-0.68-0.67c0-0.36,0.31-0.66,0.68-0.66c0.37,0,0.67,0.29,0.67,0.66
		C113.12,10.27,112.81,10.57,112.45,10.57z"/>
	<path class="st0" d="M27.98,24.7c0.39-0.01,0.65-0.12,0.82-0.4c0.05-0.08,0.22-0.1,0.34-0.1c0.74,0,1.48,0,2.22,0.03
		c0.17,0.01,0.37,0.1,0.51,0.21c0.18,0.16,0.32,0.16,0.52,0.04c0.14-0.09,0.32-0.16,0.48-0.15c1.23,0.08,2.46,0.17,3.69,0.27
		c0.45,0.04,0.5,0.19,0.23,0.58c-0.25,0.35-0.57,0.68-0.72,1.07c-0.36,0.89-1.02,1.54-1.58,2.29c-0.47,0.62-0.9,1.28-1.34,1.93
		c-0.29,0.43-0.82,0.44-1.08,0.01c-1.16-1.89-2.31-3.78-3.82-5.43C28.16,24.96,28.1,24.86,27.98,24.7z"/>
	<path class="st0" d="M16.09,15.74c-0.64,0.06-0.98,0.46-1.38,0.76c-0.04,0.03-0.02,0.16-0.01,0.24c0.02,0.3,0.02,0.6,0.06,0.89
		c0.03,0.22,0.09,0.43,0.14,0.64c0.02,0.09,0.07,0.18,0.06,0.27c-0.02,0.27-0.05,0.53-0.09,0.81c-1.01-0.23-2.04-0.43-2.44-1.61
		c-0.06-0.18-0.26-0.31-0.38-0.47c-0.22-0.28-0.47-0.55-0.64-0.86c-0.11-0.21-0.11-0.49-0.13-0.74c-0.02-0.23-0.03-0.48,0.01-0.71
		c0.09-0.47,0.21-0.93,0.34-1.39c0.03-0.1,0.12-0.22,0.21-0.25c0.44-0.15,0.62-0.58,0.94-0.84c0.22-0.18,0.45-0.36,0.69-0.5
		c0.24-0.15,0.52-0.25,0.77-0.4c0.96-0.56,1.87-0.47,2.78,0.13c0.75,0.5,1.37,1.11,1.87,1.86c0.11,0.16,0.17,0.35,0.25,0.53
		c0.05,0.12,0.06,0.27,0.12,0.38c0.67,1.14,0.11,2.05-0.55,2.95c-0.08,0.11-0.15,0.22-0.22,0.34c-0.34,0.64-0.84,1.15-1.42,1.56
		c-0.21,0.15-0.51,0.17-0.77,0.2c-0.07,0.01-0.24-0.18-0.23-0.27c0.01-0.84,0.05-1.68,0.07-2.52C16.14,16.4,16.1,16.09,16.09,15.74z
		"/>
</g>
</svg>
