<?xml version="1.0" encoding="utf-8"?>
<!-- Generator: Adobe Illustrator 24.1.2, SVG Export Plug-In . SVG Version: 6.00 Build 0)  -->
<svg version="1.1" id="Calque_1" xmlns="http://www.w3.org/2000/svg" xmlns:xlink="http://www.w3.org/1999/xlink" x="0px" y="0px"
	 viewBox="0 0 79.85 62.46" style="enable-background:new 0 0 79.85 62.46;" xml:space="preserve">
<style type="text/css">
	.st0{fill:#A3BF93;}
</style>
<path class="st0" d="M65.32,33.26c1.71,0.15,3.41,0.3,5.12,0.46c0.59,0.06,0.94,0.31,0.79,0.98c-0.04,0.15-0.01,0.32-0.02,0.48
	c0.11-0.09,0.28-0.16,0.33-0.28c0.35-0.91,0.92-0.69,1.74-0.69c1.17,0,2.38,0.53,3.57-0.07c0.44-0.22,0.78,0.28,0.57,0.65
	c-0.9,1.68-1.23,3.63-2.56,5.12c-1.16,1.3-2.11,2.79-3.17,4.18c-0.66,0.87-1.34,1.71-2,2.57c-1.69,2.18-3.37,4.37-5.07,6.54
	c-0.64,0.82-1.35,1.59-1.98,2.41c-0.35,0.46-0.72,0.96-0.87,1.49c-0.27,0.96-1.14,1.36-1.72,2.03c-0.14,0.16-0.69,0.17-0.89,0.02
	c-0.18-0.13-0.28-0.64-0.17-0.85c0.27-0.52,0.02-0.86-0.18-1.27c-0.34-0.7-0.66-1.42-0.93-2.15c-0.4-1.09-0.73-2.2-1.12-3.29
	c-0.08-0.23-0.24-0.47-0.43-0.6c-2.4-1.67-3.74-4.11-5.02-6.63c-1.34-2.66-3.24-4.95-5.14-7.22c-0.53-0.63-1.25-1.1-1.89-1.63
	c-0.4-0.34-0.59-0.65-0.12-1.13c0.77-0.79,1.01-0.9,2.06-0.43c0.92,0.42,1.63-0.05,2.32-0.52c0.44-0.3,0.68-0.45,1.29-0.2
	c0.69,0.28,1.56,0.12,2.35,0.11c2.21-0.01,4.42-0.06,6.63-0.05c0.57,0,0.77-0.15,0.67-0.72c-0.1-0.59-0.16-1.19-0.21-1.79
	c-0.13-1.56-0.22-3.12-0.39-4.67c-0.15-1.41-0.19-1.38-1.73-1.49c-1.54-0.11-2.83-0.87-4.11-1.68c-1.21-0.77-2.45-1.55-3.79-2.03
	c-1.12-0.41-1.77-1.18-2.46-2c-0.33-0.4-0.53-0.9-1.22-0.94c-0.71-0.05-0.77-0.81-0.75-1.28c0.09-1.73-0.7-3.1-1.48-4.55
	c-0.34-0.64-0.24-1.63-0.06-2.4c0.43-1.83,0.34-2.31-1.17-3.55c-0.53-0.44-0.47-0.98,0.19-1.25c0.29-0.12,0.65-0.15,0.97-0.13
	c0.78,0.04,1.57,0.1,2.34,0.23c0.34,0.06,0.68,0.26,0.97,0.46c0.49,0.32,0.94,0.69,1.41,1.04c0.47,0.34,0.55,0.81,0.14,1.17
	c-1.33,1.18-0.99,2.74-0.98,4.2c0.01,0.74,0.19,1.48,0.3,2.22c0.02,0.15,0.07,0.36,0.18,0.44c1.32,0.95,1.89,2.71,3.56,3.29
	c0.18,0.06,0.38,0.24,0.44,0.41c0.39,0.98,1.29,1.36,2.07,1.92c0.95,0.69,1.97,0.81,3.07,0.67c0.12-0.02,0.25-0.03,0.38-0.03
	c2.27,0.11,1.84-0.34,1.82-2.13c-0.03-3.26-0.24-6.51-0.39-9.76C58.6,8.54,58.6,8.11,58.5,7.71c-0.12-0.45-0.68-0.87-0.21-1.36
	c0.43-0.44,0.9-0.91,1.45-1.14c1.44-0.6,2.64,0.48,2.54,2.05c-0.13,2.24-0.1,4.49-0.15,6.73c-0.02,0.92-0.11,1.83-0.12,2.75
	c-0.01,1.08,0.03,2.16,0.03,3.24c0,0.42,0.07,0.61,0.57,0.52c0.47-0.09,0.98,0.01,1.47-0.06c0.48-0.06,1-0.13,1.41-0.36
	c1.12-0.63,2.2-1.35,3.29-2.04c0.17-0.11,0.36-0.24,0.47-0.41c1.24-2.02,2.82-3.89,3.24-6.3c0.25-1.43,0.28-2.9,0.33-4.36
	c0.01-0.4-0.11-0.78,0.38-0.9c0.63-0.14,0.48-1.36,1.35-1.03c0.5,0.19,0.86,0.74,1.36,0.99c0.73,0.36,0.87,0.7,0.43,1.46
	c-0.61,1.06-0.21,2.22,0.04,3.32c0.22,0.98,0.13,1.82-0.7,2.48c-0.1,0.08-0.21,0.16-0.26,0.27c-0.98,2.23-2.64,3.98-4.03,5.93
	c-0.24,0.34-0.48,0.69-0.64,1.07c-0.49,1.12-1.29,1.83-2.52,2.02c-0.78,0.12-1.57,0.25-2.34,0.43c-0.47,0.11-0.93,0.32-1.38,0.53
	c-0.45,0.21-0.85,0.58-1.32,0.7c-0.96,0.24-1.2,0.77-1.14,1.73c0.12,2,0.11,4,0.14,6c0.02,1.19,0.12,1.3,1.25,1.34
	c0.62,0.02,1.25,0,1.87,0C65.32,33.29,65.32,33.27,65.32,33.26z M53.29,36.1c-0.72-0.03-1.51-0.25-1.88,0.74
	c-0.08,0.23-0.64,0.36-0.99,0.4c-0.57,0.06-0.67,0.18-0.28,0.65c1.42,1.7,2.86,3.39,4.2,5.14c0.85,1.12,1.56,2.35,2.33,3.54
	c0.47,0.73,0.94,1.46,1.4,2.19c0.31,0.48,0.59,0.98,0.91,1.46c0.48,0.7,0.83,1.54,1.91,1.54c1.18,0,2.14-0.76,2.5-1.98
	c0.12-0.41,0.3-0.9,0.61-1.14c2.07-1.57,3.45-3.73,5.06-5.69c0.33-0.41,0.31-1.09,0.6-1.55c0.63-1.01,1.35-1.97,2.05-2.94
	c0.6-0.84,0.45-1.26-0.57-1.38c-1.31-0.16-2.63-0.29-3.94-0.39c-1.87-0.13-3.75-0.24-5.63-0.31c-0.31-0.01-0.69,0.2-0.95,0.42
	c-0.46,0.38-0.78,0.34-1.16-0.12c-0.21-0.25-0.55-0.54-0.83-0.55C56.85,36.07,55.07,36.1,53.29,36.1z"/>
<path class="st0" d="M27.34,10.54c0,0.91,0.01,1.81,0,2.72c-0.01,0.66-0.01,1.21,0.68,1.66c0.62,0.4,0.67,2.25,0.15,3.16
	c-0.49,0.85-1.09,1.65-1.68,2.44c-0.7,0.93-1.44,1.82-2.15,2.74c-0.13,0.17-0.31,0.36-0.32,0.55c-0.09,1.41-1.14,1.83-2.23,2.18
	c-1.63,0.53-3.24,1.18-5.02,1.03c-0.6-0.05-0.84,0.32-0.85,0.89c-0.02,0.86-0.09,1.72-0.09,2.58c0.01,1.76,0.08,3.52,0.07,5.27
	c0,0.77-0.06,1.56-0.23,2.31c-0.44,2.01-0.25,4.02-0.06,6.03c0.05,0.56,0.3,0.78,0.88,0.89c2.12,0.38,4.21,0.23,6.28-0.22
	c0.55-0.12,1-0.16,1.41,0.3c0.17,0.19,0.4,0.33,0.62,0.46c1.31,0.75,1.27,0.73,0.76,2.14c-0.25,0.7-0.72,0.88-1.3,0.69
	c-1.95-0.62-3.85-0.68-5.81,0.02c-0.51,0.18-1.19-0.05-1.78-0.14c-0.71-0.1-1.04,0.11-1.03,0.89c0.03,1.33,0,2.67,0,4
	c0,2.06,0.03,4.12-0.01,6.18c-0.01,0.42-0.3,0.84-0.47,1.26c-0.06,0.13-0.25,0.29-0.21,0.37c0.43,1.06-0.31,1.31-1.05,1.47
	c-1.07,0.23-1.73-0.13-2.03-1.11c-0.41-1.33-0.26-2.67,0.21-3.94c0.28-0.75,0.5-1.26-0.01-2.09c-0.36-0.59-0.1-1.59-0.05-2.4
	c0.09-1.37,0.23-2.74,0.38-4.11c0.06-0.56-0.13-0.81-0.69-0.82c-2.18-0.02-4.37-0.06-6.55-0.06c-0.64,0-1.25,0.13-1.82-0.38
	c-0.81-0.73-1.19-2.22-0.53-3.06c0.25-0.31,0.9-0.49,1.34-0.44c1.61,0.19,3.2,0.57,4.81,0.75c1.01,0.11,2.05,0.05,3.07-0.03
	c0.22-0.02,0.56-0.39,0.58-0.63c0.08-0.72,0.01-1.46,0.06-2.19c0.19-2.7,0.46-5.39,0.6-8.09c0.07-1.28-0.13-2.58-0.14-3.87
	c-0.01-0.62,0.1-1.24,0.23-1.85c0.17-0.77-0.44-1-0.86-0.97c-1.15,0.1-1.94-0.64-2.87-1.03c-0.54-0.22-1.1-0.39-1.65-0.6
	c-0.19-0.07-0.36-0.2-0.52-0.32c-0.52-0.35-1.19-0.61-1.52-1.09c-0.88-1.31-2.34-2.08-3.19-3.28c-1.03-1.47-1.67-3.28-2.2-5.02
	C0.14,14.4,0.12,12.9,0,11.44c-0.02-0.22,0.42-0.7,0.51-0.67c0.8,0.29,0.77-0.33,0.86-0.75c0.31-1.3,0.64-2.58,1.47-3.68
	c0.65-0.86,1.15-1.85,2.35-2.07c0.12-0.02,0.25-0.1,0.34-0.19c1.63-1.69,3.89-2.3,5.88-3.34c1.83-0.96,3.76-1.08,5.63,0.19
	c1.03,0.69,2.21,1.15,3.25,1.82c1.37,0.89,2.69,1.85,3.97,2.85c0.45,0.36,0.71,0.96,1.08,1.43c0.18,0.23,0.42,0.41,0.63,0.61
	c0.06-0.27,1.39,2.04,1.39,2.9C27.36,10.54,27.35,10.54,27.34,10.54z M15.94,21.92c0.01,0,0.02,0,0.02,0c0,0.43,0.06,0.87-0.01,1.29
	c-0.16,0.9,0.33,0.99,1.03,1c1,0.01,1.72-0.58,2.37-1.17c0.9-0.82,1.82-1.7,2.46-2.73c0.83-1.35,1.35-2.88,2.09-4.29
	c0.24-0.45,0.19-0.69-0.12-0.99c-0.25-0.24-0.54-0.46-0.71-0.75c-0.28-0.48-0.02-1.05,0.44-0.91c1.46,0.43,0.82-0.64,0.79-1.09
	c-0.03-0.54-0.26-1.09-0.49-1.59c-0.35-0.74-0.76-1.45-1.18-2.15c-0.36-0.6-1.04-0.86-1.42-1.57c-0.44-0.83-1.48-1.35-2.3-1.95
	c-2.14-1.56-4.53-0.64-6.8-0.55c-0.98,0.04-1.98,0.57-2.9,1.02C8.67,5.74,7.97,6.23,7.9,6.7c-0.1,0.74-0.37,0.92-1,1.07
	c-0.73,0.17-1.75,0.2-1.19,1.51C5.79,9.45,5.4,10,5.12,10.13c-0.51,0.23-0.38-0.25-0.38-0.53C4.62,9.63,4.4,9.65,4.39,9.69
	c-0.07,0.62-0.27,1.3-0.11,1.87c0.17,0.64,0.15,1.12-0.14,1.71c-0.41,0.82-0.65,1.75-0.11,2.6c0.54,0.87,1.11,1.77,1.83,2.49
	c1.98,1.98,4.03,3.88,6.5,5.26c0.2,0.11,0.46,0.12,0.7,0.17c0.02-0.2,0.1-0.43,0.04-0.61c-0.74-2.08-0.18-4.28-0.59-6.4
	c-0.11-0.56,0.09-0.94,0.74-1.15c0.65-0.21,1.37-0.39,1.7-1.21c0.23-0.59,0.75-0.42,0.95,0.07c0.2,0.5,0.31,1.08,0.3,1.63
	C16.14,18.04,16.03,19.98,15.94,21.92z"/>
</svg>
