<?xml version="1.0" encoding="utf-8"?>
<!-- Generator: Adobe Illustrator 24.1.3, SVG Export Plug-In . SVG Version: 6.00 Build 0)  -->
<svg version="1.1" id="Calque_1" xmlns="http://www.w3.org/2000/svg" xmlns:xlink="http://www.w3.org/1999/xlink" x="0px" y="0px"
	 viewBox="0 0 79.8 65.5" style="enable-background:new 0 0 79.8 65.5;" xml:space="preserve">
<style type="text/css">
	.st0{fill:#A3BF93;}
</style>
<g>
	<path class="st0" d="M7.9,10.1C7.5,9.7,7.2,9.3,6.7,9C6.5,9,6.5,8.7,6.3,8.6C6.2,8.6,6,8.4,5.9,8.3C5.7,8.1,5.5,7.9,5.2,7.9
		c-0.2,0-0.3-0.1-0.4-0.3C4.7,7.4,4.5,7.4,4.5,7.1c-0.3,0-0.4-0.3-0.5-0.4C3.7,6.6,3.5,6.5,3.3,6.4C3.2,6.3,3,6.3,2.9,6.4
		C2.8,6.5,2.8,6.5,2.7,6.6C2.6,6.7,2.4,6.7,2.2,6.7C2,6.6,1.6,6.6,1.4,6.8C1.2,6.8,0.8,6.6,0.8,6.5C0.7,6.3,0.6,6.1,0.6,6
		c0-0.2,0-0.4,0.1-0.5C1,5.3,1,5,1.1,4.7C1.1,4.5,1.2,4.3,1.3,4c0-0.1,0-0.2,0-0.3C1.2,3.4,1.2,3.4,1.5,3.1C1.6,3,1.8,2.9,1.8,2.6
		C2,2.4,2.1,2.1,2.3,1.8c0.1-0.2,0.2-0.3,0.2-0.5c0-0.1,0.1-0.2,0.2-0.3C2.7,0.8,3.1,0.8,3,0.5c0,0,0.2-0.1,0.4-0.2
		c0.1,0,0.3,0,0.4,0c0.1,0,0.1,0.1,0.1,0.1C4,0.6,4.1,0.7,4.1,0.8c0,0.2,0.2,0.4,0.3,0.5c0.1,0.1,0.2,0.3,0.1,0.5
		c0,0.2-0.1,0.5-0.4,0.6C4.4,2.4,4.7,2.5,5,2.6c0.2,0.1,0.5,0.1,0.5,0.4C6,3.3,6.1,4,6.6,4.4C6.9,4.6,7.1,5,7.4,5.2
		C7.8,5.4,7.8,5.9,8.3,6c0.4,0.6,1,1,1.4,1.6c0.1,0.1,0.1,0.2,0.2,0.2c0.2,0.1,0.4,0.3,0.6,0.1c0.1-0.1,0.3,0,0.4,0
		C11.2,8,11.2,8,11.5,7.8c0.2-0.2,0.5-0.3,0.8-0.4c0.4-0.2,0.7-0.4,1.1-0.6c0.2-0.1,0.5-0.1,0.7-0.3c0.3,0,0.5-0.1,0.7-0.2
		c0.1,0,0.1,0,0.2,0c0.1,0,0.2,0,0.3,0C15.4,6,15.7,6,16,5.9c0.3-0.1,0.5-0.2,0.8-0.3c0.1,0,0.1-0.1,0.2-0.1c0.2,0,0.3,0,0.5,0
		c0.1,0,0.3,0.1,0.4,0c0.2-0.2,0.2,0,0.4,0c0.2,0,0.4-0.1,0.6-0.1c0.5,0,0.9,0,1.4,0c0.3,0,0.6,0.1,0.9,0.2c0.1,0,0.2,0,0.3,0.1
		c0.1,0,0.1,0,0.2,0C21.8,6,22.3,6,22.7,6.2c0.4,0.2,0.8,0.3,1.2,0.5c0,0,0.1,0,0.1,0c0.2,0.3,0.6,0.4,0.9,0.6
		C25,7.4,25,7.5,25.1,7.6c0.1,0.1,0.2,0.1,0.3,0.2c0.2,0.1,0.3,0.1,0.4,0.3c0.1,0.2,0.4,0.2,0.5,0.4c0.2,0.1,0.2,0.3,0.5,0.4
		c0.2,0.3,0.5,0.5,0.6,0.9c0,0.1,0.1,0.3,0.3,0.3c0.3,0.3,0.5,0.6,0.7,1c0,0.1,0.1,0.2,0.2,0.2c0.1,0,0.2-0.1,0.2-0.1
		c0.2,0,0.3-0.2,0.4-0.3c0.1-0.1,0.2-0.3,0.4-0.5c0.3,0.1,0.2-0.3,0.4-0.3c0.3-0.4,0.8-0.6,1.1-0.9c0.3-0.3,0.7-0.4,0.9-0.8
		c0,0,0.1,0,0.1-0.1c0.1,0,0.2,0,0.2-0.1c0.2-0.2,0.3-0.4,0.4-0.6c0.1-0.2,0.4-0.3,0.4-0.5c0-0.1,0.1-0.1,0.2-0.2c0,0,0.1-0.1,0-0.1
		c-0.3-0.2,0.1-0.4,0-0.6c-0.1-0.2,0-0.4,0-0.7c0-0.1,0.1-0.2,0.1-0.2c0.1-0.1,0.2-0.1,0.3-0.2c0.3-0.4,0.7-0.4,1.1-0.4
		c0.1,0,0.3,0,0.4-0.1c0.1,0,0.2-0.2,0.3-0.1c0,0.2,0.3,0.2,0.3,0.3c0,0.2,0.1,0.3,0.2,0.4c0.1,0.1,0.2,0.3,0.4,0.4
		c0.2,0.1,0.2,0.3,0.4,0.4c0.2,0.1,0.3,0.1,0.5,0.3c0.5,0.4,0.9,0.9,1.4,1.3c0.1,0.1,0.2,0.3,0.5,0.3c0,0,0.1,0.1,0.1,0.1
		c0.1,0.1,0.2,0.2,0.2,0.3c0.1,0.2,0.2,0.3,0.2,0.5c0,0.1-0.2,0.3-0.3,0.4c-0.2,0.3-0.6,0.6-0.9,0.7c-0.3,0.2-0.8,0.2-1.1,0.1
		c-0.3-0.2-0.5,0.2-0.8,0.1c-0.2,0.2-0.4,0.2-0.7,0.3c-0.4,0.1-0.7,0.4-1.1,0.5c-0.2,0-0.3,0.2-0.4,0.3c-0.2,0.2-0.4,0.3-0.6,0.4
		c0,0-0.1,0.1-0.1,0.1c-0.1,0.1-0.2,0.2-0.4,0.2c-0.4,0-0.6,0.2-0.9,0.4c-0.3,0.3-0.5,0.6-0.9,0.8c-0.1,0.1-0.3,0.2-0.4,0.2
		c-0.3,0.1-0.4,0.4-0.5,0.7c0,0.2-0.1,0.4-0.1,0.6c0,0.2,0,0.4,0,0.6c0,0.2,0,0.4,0.3,0.5c0,0,0,0,0,0c0,0.3,0.3,0.6,0.3,0.9
		c0,0.4,0,0.9,0.2,1.3c0.1,0.2,0.1,0.4,0.1,0.6c0.1,0.3,0.1,0.6,0.2,0.9c0.1,0.3,0.2,0.7,0.2,1c0,0.3-0.1,0.7-0.1,1.1
		c-0.1,0.2,0,0.4,0,0.6c0.1,0.5,0.1,1,0,1.4c-0.1,0.4,0,0.8-0.1,1.2c0.2,0.1,0,0.3,0,0.4c-0.1,0.2-0.2,0.3-0.3,0.4
		c-0.2,0.6-0.7,0.9-1.3,1c-0.1,0.3,0,0.5,0.1,0.7c0.1,0.1,0.1,0.3,0,0.4c-0.1,0.2-0.1,0.3,0.2,0.3c0.4,0.4,0.8,0.8,1.2,1.3
		c0.1,0.2,0.3,0.3,0.4,0.6c0,0,0,0.1,0.1,0.1c0.3-0.1,0.3,0.2,0.5,0.3c0.2,0.1,0.3,0.3,0.4,0.4c0.2,0.2,0.4,0.2,0.5,0.5
		c0.3,0.2,0.4,0.6,0.6,0.8c0.1,0.1,0.2,0.3,0.3,0.4c0.5,0.5,1,0.9,1.3,1.5c0.2,0.1,0.3,0.4,0.5,0.5c0.2,0.2,0.3,0.4,0.5,0.5
		c0.3,0.3,0.6,0.6,0.9,0.8c0.1,0.1,0.2,0.1,0.2,0.2c0,0,0,0.1,0,0.1c0,0.3-0.1,0.4-0.2,0.5c-0.3,0.1-0.6-0.1-0.6-0.4
		c0-0.2-0.2-0.3-0.3-0.3c-0.3,0-0.5-0.2-0.6-0.4c-0.2-0.2-0.3-0.3-0.6-0.4c-0.2-0.1-0.1-0.3-0.3-0.3c-0.1,0-0.2-0.3-0.4-0.3
		c0,0-0.1-0.1-0.1-0.1c0-0.1-0.1-0.3-0.1-0.4c-0.2,0.1-0.3-0.1-0.4-0.2c-0.1-0.1-0.1-0.3-0.3-0.3c-0.4-0.4-0.8-0.7-1.2-1.1
		c-0.3-0.3-0.7-0.6-1-0.9c-0.3-0.4-0.8-0.6-1.1-1c-0.2-0.2-0.4-0.5-0.6-0.7c-0.1-0.1-0.2-0.1-0.3-0.2c-0.1-0.1-0.2-0.1-0.3,0
		c-0.1,0.1-0.2,0.3-0.3,0.4c-0.2,0.3-0.4,0.5-0.8,0.7c-0.4,0.2-0.8,0.6-1.3,0.7c-0.1,0-0.1,0.1-0.2,0.1c-0.3,0.3-0.5,0.5-0.9,0.6
		c-0.1,0-0.1,0.1-0.2,0.2c-0.2,0.2-0.4,0.4-0.6,0.6c-0.2,0.1-0.3,0.3-0.5,0.4c-0.2,0-0.1,0.3-0.3,0.3c-0.2,0-0.2,0.1-0.3,0.2
		c-0.1,0.2-0.3,0.1-0.4,0.1c-0.3,0-0.7,0-0.9,0.2c-0.2,0.2-0.4,0.2-0.6,0.3c-0.2,0.1-0.4,0.3-0.6,0.4c-0.2,0.1-0.4,0.2-0.6,0.2
		c-0.1,0-0.3,0.1-0.4,0.2c-0.1,0.1-0.2,0.2-0.2,0.4c0,0.1,0.1,0.2,0.2,0.3c0.1,0.1,0.2,0.3,0.3,0.4c0,0.1,0.1,0.2,0.1,0.2
		c0,0.2-0.1,0.4,0.1,0.5c0,0,0,0.2,0,0.2c-0.2,0.3,0,0.6,0.1,0.9c0,0.1,0,0.1,0,0.2c0,0.1-0.1,0.2,0,0.3c0.2,0.5-0.1,1,0,1.5
		c0,0.5,0,1,0,1.5c0,0.2-0.1,0.5-0.1,0.7c0,0.2,0,0.5,0,0.7c-0.2,0.8-0.1,1.7-0.1,2.6c0,0.8,0,1.5,0,2.3c0,0.5,0,0.5,0.5,0.6
		c0.5,0,0.9-0.2,1.4-0.3c0.1,0,0.1,0,0.1-0.1c0.3,0,0.5,0,0.8,0c0.2-0.1,0.5-0.1,0.7-0.2c0.2-0.1,0.5,0,0.7-0.2
		c0.4,0.1,0.8-0.1,1.1-0.1c0.6,0,1.2-0.1,1.8,0.1c0.4-0.3,1.1,0.1,1.4-0.4c0.4-0.1,0.6-0.3,0.9-0.5c0.1-0.1,0.3-0.2,0.4-0.2
		c0.2,0,0.4,0,0.6,0.1c0.2,0.2,0.5,0.2,0.8,0.4c0.3,0.2,0.4,0.3,0.4,0.7c0,0.3-0.1,0.6-0.2,0.9c-0.2,0.4-0.3,0.9-0.3,1.3
		c0,0.3-0.1,0.6-0.1,0.9c0,0.2-0.2,0.3-0.3,0.4C30.7,51,30.3,51,30,51c-0.3,0-0.5-0.1-0.8-0.1c-0.2,0-0.5,0.1-0.8-0.1
		c-0.1-0.1-0.3,0-0.4,0c-0.1,0-0.3,0.1-0.3-0.2c0,0-0.1-0.1-0.1,0c-0.2,0-0.4,0-0.6-0.1c-0.2-0.1-0.5-0.1-0.7-0.1
		c-0.8,0-1.6,0-2.4,0c-0.2,0-0.4,0-0.6,0.1c0,0-0.1,0.1-0.1,0.1c-0.5,0-1,0.1-1.5,0.1c-0.4,0-0.7,0-0.9,0.1c0,0-0.1,0.1-0.1,0.1
		c-0.1,0.7-0.4,1.5-0.2,2.2c0.1,0.4,0.1,0.8,0.1,1.2c0,0.2,0.1,0.5,0.1,0.7c0.1,0.3,0.1,0.5,0.1,0.8c0,1.1,0,2.1,0,3.2
		c0,0.4,0.1,0.8,0.1,1.3c0,0.2,0.2,0.5,0.3,0.7c0.1,0.3,0.2,0.5,0.3,0.8c0.1,0.2,0.3,0.3,0.2,0.6c0.2,0.5,0.1,0.9,0.1,1.4
		c0,0.2,0,0.4-0.2,0.5c-0.2,0.1-0.4,0.2-0.6,0.2c-0.4,0-0.8,0.1-1.2,0.1c-0.3,0-0.6-0.1-0.8-0.3c-0.2-0.1-0.5-0.1-0.8,0
		c-0.3,0.2-0.7,0.2-1,0.1c-0.2-0.1-0.3-0.2-0.3-0.5c0-0.5,0.1-1,0.3-1.5c0.1-0.3,0.1-0.5,0.3-0.8c0.1-0.2,0.2-0.5,0.3-0.8
		c0,0,0.1-0.1,0.1-0.1c0-0.5,0.2-0.9,0.1-1.4c0-0.3-0.1-0.6-0.2-0.8c-0.2-0.5-0.2-1-0.1-1.6c0-0.2,0.1-0.5,0.1-0.7
		c0-0.2,0.1-0.4-0.1-0.6c0-0.5-0.1-1,0.1-1.4c0,0,0-0.1,0-0.1c0-0.6,0.1-1.2,0.1-1.8c0-0.2-0.1-0.4-0.1-0.6c0-0.2,0.1-0.4-0.1-0.6
		c-0.1-0.1,0-0.3,0-0.5c0-0.2,0-0.2-0.3-0.2c-0.1,0-0.1,0-0.2,0c-0.3-0.1-0.5-0.1-0.8,0c-0.1,0.1-0.4,0.1-0.6,0c-0.5,0-1-0.1-1.5,0
		c-0.4,0.1-0.7,0.1-1.1,0.1c-0.2,0-0.3,0.1-0.4,0.1c-0.6,0.1-1.2,0.3-1.8,0.2c-0.2,0-0.4,0-0.6,0C10,51,9.8,51.3,9.6,51.5
		c-0.2,0.1-0.3,0.3-0.5,0.3c-0.1,0-0.2,0-0.3,0c-0.2,0-0.4,0-0.5-0.2C8.1,51.4,8,51.3,8,51.1c0-0.1-0.2-0.4-0.3-0.5
		c-0.2-0.1-0.1-0.2-0.1-0.5c0-0.2-0.1-0.5-0.1-0.7C7.3,49,7.3,48.6,7,48.3c0-0.3-0.1-0.6,0-0.8c0.2-0.3,0.4-0.7,0.8-0.8
		c0.3-0.1,0.5-0.1,0.8-0.2c0.2,0,0.5,0.1,0.6,0.2c0.1,0.1,0.4,0,0.3,0.3c0,0,0.1,0.1,0.1,0.1c0.5-0.1,0.9,0.2,1.3,0.3
		c0.1,0,0.2,0.1,0.3,0.1c0.4,0,0.7,0.1,1,0.2c0,0,0.1,0,0.1,0c0.4,0,0.8,0.1,1.2,0.1c0.4,0,0.8,0,1.2,0.2c0,0,0.1,0,0.1,0
		c0.7,0,1.3,0.1,2,0.1c0.1,0,0.2,0,0.3-0.1c0,0,0.2,0.1,0.3,0.1c0.1,0.1,0.2,0,0.2-0.1c0-0.1,0.1-0.2,0-0.3c-0.1-0.3,0.1-0.6,0-0.9
		c-0.1-0.3,0-0.6,0-0.9c0-0.3-0.3-0.5-0.2-0.8c-0.2-0.1-0.1-0.3-0.1-0.4c0-0.3,0-0.7,0-1c0-0.2,0.1-0.4,0.1-0.6
		c0-0.4-0.1-0.8-0.1-1.1c0-0.4,0.1-0.8,0-1.2c-0.1-0.3,0-0.6,0-0.9c0-0.6,0-1.2,0-1.9c0-0.5,0-1,0.1-1.5c0.1-0.4,0.1-0.7,0.1-1
		c0-0.4,0.1-0.8,0.1-1.2c-0.2-0.1-0.3-0.1-0.5-0.2c-0.1,0-0.3,0-0.4-0.1c-0.1,0.2-0.3-0.1-0.4,0c-0.1,0-0.3-0.1-0.4-0.1
		c-0.5,0-0.9-0.1-1.3-0.4c-0.3,0.1-0.5-0.3-0.8-0.2c-0.3,0.1-0.5-0.2-0.7-0.3C13,33,12.7,33,12.5,32.9c-0.2,0-0.4-0.1-0.6-0.2
		c-0.2-0.1-0.4-0.2-0.6-0.3c-0.5-0.2-0.5-0.3-0.8-0.7c-0.1-0.2-0.4-0.4-0.5-0.7c0,0-0.1,0-0.1,0c-0.2-0.6-0.9-0.7-1.3-1.1
		c-0.2-0.3-0.5-0.3-0.7,0c-0.2,0.4-0.7,0.3-0.9,0.6c-0.3,0-0.5,0.2-0.7,0.3C6,30.8,5.8,31,5.6,31.2c-0.5,0.3-0.9,0.6-1.4,0.8
		c-0.2,0.1-0.3,0.3-0.5,0.5c-0.3,0.2-0.7,0.4-1.1,0.6c-0.3,0.2-0.5,0.5-0.9,0.7c-0.3,0.1-0.6,0.3-0.7,0.5c-0.1,0.2-0.5,0-0.5,0.3
		c-0.1,0-0.2-0.1-0.3-0.1c-0.2,0-0.3-0.1-0.3-0.2c0-0.1-0.1-0.3-0.1-0.4c0-0.1,0.1-0.2,0.2-0.3c0.2-0.1,0.4-0.2,0.6-0.5
		c0-0.1,0.2-0.1,0.3-0.2C1,33,1.2,32.9,1.3,32.8c0.2-0.3,0.6-0.5,0.8-0.7c0.2-0.2,0.5-0.3,0.7-0.5c0.1-0.2,0.3-0.2,0.4-0.3
		c0.2-0.1,0.3-0.3,0.5-0.4c0.2-0.1,0.3-0.3,0.5-0.3c0.3,0,0.3-0.2,0.5-0.3C4.8,30,5,29.9,5.1,29.7c0.2-0.2,0.3-0.4,0.5-0.6
		C5.7,29,5.9,29,6,28.8c0.1-0.1,0.2-0.3,0.3-0.4c0.1-0.1,0.3-0.2,0.4-0.3c0,0,0.1-0.1,0.1-0.1c-0.1-0.1-0.2-0.2-0.2-0.2
		c-0.2-0.6-0.7-1.1-1-1.7c-0.3-0.6-0.8-1.1-0.8-1.9c0-0.2-0.1-0.6-0.4-0.6c0-0.2-0.2-0.3-0.3-0.5c-0.1-0.3-0.2-0.6-0.2-0.9
		c0-0.3,0-0.5-0.1-0.8c-0.1-0.2,0.1-0.5-0.1-0.7c0,0,0-0.1,0-0.1c0.2-0.6,0.1-1.2,0.1-1.8c0-0.1,0-0.2,0.1-0.4
		C4,18,4.1,17.7,4.2,17.3c0.1-0.4,0.1-0.8,0.3-1.2c-0.1-0.3,0.2-0.4,0.3-0.6c0.3-0.6,0.7-1.2,0.9-1.9c0.3-0.2,0.3-0.6,0.5-0.9
		c0.2-0.2,0.3-0.5,0.4-0.8c0.1-0.3,0.3-0.5,0.4-0.7c0,0,0.1,0,0.1-0.1c0.1-0.1,0.1-0.3,0.2-0.4c0.2,0,0.3-0.2,0.4-0.3
		C7.7,10.4,7.8,10.2,7.9,10.1z M6.7,19.4c0.1,0.6,0.1,1.1,0.1,1.7c0,0,0,0,0,0C7,21.4,7,21.6,7.1,21.8c0.1,0.3,0.1,0.5,0.1,0.8
		c0,0.1,0.1,0.2,0.1,0.2c0.2,0.5,0.3,1,0.5,1.4c0.1,0.2,0.2,0.5,0.3,0.5c0.3,0.1,0.3,0.3,0.5,0.5c0.1,0.1,0.1,0.2,0.1,0.3
		C8.8,25.8,8.9,25.9,9,26c0.2,0.3,0.2,0.3,0.4,0c0,0,0.1-0.1,0.1-0.1c0.1-0.1,0.2-0.2,0.4-0.2c0.1-0.1,0.3-0.2,0.4-0.3
		c0.1-0.2,0.4-0.1,0.4-0.2c0-0.2,0.2-0.2,0.3-0.3c0.4-0.3,0.8-0.4,1.2-0.7c0,0,0.1-0.1,0.2-0.1c0.3,0.1,0.4-0.1,0.6-0.2
		c0.2-0.1,0.3-0.2,0.5-0.4c0.3-0.3,0.5-0.6,0.8-1c0.2,0,0.2-0.2,0.3-0.3c0.2-0.1,0.3-0.2,0.4-0.3c0.2-0.2,0.5-0.4,0.7-0.7
		c0.1-0.2,0.3-0.3,0.5-0.4c0.2-0.2,0.3-0.4,0.5-0.5c0.2-0.2,0.4-0.3,0.6-0.4c0.1-0.1,0.2-0.2,0.3-0.3c0.1-0.1,0.3-0.2,0.4-0.3
		c0,0,0-0.1,0-0.1c0-0.1-0.1-0.2-0.2-0.2c-0.3-0.2-0.5-0.5-0.7-0.7c-0.3-0.4-0.7-0.5-1-0.9c-0.2,0-0.3,0-0.4-0.2
		c0,0-0.1-0.1-0.1-0.1c-0.2-0.1-0.4-0.3-0.6-0.4c-0.2-0.2-0.3-0.4-0.5-0.6c-0.2-0.3-0.5-0.5-0.8-0.8c-0.2-0.1-0.4-0.3-0.5-0.4
		c-0.1-0.1-0.2-0.3-0.4-0.4c-0.2-0.2-0.4-0.3-0.5-0.4c-0.2-0.3-0.6-0.4-0.8-0.8c-0.4-0.1-0.7-0.5-1.1-0.7c-0.3-0.2-0.5-0.1-0.8-0.1
		c-0.1,0-0.2,0.2-0.3,0.3c-0.1,0.1-0.2,0.3-0.3,0.4c-0.2,0.2-0.3,0.4-0.3,0.6c-0.1,0.3-0.2,0.7-0.2,1c0,0.1,0,0.2-0.1,0.3
		c-0.1,0.3-0.2,0.6-0.4,0.8c-0.1,0.1,0.1,0.3-0.2,0.3c-0.1,0-0.1,0.2-0.2,0.4c-0.1,0.1-0.1,0.3-0.1,0.5c-0.2,0.3-0.2,0.6-0.2,0.9
		c0,0.4,0.1,0.7,0.2,1.1c0,0.1,0.1,0.3-0.1,0.3c-0.1,0.1-0.3,0.2-0.4,0.3c-0.1,0-0.2-0.1-0.3-0.1C6.9,19.5,6.9,19.5,6.7,19.4z
		 M13.6,11.1c0.2,0.2,0.4,0.3,0.5,0.5c0.1,0.2,0.3,0.3,0.4,0.5c0.1,0.2,0.3,0.1,0.4,0.3c0.1,0.2,0.3,0.3,0.4,0.4c0,0,0.1,0,0.1,0.1
		c0.4,0.1,0.6,0.4,0.7,0.7c0.2,0.4,0.5,0.7,0.8,1c0.2,0.2,0.3,0.3,0.5,0.5c0.1,0.1,0.2,0.3,0.4,0.5c0.2,0.2,0.3,0.4,0.6,0.5
		c0.1,0,0.2,0.2,0.3,0.3c0.4,0.4,0.6,0.9,1.2,0.8c0,0,0.1,0,0.1,0c0.1,0.1,0.2,0,0.3,0c0.4-0.2,0.6-0.6,0.9-0.7
		c0.2-0.1,0.4-0.3,0.6-0.4c0.2-0.2,0.3-0.4,0.6-0.5c0.1,0,0.1-0.1,0.1-0.1c0.1-0.1,0.2-0.2,0.3-0.4c0.1-0.1,0.2-0.1,0.3,0
		c0.1-0.1,0.1-0.2,0.2-0.2c0.3-0.1,0.6-0.3,0.8-0.5c0.4-0.3,0.8-0.6,1.3-0.9c0.4-0.2,0.7-0.6,1.1-0.7c0,0,0.1-0.1,0.1-0.1
		c0.2-0.2,0.2-0.4,0-0.6c0-0.1-0.1-0.2-0.1-0.2c-0.2-0.2-0.3-0.4-0.5-0.5c-0.1-0.1-0.3,0-0.4-0.2c-0.3-0.4-0.7-0.5-1-0.8
		c-0.2-0.1-0.4-0.3-0.6-0.3c-0.3,0-0.4-0.2-0.6-0.3c-0.1-0.1-0.2-0.2-0.4-0.2c-0.2-0.1-0.5-0.1-0.7-0.4c-0.2,0.1-0.3-0.2-0.5-0.2
		c-0.5,0-0.9-0.3-1.4-0.2c-0.5,0-1,0-1.5,0c-0.2,0-0.4,0-0.6,0.2c-0.3,0.2-0.6,0.2-0.9,0.3c-0.2,0.1-0.5,0-0.6,0.1
		c-0.2,0.2-0.5,0-0.7,0.2c-0.3,0.1-0.6,0.1-0.8,0.4c-0.3-0.1-0.5,0.1-0.7,0.3c-0.2,0.1-0.4,0.2-0.6,0.2c-0.2,0-0.4,0.1-0.5,0.2
		C13.5,10.6,13.6,10.8,13.6,11.1C13.5,11,13.6,11.1,13.6,11.1z M21.7,19.4c0.5,0.4,1,0.9,1.4,1.4c0.3,0.3,0.5,0.7,0.8,1
		c0.2,0.2,0.4,0.3,0.5,0.5c0.2,0.3,0.5,0.5,0.8,0.6c0.1,0.1,0.3,0.2,0.3,0.3c-0.1,0.4,0.3,0.3,0.4,0.5c0.3,0.1,0.4,0.3,0.6,0.5
		c0.1,0.1,0.1,0.2,0.2,0.1c0,0.3,0.3,0.2,0.4,0.3c0.2,0.2,0.4,0.4,0.5,0.6c0,0,0.1,0.1,0.2,0.1c0.2,0,0.3,0,0.4-0.3
		c0-0.2,0.1-0.4,0.2-0.5c0.1-0.2,0-0.4,0.2-0.6c0.1-0.2,0-0.3,0.1-0.5c0.1-0.8,0.1-1.1,0-1.9c0-0.1,0-0.2-0.1-0.4
		c0-0.1,0-0.2,0.1-0.3c0.1-0.1,0.1-0.3,0.1-0.5c0-0.2,0-0.3,0.1-0.5c0.1-0.2,0.2-0.5,0.1-0.7C29,18.9,29,18.7,29,18.4
		c0-0.1,0-0.2-0.1-0.3c-0.1-0.1-0.1-0.2-0.1-0.2c-0.3-0.7-0.5-1.3-0.8-2c-0.1-0.2-0.2-0.3-0.2-0.5c0,0-0.1-0.1-0.1-0.1
		c-0.1,0-0.2,0-0.3,0.1c-0.5,0.2-1.1,0.7-1.4,1.1c0,0-0.1,0.1-0.1,0.1c-0.8,0.5-1.5,1.2-2.3,1.8c-0.3,0.2-0.6,0.4-1,0.6
		C22.2,19,21.9,19.2,21.7,19.4z M20.5,21.4c-0.1,0.3-0.3,0.6-0.4,0.9c-0.1,0.4-0.2,0.9-0.1,1.3c0,0.8,0,1.6,0,2.4
		c0,0.4-0.3,0.8,0,1.2c-0.1,0.6,0.1,1.2,0.1,1.8c0,0.5,0.1,1.1,0.1,1.6c0,0.2,0.1,0.3,0.3,0.3c0.1,0,0.3,0,0.3-0.2
		c0.1,0,0.2,0,0.2,0c0.2,0.2,0.4,0.3,0.6,0.1c0.3-0.2,0.6-0.2,0.9-0.4c0.2-0.1,0.4-0.1,0.5-0.2c0.2-0.1,0.3-0.2,0.5-0.3
		c0.2-0.1,0.4-0.1,0.6-0.2c0.2,0,0.3-0.4,0.6-0.2c0.2-0.1,0.4-0.2,0.5-0.4c0.1-0.2,0.3-0.2,0.3-0.3c0.3,0.1,0.5-0.2,0.6-0.4
		c0.3-0.4,0.5-0.9,0.7-1.4c0-0.2,0.1-0.4-0.2-0.5c-0.4-0.4-0.8-0.7-1.3-0.9c-0.1,0-0.2-0.1-0.2-0.2c-0.2-0.5-1-1.3-1.5-1.5
		c-0.1,0-0.2-0.1-0.3-0.2c-0.5-0.5-1-1-1.6-1.4C21.2,22.1,20.9,21.7,20.5,21.4z M17.6,22.9c-0.1,0.1-0.1,0.2-0.2,0.2
		c-0.5,0.2-0.7,0.7-1.2,0.8c-0.2,0.6-0.8,0.7-1.2,1.1c-0.2,0.2-0.5,0.2-0.6,0.5c-0.4,0.1-0.6,0.4-0.9,0.6c-0.1,0.1-0.3-0.1-0.3,0.2
		c-0.2,0.2-0.5,0.5-0.8,0.6c-0.4,0.2-0.8,0.5-1.2,0.7c-0.2,0.1-0.3,0.2-0.4,0.4c-0.1,0.1-0.1,0.2,0.1,0.3c0.1,0.1,0.2,0.2,0.3,0.2
		c0.4,0.3,0.8,0.6,1.2,0.9c0.1,0.1,0.3,0.1,0.4,0.2c0,0.2,0.2,0.1,0.3,0.2c0.1,0.1,0.1,0.3,0.3,0.3c0.3,0.2,0.6,0.5,1,0.4
		c0,0,0.1,0,0.2,0c0.3,0.2,0.6,0.2,0.9,0.2c0.2,0,0.4,0,0.6,0.1c0.1,0.1,0.2,0.1,0.3,0.1c0.2,0,0.4,0.1,0.7,0.2
		c0.3,0.1,0.6,0.2,0.8,0c0.2-0.2,0.1-0.5,0.1-0.7c0,0,0,0,0,0c0-0.2-0.1-0.4-0.1-0.5c0.2-0.3,0-0.7,0.2-1.1c0.1-0.3,0-0.8,0-1.2
		c0-0.6,0-1.2,0-1.8c0-0.1,0-0.2,0-0.3c0.2-0.4,0-0.8,0.1-1.2c-0.2-0.2,0-0.5-0.1-0.6C17.6,23.4,17.7,23.2,17.6,22.9z"/>
	<path class="st0" d="M47.1,58.6c0.8-0.2,1.5-0.3,2.1-0.8c0.1-0.1,0.2,0,0.3-0.1c0.5-0.2,1-0.5,1.5-0.8c0.5-0.3,0.9-0.6,1.4-1
		c0.1-0.1,0.2-0.2,0.4-0.2c0.5-0.1,0.8-0.5,1.2-0.7c0.1-0.1,0.2-0.1,0.3-0.2c0.1-0.1,0.2-0.1,0.3-0.3c0-0.1,0.1-0.2,0.2-0.2
		c0.3-0.1,0.5-0.3,0.5-0.5c0.2-0.4,0.6-0.6,0.9-0.8c0.2-0.1,0.2-0.2,0.1-0.3c-0.4-0.5-0.8-1.1-1.5-1.4c-0.1-0.3-0.5-0.2-0.5-0.5
		c-0.3,0-0.4-0.3-0.6-0.5c-0.3-0.3-0.7-0.6-1.1-0.8c-0.2-0.1-0.4-0.3-0.6-0.5c-0.6-0.7-1-0.8-1.7-1.1c-0.3,0-0.5-0.2-0.6-0.4
		c-0.2-0.3-0.4-0.5-0.6-0.8c-0.1-0.1-0.1-0.1-0.2-0.1c-0.1-0.2-0.3-0.2-0.5-0.4c-0.1-0.1-0.2-0.3-0.5-0.4c0-0.4-0.4-0.5-0.5-0.9
		c-0.1-0.2-0.1-0.6-0.5-0.7c0,0,0,0,0,0c0-0.4-0.1-0.8,0.1-1.2c0.2-0.3,0.4-0.5,0.8-0.4c0.2,0,0.3,0,0.5-0.1
		c0.4-0.1,0.8-0.2,1.1-0.4c0.4-0.2,0.8-0.1,1.2-0.1c0.1,0,0.3,0.1,0.4,0.1c0.1,0,0.3-0.1,0.4,0.1c0,0,0.1,0,0.2,0c0.5,0,1,0.1,1.4,0
		c0.6-0.1,1.2,0,1.8-0.1c0.7-0.1,1.4-0.1,2.1-0.1c0.3,0,0.6,0.1,0.9,0.1c0.2,0,0.4,0,0.5-0.1c0.1-0.1,0.4-0.1,0.5,0
		c0,0,0.1,0.1,0.2,0c0.2-0.1,0.3-0.1,0.6,0c0.2,0.1,0.4,0,0.6,0c0.2,0,0.4,0,0.6,0c0.1,0,0.2,0,0.3,0c0.4,0,0.6-0.2,0.6-0.6
		c0-0.2,0.1-0.3-0.1-0.5c0,0-0.1-0.2,0-0.2c0.2-0.3,0.1-0.6,0.1-0.8c0-1.2,0-2.4,0-3.6c0-0.6-0.1-1.2-0.1-1.9c0-0.4,0.1-0.7,0.1-1.1
		c0-0.4-0.1-0.8,0-1.1c0.1-0.4,0.1-0.8,0.1-1.2c0-0.2,0.1-0.5,0.1-0.7c0-0.2-0.1-0.5,0-0.7c0.1-0.3,0.1-0.6-0.1-0.9
		c0-0.3-0.2-0.6-0.2-0.9c0-0.4-0.3-0.6-0.6-0.7c-0.5-0.2-1-0.3-1.6-0.4c-0.3,0-0.7-0.1-1-0.3c-0.3-0.2-0.7-0.2-1.1-0.3
		c-0.3,0-0.6-0.3-1-0.2c-0.2-0.3-0.6-0.2-0.9-0.5c-0.2-0.2-0.5-0.3-0.8-0.5c0-0.3-0.2-0.2-0.3-0.2c-0.3-0.2-0.6-0.4-0.8-0.7
		c-0.1-0.1-0.2-0.2-0.3-0.3c-0.4-0.4-0.8-0.7-1.2-1c-0.1-0.1-0.3-0.2-0.4-0.4c-0.1-0.1-0.2-0.2-0.3-0.3c-0.2-0.3-0.6-0.6-0.8-0.9
		c-0.3-0.3-0.6-0.7-0.8-1.1c0,0,0-0.1-0.1-0.1c-0.7-0.6-0.8-0.7-1.1-1.6c0-0.1-0.2-0.2-0.2-0.3c-0.1-0.3-0.4-0.6-0.3-1
		c0-0.4-0.1-0.7,0.1-1.1c0.1-0.3,0-0.6-0.2-0.8c-0.2-0.3-0.2-0.6-0.2-0.9c0-0.2,0-0.5,0-0.7c0-0.2-0.1-0.3-0.1-0.4
		c-0.1-0.4-0.3-0.8-0.4-1.3c0-0.1-0.1-0.3-0.1-0.4c-0.1-0.4-0.1-0.8-0.1-1.2c0-0.3,0.1-0.7,0-1c-0.1-0.5,0.2-0.8,0.5-1.1
		c0.1-0.1,0.3-0.2,0.5-0.2c0.2,0,0.5,0,0.7-0.1C49,8.2,49.2,8,49.4,8.1c0,0,0.1,0,0.1-0.1c0.1-0.1,0.1-0.3,0.2-0.4
		c0.2,0,0.3-0.1,0.4-0.2c0,0,0.1,0,0.1,0c0.2-0.2,0.3-0.4,0.5-0.4c0.3,0,0.6,0,0.9,0c0,0.5,0.1,1,0,1.5c0,0.3,0,0.6-0.1,0.8
		c-0.1,0.3-0.1,0.6-0.1,0.8c-0.1,0.4-0.2,0.7-0.3,1.1c-0.1,0.2-0.1,0.4-0.1,0.6c0,0.3,0.1,0.5-0.1,0.8c0,0,0,0.1,0,0.1
		c0.2,0.3,0.1,0.7,0,1c0,0.2,0,0.3,0.1,0.5c0.1,0.2,0.2,0.5,0.2,0.8c0,0.2,0.2,0.4,0.1,0.7c-0.1,0.2,0.1,0.4,0.2,0.6
		c0,0,0,0.1,0,0.2c0,0.4,0.1,0.8,0.1,1.2c0.1,0.3,0.3,0.6,0.2,0.9c0.3,0,0.2,0.4,0.4,0.5c0.1,0,0.1,0.1,0.1,0.2c0,0,0.4,0.8,0.5,0.8
		c0.2,0.2,0.3,0.5,0.5,0.6c0.2,0.2,0.3,0.4,0.6,0.6c0.2,0.2,0.4,0.4,0.6,0.6c0.1,0.2,0.5,0.2,0.5,0.5c0,0,0.1,0,0.1,0
		c0.2,0,0.3,0,0.5,0.1c0.1,0.1,0.4,0,0.3,0.3c0,0,0.1,0.1,0.1,0c0.3-0.1,0.4,0.1,0.6,0.2c0.3,0.3,0.7,0.2,1,0.4
		c0.3,0.2,0.7,0.3,0.9,0.5c0.2,0.2,0.4,0.2,0.6,0.4c0.1,0.1,0.4,0.2,0.5,0.3c0.2,0.1,0.3,0.2,0.5,0.2c0.1,0,0.1,0.1,0.2,0.1
		c0.1,0.1,0.2,0.1,0.4,0.1c0.4,0,0.8,0,1.2,0c0-0.1,0-0.3,0-0.4c0-0.7,0.2-1.4,0.1-2.1c0-0.7,0-1.4,0-2.1c0-0.1,0.1-0.2,0.1-0.3
		c0-0.1,0.1-0.3,0-0.4c-0.1-0.2-0.1-0.3,0-0.5c0.1-0.2,0-0.4,0-0.6c0.1-0.6-0.2-1.2-0.2-1.8c-0.2-0.3,0-0.7-0.2-0.9
		c0-0.4-0.2-0.8-0.3-1.2c0-0.2-0.1-0.6-0.1-0.9c0-0.7,0.1-1.4,0-2.1c-0.1-0.5-0.1-1-0.4-1.5c-0.2-0.4-0.1-0.8,0-1.1
		c0.1-0.4,0.1-0.9,0.4-1.3c0.1-0.2,0.1-0.5,0.1-0.7c0-0.1,0-0.3,0.1-0.3c0.2-0.1,0.3-0.2,0.5-0.3c0.2,0.2,0.4-0.1,0.6,0
		c0.2,0,0.4,0,0.6,0c0.1,0,0.2,0,0.2,0c0.5,0.4,1.1,0.5,1.6,0.7c0.6,0.2,0.9,0.6,0.8,1.1c0,0.2,0.1,0.4,0.1,0.6
		c0,0.2-0.2,0.4-0.2,0.5c0,0.2-0.1,0.5-0.2,0.7c-0.1,0.2,0.1,0.5-0.2,0.7c0,0.3,0,0.6-0.1,0.9c-0.1,0.3-0.1,0.6-0.2,1
		c-0.1,0.2,0,0.3,0,0.5c0,0.2,0.1,0.4-0.1,0.5c0,0,0.1,0.2,0.1,0.3c0,0.5,0.1,1-0.1,1.5c-0.1,0.1,0,0.3,0,0.4c0,1.1,0,2.3,0,3.4
		c0,0.6-0.1,1.2-0.1,1.9c0,0.2,0,0.3,0,0.5c0.1,0.2,0,0.4,0,0.6c0.1,0.3-0.1,0.5-0.1,0.8c0,0.2,0.1,0.5-0.1,0.7c0,0,0,0.1,0,0.1
		c0.2,0.4,0.1,0.7,0.1,1.1c0,0.1,0.2,0.2,0.2,0.2c0.4-0.1,0.9,0.1,1.3,0.1c0.3,0,0.5-0.1,0.8-0.2c0.2-0.1,0.5-0.2,0.7-0.2
		c0.2,0,0.3-0.3,0.5-0.3c0,0,0.1-0.1,0.1-0.1c0.6,0,1-0.3,1.4-0.6c0.2-0.2,0.5-0.2,0.7-0.3c0.1,0,0.3,0,0.3-0.1
		c0.3-0.4,0.8-0.5,1.1-0.8c0.1-0.1,0.3-0.2,0.5-0.4c0.3-0.3,0.6-0.6,0.8-1c0.1-0.1,0.4-0.2,0.3-0.5c0,0,0.1-0.1,0.1-0.1
		c0.1-0.1,0.2-0.4,0.3-0.4c0.3-0.1,0.1-0.3,0.2-0.5c0.1-0.1,0.2-0.3,0.2-0.5c0.1-0.1,0.1-0.3,0.1-0.5c0.1-0.3,0.1-0.6,0.2-0.8
		c0.1-0.2,0.3-0.5,0.3-0.7c0-0.1,0.1-0.1,0.1-0.2c0-0.4,0.1-0.7,0.2-1.1c0.1-0.2,0.1-0.5,0.1-0.8c0-0.5,0.1-1,0.3-1.5
		c0.1-0.3,0.1-0.5,0.1-0.7c0-0.2,0.3-0.4,0-0.5c0-0.2,0-0.5,0-0.7c0-0.2,0-0.4,0-0.6c0-0.2-0.1-0.3-0.1-0.5
		c-0.2-0.7-0.4-1.3-0.3-2.1c0-0.2,0.1-0.5-0.1-0.6c-0.2-0.2-0.1-0.4-0.1-0.6c0-0.1,0.2-0.7,0.2-0.7c0,0,0.1,0,0.2,0
		c0.4-0.2,1-0.2,1.3,0.1c0.3,0.2,0.6,0.4,0.9,0.6c0.3,0.2,0.5,0.4,0.8,0.6c0.2,0.1,0.3,0.2,0.5,0.3c0.3,0.1,0.4,0.2,0.4,0.6
		c0,0.6,0,1.2,0,1.9c0,0.2,0,0.3-0.1,0.5C79,11.5,79,11.8,79.1,12c0.1,0.3,0.2,0.7,0.2,1c-0.1,0.3-0.1,0.6-0.3,0.9
		c-0.2,0.3-0.3,0.6-0.4,0.9c-0.1,0.3-0.1,0.6-0.1,0.9c0,0.2-0.1,0.4-0.1,0.6c-0.1,0.4-0.1,0.8-0.2,1.1c-0.1,0.3-0.1,0.6-0.4,0.8
		c-0.1,0.1-0.1,0.3-0.1,0.4c0.1,0.5-0.3,0.9-0.5,1.2c-0.1,0.2-0.3,0.5-0.4,0.7c-0.1,0.1-0.3,0.2-0.4,0.3C76,21,76,21.2,75.9,21.3
		c-0.2,0.2-0.7,0.9-0.7,1.2c0,0.4-0.3,0.6-0.6,0.7c-0.2,0.1-0.3,0.2-0.5,0.3c-0.3,0.3-0.7,0.6-1.1,0.8c-0.2,0.1-0.3,0.2-0.4,0.4
		c0,0.1-0.2,0.1-0.2,0.1c-0.1,0.1-0.3,0.2-0.4,0.3c-0.3,0.3-0.6,0.5-1,0.5c-0.2,0-0.2,0.1-0.2,0.3c0,0.2-0.1,0.3-0.2,0.4
		c-0.4,0.1-0.9,0.1-1.3,0.1c-0.2,0-0.4,0.1-0.6,0.1c-0.3,0.1-0.6,0.3-0.9,0.3c-0.2,0-0.3,0.3-0.5,0.3c-0.2,0-0.4,0-0.6,0
		c-0.3,0.1-0.6,0.3-0.8,0.5c-0.1,0.1-0.2,0.3-0.3,0.4c-0.1,0.1-0.3,0.2-0.4,0.3c-0.1,0.2-0.1,0.5-0.1,0.8c-0.1,0.6,0,1.1,0.1,1.6
		c0.2,0.8,0,1.6,0.1,2.4c0,0.3-0.1,0.6,0.1,0.9c0.1,0.1-0.1,0.3-0.1,0.4c0,1.3,0,2.5,0,3.8c0,0.1,0,0.2,0,0.2
		c0.3,0.4,0.2,0.9,0.3,1.3c0.1,0.2,0.1,0.5,0.1,0.7c0,0.1,0.1,0.2,0.1,0.3c0.2,0.2,0.3,0.5,0.5,0.6c0.3,0.2,0.5,0.3,0.9,0.3
		c0.3,0,0.6,0,0.9,0c0.3,0,0.5-0.1,0.8-0.1c0.3,0,0.5,0.1,0.8,0c0.4-0.1,0.8-0.2,1.1,0c0,0,0.1,0,0.1,0c0.1,0,0.3-0.1,0.4,0
		c0.6,0.2,1.2,0.3,1.8,0.1c0,0,0.1,0,0.1,0c0.2,0.3,0.4,0.2,0.7,0.2c0.6,0,1.2,0.1,1.7,0.1c0.2,0,0.5,0.2,0.7,0c0,0,0.1,0.1,0.1,0.1
		c0.2,0.1,0.3,0.1,0.5,0c0.2-0.1,0.4-0.3,0.6,0c0,0.1,0.2,0.1,0.3,0.1c0.2,0,0.4-0.1,0.5-0.1c0.2,0.1,0.3,0.1,0.4-0.1
		c0.2,0.1,0.5,0.1,0.6,0.3c0.2,0.2,0.2,0.3,0.2,0.6c0,0.2-0.1,0.3-0.2,0.3c-0.2,0-0.1,0.3-0.3,0.3c-0.1,0-0.3,0.1-0.4,0.2
		c-0.3,0.2-0.6,0.4-0.7,0.7c-0.3,0.5-0.7,1-1.2,1.4c-0.3,0.3-0.5,0.6-0.7,0.8C75.8,46.8,76,47,75.7,47c-0.1,0-0.2,0.2-0.3,0.4
		c-0.1,0.1-0.2,0.2-0.3,0.4c-0.3,0.4-0.5,0.7-0.8,1.1c-0.3,0.4-0.6,0.8-0.9,1.2c-0.2,0.2-0.3,0.4-0.5,0.6c-0.3,0.4-0.6,0.8-1,1.2
		c-0.3,0.4-0.3,0.5,0,0.9c0.2,0.2,0.4,0.4,0.6,0.6c0.2,0.1,0.4,0.4,0.5,0.6c0.3,0.4,0.7,0.7,1,1.1c0.1,0.1,0.4,0.1,0.4,0.4
		c0,0.1,0.2,0.2,0.3,0.3c0.1,0.1,0.3,0.2,0.4,0.4c0.4,0.4,1,0.7,1.5,0.8c0.1,0,0.2,0.1,0.3,0.2c0.2,0.4,0.6,0.6,0.9,0.8
		c0.1,0.1,0.3,0.1,0.4,0.2c0.2,0.1,0.4,0.3,0.4,0.6c0,0.3-0.4,0.5-0.6,0.4c-0.1,0-0.1-0.1-0.2-0.1c-0.6,0.1-1.1-0.3-1.5-0.6
		c-0.1-0.1-0.2-0.1-0.4-0.1c-0.6,0-0.6,0-1.1-0.4c-0.2-0.2-0.4-0.4-0.8-0.4c-0.1,0-0.3-0.1-0.5-0.3c-0.2-0.2-0.5-0.3-0.6-0.7
		c-0.5,0-0.7-0.6-1.2-0.7c-0.1-0.2-0.3-0.3-0.5-0.5c-0.2-0.2-0.4-0.4-0.7-0.6c-0.2-0.1-0.3-0.2-0.4-0.4c0,0-0.1-0.1-0.2,0
		c-0.1,0.1,0.1,0.3-0.1,0.3c-0.1,0-0.2,0.2-0.3,0.2c-0.3,0.4-0.6,0.9-0.7,1.4c-0.3,0.2-0.3,0.6-0.5,0.8c-0.2,0.2-0.3,0.5-0.6,0.6
		c-0.1,0.1-0.3,0.2-0.4,0.4c-0.1,0.1-0.2,0.2-0.2,0.2c-0.1,0.2-0.4-0.1-0.4,0.2c0,0.2-0.1,0.2-0.2,0.3c-0.3,0.4-0.6,0.9-1,1.3
		c-0.1,0.1,0,0.3-0.2,0.4c-0.2,0.1-0.1,0.2-0.2,0.4c0,0.1,0,0.3-0.1,0.3c-0.3,0.2-0.2,0.5-0.4,0.7c-0.1,0,0,0.2,0,0.3
		c0,0.2,0,0.4,0,0.5c0,0.1-0.2,0.3,0,0.4c0,0-0.1,0.2-0.2,0.3c-0.2,0.2-0.4,0.1-0.7,0.1c-0.1,0-0.2-0.1-0.2-0.3
		c-0.1-0.2-0.2-0.4-0.3-0.7c0-0.1,0-0.3,0-0.4c0-0.2,0-0.3-0.2-0.4c-0.3-0.1-0.5-0.3-0.6-0.6c0-0.2-0.2-0.3-0.2-0.4
		c-0.1-0.2-0.3-0.4-0.3-0.6c-0.3-0.1-0.3-0.4-0.5-0.5c-0.2-0.1,0-0.5-0.4-0.5c-0.1-0.4-0.5-0.6-0.6-1c-0.1-0.2-0.4-0.2-0.5-0.5
		c0-0.1-0.1-0.2-0.1-0.2c0-0.1,0-0.3-0.2-0.3c0,0,0,0,0,0c0.1-0.3-0.2-0.4-0.3-0.6c-0.1-0.2-0.2-0.4-0.4-0.6c-0.1-0.1,0-0.4-0.3-0.4
		c0-0.2-0.2-0.3-0.4-0.5c-0.1-0.1-0.3-0.3-0.4-0.4c-0.1-0.1-0.2-0.1-0.3,0c-0.2,0.1-0.4,0.2-0.5,0.3c-0.3,0.3-0.7,0.4-1,0.7
		c-0.1,0-0.1,0.1-0.2,0.1c-0.2,0.2-0.4,0.4-0.6,0.5c-0.2,0.1-0.4,0.4-0.7,0.4c-0.2,0.3-0.5,0.4-0.9,0.5c-0.1,0-0.1,0.1-0.2,0.2
		c-0.1,0.1-0.1,0.2-0.2,0.2c-0.5,0-0.8,0.4-1.3,0.5c-0.1,0-0.3,0.2-0.4,0.3c-0.7,0.3-1.4,0.7-2.2,0.7c-0.2,0-0.4,0.1-0.6,0.1
		c-0.2,0-0.4,0.1-0.5,0.2c-0.2,0.1-0.4,0.1-0.5,0.3c-0.1,0.2-0.6,0-0.8-0.1c-0.1-0.1-0.1-0.2-0.1-0.4C47.1,58.9,47.1,58.7,47.1,58.6
		z M60.1,52.9c0.1,0.2,0.3,0.3,0.4,0.5c0.1,0.2,0.3,0.3,0.4,0.4c0.1,0.2,0.2,0.4,0.3,0.5c0.2,0.2,0.2,0.4,0.5,0.5
		c0.2,0.1,0.1,0.4,0.3,0.6c0.1,0.1,0.1,0.2,0.2,0.3c0.3,0.4,0.7,0.7,1,1.1c0.2,0.2,0.3,0.4,0.3,0.7c0,0.2,0.1,0.2,0.3,0.2
		c0.2-0.1,0.3-0.1,0.5-0.1c0.3,0,0.5-0.2,0.6-0.3c0.1-0.1,0.2-0.3,0.4-0.4c0.1-0.1,0.3-0.4,0.4-0.4c0.2-0.1,0.2-0.3,0.4-0.4
		c0.2,0,0.1-0.3,0.3-0.4c0.1,0,0.2-0.2,0.3-0.4c0.1-0.1,0.2-0.3,0.3-0.4c0.1-0.1,0.3-0.2,0.4-0.4c0.3-0.6,0.8-1,1.2-1.5
		c0.1-0.2,0.2-0.2-0.1-0.4c-0.3-0.3-0.6-0.6-1-0.9c-0.6-0.4-1-0.9-1.4-1.5c-0.5-0.7-1-1.5-1.6-2.1c-0.1-0.1-0.2-0.3-0.3-0.4
		c0-0.1,0-0.2-0.2-0.2c-0.1,0-0.2,0.1-0.3,0.2c0,0,0,0.1,0,0.2c0,0.4-0.4,0.5-0.4,0.9c-0.2,0-0.3,0.1-0.3,0.3
		c-0.1,0.1-0.3,0.2-0.4,0.3c-0.1,0.1-0.2,0.3-0.3,0.4c-0.2,0.1-0.1,0.3-0.2,0.5c-0.3,0.4-0.6,0.8-0.9,1.2c-0.1,0.1-0.2,0.1-0.3,0.2
		C60.7,52.3,60.4,52.6,60.1,52.9z M58.1,50.8c0.4-0.5,0.8-0.8,0.9-1.4c0-0.1,0.1-0.2,0.1-0.2c0.2,0,0.2-0.2,0.3-0.3
		c0.1-0.2,0.2-0.3,0.3-0.5c0.1-0.2,0.2-0.3,0.2-0.5c0.1-0.2,0.3-0.3,0.4-0.5c0,0,0.1-0.1,0.1-0.1c0-0.4,0.2-0.7,0.4-1.1
		c0.1-0.2-0.1-0.5,0.2-0.7c-0.1-0.2,0.2-0.2,0.2-0.3c0-0.3,0.2-0.5,0.3-0.8c-0.2-0.1-0.4-0.3-0.6-0.2c-0.2,0.1-0.4,0.1-0.6,0.1
		c-0.2,0-0.4,0.1-0.6,0.1c-0.1,0-0.1,0.1-0.2,0.1c-0.3,0-0.5,0.1-0.7,0.2c-0.3,0.1-0.5,0.1-0.7,0.3c0,0-0.1,0-0.1,0
		c-0.3,0-0.6,0-0.8-0.1c-0.3-0.1-0.6-0.1-0.9,0.1c-0.1,0.1-0.3,0.1-0.5,0.1c-0.4,0-0.9,0-1.3,0c-0.1,0-0.3,0-0.3-0.1
		c-0.1-0.2-0.3,0-0.4-0.1c-0.3,0-0.7,0-1-0.1c-0.3-0.1-0.5,0.1-0.8,0.2c0.2,0.1,0.4,0.1,0.4,0.4c0,0,0,0.1,0.1,0.1
		c0.1,0.1,0.3,0.2,0.3,0.3c0,0.3,0.2,0.1,0.3,0.2c0.4,0.3,0.8,0.6,1.3,0.7c0,0,0.1,0.1,0.1,0.1c0.1,0.1,0.2,0.3,0.3,0.4
		c0.1,0.1,0.3,0.1,0.4,0.3c0.4,0.6,1,1,1.4,1.6c0.1,0.2,0.4,0.2,0.5,0.4C57.3,50.2,57.8,50.4,58.1,50.8z M66.9,44.5
		c0,0.4-0.1,0.9,0.1,1.3c0.2,0.5,0.4,0.9,0.6,1.4c0.1,0.2,0.1,0.3,0.2,0.5c0.1,0.1,0.3,0.2,0.2,0.4c0.2,0,0.3,0.2,0.3,0.3
		c0.1,0.3,0.3,0.6,0.6,0.8c0.2,0.2,0.4,0.3,0.5,0.6c0.2,0.3,0.4,0.6,0.6,0.8c0,0.1,0.2,0,0.3,0c0.1,0,0.1-0.1,0.1-0.2
		c0.2-0.4,0.4-0.9,0.3-1.4c0-0.4,0.1-0.7,0.4-0.8c0.2-0.1,0.1-0.3,0.3-0.3c0.1-0.1,0.4-0.2,0.4-0.3c0.1-0.3,0.4-0.4,0.6-0.6
		c0.2-0.2,0.3-0.7,0.7-0.7c0.2-0.3,0.4-0.6,0.5-0.9c0.1-0.2-0.1-0.3-0.2-0.3c-0.3,0.1-0.4-0.2-0.7-0.3c-0.1-0.1-0.2-0.1-0.4-0.1
		c-0.2,0-0.4-0.1-0.6-0.2c-0.1,0-0.1-0.1-0.2-0.1c-0.5,0-0.9-0.1-1.4-0.1c-0.1,0-0.2,0-0.2,0c-0.3-0.2-0.6-0.1-0.8-0.1
		c-0.3,0-0.6-0.1-0.9,0C67.9,44.4,67.4,44.4,66.9,44.5z"/>
	<path class="st0" d="M76.4,41.5c0,0,0,0.1,0,0.1c-0.1,0-0.1,0-0.2,0c0,0-0.1,0-0.1-0.1C76.2,41.6,76.3,41.5,76.4,41.5z"/>
</g>
</svg>
